<svg xmlns="http://www.w3.org/2000/svg" xmlns:xlink="http://www.w3.org/1999/xlink" viewBox="0 0 88.5 63.33"><defs><style>.cls-1,.cls-7,.cls-8{fill:none;}.cls-2{clip-path:url(#clip-path);}.cls-3{fill:#3b9945;}.cls-4{fill:#2e70a3;}.cls-5{fill:#fff;}.cls-6{fill:#fcbf33;}.cls-7{stroke:#2e70a3;}.cls-7,.cls-8{stroke-miterlimit:10;stroke-width:3px;}.cls-8{stroke:#3b9945;}</style><clipPath id="clip-path" transform="translate(0 0)"><rect class="cls-1" width="88.5" height="63.33"/></clipPath></defs><g id="Layer_2" data-name="Layer 2"><g id="_120_hours" data-name="120 hours"><g class="cls-2"><path class="cls-3" d="M60.51,52.77H6.66A6.66,6.66,0,0,1,0,46.11v-38C0,4.45,3,3.47,6.66,3.47H60.51c3.68,0,6.66,1,6.66,4.66v38a6.66,6.66,0,0,1-6.66,6.66" transform="translate(0 0)"/><path class="cls-4" d="M0,7A3.43,3.43,0,0,1,3.3,3.47H63.87A3.43,3.43,0,0,1,67.17,7" transform="translate(0 0)"/></g><rect class="cls-4" x="12.19" width="2.47" height="6.94"/><rect class="cls-4" x="53.13" width="2.47" height="6.94"/><rect class="cls-5" x="4.24" y="13.54" width="58.51" height="32.23"/><rect class="cls-6" x="18.93" y="18.86" width="5.73" height="5.73"/><rect class="cls-6" x="18.93" y="26.7" width="5.73" height="5.73"/><rect class="cls-6" x="26.93" y="18.86" width="5.73" height="5.73"/><rect class="cls-6" x="34.9" y="18.86" width="5.73" height="5.73"/><rect class="cls-6" x="42.91" y="18.86" width="5.73" height="5.73"/><rect class="cls-6" x="50.89" y="18.86" width="5.73" height="5.73"/><rect class="cls-6" x="26.93" y="26.79" width="5.73" height="5.73"/><rect class="cls-6" x="34.9" y="26.79" width="5.73" height="5.73"/><rect class="cls-6" x="42.9" y="26.79" width="5.73" height="5.73"/><rect class="cls-6" x="50.88" y="26.79" width="5.73" height="5.73"/><rect class="cls-6" x="18.93" y="34.71" width="5.73" height="5.73"/><rect class="cls-6" x="11.27" y="26.79" width="5.73" height="5.73"/><rect class="cls-6" x="11.27" y="34.71" width="5.73" height="5.73"/><rect class="cls-6" x="26.93" y="34.71" width="5.73" height="5.73"/><rect class="cls-6" x="34.9" y="34.71" width="5.73" height="5.73"/><rect class="cls-6" x="42.9" y="34.71" width="5.73" height="5.73"/><rect class="cls-6" x="50.88" y="34.71" width="5.73" height="5.73"/><g class="cls-2"><path class="cls-5" d="M87,45.46A16.37,16.37,0,1,1,70.63,29.1,16.37,16.37,0,0,1,87,45.46" transform="translate(0 0)"/><circle class="cls-7" cx="70.63" cy="45.46" r="16.37"/></g><polyline class="cls-8" points="74.52 35.69 69.74 44.77 77.71 54.5"/></g></g></svg>