<svg xmlns="http://www.w3.org/2000/svg" viewBox="0 0 92 92"><defs><style>.cls-1{fill:#fff;}.cls-2{fill:#8d8788;}.cls-3{fill:#252021;}.cls-4{fill:#3f6f35;}.cls-5{fill:#5a9542;}</style></defs><g id="Layer_2" data-name="Layer 2"><g id="Consumer_Retail" data-name="Consumer &amp; Retail"><path class="cls-1" d="M46,92A46,46,0,1,0,0,46,46,46,0,0,0,46,92"/><path class="cls-2" d="M24.23,44.19l-1-.89a1.88,1.88,0,0,1-.12-2.76l20.5-20.92a2.17,2.17,0,0,1,2.92-.1l1,.89a1.87,1.87,0,0,1,.12,2.75L27.15,44.08a2.16,2.16,0,0,1-2.92.11"/><path class="cls-3" d="M68.24,42.53l-1,.94a2.18,2.18,0,0,1-2.92,0L43,23.32a1.88,1.88,0,0,1,0-2.75l1-.93a2.15,2.15,0,0,1,2.92,0L68.24,39.78a1.88,1.88,0,0,1,0,2.75"/><path class="cls-4" d="M18.88,42l4.51,22.69a3.34,3.34,0,0,0,3.49,3.16h38.4s2.33.75,2.91-3,4.37-23,4.37-23Z"/><path class="cls-4" d="M74.67,43.08h-57a1.71,1.71,0,0,1-1.75-1.65V37a1.71,1.71,0,0,1,1.75-1.65h57A1.7,1.7,0,0,1,76.41,37v4.39a1.7,1.7,0,0,1-1.74,1.65"/><path class="cls-5" d="M34.58,62.33h-.7a1,1,0,0,1-1-1V46.56a1,1,0,0,1,1-1h.7a1,1,0,0,1,1,1V61.35a1,1,0,0,1-1,1"/><path class="cls-5" d="M40.32,62.33h-.7a1,1,0,0,1-1-1V46.56a1,1,0,0,1,1-1h.7a1,1,0,0,1,1,1V61.35a1,1,0,0,1-1,1"/><path class="cls-5" d="M46.29,62.33h-.7a1,1,0,0,1-1-1V46.56a1,1,0,0,1,1-1h.7a1,1,0,0,1,1,1V61.35a1,1,0,0,1-1,1"/><path class="cls-5" d="M52,62.33h-.7a1,1,0,0,1-1-1V46.56a1,1,0,0,1,1-1H52a1,1,0,0,1,1,1V61.35a1,1,0,0,1-1,1"/><path class="cls-5" d="M57.92,62.33h-.7a1,1,0,0,1-1-1V46.56a1,1,0,0,1,1-1h.7a1,1,0,0,1,1,1V61.35a1,1,0,0,1-1,1"/><path class="cls-5" d="M74.67,43.08h-57a1.71,1.71,0,0,1-1.75-1.65V37a1.71,1.71,0,0,1,1.75-1.65h57A1.7,1.7,0,0,1,76.41,37v4.39a1.7,1.7,0,0,1-1.74,1.65"/><path class="cls-5" d="M34.58,62.33h-.7a1,1,0,0,1-1-1V46.56a1,1,0,0,1,1-1h.7a1,1,0,0,1,1,1V61.35a1,1,0,0,1-1,1"/><path class="cls-5" d="M40.32,62.33h-.7a1,1,0,0,1-1-1V46.56a1,1,0,0,1,1-1h.7a1,1,0,0,1,1,1V61.35a1,1,0,0,1-1,1"/><path class="cls-5" d="M46.29,62.33h-.7a1,1,0,0,1-1-1V46.56a1,1,0,0,1,1-1h.7a1,1,0,0,1,1,1V61.35a1,1,0,0,1-1,1"/><path class="cls-5" d="M52,62.33h-.7a1,1,0,0,1-1-1V46.56a1,1,0,0,1,1-1H52a1,1,0,0,1,1,1V61.35a1,1,0,0,1-1,1"/><path class="cls-5" d="M57.92,62.33h-.7a1,1,0,0,1-1-1V46.56a1,1,0,0,1,1-1h.7a1,1,0,0,1,1,1V61.35a1,1,0,0,1-1,1"/></g></g></svg>