<svg xmlns="http://www.w3.org/2000/svg" xmlns:xlink="http://www.w3.org/1999/xlink" viewBox="0 0 89.52 88.35"><defs><style>.cls-1{fill:none;}.cls-2{clip-path:url(#clip-path);}.cls-3{fill:#fcbf33;}.cls-4{fill:#f2b230;}.cls-5{font-size:42.35px;font-family:AcuminPro-Bold, Acumin Pro;font-weight:700;}.cls-5,.cls-6{fill:#3b9945;}</style><clipPath id="clip-path" transform="translate(0 6.56)"><rect class="cls-1" width="89.52" height="81.79"/></clipPath></defs><g id="Layer_2" data-name="Layer 2"><g id="Allowance"><g class="cls-2"><path class="cls-3" d="M72.48,49.93a28.17,28.17,0,0,1-11.28,4.3c-4.29.69-11.4,1-19.56,2.4-5.89,1.06-9.34,1.7-11.25,2.07a10.31,10.31,0,0,0-3.77,1.53L15,81.79,0,70.87s13-23.34,20.56-31h0c.88-.88,1.81-1.83,2.8-2.86,4.56-4.75,6.87-9.78,20.47,3.56a.82.82,0,0,0,.23.11,13,13,0,0,0,4,1c.36,0,.74.08,1.16.1a38.15,38.15,0,0,1,6.53.94c9.91,2.33,18.34,6.16,16.69,7.2" transform="translate(0 6.56)"/><path class="cls-3" d="M82.28,42.05c2-2.39,7.24-10.91,7.24-10.91s-2-1.23-3.57-.79c-4.7,1.28-10,7.74-10,7.86s-8.13,2.57-12,5.54h0S52.53,40.37,48.1,41.69a4.56,4.56,0,0,0-.74.29,11.72,11.72,0,0,0-2.8,2.23c-3.43,3.53-6.77,9.62-4.35,11.31.6.42,25.77-1,28.6-2.83.66-.44,12.4-9.36,13.47-10.64" transform="translate(0 6.56)"/><path class="cls-4" d="M63.92,43.75c-2.11-1.07-18.43-4.18-19.16-4.5-2.74.32-5.22,2.39-4.88,3.23.46,1.15,2.93,2.24,5.21,2.34,3.06.13,5.45-1.34,7-1.93.7-.27,2.81.44,4.06.27a26.41,26.41,0,0,1,7.77.59" transform="translate(0 6.56)"/><path class="cls-3" d="M39,31.48s22.83,2.46,26.81,1.27c0,0,1.42,3-2.85,5.52s-16.54,2.34-19.31,4.36c-10.38,7.59-18.25,5.25-18.25,5.25s-8.9-18.8,13.6-16.4" transform="translate(0 6.56)"/><text class="cls-5" transform="translate(47.12 35.75)">P</text></g><rect class="cls-6" x="47.17" y="12.25" width="29.27" height="2.9"/><rect class="cls-6" x="47.17" y="16.07" width="29.27" height="2.9"/></g></g></svg>