<svg xmlns="http://www.w3.org/2000/svg" xmlns:xlink="http://www.w3.org/1999/xlink" viewBox="0 0 560 453"><defs><style>.cls-1,.cls-23,.cls-5,.cls-6,.cls-7,.cls-8,.cls-9{fill:none;}.cls-2{font-size:24px;font-family:AcuminPro-Bold, Acumin Pro;font-weight:700;}.cls-2,.cls-3{fill:#231f20;}.cls-3{font-size:12px;font-family:AcuminPro-Semibold, Acumin Pro;font-weight:600;}.cls-4{clip-path:url(#clip-path);}.cls-5{stroke:#4392cf;}.cls-5,.cls-6,.cls-7,.cls-8,.cls-9{stroke-miterlimit:10;}.cls-5,.cls-6,.cls-7,.cls-8{stroke-width:55px;}.cls-6{stroke:#fbc034;}.cls-7{stroke:#306ea3;}.cls-8{stroke:#579442;}.cls-9{stroke:#231f20;}.cls-10{font-size:15px;fill:#251f20;font-family:AbrilText-Regular, Abril Text;}.cls-11{letter-spacing:0.03em;}.cls-12{letter-spacing:0.03em;}.cls-13{letter-spacing:0.03em;}.cls-14{letter-spacing:0.02em;}.cls-15{letter-spacing:0.01em;}.cls-16{letter-spacing:0.03em;}.cls-17{letter-spacing:0.01em;}.cls-18{letter-spacing:0.02em;}.cls-19{letter-spacing:0.01em;}.cls-20{letter-spacing:0.01em;}.cls-21{letter-spacing:0.01em;}.cls-22{letter-spacing:0.02em;}.cls-23{stroke:#e6e6e6;stroke-width:2px;}</style><clipPath id="clip-path"><rect class="cls-1" width="560" height="453"/></clipPath></defs><g id="Layer_2" data-name="Layer 2"><g id="Employee_Breakdown_Age_chart" data-name="Employee Breakdown Age chart"><text class="cls-2" transform="translate(395.21 82.41)">5%</text><text class="cls-3" transform="translate(354.91 99.34)">Baby Boome</text><text class="cls-3" transform="translate(424.87 99.34)">r</text><text class="cls-2" transform="translate(466.49 154.77)">17</text><text class="cls-2" transform="translate(488.54 154.77)">%</text><text class="cls-3" transform="translate(476.95 171.71)">Gen </text><text class="cls-3" transform="translate(502.65 171.71)">Z</text><text class="cls-2" transform="translate(53.46 262.66)">23</text><text class="cls-2" transform="translate(80.27 262.66)">%</text><text class="cls-3" transform="translate(52.35 279.59)">Gen </text><text class="cls-3" transform="translate(78.05 279.59)">X</text><text class="cls-2" transform="translate(53.1 331.38)">55</text><text class="cls-2" transform="translate(80.27 331.38)">%</text><text class="cls-3" transform="translate(52.35 348.31)">Mill</text><text class="cls-3" transform="translate(72.33 348.31)">ennial</text><g class="cls-4"><path class="cls-5" d="M169.87,288.9a124.8,124.8,0,0,1,86.63-141"/><path class="cls-6" d="M256.5,147.91a124.88,124.88,0,0,1,36.07-5.3"/><path class="cls-7" d="M292.57,142.61A124.57,124.57,0,0,1,403.1,209.67"/><path class="cls-8" d="M402.12,207.82A124.6,124.6,0,1,1,169.87,288.9"/></g><path class="cls-9" d="M354.91,159.31H510.05m-234.51-17.7V86.39H430.13M152,267.2H50m137.93,68.72H50"/><text class="cls-10" transform="translate(141.14 37.7)"><tspan class="cls-11">Em</tspan><tspan class="cls-12" x="23.64" y="0">p</tspan><tspan class="cls-13" x="32.92" y="0">l</tspan><tspan class="cls-14" x="37.77" y="0">o</tspan><tspan class="cls-15" x="46.11" y="0">y</tspan><tspan class="cls-11" x="53.8" y="0">ee </tspan><tspan class="cls-16" x="73.24" y="0">b</tspan><tspan class="cls-17" x="82.47" y="0">r</tspan><tspan class="cls-18" x="89.35" y="0">e</tspan><tspan class="cls-11" x="97.2" y="0">a</tspan><tspan class="cls-19" x="105.28" y="0">k</tspan><tspan class="cls-13" x="114" y="0">d</tspan><tspan class="cls-18" x="123.18" y="0">o</tspan><tspan class="cls-11" x="131.59" y="0">w</tspan><tspan class="cls-16" x="143.65" y="0">n </tspan><tspan class="cls-14" x="156.69" y="0">b</tspan><tspan class="cls-12" x="165.7" y="0">y </tspan><tspan class="cls-11" x="177.13" y="0">a</tspan><tspan class="cls-20" x="185.22" y="0">g</tspan><tspan class="cls-13" x="192.9" y="0">e</tspan><tspan class="cls-12" x="200.89" y="0" xml:space="preserve"> g</tspan><tspan class="cls-21" x="212.29" y="0">r</tspan><tspan class="cls-22" x="219.19" y="0">ou</tspan><tspan x="236.95" y="0">p</tspan></text><g class="cls-4"><rect class="cls-23" x="1" y="1" width="558" height="451"/></g></g></g></svg>