<svg xmlns="http://www.w3.org/2000/svg" viewBox="0 0 100.5 100.5"><defs><style>.cls-1{fill:#fff;}.cls-2{fill:#fcbf33;}.cls-3{fill:#1c384a;}.cls-4{fill:#599442;}.cls-5{fill:#4091cf;}</style></defs><g id="Layer_2" data-name="Layer 2"><g id="Our_Customers" data-name="Our Customers"><path class="cls-1" d="M50.25,100.5A50.25,50.25,0,1,0,0,50.25,50.25,50.25,0,0,0,50.25,100.5"/><path class="cls-2" d="M81.92,39.07a9.88,9.88,0,0,0-3.75-7.76h0l0,0-.27-.21,0,0a8.36,8.36,0,0,0-1-.62l0,0-.28-.15-.12-.06-.26-.12L76,30l-.25-.1-.17-.07-.24-.09-.19-.07-.33-.1-.31-.09-.19,0-.26-.05-.2,0-.26-.05-.19,0-.28,0-.19,0-.31,0H72a9.87,9.87,0,0,0-6.86,2.76l-.14.14-.11.11-.22.23-.09.1A9.9,9.9,0,0,0,72,49h.63l.31,0,.19,0,.27,0,.21,0,.23,0,.23-.05.2,0a8,8,0,0,0,1-.28l.06,0,.32-.12.08,0,.32-.13.07,0,.32-.16h0a10.18,10.18,0,0,0,1.66-1.06l0,0a9.89,9.89,0,0,0,3.75-7.77"/><path class="cls-2" d="M29.43,49l.19,0,.27,0,.21,0,.25,0,.21,0,.22-.05.23,0,.1,0,.62-.19.09,0,.3-.12.1,0,.31-.13.08,0,.32-.15,0,0a9.91,9.91,0,0,0,1.68-16.62h0a9.88,9.88,0,0,0-1.33-.88h0L33,30.26l-.11-.05-.26-.13L32.5,30l-.26-.11-.16-.07-.25-.09-.18-.07-.33-.1L31,29.49l-.19,0-.26-.05-.19,0-.27-.05-.19,0-.28,0-.18,0-.32,0H28A9.92,9.92,0,0,0,28,49h1.15l.3,0"/><path class="cls-3" d="M30.45,49h0A11.87,11.87,0,0,0,18.58,60.86V81.92H42.33V60.86A11.88,11.88,0,0,0,30.45,49"/><path class="cls-4" d="M70.05,49h0A11.88,11.88,0,0,0,58.17,60.86V81.92H81.92V60.86A11.87,11.87,0,0,0,70.05,49"/><path class="cls-2" d="M60.86,29.18a10.61,10.61,0,0,0-7.13-10l-.09,0L53.18,19l-.17,0-.23-.06-.25-.06-.24-.05L52,18.71l-.17,0-.39-.05h-.07l-.46,0h-.61a10.61,10.61,0,1,0,0,21.21h.61l.46,0h.07l.39,0,.16,0,.36-.07.22,0,.26-.06.22-.06.2-.06.41-.12.13,0,.28-.1h0l.6-.25,0,0c.3-.14.59-.29.88-.46h0a10.6,10.6,0,0,0,5.31-9.19"/><path class="cls-5" d="M50.08,39.79h0A15.42,15.42,0,0,0,34.66,55.22v26.7H65.51V55.22A15.43,15.43,0,0,0,50.08,39.79"/></g></g></svg>