<svg xmlns="http://www.w3.org/2000/svg" viewBox="0 0 92 92"><defs><style>.cls-1{fill:#fff;}.cls-2{fill:#5a9542;}</style></defs><g id="Layer_2" data-name="Layer 2"><g id="Petrochemicals"><path class="cls-1" d="M46,92A46,46,0,1,0,0,46,46,46,0,0,0,46,92"/><path class="cls-2" d="M44.39,14a125.15,125.15,0,0,1-5.2,16.05,125.6,125.6,0,0,1-8.07,16.59c-4,7.14-3.71,15,.73,19.57,3.33,3.46,8.14,4.2,10.23,4.52,1.78.27,9.4,1.43,15-2.94,5.39-4.21,7.1-12.12,4-19.54A127,127,0,0,1,52.46,33.8,123.77,123.77,0,0,1,44.39,14"/><path class="cls-1" d="M38,46.52a20,20,0,0,1-1,1.79,8.63,8.63,0,0,0-.8,1.94,12.9,12.9,0,0,0-.42,4.33c.2,2.59,1.55,5.2,4.36,6.07a.81.81,0,1,0,.47-1.55c-2.27-.7-3.08-3.1-3.12-5.1A11.47,11.47,0,0,1,38,50.32c.38-1.2,1.21-2.21,1.71-3.38.18-.4-.19-.88-.6-1a.9.9,0,0,0-1.07.57"/></g></g></svg>