<svg id="Layer_1" data-name="Layer 1" xmlns="http://www.w3.org/2000/svg" viewBox="0 0 56.85 73.39">
  <g>
    <g>
      <path id="path8108" d="M21.28,34.37A51.65,51.65,0,0,0,16.77,51.5a4.84,4.84,0,0,1,1.24.23,65.83,65.83,0,0,0,10.36.9,56.69,56.69,0,0,0,11.71-1.47,52,52,0,0,0,14.4-5.74,55.09,55.09,0,0,1-15.87-2.26l-4.72-1.69-2.37-1A54.5,54.5,0,0,1,21.28,34.37Z" fill="#929394"/>
      <path id="path8114" d="M28.37,0a42.78,42.78,0,0,1,7.09,15.66,40.85,40.85,0,0,1,.9,5.19,47.85,47.85,0,0,1-.67,13.86,54,54,0,0,0,16.43-4.62,57.58,57.58,0,0,0-4.28-9.92,47.53,47.53,0,0,0-6.3-9l-.34-.34A50.68,50.68,0,0,0,28.37,0Z" fill="#cd2035"/>
      <path id="path8120" d="M28.37,23a46,46,0,0,0-12.5,6.65,25,25,0,0,0-3.26,2.7,42.53,42.53,0,0,0-10.25,14A54.53,54.53,0,0,0,16.77,51.5a51.65,51.65,0,0,1,4.51-17.13A63.11,63.11,0,0,1,28.37,23ZM18,33.77c.6.14,1.21.26,1.83.38l.78.11-.78-.11c-.62-.11-1.23-.24-1.83-.38Z" fill="#941c28"/>
      <path id="path8126" d="M28.37,0A52.17,52.17,0,0,0,15.65,10.82l-.34.34A55.07,55.07,0,0,1,27.13,21.3,16.52,16.52,0,0,1,28.37,23a51.07,51.07,0,0,1,7.32,11.72,47.85,47.85,0,0,0,.67-13.86,40.85,40.85,0,0,0-.9-5.19A42.78,42.78,0,0,0,28.37,0Z" fill="#e22f31"/>
      <path id="path8132" d="M52.12,30.09a54,54,0,0,1-16.43,4.62,56.43,56.43,0,0,1-14.41-.34,54.5,54.5,0,0,0,10.24,6.09l2.37,1,4.72,1.69a55.09,55.09,0,0,0,15.87,2.26A50.53,50.53,0,0,0,52.12,30.09Z" fill="#b2b4b4"/>
      <path id="path8138" d="M15.31,11.16a58.17,58.17,0,0,0-6.64,9.58,54.25,54.25,0,0,0-3.6,8.45A57,57,0,0,0,2.59,40.57a47.44,47.44,0,0,1,8.22-8.9c1.35-1,2.7-2,4.16-2.93A47.38,47.38,0,0,1,28.37,23a16.52,16.52,0,0,0-1.24-1.69A55.07,55.07,0,0,0,15.31,11.16Z" fill="#5c0e1f"/>
    </g>
    <path id="path8144" d="M40.57,59a11,11,0,0,0-6.85-2.23H27.49V73.39h6.23a11,11,0,0,0,6.85-2.23C43.06,68.92,43,65.08,43,65.08S43.06,61.18,40.57,59ZM38,68.61a6.69,6.69,0,0,1-4.61,1.56h-2V59.94h2A6.48,6.48,0,0,1,38,61.55,5.26,5.26,0,0,1,39.11,65,5.54,5.54,0,0,1,38,68.61ZM11.36,58c-1.71-1.24-4.41-1.24-6-1.24H0V73.39H3.79V68.77H5.4c1.55,0,4.25,0,6-1.3,2.18-1.61,2.18-4.73,2.18-4.73A6.58,6.58,0,0,0,11.36,58Zm-2.64,7a4.34,4.34,0,0,1-2.6.57H3.79V59.94H6.12a4.39,4.39,0,0,1,2.6.62,2.72,2.72,0,0,1,.88,2.18A2.77,2.77,0,0,1,8.72,64.92Zm34.44-8.25v3.27H48V73.39h3.83V59.94h1.4c3,0,3.63-3.27,3.63-3.27Zm-24.43,0H15V73.39H26V70H18.73Z" fill="#d02031" fill-rule="evenodd"/>
  </g>
</svg>
