<svg xmlns="http://www.w3.org/2000/svg" viewBox="0 0 103 103"><defs><style>.cls-1{fill:#fff;}.cls-2{fill:#2e70a3;}.cls-3{fill:#4091cf;}.cls-4{fill:#fcbf33;}.cls-5{fill:#1c384a;}.cls-6{fill:#599442;}</style></defs><g id="Layer_2" data-name="Layer 2"><g id="Providing_Employee_Support" data-name="Providing Employee Support"><path class="cls-1" d="M51.5,103A51.5,51.5,0,1,0,0,51.5,51.5,51.5,0,0,0,51.5,103"/><path class="cls-2" d="M56.31,13.11H47A33.76,33.76,0,0,0,13.27,46.85v9l4.5,6.08V46.85A29.3,29.3,0,0,1,47,17.61h9.3A29.3,29.3,0,0,1,85.55,46.85V61.93L90,55.85v-9A33.75,33.75,0,0,0,56.31,13.11"/><path class="cls-3" d="M69.8,85.39h-9a2.25,2.25,0,1,1,0-4.5h9a6.76,6.76,0,0,0,6.75-6.75v-9a2.25,2.25,0,0,1,4.5,0v9A11.27,11.27,0,0,1,69.8,85.39"/><path class="cls-4" d="M24.52,72.31H20a6.75,6.75,0,0,1-6.74-6.75v-9.3A6.75,6.75,0,0,1,20,49.51h4.5a2.25,2.25,0,0,1,2.25,2.25v18.3a2.25,2.25,0,0,1-2.25,2.25"/><path class="cls-4" d="M83.3,72.31H78.8a2.25,2.25,0,0,1-2.25-2.25V51.76a2.25,2.25,0,0,1,2.25-2.25h4.5A6.75,6.75,0,0,1,90,56.26v9.3a6.75,6.75,0,0,1-6.74,6.75"/><path class="cls-5" d="M56.31,76.39a6.75,6.75,0,1,0,6.75,6.75,6.73,6.73,0,0,0-6.75-6.75"/><path class="cls-6" d="M29,76.8a6.75,6.75,0,0,1-6.75-6.74V51.76a6.75,6.75,0,0,1,13.5,0v18.3A6.75,6.75,0,0,1,29,76.8"/><path class="cls-6" d="M74.3,76.8a6.75,6.75,0,0,1-6.75-6.74V51.76a6.75,6.75,0,0,1,13.5,0v18.3A6.75,6.75,0,0,1,74.3,76.8"/><path class="cls-2" d="M63.06,83.14a6.74,6.74,0,0,1-6.75,6.74V76.39a6.74,6.74,0,0,1,6.75,6.75"/></g></g></svg>