<svg xmlns="http://www.w3.org/2000/svg" viewBox="0 0 92 92"><defs><style>.cls-1{fill:#fff;}.cls-2{fill:#4392cf;}.cls-3{fill:#efeeed;}.cls-4{fill:#306ea3;}</style></defs><g id="Layer_2" data-name="Layer 2"><g id="Real_Estate" data-name="Real Estate"><path class="cls-1" d="M46,92A46,46,0,1,0,0,46,46,46,0,0,0,46,92"/><rect class="cls-2" x="22.06" y="24.1" width="24.45" height="43.8"/><rect class="cls-3" x="25.45" y="27.56" width="5.59" height="4.14"/><rect class="cls-3" x="31.55" y="27.56" width="5.59" height="4.14"/><rect class="cls-3" x="37.65" y="27.56" width="5.59" height="4.14"/><rect class="cls-3" x="25.45" y="35.66" width="5.59" height="4.14"/><rect class="cls-3" x="31.55" y="35.66" width="5.59" height="4.14"/><rect class="cls-3" x="37.65" y="35.66" width="5.59" height="4.14"/><rect class="cls-3" x="25.45" y="43.18" width="5.59" height="4.14"/><rect class="cls-3" x="31.55" y="43.18" width="5.59" height="4.14"/><rect class="cls-3" x="37.65" y="43.18" width="5.59" height="4.14"/><rect class="cls-3" x="25.45" y="50.99" width="5.59" height="4.14"/><rect class="cls-3" x="31.55" y="50.99" width="5.59" height="4.14"/><rect class="cls-3" x="37.65" y="50.99" width="5.59" height="4.14"/><rect class="cls-3" x="28.61" y="58.8" width="5.17" height="9.1"/><rect class="cls-3" x="34.79" y="58.8" width="5.17" height="9.1"/><rect class="cls-4" x="46.51" y="35.66" width="23.43" height="32.24"/><rect class="cls-3" x="49.33" y="39.04" width="5.59" height="4.14"/><rect class="cls-3" x="55.43" y="39.04" width="5.59" height="4.14"/><rect class="cls-3" x="61.53" y="39.04" width="5.59" height="4.14"/><rect class="cls-3" x="49.33" y="45.25" width="5.59" height="4.14"/><rect class="cls-3" x="55.43" y="45.25" width="5.59" height="4.14"/><rect class="cls-3" x="61.53" y="45.25" width="5.59" height="4.14"/><rect class="cls-3" x="49.33" y="51.78" width="5.59" height="4.14"/><rect class="cls-3" x="55.43" y="51.78" width="5.59" height="4.14"/><rect class="cls-3" x="61.53" y="51.78" width="5.59" height="4.14"/><rect class="cls-3" x="52.12" y="58.8" width="5.17" height="9.1"/><rect class="cls-3" x="58.31" y="58.8" width="5.17" height="9.1"/><path class="cls-1" d="M46,92A46,46,0,1,0,0,46,46,46,0,0,0,46,92"/><rect class="cls-2" x="22.06" y="24.1" width="24.45" height="43.8"/><rect class="cls-3" x="25.45" y="27.56" width="5.59" height="4.14"/><rect class="cls-3" x="31.55" y="27.56" width="5.59" height="4.14"/><rect class="cls-3" x="37.65" y="27.56" width="5.59" height="4.14"/><rect class="cls-3" x="25.45" y="35.66" width="5.59" height="4.14"/><rect class="cls-3" x="31.55" y="35.66" width="5.59" height="4.14"/><rect class="cls-3" x="37.65" y="35.66" width="5.59" height="4.14"/><rect class="cls-3" x="25.45" y="43.18" width="5.59" height="4.14"/><rect class="cls-3" x="31.55" y="43.18" width="5.59" height="4.14"/><rect class="cls-3" x="37.65" y="43.18" width="5.59" height="4.14"/><rect class="cls-3" x="25.45" y="50.99" width="5.59" height="4.14"/><rect class="cls-3" x="31.55" y="50.99" width="5.59" height="4.14"/><rect class="cls-3" x="37.65" y="50.99" width="5.59" height="4.14"/><rect class="cls-3" x="28.61" y="58.8" width="5.17" height="9.1"/><rect class="cls-3" x="34.79" y="58.8" width="5.17" height="9.1"/><rect class="cls-4" x="46.51" y="35.66" width="23.43" height="32.24"/><rect class="cls-3" x="49.33" y="39.04" width="5.59" height="4.14"/><rect class="cls-3" x="55.43" y="39.04" width="5.59" height="4.14"/><rect class="cls-3" x="61.53" y="39.04" width="5.59" height="4.14"/><rect class="cls-3" x="49.33" y="45.25" width="5.59" height="4.14"/><rect class="cls-3" x="55.43" y="45.25" width="5.59" height="4.14"/><rect class="cls-3" x="61.53" y="45.25" width="5.59" height="4.14"/><rect class="cls-3" x="49.33" y="51.78" width="5.59" height="4.14"/><rect class="cls-3" x="55.43" y="51.78" width="5.59" height="4.14"/><rect class="cls-3" x="61.53" y="51.78" width="5.59" height="4.14"/><rect class="cls-3" x="52.12" y="58.8" width="5.17" height="9.1"/><rect class="cls-3" x="58.31" y="58.8" width="5.17" height="9.1"/></g></g></svg>