<svg xmlns="http://www.w3.org/2000/svg" viewBox="0 0 100.5 100.5"><defs><style>.cls-1{fill:#fff;}.cls-2{fill:#1c384a;}.cls-3{fill:#fcbf33;}</style></defs><g id="Layer_2" data-name="Layer 2"><g id="Shared_Success" data-name="Shared Success"><path class="cls-1" d="M50.25,100.5A50.25,50.25,0,1,0,0,50.25,50.25,50.25,0,0,0,50.25,100.5"/><path class="cls-2" d="M63.12,71.74,50.25,68,37.38,71.74a1.44,1.44,0,0,0-.15.71v7.69h26V72.45a1.44,1.44,0,0,0-.15-.71"/><path class="cls-2" d="M66.32,78.7a2.69,2.69,0,0,0-.46-.28,2,2,0,0,0-.35-.1,1.58,1.58,0,0,0-.38,0H35.37a1.86,1.86,0,1,0,0,3.72H65.13a1.58,1.58,0,0,0,.38,0,1.42,1.42,0,0,0,.35-.11,2.13,2.13,0,0,0,.46-.27,1.88,1.88,0,0,0,0-2.88"/><path class="cls-3" d="M78.28,28.79A15.86,15.86,0,0,1,65.87,44.13a49.41,49.41,0,0,0,4.6-18.19h7.81Zm-56.06,0V25.94H30a49.43,49.43,0,0,0,4.61,18.2A15.88,15.88,0,0,1,22.22,28.79m57.92-6.57H70.63c0-.63.08-1.22.08-1.86a1.84,1.84,0,0,0-1.86-1.86H31.65a1.84,1.84,0,0,0-1.86,1.86c0,.64.06,1.23.08,1.86H20.36a1.86,1.86,0,0,0-1.86,1.86v4.71A19.55,19.55,0,0,0,37.08,48.16a18.44,18.44,0,0,0,7.55,6.36,27.8,27.8,0,0,1-6.84,16.63,1.27,1.27,0,0,0-.41.59H63.12a1.27,1.27,0,0,0-.41-.59,27.45,27.45,0,0,1-6.84-16.63,18.56,18.56,0,0,0,7.57-6.36A19.55,19.55,0,0,0,82,28.79V24.08a1.86,1.86,0,0,0-1.86-1.86"/><path class="cls-2" d="M55.65,36.36l2.19-2.13a1.47,1.47,0,0,0,.43-.86,1.51,1.51,0,0,0-.23-1,1.46,1.46,0,0,0-1-.64l-3-.44a1.44,1.44,0,0,1-1.1-.79l-1.35-2.74a1.46,1.46,0,0,0-2.62,0l-1.35,2.74a1.44,1.44,0,0,1-1.1.79l-3,.44a1.46,1.46,0,0,0-.81,2.49l2.19,2.13a1.48,1.48,0,0,1,.42,1.29l-.52,3a1.46,1.46,0,0,0,2.12,1.54l2.7-1.42a1.48,1.48,0,0,1,1.36,0l2.55,1.34h0l.15.08a1.28,1.28,0,0,0,.55.16A1.46,1.46,0,0,0,55.77,41a1.67,1.67,0,0,0,0-.31l-.52-3a1.39,1.39,0,0,1,.07-.73,1.43,1.43,0,0,1,.35-.56"/></g></g></svg>