<svg xmlns="http://www.w3.org/2000/svg" viewBox="0 0 100.5 100.5"><defs><style>.cls-1{fill:#fff;}.cls-2{fill:#fcbf33;}.cls-3{fill:#e0a121;}.cls-4{fill:#4091cf;}.cls-5{fill:#599442;}</style></defs><g id="Layer_2" data-name="Layer 2"><g id="Unrelenting_Commitment" data-name="Unrelenting Commitment"><path class="cls-1" d="M50.25,100.5A50.25,50.25,0,1,0,0,50.25,50.25,50.25,0,0,0,50.25,100.5"/><path class="cls-2" d="M77.63,60.68h-5.8l-1.17.9L57.16,72.12l-1.74,1.52a3.4,3.4,0,0,1-4.72-.24l-.08-.09L49.34,72.2A3.38,3.38,0,0,1,44.67,72h0l-.12-.13-2.37-2.72a3.33,3.33,0,0,1-1.81.82,3.46,3.46,0,0,1-3-1.14L35,66.12a3.36,3.36,0,0,1-1.18.68,4.13,4.13,0,0,1-.61.13h0a3.36,3.36,0,0,1-3-1.13l-.63-.72a2.64,2.64,0,0,1-.56-2.42,3.39,3.39,0,0,1,.2-.53,2.7,2.7,0,0,1,.62-.78l6.18-5.28,2.18-1.89,1.08-.94h0A6.45,6.45,0,0,1,38,53l-.21,0-.1,0-.2-.07a1.34,1.34,0,0,1-.26-.09l-.35-.13a2,2,0,0,1-1-2.93l8.58-14.77a3.72,3.72,0,0,1,.43-.61A4.63,4.63,0,0,1,48,32.65L60.2,31.52a4.72,4.72,0,0,1,2.7.58l7.71,4.34h0l2.76-.34L74.58,36l2.13,17.24Z"/><path class="cls-3" d="M73.37,67.43l-.63.72A3.38,3.38,0,0,1,68,68.5l-2.35,2.73a3.38,3.38,0,0,1-4.79.35L58.47,74.3a3.35,3.35,0,0,1-3,1.16,3.4,3.4,0,0,1-1.82-.8l-2.35,2.72a3.39,3.39,0,0,1-4.79.36l-1.75-1.51-2-1.73-4.63-4L33.85,66.8l-.31-.27h0l-4.49-3.87-.13-.11-.22-.19h0L23.89,62l-2.9-.2.88-7.49,2-17.25L27,37.3l4.85.33L33.65,34a3.39,3.39,0,0,1,3.92-1.72l7.3,2,7.35,2a4.57,4.57,0,0,1,3.32,4.93l-.78,6.61,2,1.75,4.69,4.05L63.05,55l2.18,1.88,5.43,4.68,2.43,2.1a2.64,2.64,0,0,1,.28,3.73"/><path class="cls-2" d="M29.09,62.33l-.93,1.23A3,3,0,0,0,33,67.24L33.94,66a3,3,0,1,0-4.85-3.68"/><path class="cls-2" d="M34.77,64.92,33,67.24a3,3,0,0,0,4.85,3.67l1.76-2.32a3,3,0,1,0-4.85-3.67"/><path class="cls-2" d="M40.26,67.75l-2.4,3.16a3,3,0,0,0,4.86,3.68l2.39-3.16a3,3,0,1,0-4.85-3.68"/><path class="cls-2" d="M45.25,71.25l-2.53,3.34a3,3,0,0,0,4.85,3.67l2.53-3.34a3,3,0,1,0-4.85-3.67"/><path class="cls-2" d="M70.61,36.44,62.9,32.1a4.7,4.7,0,0,0-2.7-.58L48,32.65a4.63,4.63,0,0,0-3.58,2.29L35.86,49.71a2,2,0,0,0,1,2.93l.35.13A7.64,7.64,0,0,0,46,50.29L49.28,46s7.9,9.15,16.6-1.54Z"/><path class="cls-4" d="M92,28.5V64.12l-.7.1-2.63.4-7.2.89-.55,0a4.48,4.48,0,0,1-4.44-3.93l-.11-.93h1.23l-.92-7.49L74.58,36l-1.21.15-.1-.78a4.48,4.48,0,0,1,3.9-5L79.84,30l6.75-.83Z"/><path class="cls-5" d="M23.3,30.33l-9.42-1.16L8.47,28.5V63.13a1.23,1.23,0,0,0,1.08,1.22l6.42.79,3,.37.55,0A4.48,4.48,0,0,0,23.89,62c0-.14.05-.27.07-.42L27,37.3l.25-2a4.48,4.48,0,0,0-3.9-5"/></g></g></svg>