<svg xmlns="http://www.w3.org/2000/svg" xmlns:xlink="http://www.w3.org/1999/xlink" viewBox="0 0 109.22 109.22"><defs><style>.cls-1,.cls-7,.cls-8{fill:none;}.cls-2{fill:#fff;}.cls-3{clip-path:url(#clip-path);}.cls-4{fill:#3b9945;}.cls-5{fill:#2e70a3;}.cls-6{fill:#fcbf33;}.cls-7{stroke:#2e70a3;}.cls-7,.cls-8{stroke-miterlimit:10;stroke-width:3px;}.cls-8{stroke:#3b9945;}</style><clipPath id="clip-path"><rect class="cls-1" x="9.87" y="22.55" width="88.5" height="63.33"/></clipPath></defs><g id="Layer_2" data-name="Layer 2"><g id="Reward_Points" data-name="Reward Points"><rect class="cls-2" width="109.22" height="109.22"/><g class="cls-3"><path class="cls-4" d="M70.38,75.32H16.53a6.66,6.66,0,0,1-6.66-6.66v-38c0-3.68,3-4.66,6.66-4.66H70.38C74.06,26,77,27,77,30.68v38a6.66,6.66,0,0,1-6.66,6.66"/><path class="cls-5" d="M9.87,29.57A3.43,3.43,0,0,1,13.17,26H73.75A3.43,3.43,0,0,1,77,29.57"/></g><rect class="cls-5" x="22.06" y="22.55" width="2.47" height="6.94"/><rect class="cls-5" x="63.01" y="22.55" width="2.47" height="6.94"/><rect class="cls-2" x="14.11" y="36.09" width="58.51" height="32.23"/><rect class="cls-6" x="28.8" y="41.42" width="5.73" height="5.73"/><rect class="cls-6" x="28.8" y="49.25" width="5.73" height="5.73"/><rect class="cls-6" x="36.81" y="41.42" width="5.73" height="5.73"/><rect class="cls-6" x="44.78" y="41.42" width="5.73" height="5.73"/><rect class="cls-6" x="52.78" y="41.42" width="5.73" height="5.73"/><rect class="cls-6" x="60.76" y="41.42" width="5.73" height="5.73"/><rect class="cls-6" x="36.8" y="49.34" width="5.73" height="5.73"/><rect class="cls-6" x="44.77" y="49.34" width="5.73" height="5.73"/><rect class="cls-6" x="52.78" y="49.34" width="5.73" height="5.73"/><rect class="cls-6" x="60.76" y="49.34" width="5.73" height="5.73"/><rect class="cls-6" x="28.8" y="57.27" width="5.73" height="5.73"/><rect class="cls-6" x="21.14" y="49.34" width="5.73" height="5.73"/><rect class="cls-6" x="21.14" y="57.27" width="5.73" height="5.73"/><rect class="cls-6" x="36.8" y="57.27" width="5.73" height="5.73"/><rect class="cls-6" x="44.77" y="57.27" width="5.73" height="5.73"/><rect class="cls-6" x="52.78" y="57.27" width="5.73" height="5.73"/><rect class="cls-6" x="60.76" y="57.27" width="5.73" height="5.73"/><g class="cls-3"><path class="cls-2" d="M96.87,68A16.37,16.37,0,1,1,80.51,51.65,16.36,16.36,0,0,1,96.87,68"/><circle class="cls-7" cx="80.51" cy="68.01" r="16.37"/></g><polyline class="cls-8" points="84.4 58.24 79.61 67.32 87.58 77.05"/></g></g></svg>