<svg xmlns="http://www.w3.org/2000/svg" viewBox="0 0 87.28 87.28"><defs><style>.cls-1{fill:#fff;}.cls-2{fill:#1c364a;}.cls-3{fill:#3e6e35;}</style></defs><g id="Layer_2" data-name="Layer 2"><g id="Belief_Aid_icon" data-name="Belief Aid icon"><path class="cls-1" d="M87.28,43.64A43.64,43.64,0,1,1,43.64,0,43.64,43.64,0,0,1,87.28,43.64"/><path class="cls-2" d="M19.46,27.91S21,6.92,43.58,5.58c0,0,20.1-1.79,23.45,22.33L53,43H33.62Z"/><path class="cls-1" d="M24.21,28.13s6-4.43,10.39,0l4.93,14.51h-2.6Z"/><path class="cls-1" d="M37.92,28a8.69,8.69,0,0,1,11.2.54l-4.75,14H42.31Z"/><path class="cls-1" d="M52.16,28s6.63-4,10.67,0L49.48,42.73H47.33Z"/><path class="cls-2" d="M48.05,76.42H38.72a12,12,0,0,1-12-12v-9.6a12,12,0,0,1,12-12h9.33a12,12,0,0,1,12,12v9.6a12,12,0,0,1-12,12"/><rect class="cls-1" x="31.29" y="46.94" width="24.55" height="25"/><polygon class="cls-3" points="40.71 51.8 46.3 51.8 46.3 56.51 50.76 56.51 50.76 62.15 46.2 62.15 46.2 66.56 40.76 66.56 40.76 61.76 36.25 61.76 36.25 56.61 40.7 56.61 40.71 51.8"/></g></g></svg>