<svg xmlns="http://www.w3.org/2000/svg" viewBox="0 0 100.5 100.5"><defs><style>.cls-1{fill:#fff;}.cls-2{fill:#fcbf33;}.cls-3{fill:#599442;}.cls-4{fill:#4091cf;}</style></defs><g id="Layer_2" data-name="Layer 2"><g id="Better_Choices" data-name="Better Choices"><path class="cls-1" d="M50.25,100.5A50.25,50.25,0,1,0,0,50.25,50.25,50.25,0,0,0,50.25,100.5"/><path class="cls-2" d="M40.16,37.72V57.57h-.39a.77.77,0,0,0-.28-.06l-11.22.06v6a2,2,0,0,1-3.38,1.4L9,49.08a2,2,0,0,1,0-2.8L24.89,30.43a2,2,0,0,1,3.38,1.4v5.93l9.14,0Z"/><path class="cls-3" d="M60,77.38V57.52h.38a.64.64,0,0,0,.28.06l11.22-.06v-6a2,2,0,0,1,3.38-1.4L91.08,66a2,2,0,0,1,0,2.8L75.23,84.66a1.94,1.94,0,0,1-1.4.59,2,2,0,0,1-2-2V77.33l-9.14,0Z"/><path class="cls-4" d="M67.89,26.48a2,2,0,0,1-2,2H60V91.85H40.16V28.46H34.21a2,2,0,0,1-1.4-3.38L48.66,9.23a2,2,0,0,1,2.8,0L67.31,25.08a2,2,0,0,1,.58,1.4"/></g></g></svg>