<svg xmlns="http://www.w3.org/2000/svg" xmlns:xlink="http://www.w3.org/1999/xlink" viewBox="0 0 1346.02 388.8"><defs><style>.cls-1,.cls-7{fill:none;}.cls-2{font-size:26.19px;fill:#336fa4;font-family:AcuminPro-Bold, Acumin Pro;}.cls-2,.cls-8{font-weight:700;}.cls-3{font-size:11.52px;fill:#252021;}.cls-3,.cls-5{font-family:AcuminPro-Semibold, Acumin Pro;font-weight:600;}.cls-4{fill:#1a374c;}.cls-5{font-size:20.95px;fill:#fec033;}.cls-6{clip-path:url(#clip-path);}.cls-7{stroke:#1a374c;stroke-miterlimit:10;stroke-width:2px;}.cls-8{font-size:15.72px;fill:#5a9542;font-family:AbrilText-Bold, Abril Text;}</style><clipPath id="clip-path"><rect class="cls-1" width="1346.02" height="388.8"/></clipPath></defs><g id="Layer_2" data-name="Layer 2"><g id="Better_Choices_table" data-name="Better Choices table"><text class="cls-2" transform="translate(82.88 84.74)">85%</text><text class="cls-3" transform="translate(26.72 103.22)">of the products passed 1 criteri</text><text class="cls-3" transform="translate(189.84 103.22)">a</text><text class="cls-2" transform="translate(304.68 84.74)">65%</text><text class="cls-3" transform="translate(244.37 103.22)">of the peroducts passed 2 criteri</text><text class="cls-3" transform="translate(415.65 103.22)">a</text><text class="cls-2" transform="translate(526.4 84.74)">30%</text><text class="cls-3" transform="translate(462.24 103.22)">of the products passed 3 or criteri</text><text class="cls-3" transform="translate(641.23 103.22)">a</text><text class="cls-3" transform="translate(84.22 55.88)">More than</text><text class="cls-3" transform="translate(305.95 55.88)">More than</text><text class="cls-3" transform="translate(527.68 55.88)">More than</text><rect class="cls-4" width="666.32" height="35.13"/><text class="cls-5" transform="translate(199.53 24.62)">URC </text><text class="cls-5" transform="translate(248.88 24.62)">We</text><text class="cls-5" transform="translate(279.53 24.62)">llness and </text><text class="cls-5" transform="translate(382.57 24.62)">Nu</text><text class="cls-5" transform="translate(410.35 24.62)">tritio</text><text class="cls-5" transform="translate(455.74 24.62)">n</text><g class="cls-6"><path class="cls-7" d="M665.3,118.28H443.89V35.61H665.3Zm-221.41,0H222.48V35.61H443.89Zm-221.48,0H1V35.61H222.41Z"/></g><text class="cls-8" transform="translate(68.97 222.53)">Headcount</text><text class="cls-2" transform="translate(55.31 203.79)">5,026,112</text><text class="cls-3" transform="translate(29.67 237.98)">Number of Passengers Carried</text><text class="cls-8" transform="translate(304.2 222.53)">Tonnes</text><text class="cls-2" transform="translate(285.24 203.79)">109,409</text><text class="cls-3" transform="translate(262.47 237.98)">Volume of Cargos Shipped</text><text class="cls-8" transform="translate(527.35 222.53)">Routes</text><text class="cls-2" transform="translate(539.66 203.79)">57</text><rect class="cls-4" y="134.76" width="666.32" height="35.13"/><text class="cls-5" transform="translate(273.3 159.38)">Cebu </text><text class="cls-5" transform="translate(329.52 159.38)">Pa</text><text class="cls-5" transform="translate(354.14 159.38)">cific</text><g class="cls-6"><path class="cls-7" d="M665.3,253H443.89V170.37H665.3Zm-221.41,0H222.48V170.37H443.89Zm-221.48,0H1V170.37H222.41Z"/></g><text class="cls-8" transform="translate(767.86 87.77)">MPhp</text><text class="cls-2" transform="translate(756.57 69.03)">9,259</text><text class="cls-3" transform="translate(713.74 103.22)">Financial Inclusion Financing</text><text class="cls-8" transform="translate(989.58 87.77)">MPhp</text><text class="cls-2" transform="translate(977.28 69.03)">16,119</text><text class="cls-3" transform="translate(916.07 103.22)">Countryside Development Financing</text><text class="cls-8" transform="translate(1211.31 87.77)">MPhp</text><text class="cls-2" transform="translate(1207.88 69.03)">62.3</text><text class="cls-3" transform="translate(1173.93 103.22)">Banking the Unbanke</text><text class="cls-3" transform="translate(1288.46 103.22)">d</text><rect class="cls-4" x="679.7" width="666.32" height="35.13"/><text class="cls-5" transform="translate(935.47 24.62)">Robinsons Bank</text><g class="cls-6"><path class="cls-7" d="M1345,118.28H1123.59V35.61H1345Zm-221.41,0H902.19V35.61h221.4Zm-221.48,0H680.7V35.61H902.11Z"/></g><text class="cls-8" transform="translate(762.17 222.53)">Tonnes</text><text class="cls-2" transform="translate(741.3 203.79)">925,506</text><text class="cls-3" transform="translate(753.79 237.98)">Products Sol</text><text class="cls-3" transform="translate(821.68 237.98)">d</text><text class="cls-2" transform="translate(985.64 214.26)">73%</text><text class="cls-3" transform="translate(955.19 232.74)">Products Sold Locall</text><text class="cls-3" transform="translate(1064.71 232.74)">y</text><text class="cls-2" transform="translate(1207.42 214.26)">27%</text><text class="cls-3" transform="translate(1157.3 232.74)">Products Sold Internationally</text><rect class="cls-4" x="679.7" y="134.76" width="666.32" height="35.13"/><text class="cls-5" transform="translate(884.87 159.38)">JGS </text><text class="cls-5" transform="translate(927.41 159.38)">Pe</text><text class="cls-5" transform="translate(951.98 159.38)">tr</text><text class="cls-5" transform="translate(967.05 159.38)">ochemical</text><text class="cls-5" transform="translate(1066.17 159.38)">s Group</text><g class="cls-6"><path class="cls-7" d="M1345,253H1123.59V170.37H1345Zm-221.41,0H902.19V170.37h221.4Zm-221.48,0H680.7V170.37H902.11Z"/></g><text class="cls-8" transform="translate(46.47 357.29)">Transaction/Day</text><text class="cls-2" transform="translate(71.46 338.55)">31,883</text><text class="cls-3" transform="translate(22.81 372.74)">Lingkod Pinoy Daily Transactions</text><text class="cls-8" transform="translate(298.2 357.29)">Hectares</text><text class="cls-2" transform="translate(309.58 338.55)">256</text><text class="cls-3" transform="translate(262.26 372.74)">Land Area for 2 Townships</text><text class="cls-8" transform="translate(533.26 357.29)">Sq. m</text><text class="cls-2" transform="translate(512.38 338.55)">63,003</text><text class="cls-3" transform="translate(490.77 372.74)">Area for Transport Hubs</text><rect class="cls-4" y="269.52" width="666.32" height="35.13"/><text class="cls-5" transform="translate(195.7 294.14)">Robinsons Land Corpor</text><text class="cls-5" transform="translate(423.39 294.14)">atio</text><text class="cls-5" transform="translate(459.56 294.14)">n</text><g class="cls-6"><path class="cls-7" d="M665.3,387.8H443.89V305.13H665.3Zm-221.41,0H222.48V305.13H443.89Zm-221.48,0H1V305.13H222.41Z"/></g></g></g></svg>