<svg xmlns="http://www.w3.org/2000/svg" viewBox="0 0 134.28 97.83"><defs><style>.cls-1{fill:#ededed;}.cls-2{fill:#599442;}</style></defs><g id="Layer_2" data-name="Layer 2"><g id="Build_Community_icons" data-name="Build Community icons"><path class="cls-1" d="M32.4,73.78a6,6,0,1,1,6-6,6,6,0,0,1-6,6m.27-20.63L6,68.2V97.83H26.2V80.48H38.61V97.83H59V68.2L32.67,53.15"/><polygon class="cls-2" points="30.68 48.92 0 66.87 3.44 72.75 32.41 55.81 61.37 72.75 64.81 66.87 34.13 48.92 30.68 48.92"/><path class="cls-1" d="M67.82,24.87a6,6,0,1,1,6-6,6,6,0,0,1-6,6m.27-20.64L41.36,19.28V48.92H61.62V31.56H74V48.92H94.43V19.28l-26.34-15"/><polygon class="cls-2" points="96.78 23.84 67.82 6.89 38.86 23.84 35.42 17.95 66.1 0 69.54 0 100.23 17.95 96.78 23.84"/><path class="cls-1" d="M101.88,73.78a6,6,0,1,1,6-6,6,6,0,0,1-6,6m.26-20.63L75.42,68.2V97.83H95.67V80.48h12.41V97.83h20.4V68.2L102.14,53.15"/><polygon class="cls-2" points="100.15 48.92 69.47 66.87 72.91 72.75 101.88 55.81 130.84 72.75 134.28 66.87 103.6 48.92 100.15 48.92"/></g></g></svg>