<svg xmlns="http://www.w3.org/2000/svg" viewBox="0 0 63.13 57.75"><defs><style>.cls-1{fill:#4392cf;}.cls-2{fill:#efeeed;}.cls-3{fill:#306ea3;}</style></defs><g id="Layer_2" data-name="Layer 2"><g id="Business_Partners" data-name="Business Partners"><rect class="cls-1" width="32.24" height="57.75"/><rect class="cls-2" x="4.47" y="4.56" width="7.38" height="5.46"/><rect class="cls-2" x="12.51" y="4.56" width="7.38" height="5.46"/><rect class="cls-2" x="20.55" y="4.56" width="7.38" height="5.46"/><rect class="cls-2" x="4.47" y="15.24" width="7.38" height="5.46"/><rect class="cls-2" x="12.51" y="15.24" width="7.38" height="5.46"/><rect class="cls-2" x="20.55" y="15.24" width="7.38" height="5.46"/><rect class="cls-2" x="4.47" y="25.16" width="7.38" height="5.46"/><rect class="cls-2" x="12.51" y="25.16" width="7.38" height="5.46"/><rect class="cls-2" x="20.55" y="25.16" width="7.38" height="5.46"/><rect class="cls-2" x="4.47" y="35.46" width="7.38" height="5.46"/><rect class="cls-2" x="12.51" y="35.46" width="7.38" height="5.46"/><rect class="cls-2" x="20.55" y="35.46" width="7.38" height="5.46"/><rect class="cls-2" x="8.63" y="45.76" width="6.82" height="12"/><rect class="cls-2" x="16.79" y="45.76" width="6.82" height="12"/><rect class="cls-3" x="32.24" y="15.24" width="30.89" height="42.51"/><rect class="cls-2" x="35.95" y="19.7" width="7.38" height="5.46"/><rect class="cls-2" x="43.99" y="19.7" width="7.38" height="5.46"/><rect class="cls-2" x="52.04" y="19.7" width="7.38" height="5.46"/><rect class="cls-2" x="35.95" y="27.89" width="7.38" height="5.46"/><rect class="cls-2" x="43.99" y="27.89" width="7.38" height="5.46"/><rect class="cls-2" x="52.04" y="27.89" width="7.38" height="5.46"/><rect class="cls-2" x="35.95" y="36.5" width="7.38" height="5.46"/><rect class="cls-2" x="43.99" y="36.5" width="7.38" height="5.46"/><rect class="cls-2" x="52.04" y="36.5" width="7.38" height="5.46"/><rect class="cls-2" x="39.64" y="45.76" width="6.82" height="12"/><rect class="cls-2" x="47.79" y="45.76" width="6.82" height="12"/></g></g></svg>