<svg id="Layer_1" data-name="Layer 1" xmlns="http://www.w3.org/2000/svg" viewBox="0 0 585.33 452">
  <g>
    <rect x="431.83" y="336.5" width="110" height="16" fill="#fabe31"/>
    <rect x="235.83" y="224.5" width="110" height="110" fill="#fabe31"/>
    <rect x="39.83" y="244.5" width="110" height="100" fill="#fabe31"/>
    <rect x="431.83" y="294.5" width="110" height="42" fill="#1c384a"/>
    <rect x="431.83" y="236.5" width="110" height="58" fill="#589342"/>
    <rect x="235.83" y="152.5" width="110" height="72" fill="#1c384a"/>
    <rect x="235.83" y="67.5" width="110" height="85" fill="#589342"/>
    <rect x="39.83" y="201.5" width="110" height="43" fill="#1c384a"/>
    <rect x="39.83" y="104.5" width="110" height="97" fill="#589342"/>
    <rect x="39.83" y="344.5" width="110" height="35" fill="#ec1e24"/>
    <rect x="235.83" y="334.5" width="110" height="45" fill="#ec1e24"/>
    <rect x="431.83" y="352.5" width="110" height="26" fill="#ec1e24"/>
    <g>
      <path d="M233.05,447.33v4.29h-1.92V441.25h4.39c2.22,0,3.41,1.21,3.41,2.83a2.43,2.43,0,0,1-1.61,2.44c.63.2,1.4.77,1.4,2.61v.48a8,8,0,0,0,.15,2H237a7.38,7.38,0,0,1-.2-2.29v-.18c0-1.24-.33-1.82-2.07-1.82Zm0-1.57h2c1.35,0,1.89-.51,1.89-1.49s-.6-1.45-1.82-1.45h-2.08Z" fill="#231e21"/>
      <path d="M241,441.25h1.94V450h5.25l-.22,1.6h-7Z" fill="#231e21"/>
    </g>
    <path d="M258,448.52a4.07,4.07,0,0,1-4.35,3.24c-3.22,0-4.78-2.33-4.78-5.28s1.59-5.39,4.87-5.39c2.64,0,4,1.55,4.26,3.29h-1.95a2.24,2.24,0,0,0-2.38-1.72c-2,0-2.79,1.79-2.79,3.76s.72,3.79,2.85,3.79a2.29,2.29,0,0,0,2.32-1.69Z" fill="#231e21"/>
    <g>
      <path d="M400,447.33v4.29h-1.92V441.25h4.4c2.22,0,3.4,1.21,3.4,2.83a2.42,2.42,0,0,1-1.6,2.44c.63.2,1.39.77,1.39,2.61v.48a8,8,0,0,0,.15,2h-1.86a7.45,7.45,0,0,1-.19-2.29v-.18c0-1.24-.33-1.82-2.07-1.82Zm0-1.57h2c1.35,0,1.89-.51,1.89-1.49s-.6-1.45-1.81-1.45H400Z" fill="#231e21"/>
      <path d="M407.89,441.25h4.35c2.4,0,3.37,1.25,3.37,2.64a2.3,2.3,0,0,1-1.38,2.24,2.52,2.52,0,0,1,1.7,2.4c0,1.85-1.44,3.09-3.56,3.09h-4.48Zm4.09,4.17c1.22,0,1.7-.51,1.7-1.34s-.6-1.31-1.59-1.31h-2.28v2.65Zm-2.17,4.67H412c1.25,0,1.92-.54,1.92-1.6s-.61-1.55-2-1.55h-2.1Z" fill="#231e21"/>
      <path d="M423.79,449.74a16.76,16.76,0,0,0,.1,1.88h-1.78a3.51,3.51,0,0,1-.12-.84,2.29,2.29,0,0,1-2.24,1,2.36,2.36,0,0,1-2.62-2.39c0-1.74,1.39-2.56,3.66-2.56H422v-.52c0-.6-.2-1.23-1.35-1.23s-1.23.47-1.34,1h-1.78c.1-1.26.9-2.41,3.19-2.39,2,0,3.11.8,3.11,2.6ZM422,448h-1c-1.37,0-2,.41-2,1.28a1.12,1.12,0,0,0,1.25,1.14c1.53,0,1.72-1.05,1.72-2.19Z" fill="#231e21"/>
      <path d="M425.86,445.85c0-.66,0-1.35,0-1.93h1.8a7.3,7.3,0,0,1,.08,1.08,2.34,2.34,0,0,1,2.29-1.26c1.52,0,2.57,1,2.57,3v4.92h-1.86v-4.7c0-1-.35-1.66-1.37-1.66s-1.63.71-1.63,2.14v4.22h-1.86Z" fill="#231e21"/>
      <path d="M436.46,447.31c.6-.77,1.85-2.16,2.91-3.39h2.16l-2.76,2.93,3,4.77h-2.13l-2.16-3.57-1.05,1v2.56H434.6v-11h1.86Z" fill="#231e21"/>
    </g>
    <g>
      <path d="M495.5,446.39c0,2.88-1.69,5.38-5,5.38s-4.89-2.36-4.89-5.34,1.83-5.34,5-5.34C493.61,441.09,495.5,443.25,495.5,446.39Zm-7.9,0c0,2.1,1,3.78,2.95,3.78s2.93-1.77,2.93-3.75-.9-3.72-3-3.72S487.6,444.31,487.6,446.39Z" fill="#231e21"/>
      <path d="M496.43,443.92h1.23v-2.15h1.86v2.15h1.58v1.42h-1.58v4.05c0,.64.18.91.84.91a3.7,3.7,0,0,0,.56,0v1.31a4.67,4.67,0,0,1-1.35.15c-1.4,0-1.91-.75-1.91-2.07v-4.32h-1.23Z" fill="#231e21"/>
    </g>
    <g>
      <path d="M504.4,440.66v4.25a2.46,2.46,0,0,1,2.28-1.17c1.36,0,2.58.79,2.58,2.95v4.93h-1.85V447c0-1.12-.42-1.72-1.39-1.72-1.26,0-1.62.91-1.62,2.23v4.13h-1.86v-11Z" fill="#231e21"/>
      <path d="M512.69,448.16c0,1.16.59,2.16,1.74,2.16a1.41,1.41,0,0,0,1.52-.95h1.87a3.3,3.3,0,0,1-3.45,2.43c-2.49,0-3.55-1.92-3.55-3.93,0-2.38,1.21-4.13,3.64-4.13,2.6,0,3.47,1.93,3.47,3.76a4.72,4.72,0,0,1,0,.66Zm3.36-1.18c0-1-.46-1.88-1.6-1.88s-1.61.78-1.71,1.88Z" fill="#231e21"/>
      <path d="M519.46,446c0-.87,0-1.51,0-2.08h1.83c0,.17.05.9.05,1.42a2.54,2.54,0,0,1,2.52-1.6v1.79c-1.56,0-2.52.55-2.52,2.6v3.49h-1.86Z" fill="#231e21"/>
      <path d="M526.42,449.34a1.46,1.46,0,0,0,1.6,1.08c.9,0,1.25-.34,1.25-.88s-.35-.83-1.56-1.12c-2.42-.59-2.83-1.34-2.83-2.41s.79-2.27,3-2.27,3,1.22,3.11,2.29h-1.79c-.07-.36-.33-1-1.39-1-.84,0-1.1.39-1.1.79s.27.66,1.58,1c2.49.57,2.89,1.42,2.89,2.57s-1,2.39-3.21,2.39-3.19-1.09-3.37-2.46Z" fill="#231e21"/>
    </g>
    <g>
      <path d="M88.89,77v1.91a24.61,24.61,0,0,0-4.17,9.94H82.07a23.32,23.32,0,0,1,4.2-9.72H80.68V77Z" fill="#231e21"/>
      <path d="M90,88.8v-.16c0-2.07.92-3.75,3.49-5.62,1.68-1.22,2.18-1.64,2.18-2.68s-.5-1.61-1.49-1.61c-1.18,0-1.59.72-1.75,1.75H90a3.9,3.9,0,0,1,4.24-3.74c3,0,4.08,1.81,4.08,3.58s-.75,2.56-2.93,4.09c-1.46,1-2,1.71-2.25,2.25h5.62l-.33,2.14Z" fill="#231e21"/>
    </g>
    <g>
      <path d="M100.84,88.8V85.63h2.76V88.8Z" fill="#231e21"/>
      <path d="M107.4,88.8V79.94a7.86,7.86,0,0,1-2.15.52V78.54a5.48,5.48,0,0,0,2.94-1.61H110V88.8Z" fill="#231e21"/>
    </g>
    <g>
      <path d="M87.74,157.62v-.12c0-1.62.82-3,2.92-4.58,1.46-1.09,1.89-1.46,1.89-2.39A1.31,1.31,0,0,0,91.14,149c-1,0-1.47.62-1.62,1.6H87.71a3.18,3.18,0,0,1,3.43-3.06c2.43,0,3.29,1.48,3.29,2.92s-.62,2.11-2.43,3.43c-1.28.93-1.85,1.57-2,2.12H94.8l-.24,1.57Z" fill="#fff"/>
      <path d="M102.51,149.3h-4c-.08.62-.27,1.76-.35,2.2a2.68,2.68,0,0,1,1.88-.63,3,3,0,0,1,3,3.29,3.34,3.34,0,0,1-3.6,3.64c-1.89,0-3.27-1-3.51-2.72h1.88a1.59,1.59,0,0,0,1.68,1.27c1.12,0,1.68-.83,1.68-2s-.44-1.94-1.65-1.94a1.59,1.59,0,0,0-1.7,1.1l-1.69-.24c.27-1.26.69-4.15.84-5.48h5.8Z" fill="#fff"/>
    </g>
    <g>
      <path d="M90.86,228.62v-7.7a6.71,6.71,0,0,1-1.88.58v-1.42a4.86,4.86,0,0,0,2.43-1.36h1.34v9.9Z" fill="#fff"/>
      <path d="M94.8,228.62v-.12c0-1.62.83-3.05,2.93-4.59,1.45-1.08,1.89-1.46,1.89-2.39A1.31,1.31,0,0,0,98.21,220c-1,0-1.47.62-1.62,1.59H94.77a3.18,3.18,0,0,1,3.44-3.06c2.43,0,3.28,1.49,3.28,2.93s-.61,2.11-2.43,3.43A5.41,5.41,0,0,0,97,227h4.85l-.24,1.58Z" fill="#fff"/>
    </g>
    <g>
      <path d="M87.66,299.61v-.11c0-1.63.83-3.05,2.93-4.59,1.45-1.08,1.89-1.46,1.89-2.39A1.31,1.31,0,0,0,91.07,291c-1,0-1.47.62-1.62,1.6H87.63a3.18,3.18,0,0,1,3.44-3.06c2.43,0,3.28,1.48,3.28,2.92s-.61,2.11-2.43,3.43a5.41,5.41,0,0,0-2,2.12h4.85l-.24,1.57Z" fill="#231e21"/>
      <path d="M101,292.06A1.28,1.28,0,0,0,99.6,291c-1.44,0-1.84,1.35-1.9,2.94a2.69,2.69,0,0,1,2.32-1.08,3,3,0,0,1,3.08,3.29,3.39,3.39,0,0,1-3.53,3.64c-2.82,0-3.72-2.2-3.72-5,0-2.61.9-5.23,3.84-5.23a2.83,2.83,0,0,1,3.12,2.49Zm.22,4.24c0-1-.37-1.95-1.68-1.95-1.05,0-1.71.63-1.71,1.89a1.83,1.83,0,0,0,1.7,2.05C100.71,298.29,101.22,297.38,101.22,296.3Z" fill="#231e21"/>
    </g>
    <path d="M93.74,365.25a1.37,1.37,0,0,0,1.5,1.06c1.56,0,1.72-2,1.77-3.15a2.44,2.44,0,0,1-2.16.95A3,3,0,0,1,91.71,361a3.28,3.28,0,0,1,3.53-3.37c2.67,0,3.61,2.07,3.61,4.57,0,2.71-.66,5.62-3.7,5.62a3,3,0,0,1-3.29-2.52Zm-.14-4.39a1.6,1.6,0,0,0,1.64,1.79c1.09,0,1.65-.57,1.65-1.74a1.66,1.66,0,0,0-1.65-1.86A1.6,1.6,0,0,0,93.6,360.86Z" fill="#fff"/>
    <g>
      <path d="M278,44.4A3.16,3.16,0,0,1,280,41.55a2.66,2.66,0,0,1-1.46-2.47c0-2,1.46-3.34,4.12-3.34,2.45,0,4.05,1.26,4.05,3.31a2.36,2.36,0,0,1-1.51,2.38,3.09,3.09,0,0,1,1.93,2.88c0,2.45-1.95,3.71-4.65,3.71C280,48,278,46.74,278,44.4Zm6.5-.13c0-1.17-.81-1.71-2-1.71s-2,.7-2,1.69a1.79,1.79,0,0,0,2,1.77A1.67,1.67,0,0,0,284.5,44.27Zm-3.58-5.1c0,.8.58,1.34,1.67,1.34s1.62-.4,1.62-1.34-.59-1.45-1.65-1.45S280.92,38.24,280.92,39.17Z" fill="#231e21"/>
      <path d="M288.55,47.8v-.16c0-2.07.92-3.75,3.49-5.62,1.68-1.22,2.18-1.64,2.18-2.68s-.5-1.6-1.49-1.6c-1.17,0-1.59.72-1.75,1.74H288.5a3.88,3.88,0,0,1,4.23-3.74c3,0,4.08,1.82,4.08,3.58s-.75,2.56-2.93,4.09c-1.46,1-2.05,1.71-2.25,2.25h5.62l-.33,2.14Z" fill="#231e21"/>
    </g>
    <g>
      <path d="M299.22,47.8V44.63H302V47.8Z" fill="#231e21"/>
      <path d="M303.58,44.4a3.16,3.16,0,0,1,1.94-2.85,2.67,2.67,0,0,1-1.45-2.47c0-2,1.45-3.34,4.12-3.34,2.45,0,4.05,1.26,4.05,3.31a2.36,2.36,0,0,1-1.51,2.38,3.09,3.09,0,0,1,1.92,2.88c0,2.45-1.94,3.71-4.64,3.71C305.58,48,303.58,46.74,303.58,44.4Zm6.5-.13c0-1.17-.81-1.71-2-1.71s-1.95.7-1.95,1.69a1.78,1.78,0,0,0,2,1.77A1.67,1.67,0,0,0,310.08,44.27Zm-3.58-5.1c0,.8.57,1.34,1.67,1.34s1.62-.4,1.62-1.34-.59-1.45-1.66-1.45S306.5,38.24,306.5,39.17Z" fill="#231e21"/>
    </g>
    <g>
      <path d="M360.91,30.72v-.2c0-2.53,1.12-4.58,4.27-6.86,2-1.5,2.66-2,2.66-3.28s-.62-2-1.83-2c-1.43,0-1.93.88-2.13,2.13h-3A4.75,4.75,0,0,1,366,16c3.72,0,5,2.22,5,4.38s-.93,3.12-3.59,5c-1.78,1.25-2.51,2.09-2.75,2.75h6.87l-.4,2.62Z" fill="#2e71a3"/>
      <path d="M384.23,23.39c0,4-1.25,7.59-5.57,7.59s-5.54-3.49-5.54-7.5,1.45-7.5,5.61-7.5S384.23,19.28,384.23,23.39Zm-7.88.05c0,2.66.31,5,2.36,5S381,26.25,381,23.42s-.35-4.93-2.24-4.93S376.35,20.31,376.35,23.44Z" fill="#2e71a3"/>
      <path d="M386.1,30.72v-.2c0-2.53,1.12-4.58,4.27-6.86,2-1.5,2.66-2,2.66-3.28s-.62-2-1.83-2c-1.43,0-1.93.88-2.13,2.13h-3A4.75,4.75,0,0,1,391.2,16c3.72,0,5,2.22,5,4.38s-.93,3.12-3.59,5c-1.78,1.25-2.51,2.09-2.75,2.75h6.87l-.4,2.62Z" fill="#2e71a3"/>
      <path d="M409.42,23.39c0,4-1.25,7.59-5.57,7.59s-5.54-3.49-5.54-7.5,1.45-7.5,5.61-7.5S409.42,19.28,409.42,23.39Zm-7.88.05c0,2.66.31,5,2.36,5s2.26-2.23,2.26-5.06-.35-4.93-2.24-4.93S401.54,20.31,401.54,23.44Z" fill="#2e71a3"/>
    </g>
    <g>
      <path d="M287.72,115.62v-.12c0-1.62.83-3,2.93-4.58,1.45-1.09,1.89-1.46,1.89-2.39a1.31,1.31,0,0,0-1.41-1.49c-1.05,0-1.47.62-1.62,1.6h-1.82a3.18,3.18,0,0,1,3.44-3.06c2.43,0,3.28,1.48,3.28,2.92s-.61,2.11-2.43,3.43a5.41,5.41,0,0,0-2,2.12h4.85l-.24,1.57Z" fill="#fff"/>
      <path d="M296,108.23a3,3,0,0,1,3.35-2.65c2.2,0,3.19,1.27,3.19,2.63a2.07,2.07,0,0,1-1.24,2v0a2.39,2.39,0,0,1,1.65,2.43c0,1.47-.92,3.1-3.62,3.1-2.5,0-3.43-1.53-3.55-2.85h1.83a1.67,1.67,0,0,0,1.78,1.4,1.55,1.55,0,0,0,1.67-1.68c0-1-.59-1.62-1.8-1.62h-.83v-1.46h.72c1.1,0,1.55-.39,1.55-1.28a1.23,1.23,0,0,0-1.41-1.27,1.34,1.34,0,0,0-1.5,1.19Z" fill="#fff"/>
    </g>
    <g>
      <path d="M290.69,192.62v-7.7a6.55,6.55,0,0,1-1.87.58v-1.42a4.9,4.9,0,0,0,2.43-1.36h1.33v9.9Z" fill="#fff"/>
      <path d="M294.62,189.8a2.65,2.65,0,0,1,1.68-2.43A2.22,2.22,0,0,1,295,185.3c0-1.62,1.17-2.73,3.33-2.73,2,0,3.24,1.07,3.24,2.71a2,2,0,0,1-1.31,2,2.59,2.59,0,0,1,1.67,2.46c0,2-1.58,3.06-3.75,3.06C296.23,192.8,294.62,191.7,294.62,189.8Zm5.46-.09c0-1.06-.7-1.59-1.78-1.59s-1.8.66-1.8,1.59a1.63,1.63,0,0,0,1.83,1.62A1.54,1.54,0,0,0,300.08,189.71Zm-3.27-4.35c0,.72.5,1.24,1.52,1.24s1.48-.4,1.48-1.23a1.32,1.32,0,0,0-1.5-1.35C297.29,184,296.81,184.52,296.81,185.36Z" fill="#fff"/>
    </g>
    <g>
      <path d="M287.59,282.62v-.12c0-1.62.82-3.05,2.92-4.59,1.46-1.08,1.89-1.46,1.89-2.39A1.31,1.31,0,0,0,291,274c-1.05,0-1.47.62-1.62,1.59h-1.81a3.18,3.18,0,0,1,3.43-3.06c2.43,0,3.29,1.49,3.29,2.93s-.62,2.11-2.43,3.43c-1.28.93-1.85,1.56-2,2.11h4.84l-.24,1.58Z" fill="#231e21"/>
      <path d="M295.73,279.8a2.65,2.65,0,0,1,1.68-2.43,2.22,2.22,0,0,1-1.27-2.07c0-1.62,1.17-2.73,3.33-2.73,2,0,3.24,1.07,3.24,2.71a2,2,0,0,1-1.31,2,2.59,2.59,0,0,1,1.67,2.46c0,2-1.58,3.06-3.75,3.06C297.34,282.8,295.73,281.7,295.73,279.8Zm5.46-.09c0-1.06-.7-1.59-1.78-1.59s-1.8.66-1.8,1.59a1.63,1.63,0,0,0,1.83,1.62A1.54,1.54,0,0,0,301.19,279.71Zm-3.27-4.35c0,.72.5,1.24,1.52,1.24s1.48-.4,1.48-1.23a1.32,1.32,0,0,0-1.5-1.35C298.4,274,297.92,274.52,297.92,275.36Z" fill="#231e21"/>
    </g>
    <g>
      <path d="M290.84,361.62v-7.69a6.53,6.53,0,0,1-1.87.57v-1.41a5.06,5.06,0,0,0,2.43-1.36h1.33v9.89Z" fill="#fff"/>
      <path d="M294.79,361.62v-.12c0-1.62.82-3,2.92-4.58,1.46-1.09,1.89-1.46,1.89-2.39a1.31,1.31,0,0,0-1.41-1.49c-1.05,0-1.47.62-1.62,1.6h-1.81a3.18,3.18,0,0,1,3.43-3.06c2.43,0,3.29,1.48,3.29,2.92s-.62,2.11-2.43,3.43c-1.28.93-1.85,1.57-2,2.12h4.84l-.24,1.57Z" fill="#fff"/>
    </g>
    <g>
      <path d="M472.11,215c.16-1.46,1.19-3.26,4.16-3.26,2.73,0,4,1.54,4,3.22a2.5,2.5,0,0,1-1.48,2.41v0a2.81,2.81,0,0,1,1.93,2.85c0,1.71-1,3.74-4.43,3.74-3.19,0-4.27-1.9-4.37-3.47h2.5a1.78,1.78,0,0,0,1.94,1.49,1.64,1.64,0,0,0,1.78-1.8c0-1.09-.57-1.76-1.94-1.76h-1.08v-2H476c1.17,0,1.66-.4,1.66-1.39,0-.81-.49-1.37-1.51-1.37a1.43,1.43,0,0,0-1.62,1.27Z" fill="#231e21"/>
      <path d="M489.93,212v1.91a24.63,24.63,0,0,0-4.18,9.94h-2.64a23.44,23.44,0,0,1,4.19-9.72h-5.58V212Z" fill="#231e21"/>
    </g>
    <g>
      <path d="M489.46,223.8v-3.17h2.75v3.17Z" fill="#231e21"/>
      <path d="M493.85,215c.16-1.46,1.19-3.26,4.16-3.26,2.74,0,4,1.54,4,3.22a2.51,2.51,0,0,1-1.47,2.41v0a2.82,2.82,0,0,1,1.92,2.85c0,1.71-1,3.74-4.43,3.74-3.18,0-4.26-1.9-4.37-3.47h2.5a1.78,1.78,0,0,0,1.95,1.49,1.65,1.65,0,0,0,1.78-1.8c0-1.09-.58-1.76-2-1.76h-1.08v-2h1c1.17,0,1.65-.4,1.65-1.39,0-.81-.48-1.37-1.51-1.37A1.44,1.44,0,0,0,496.3,215Z" fill="#231e21"/>
    </g>
    <g>
      <path d="M482.71,273.62v-7.69a6.53,6.53,0,0,1-1.87.57v-1.41a5.06,5.06,0,0,0,2.43-1.36h1.33v9.89Z" fill="#fff"/>
      <path d="M493.27,265.3h-4c-.08.62-.27,1.76-.35,2.2a2.68,2.68,0,0,1,1.88-.63,3,3,0,0,1,3,3.29,3.34,3.34,0,0,1-3.6,3.64c-1.89,0-3.27-1-3.5-2.72h1.87a1.59,1.59,0,0,0,1.68,1.27c1.12,0,1.68-.83,1.68-2s-.44-1.94-1.65-1.94a1.59,1.59,0,0,0-1.7,1.1l-1.69-.24c.27-1.26.69-4.15.84-5.48h5.8Z" fill="#fff"/>
    </g>
    <g>
      <path d="M484.18,323.62v-7.7a6.55,6.55,0,0,1-1.87.58v-1.42a4.9,4.9,0,0,0,2.43-1.36h1.33v9.9Z" fill="#fff"/>
      <path d="M490,323.62v-7.7a6.71,6.71,0,0,1-1.88.58v-1.42a4.86,4.86,0,0,0,2.43-1.36h1.34v9.9Z" fill="#fff"/>
    </g>
    <path d="M488.19,349.61v-2.32h-4.52v-1.65l4.25-5.89h2v6h1.22l-.18,1.53h-1v2.32Zm0-5.86c0-1,0-1.69,0-2.33-.39.82-1.89,2.94-2.86,4.34h2.82Z" fill="#231e21"/>
    <path d="M490.67,360.75v1.41a21,21,0,0,0-3.6,8.45h-1.92a20.41,20.41,0,0,1,3.6-8.3H484v-1.56Z" fill="#fff"/>
    <g>
      <path d="M55.67,400.6v-.14c0-1.72.76-3.12,2.91-4.68,1.39-1,1.81-1.36,1.81-2.23s-.42-1.34-1.25-1.34-1.31.6-1.45,1.46H55.62a3.23,3.23,0,0,1,3.52-3.12c2.54,0,3.41,1.52,3.41,3s-.63,2.14-2.45,3.41c-1.21.85-1.7,1.42-1.87,1.87h4.68l-.27,1.79Z" fill="#231e21"/>
      <path d="M71.56,395.6c0,2.72-.85,5.18-3.79,5.18S64,398.39,64,395.67s1-5.12,3.82-5.12S71.56,392.8,71.56,395.6Zm-5.37,0c0,1.82.21,3.44,1.61,3.44s1.54-1.52,1.54-3.45-.24-3.36-1.53-3.36S66.19,393.5,66.19,395.63Z" fill="#231e21"/>
      <path d="M74.64,400.6v-7.38a6.8,6.8,0,0,1-1.79.44v-1.61a4.53,4.53,0,0,0,2.45-1.34h1.53v9.89Z" fill="#231e21"/>
      <path d="M81,398.15a1.25,1.25,0,0,0,1.36,1c1.4,0,1.55-1.69,1.61-2.78a2.5,2.5,0,0,1-2.06.82A3,3,0,0,1,78.75,394a3.31,3.31,0,0,1,3.63-3.4c2.79,0,3.73,2.15,3.73,4.59,0,2.77-.7,5.62-3.81,5.62a3.12,3.12,0,0,1-3.42-2.63Zm-.12-4.29a1.45,1.45,0,0,0,1.51,1.62c1,0,1.47-.48,1.47-1.57a1.49,1.49,0,0,0-1.5-1.68A1.45,1.45,0,0,0,80.91,393.86Z" fill="#231e21"/>
      <path d="M93.58,398.21l-.79,2.39H90.58l3.51-10.34H96.9l3.67,10.34H98.22l-.86-2.39Zm3.3-1.83c-.73-2.19-1.2-3.58-1.45-4.51h0c-.25,1-.76,2.64-1.35,4.51Z" fill="#231e21"/>
      <path d="M108.42,398.09a3.22,3.22,0,0,1-3.48,2.69c-2.42,0-3.66-1.67-3.66-4s1.39-4.12,3.76-4.12a3.06,3.06,0,0,1,3.38,2.76h-2.09a1.21,1.21,0,0,0-1.33-1.07c-1,0-1.55.86-1.55,2.36,0,1.66.6,2.41,1.53,2.41a1.33,1.33,0,0,0,1.34-1Z" fill="#231e21"/>
      <path d="M109,392.83h1.2v-2.1h2.15v2.1h1.53v1.62h-1.53v3.84c0,.58.18.81.82.81a4.1,4.1,0,0,0,.48,0v1.47a4.65,4.65,0,0,1-1.44.15c-1.51,0-2-.81-2-2.17v-4.08H109Z" fill="#231e21"/>
    </g>
    <g>
      <path d="M122.17,398.35c0,.73,0,1.56,0,2.25h-2.1c0-.21,0-.63-.06-.9a2.23,2.23,0,0,1-2.15,1.08c-1.57,0-2.58-1-2.58-2.88v-5.07h2.15v4.63c0,.86.27,1.56,1.2,1.56s1.38-.52,1.38-2v-4.14h2.14Z" fill="#231e21"/>
      <path d="M130.56,398.59a18.9,18.9,0,0,0,.1,2h-2a3,3,0,0,1-.11-.77,2.28,2.28,0,0,1-2.19.95,2.39,2.39,0,0,1-2.65-2.43c0-1.77,1.41-2.6,3.69-2.6h1.11v-.46c0-.56-.2-1.1-1.2-1.1s-1.11.38-1.2.95h-2c.1-1.38,1-2.49,3.33-2.49,2.07,0,3.21.82,3.21,2.68Zm-2.1-1.53h-.87c-1.31,0-1.79.4-1.79,1.15a1,1,0,0,0,1.13,1c1.36,0,1.53-1,1.53-2Z" fill="#231e21"/>
      <path d="M132.5,400.6v-11h2.16v11Z" fill="#231e21"/>
    </g>
    <path d="M149.83,101.71h-110v-3h110Zm196-37h-110v-3h110Z" fill="#3f6f35"/>
    <rect x="236.33" y="54" width="110" height="5" fill="#edeced"/>
    <rect x="61.33" y="440" width="12" height="12" fill="#ec1e24"/>
    <rect x="138.33" y="440" width="12" height="12" fill="#fabe31"/>
    <rect x="215.33" y="440" width="12" height="12" fill="#1c384a"/>
    <rect x="289.33" y="440" width="12" height="12" fill="#589342"/>
    <rect x="382.33" y="440" width="12" height="12" fill="#3f6f35"/>
    <rect x="469.33" y="440" width="12" height="12" fill="#edeced"/>
    <rect y="378.5" width="585.33" height="1" fill="#231e21"/>
    <path d="M563.83,419.5h-361V0h361Zm-360-1h359V1h-359Z" fill="#4090ce"/>
    <g>
      <path d="M80.66,440.84v6.21c0,2.15,1.14,2.76,2.32,2.76,1.38,0,2.3-.7,2.3-2.76v-6.21h2V447c0,3.49-2,4.41-4.28,4.41s-4.24-1-4.24-4.35v-6.17Z" fill="#241f1f"/>
      <path d="M91.62,446.93v4.29H89.7V440.84h4.4c2.22,0,3.4,1.22,3.4,2.84a2.42,2.42,0,0,1-1.6,2.44c.63.2,1.39.77,1.39,2.61v.48a8,8,0,0,0,.15,2H95.58a7.45,7.45,0,0,1-.19-2.29v-.18c0-1.25-.33-1.82-2.07-1.82Zm0-1.57h2c1.35,0,1.89-.51,1.89-1.49s-.6-1.45-1.81-1.45H91.62Z" fill="#241f1f"/>
      <path d="M108.18,448.12a4.07,4.07,0,0,1-4.35,3.24c-3.22,0-4.78-2.33-4.78-5.28s1.59-5.39,4.87-5.39c2.64,0,4,1.55,4.26,3.29h-2a2.25,2.25,0,0,0-2.38-1.73c-2,0-2.79,1.8-2.79,3.77s.72,3.79,2.85,3.79a2.29,2.29,0,0,0,2.32-1.69Z" fill="#241f1f"/>
    </g>
    <g>
      <path d="M163.44,448.12a4.07,4.07,0,0,1-4.35,3.24c-3.22,0-4.78-2.33-4.78-5.28s1.59-5.39,4.87-5.39c2.64,0,4,1.55,4.26,3.29h-1.95a2.25,2.25,0,0,0-2.38-1.73c-2,0-2.79,1.8-2.79,3.77s.72,3.79,2.85,3.79a2.29,2.29,0,0,0,2.32-1.69Z" fill="#241f1f"/>
      <path d="M172.22,446.62h-5v3h5.54l-.24,1.6h-7.2V440.84h7.15v1.62h-5.25V445h5Z" fill="#241f1f"/>
      <path d="M174.45,440.84h4.35c2.4,0,3.38,1.26,3.38,2.65a2.31,2.31,0,0,1-1.38,2.24,2.52,2.52,0,0,1,1.69,2.4c0,1.85-1.44,3.09-3.55,3.09h-4.49Zm4.1,4.17c1.21,0,1.69-.51,1.69-1.33s-.6-1.31-1.59-1.31h-2.28V445Zm-2.18,4.68h2.21c1.24,0,1.92-.54,1.92-1.6s-.62-1.55-2-1.55h-2.1Z" fill="#241f1f"/>
    </g>
    <g>
      <path d="M309.21,448c0,2.37-.82,3.37-2.91,3.37a6,6,0,0,1-1.3-.12v-1.56a9,9,0,0,0,1,.06c1.11,0,1.28-.76,1.28-1.63v-7.28h1.93Z" fill="#241f1f"/>
      <path d="M320.52,451.22h-1.44a6.6,6.6,0,0,1-.16-1.15,3.52,3.52,0,0,1-3.09,1.32c-3,0-4.65-2.28-4.65-5.23,0-3.11,1.77-5.47,5-5.47,2.58,0,4.13,1.44,4.4,3.24h-1.94a2.32,2.32,0,0,0-2.49-1.68c-2.22,0-2.95,1.83-2.95,3.81s.79,3.75,2.94,3.75a2.29,2.29,0,0,0,2.49-2.61v-.1h-2.49v-1.6h4.39Z" fill="#241f1f"/>
      <path d="M324.17,448.24a2.07,2.07,0,0,0,2.34,1.63c1.33,0,1.89-.57,1.89-1.41s-.5-1.35-2.39-1.78c-2.68-.65-3.43-1.6-3.43-3,0-1.71,1.27-3,3.69-3,2.65,0,3.72,1.48,3.87,2.93h-2c-.13-.74-.57-1.44-2-1.44-1,0-1.64.43-1.64,1.26s.5,1.14,2.22,1.55c3,.7,3.6,1.84,3.6,3.25,0,1.81-1.36,3.12-4,3.12s-3.92-1.34-4.16-3.12Z" fill="#241f1f"/>
      <path d="M332.19,440.84h4.17c2.15,0,3.6,1.2,3.6,3.16,0,2.17-1.62,3.22-3.66,3.22h-2.16v4h-1.95Zm1.95,4.8h1.95c1.17,0,1.91-.49,1.91-1.6s-.81-1.62-1.85-1.62h-2Z" fill="#241f1f"/>
      <path d="M350.69,451.22h-1.44a5.65,5.65,0,0,1-.17-1.15,3.5,3.5,0,0,1-3.09,1.32c-3,0-4.65-2.28-4.65-5.23,0-3.11,1.77-5.47,5-5.47,2.58,0,4.12,1.44,4.39,3.24H348.8a2.33,2.33,0,0,0-2.49-1.68c-2.22,0-3,1.83-3,3.81s.8,3.75,2.94,3.75a2.29,2.29,0,0,0,2.49-2.61v-.1h-2.49v-1.6h4.4Z" fill="#241f1f"/>
    </g>
    <g>
      <path d="M246.92,395c0,2.88-1.7,5.38-5,5.38S237,398,237,395s1.83-5.34,5-5.34C245,389.69,246.92,391.85,246.92,395ZM239,395c0,2.1,1,3.78,3,3.78,2.13,0,2.92-1.77,2.92-3.75s-.9-3.72-2.95-3.72S239,392.91,239,395Z" fill="#241f1f"/>
      <path d="M248.6,394.6c0-.87,0-1.52,0-2.09h1.83c0,.18.05.91.05,1.43a2.56,2.56,0,0,1,2.52-1.61v1.8c-1.56,0-2.52.54-2.52,2.6v3.49H248.6Z" fill="#241f1f"/>
      <path d="M254.24,391.08v-1.82h1.86v1.82Zm0,1.43h1.86v7.71h-1.86Z" fill="#241f1f"/>
      <path d="M264.93,399.37c0,2.47-1,4-3.73,4s-3.27-1.49-3.36-2.42h1.89a1.42,1.42,0,0,0,1.54,1c1.52,0,1.83-.93,1.83-2.53V399a2.29,2.29,0,0,1-2.25,1.17c-2,0-3.19-1.62-3.19-3.77,0-2.44,1.45-4.05,3.36-4.05,1.38,0,2,.65,2.08,1.05,0-.25.06-.73.08-.87H265c0,.6,0,1.48,0,2.22Zm-3.57-.74c1.41,0,1.8-1,1.8-2.4s-.3-2.38-1.75-2.38c-1.1,0-1.83.87-1.83,2.46C259.58,397.73,260.31,398.63,261.36,398.63Z" fill="#241f1f"/>
      <path d="M266.94,391.08v-1.82h1.86v1.82Zm0,1.43h1.86v7.71h-1.86Z" fill="#241f1f"/>
      <path d="M270.86,394.45c0-.66,0-1.35,0-1.94h1.8a7.51,7.51,0,0,1,.08,1.08,2.36,2.36,0,0,1,2.29-1.26c1.52,0,2.57,1,2.57,3v4.92h-1.86v-4.71c0-1-.35-1.65-1.37-1.65s-1.63.71-1.63,2.14v4.22h-1.86Z" fill="#241f1f"/>
      <path d="M285.71,398.33a16.82,16.82,0,0,0,.1,1.89H284a3.51,3.51,0,0,1-.12-.84,2.29,2.29,0,0,1-2.24,1,2.36,2.36,0,0,1-2.62-2.4c0-1.74,1.39-2.55,3.66-2.55h1.17v-.52c0-.6-.2-1.23-1.35-1.23s-1.23.47-1.34,1h-1.78c.1-1.26.9-2.41,3.19-2.4,2,0,3.11.81,3.11,2.61Zm-1.82-1.71h-1c-1.37,0-2,.41-2,1.28a1.12,1.12,0,0,0,1.25,1.14c1.53,0,1.72-1.05,1.72-2.19Z" fill="#241f1f"/>
      <path d="M287.76,400.22v-11h1.86v11Z" fill="#241f1f"/>
      <path d="M295.61,389.84H300c2.4,0,3.37,1.26,3.37,2.65a2.3,2.3,0,0,1-1.38,2.24,2.52,2.52,0,0,1,1.7,2.4c0,1.85-1.44,3.09-3.56,3.09h-4.48ZM299.7,394c1.22,0,1.7-.51,1.7-1.33s-.6-1.31-1.59-1.31h-2.28V394Zm-2.17,4.68h2.2c1.25,0,1.92-.54,1.92-1.6s-.61-1.55-2-1.55h-2.1Z" fill="#241f1f"/>
      <path d="M311.82,398c0,.75,0,1.64,0,2.25H310c0-.21,0-.64-.06-1a2.24,2.24,0,0,1-2.19,1.15c-1.48,0-2.56-.85-2.56-2.85v-5h1.86v4.67c0,.9.27,1.68,1.32,1.68s1.57-.61,1.57-2.27v-4.08h1.86Z" fill="#241f1f"/>
      <path d="M320.75,389.26v8.82c0,.72,0,1.42,0,2.14H319c0-.22-.07-.69-.07-.9a2.35,2.35,0,0,1-2.28,1.08c-1.95,0-3.2-1.57-3.2-4s1.32-4.11,3.5-4.11a2.12,2.12,0,0,1,2,.83v-3.9Zm-3.62,9.63c1.58,0,1.82-1.26,1.82-2.56,0-1.46-.24-2.48-1.76-2.48-1.2,0-1.86.94-1.86,2.53S316,398.89,317.13,398.89Z" fill="#241f1f"/>
      <path d="M329.55,399.37c0,2.47-1,4-3.73,4s-3.28-1.49-3.36-2.42h1.89a1.42,1.42,0,0,0,1.54,1c1.52,0,1.83-.93,1.83-2.53V399a2.29,2.29,0,0,1-2.25,1.17c-2,0-3.19-1.62-3.19-3.77,0-2.44,1.45-4.05,3.35-4.05,1.38,0,1.95.65,2.09,1.05,0-.25.06-.73.07-.87h1.78c0,.6,0,1.48,0,2.22Zm-3.57-.74c1.41,0,1.8-1,1.8-2.4s-.3-2.38-1.75-2.38c-1.1,0-1.83.87-1.83,2.46C324.2,397.73,324.93,398.63,326,398.63Z" fill="#241f1f"/>
      <path d="M333,396.76c0,1.16.58,2.16,1.74,2.16a1.4,1.4,0,0,0,1.51-.95h1.88a3.31,3.31,0,0,1-3.45,2.43c-2.5,0-3.56-1.92-3.56-3.93,0-2.38,1.22-4.14,3.64-4.14,2.6,0,3.47,1.94,3.47,3.77a4.72,4.72,0,0,1,0,.66Zm3.35-1.18c0-1-.46-1.88-1.6-1.88s-1.61.78-1.71,1.88Z" fill="#241f1f"/>
      <path d="M338.93,392.51h1.23v-2.14H342v2.14h1.57v1.43H342V398c0,.64.18.91.84.91a3.63,3.63,0,0,0,.55,0v1.31a4.67,4.67,0,0,1-1.35.15c-1.39,0-1.9-.75-1.9-2.07v-4.32h-1.23Z" fill="#241f1f"/>
    </g>
    <g>
      <path d="M468.72,397.84l-.79,2.38h-2.21l3.51-10.33H472l3.67,10.33h-2.35l-.86-2.38ZM472,396c-.73-2.19-1.2-3.59-1.45-4.51h0c-.25,1-.76,2.63-1.35,4.51Z" fill="#241f1f"/>
      <path d="M483.53,397.72a3.21,3.21,0,0,1-3.48,2.68c-2.42,0-3.66-1.66-3.66-4s1.39-4.13,3.76-4.13a3.07,3.07,0,0,1,3.38,2.76h-2.09a1.21,1.21,0,0,0-1.33-1.06c-1,0-1.55.86-1.55,2.36,0,1.66.6,2.41,1.53,2.41a1.34,1.34,0,0,0,1.34-1Z" fill="#241f1f"/>
      <path d="M484.26,392.45h1.2v-2.1h2.15v2.1h1.53v1.63h-1.53v3.84c0,.58.18.8.82.8h.48v1.47a4.65,4.65,0,0,1-1.44.15c-1.51,0-2-.81-2-2.18v-4.07h-1.2Z" fill="#241f1f"/>
      <path d="M497.15,398c0,.74,0,1.56,0,2.25h-2.1c0-.21,0-.63-.06-.9a2.21,2.21,0,0,1-2.14,1.08c-1.58,0-2.58-1-2.58-2.88v-5.07h2.14v4.64c0,.85.27,1.56,1.2,1.56s1.38-.53,1.38-2.06v-4.14h2.15Z" fill="#241f1f"/>
      <path d="M505.53,398.21a15.94,15.94,0,0,0,.11,2h-2.06a3,3,0,0,1-.1-.76,2.31,2.31,0,0,1-2.19.94,2.39,2.39,0,0,1-2.66-2.43c0-1.77,1.41-2.59,3.69-2.59h1.11v-.46c0-.56-.19-1.1-1.2-1.1s-1.11.37-1.2.94h-2c.11-1.38,1-2.49,3.33-2.49,2.07,0,3.21.83,3.21,2.69Zm-2.1-1.53h-.87c-1.3,0-1.78.41-1.78,1.16a1,1,0,0,0,1.12,1c1.37,0,1.53-.95,1.53-2Z" fill="#241f1f"/>
      <path d="M507.47,400.22v-11h2.16v11Z" fill="#241f1f"/>
    </g>
  </g>
</svg>
