<svg id="Layer_1" data-name="Layer 1" xmlns="http://www.w3.org/2000/svg" viewBox="0 0 126.78 126.78">
  <g>
    <path d="M126.78,63.39A63.39,63.39,0,1,1,63.39,0a63.39,63.39,0,0,1,63.39,63.39" fill="#4391ce"/>
    <path d="M103.19,96.13H23.39a4.71,4.71,0,0,1-4.72-4.71V35.36a4.72,4.72,0,0,1,4.72-4.72h79.8a4.71,4.71,0,0,1,4.71,4.72V91.42a4.71,4.71,0,0,1-4.71,4.71" fill="#fff"/>
    <path d="M18.67,35.36a4.56,4.56,0,0,1,4.38-4.72h80.48a4.56,4.56,0,0,1,4.37,4.72" fill="#3c9b46"/>
    <rect x="31.13" y="26.03" width="2.51" height="9.23" fill="#316ea2"/>
    <rect x="92.34" y="26.03" width="2.51" height="9.23" fill="#316ea2"/>
    <rect x="29.39" y="46.82" width="67.56" height="37.22" fill="#efeded"/>
    <rect x="43.82" y="51.09" width="7.61" height="7.61" fill="#fdc030"/>
    <rect x="54.45" y="51.09" width="7.61" height="7.61" fill="#fdc030"/>
    <rect x="65.04" y="51.09" width="7.61" height="7.61" fill="#fdc030"/>
    <rect x="75.67" y="51.09" width="7.61" height="7.61" fill="#fdc030"/>
    <rect x="86.27" y="51.09" width="7.61" height="7.61" fill="#fdc030"/>
    <rect x="43.81" y="61.62" width="7.61" height="7.61" fill="#fdc030"/>
    <rect x="54.45" y="61.62" width="7.61" height="7.61" fill="#fdc030"/>
    <rect x="65.04" y="61.62" width="7.61" height="7.61" fill="#fdc030"/>
    <rect x="75.67" y="61.62" width="7.61" height="7.61" fill="#fdc030"/>
    <rect x="86.27" y="61.62" width="7.61" height="7.61" fill="#fdc030"/>
    <rect x="43.81" y="72.15" width="7.61" height="7.61" fill="#fdc030"/>
    <rect x="33.65" y="61.62" width="7.61" height="7.61" fill="#fdc030"/>
    <rect x="33.65" y="72.15" width="7.61" height="7.61" fill="#fdc030"/>
    <rect x="54.45" y="72.15" width="7.61" height="7.61" fill="#fdc030"/>
    <rect x="65.04" y="72.15" width="7.61" height="7.61" fill="#fdc030"/>
    <rect x="75.67" y="72.15" width="7.61" height="7.61" fill="#fdc030"/>
    <rect x="86.27" y="72.15" width="7.61" height="7.61" fill="#fdc030"/>
    <path d="M69.2,80.09,66.68,76l1.81-1.12,1.17,1.91,4.37-4,1.44,1.56Zm-21.44,0L45.25,76l1.81-1.12,1.17,1.91,4.37-4L54,74.34Zm31.51,0L76.75,76l1.81-1.12,1.17,1.91,4.37-4,1.44,1.56Zm10.46,0L87.21,76,89,74.88l1.17,1.91,4.37-4L96,74.34Zm-31,0L56.22,76,58,74.88l1.17,1.91,4.37-4L65,74.34Zm-21.32,0L34.9,76l1.81-1.12,1.17,1.91,4.37-4,1.44,1.56ZM90,69.52l-2.52-4.1,1.8-1.11,1.18,1.9,4.37-4,1.43,1.56Zm-52.31,0-2.52-4.1L37,64.31l1.17,1.9,4.37-4L44,63.77Zm21.32,0-2.52-4.1,1.81-1.11,1.17,1.9,4.37-4,1.44,1.56Zm20.53,0L77,65.42l1.81-1.11L80,66.21l4.37-4,1.44,1.56Zm-10.07,0-2.52-4.1,1.8-1.11,1.18,1.9,4.37-4,1.43,1.56ZM48,69.52l-2.52-4.1,1.81-1.11,1.17,1.9,4.37-4,1.44,1.56ZM58.55,58.3,56,54.21l1.81-1.12L59,55l4.37-4,1.44,1.57Zm20.53,0-2.52-4.09,1.81-1.12L79.54,55l4.37-4,1.44,1.57ZM69,58.3l-2.52-4.09,1.81-1.12L69.46,55l4.38-4,1.43,1.57Zm-21.43,0-2.52-4.09,1.81-1.12L48,55l4.37-4,1.44,1.57Zm42,0L87,54.21l1.81-1.12L90,55l4.38-4,1.43,1.57Z" fill="#3c9b46"/>
  </g>
</svg>
