<svg id="Layer_1" data-name="Layer 1" xmlns="http://www.w3.org/2000/svg" viewBox="0 0 126.78 126.78">
  <g>
    <path d="M126.78,63.39A63.39,63.39,0,1,1,63.39,0a63.39,63.39,0,0,1,63.39,63.39" fill="#4391ce"/>
    <path d="M84,117.28H42.81A11.52,11.52,0,0,1,31.57,105.5V26.57A11.52,11.52,0,0,1,42.81,14.79H84A11.52,11.52,0,0,1,95.21,26.57V105.5A11.52,11.52,0,0,1,84,117.28" fill="#316ea2"/>
    <path d="M82.52,114H44.26a9.74,9.74,0,0,1-9.74-9.74V27.14a9.74,9.74,0,0,1,9.74-9.74H82.52a9.74,9.74,0,0,1,9.74,9.74v77.1A9.74,9.74,0,0,1,82.52,114" fill="#fff"/>
    <rect x="51.51" y="22.46" width="23.76" height="3.05" fill="#316ea2"/>
    <path d="M67.79,108a4.4,4.4,0,1,1-4.4-4.4,4.4,4.4,0,0,1,4.4,4.4" fill="#316ea2"/>
    <path d="M61.26,58.2A11.24,11.24,0,1,1,50,47.15,11.15,11.15,0,0,1,61.26,58.2" fill="#fdc030"/>
    <path d="M83.75,58.2A11.25,11.25,0,1,1,72.51,47.15,11.15,11.15,0,0,1,83.75,58.2" fill="#fdc030"/>
    <path d="M40.3,63.74l18,25.11a3.62,3.62,0,0,0,6,0L82.63,63,61.26,58.2Z" fill="#fdc030"/>
    <polygon points="78.97 82.66 74.02 82.66 74.02 75.24 66.98 75.24 66.98 70.28 74.02 70.28 74.02 62.87 78.97 62.87 78.97 70.28 86.78 70.28 86.78 75.24 78.97 75.24 78.97 82.66" fill="#3c9b46"/>
  </g>
</svg>
