<svg id="Layer_1" data-name="Layer 1" xmlns="http://www.w3.org/2000/svg" xmlns:xlink="http://www.w3.org/1999/xlink" viewBox="0 0 126.78 126.78">
  <defs>
    <clipPath id="clip-path">
      <path d="M0,63.39a63.39,63.39,0,0,0,59.52,63.27h7.74a63.4,63.4,0,0,0,59-55.29v-16A63.39,63.39,0,0,0,0,63.39" fill="none"/>
    </clipPath>
  </defs>
  <g>
    <path d="M126.78,63.39A63.39,63.39,0,1,1,63.39,0a63.39,63.39,0,0,1,63.39,63.39" fill="#4391ce"/>
    <g clip-path="url(#clip-path)">
      <rect x="100.82" y="63" width="1.23" height="27.13" transform="translate(-19.62 115.25) rotate(-54.77)" fill="#fdc030"/>
      <path d="M91.1,69.18c-.55.79-4.1-.76-4.88-1.31a1.75,1.75,0,0,1,2-2.86c.79.56,3.43,3.38,2.87,4.17" fill="#fdc030"/>
      <path d="M111.32,83.46c.56-.79,4.1.75,4.89,1.31a1.75,1.75,0,1,1-2,2.85c-.78-.55-3.43-3.37-2.87-4.16" fill="#fdc030"/>
      <path d="M118.84,150.7c-.09-5.57-.64-6.83-.64-6.83C115.55,116.73,93.71,115,93.71,115l-22.55-9.22s-5.53-8.52-3.69-18.66c0,0,10.26,1.61,10.26-5.3s-.35-8.07-.35-8.07,2.81-1,2.47-3.26a1.84,1.84,0,0,0,.52-2.07,14.87,14.87,0,0,1-1.69-5.75s5.06,0,5.19-1.94-8.21-11.07-8.21-11.07,1.72-4.73,1.26-7.38,2.62-21.84-25.23-26c-21.9-3.29-36.49,8.3-39.45,25-2.33,13.14,1.6,25.84,10.34,34.27,11,10.61,1.33,30.24,1.33,30.24L-.92,115s-21.84,1.73-24.49,28.87c0,0-.55,1.26-.64,6.83Z" fill="#316ea2"/>
      <path d="M77.71,60.69a1.91,1.91,0,0,0,1.3-3.1C75.16,52.79,66.5,43.33,58.4,44.07c-10.81,1-12.73,10.08-17,12.53S35.64,70,37,74s3.24,23.74-.3,46H49.11s-3.24-8.26-3.24-26.1S48.23,70.84,55,71s12.69,1.48,15.41.37,5.31.59,5.76-.88-2.88-1.26-4.43-1.26-3.46,1.18-7.67.45-8.4-1.4-11.94-1.11-5.31-2.29-.37-4.72S58.7,60.59,65.93,61a78.32,78.32,0,0,0,11.78-.34" fill="#4391ce"/>
    </g>
  </g>
</svg>
