<svg id="Layer_1" data-name="Layer 1" xmlns="http://www.w3.org/2000/svg" xmlns:xlink="http://www.w3.org/1999/xlink" viewBox="0 0 126.78 126.78">
  <defs>
    <clipPath id="clip-path">
      <path d="M0,63.39a63.39,63.39,0,0,0,59.88,63.29h7a63.4,63.4,0,0,0,59.38-55.31v-16A63.39,63.39,0,0,0,0,63.39" fill="none"/>
    </clipPath>
  </defs>
  <g>
    <path d="M126.78,63.39A63.39,63.39,0,1,1,63.39,0a63.39,63.39,0,0,1,63.39,63.39" fill="#4391ce"/>
    <g clip-path="url(#clip-path)">
      <path d="M94.27,57.17A30.88,30.88,0,1,1,63.39,26.29,30.87,30.87,0,0,1,94.27,57.17" fill="#316ea2"/>
      <polygon points="68.34 74.77 58.44 74.77 58.44 62.13 46.49 62.13 46.49 52.22 58.44 52.22 58.44 39.58 68.34 39.58 68.34 52.22 81.68 52.22 81.68 62.13 68.34 62.13 68.34 74.77" fill="#fff"/>
      <path d="M80.47,102.2a35.68,35.68,0,0,1-14.34,5.47c-5.45.87-14.48,1.2-24.85,3-7.48,1.34-11.87,2.16-14.29,2.62a13,13,0,0,0-4.79,2L7.43,142.68l-19-13.87S4.84,99.15,14.5,89.47h0q1.68-1.68,3.56-3.63c5.79-6,8.73-12.43,26,4.52.07.07.19.08.29.13a16.22,16.22,0,0,0,5.12,1.26q.69.08,1.47.12a49.63,49.63,0,0,1,8.3,1.19c12.59,3,23.3,7.83,21.21,9.15" fill="#fdc030"/>
      <path d="M92.91,92.19c2.53-3,9.2-13.86,9.2-13.86s-2.49-1.56-4.53-1c-6,1.62-12.75,9.82-12.68,10,0,0-10.33,3.27-15.31,7h0s-14.47-4.29-20.1-2.61a5.75,5.75,0,0,0-.94.36A14.93,14.93,0,0,0,45,94.93c-4.36,4.49-8.59,12.23-5.52,14.38.76.53,32.73-1.25,36.33-3.6.85-.55,15.76-11.9,17.11-13.52" fill="#fdc030"/>
      <path d="M69.59,94.35C66.9,93,46.18,89,45.25,88.63c-3.49.41-6.64,3-6.2,4.11.58,1.45,3.72,2.84,6.62,3,3.88.16,6.92-1.7,8.89-2.46.89-.34,3.58.57,5.15.35,4.15-.57,9.47.7,9.88.75" fill="#f3b32d"/>
      <path d="M38,78.76S67,81.89,72,80.38c0,0,1.81,3.85-3.61,7s-21,3-24.53,5.53c-13.19,9.65-23.19,6.68-23.19,6.68S9.37,75.71,38,78.76" fill="#fdc030"/>
    </g>
  </g>
</svg>
