<svg id="Layer_1" data-name="Layer 1" xmlns="http://www.w3.org/2000/svg" xmlns:xlink="http://www.w3.org/1999/xlink" viewBox="0 0 126.78 126.78">
  <defs>
    <clipPath id="clip-path">
      <path d="M126.78,63.39A63.39,63.39,0,1,1,63.39,0a63.39,63.39,0,0,1,63.39,63.39" fill="none"/>
    </clipPath>
  </defs>
  <g clip-path="url(#clip-path)">
    <path d="M126.78,63.39A63.39,63.39,0,1,1,63.39,0a63.39,63.39,0,0,1,63.39,63.39" fill="#4391ce"/>
    <rect x="66.35" y="66.26" width="64.02" height="54.84" fill="#316ea2"/>
    <rect x="79.04" y="59.3" width="17.22" height="4.31" fill="#316ea2"/>
    <rect x="86.89" y="35.8" width="1.08" height="24.86" transform="translate(-9.13 22.82) rotate(-14.14)" fill="#316ea2"/>
    <path d="M27.39,72.43,24.51,73a2,2,0,0,1-2.39-1.59L15.51,38.47a2,2,0,0,1,1.59-2.39L20,35.5a2,2,0,0,1,2.4,1.6L29,70a2,2,0,0,1-1.6,2.39" fill="#316ea2"/>
    <rect x="20.23" y="55.73" width="4.31" height="29.22" fill="#316ea2"/>
    <path d="M51.24,90.37H21.76a3,3,0,0,1-3-3v-2.1a3,3,0,0,1,3-2.95H51.24a3,3,0,0,1,2.94,2.95v2.1a3,3,0,0,1-2.94,3" fill="#316ea2"/>
    <rect x="36.5" y="88.33" width="2.75" height="26.14" fill="#316ea2"/>
    <path d="M62.93,23.28A11.85,11.85,0,1,1,51.08,11.44,11.85,11.85,0,0,1,62.93,23.28" fill="#fff"/>
    <path d="M51.08,35.47A12.19,12.19,0,1,1,63.27,23.28,12.21,12.21,0,0,1,51.08,35.47Zm0-23.68a11.5,11.5,0,1,0,11.5,11.49A11.5,11.5,0,0,0,51.08,11.79Z" fill="#316ea2"/>
    <rect x="45.88" y="106.85" width="2.46" height="20.92" transform="translate(-79.3 118.28) rotate(-68.56)" fill="#316ea2"/>
    <rect x="17.89" y="116.17" width="20.92" height="2.46" transform="translate(-40.94 18.48) rotate(-21.43)" fill="#316ea2"/>
    <path d="M59.42,121.1a2.65,2.65,0,1,1-2.65-2.65,2.64,2.64,0,0,1,2.65,2.65" fill="#316ea2"/>
    <path d="M79.61,56.66l-1.39-.4a1.68,1.68,0,0,1-1.15-2.09l9.46-32.81a1.68,1.68,0,0,1,2.08-1.16l1.39.4a1.7,1.7,0,0,1,1.16,2.09L81.7,55.51a1.69,1.69,0,0,1-2.09,1.15" fill="#e2e3e2"/>
    <polyline points="53.9 16.21 50.44 22.78 56.2 29.82" fill="#fff"/>
    <polygon points="55.94 30.04 50.02 22.82 53.59 16.05 54.21 16.37 50.85 22.74 56.47 29.6 55.94 30.04" fill="#316ea2"/>
    <rect x="63.39" y="63.6" width="69.41" height="5.31" fill="#316ea2"/>
    <path d="M.25,57.73V69.05a63.4,63.4,0,0,0,59.05,57.6h8.18A63.39,63.39,0,1,0,.25,57.73" fill="none"/>
  </g>
</svg>
