<svg xmlns="http://www.w3.org/2000/svg" viewBox="0 0 87.28 87.28"><defs><style>.cls-1{fill:#fff;}.cls-2{fill:#306ea3;}.cls-3{fill:#1c364a;}</style></defs><g id="Layer_2" data-name="Layer 2"><g id="Community_and_Well-being_icon" data-name="Community and Well-being icon"><path class="cls-1" d="M87.28,43.64A43.64,43.64,0,1,1,43.64,0,43.64,43.64,0,0,1,87.28,43.64"/><path class="cls-2" d="M43.58,37.72c-4.57.58-6.79,2.43-7.88,3.68-7.31,8.41,2.51,29.17,8.9,29.09,4.54-.06,8-10.58,8.59-12.24a30.08,30.08,0,0,0,1.43-11.61A9.88,9.88,0,0,0,51,40a10.75,10.75,0,0,0-7.38-2.25"/><path class="cls-3" d="M34.51,41.27a8.89,8.89,0,0,0-11.28-.9A10.16,10.16,0,0,0,20,43.77c-3.75,6.26.47,14.74.79,15.38,1.36,2.64,4,7.71,7.79,7.39,2.66-.23,5.1-3,6.19-6.79a18.72,18.72,0,0,1-.3-18.48"/><path class="cls-3" d="M53.21,40.67a9.38,9.38,0,0,1,5.89-2.49,9,9,0,0,1,7.47,3.45A8.72,8.72,0,0,1,67.79,44,20.56,20.56,0,0,1,68,56.65a14.36,14.36,0,0,1-3.8,7c-1.15,1.09-3.14,3-5.7,2.68s-4.64-2.48-5.57-5.49a26.37,26.37,0,0,0,2.25-6.35,18.37,18.37,0,0,0,.13-9.26,15.6,15.6,0,0,0-2.09-4.55"/><path class="cls-2" d="M52.71,27.24a9,9,0,1,1-9-9,9,9,0,0,1,9,9"/><path class="cls-3" d="M34,23.6a12,12,0,0,0-.36,4.53,11.81,11.81,0,0,0,2.16,5.55,7.93,7.93,0,0,1-3.39,3.54A8.87,8.87,0,0,1,23,35.88a8.35,8.35,0,0,1-2.5-5.59A8.59,8.59,0,0,1,27.3,22.2,9.05,9.05,0,0,1,34,23.6"/><path class="cls-3" d="M53.33,23.6s1.6,5.69-1.4,9.78a8.9,8.9,0,0,0,5.53,4,7.93,7.93,0,0,0,5.76-1.13c3.54-2.39,3.41-6.82,3.39-7.09a7.77,7.77,0,0,0-8.29-7.39,8.73,8.73,0,0,0-5,1.8"/></g></g></svg>