<svg xmlns="http://www.w3.org/2000/svg" viewBox="0 0 101.91 101.91"><defs><style>.cls-1{fill:#fff;}.cls-2{fill:#599442;}.cls-3{fill:#4091cf;}.cls-4{fill:#fcbf33;}.cls-5{fill:#1c384a;}</style></defs><g id="Layer_2" data-name="Layer 2"><g id="Community-related_Programs" data-name="Community-related Programs"><path class="cls-1" d="M51,101.91A51,51,0,1,0,0,51a51,51,0,0,0,51,51"/><path class="cls-2" d="M56.8,12.66a22.84,22.84,0,0,1,13.61,4.53l4.16,3.13A2.25,2.25,0,0,1,75,23.46c-.74,1-7.06,6.92-9.53,4.44l-1.83-1.3a11.54,11.54,0,0,0-6.86-2.24,5.85,5.85,0,1,1,0-11.7"/><path class="cls-3" d="M45.1,12.66a22.84,22.84,0,0,0-13.6,4.53l-4.17,3.13a2.24,2.24,0,0,0-.44,3.14c.74,1,7,6.92,9.52,4.44l1.84-1.3a11.54,11.54,0,0,1,6.86-2.24,5.85,5.85,0,0,0,0-11.7"/><path class="cls-2" d="M45.1,89.25a22.78,22.78,0,0,1-13.6-4.54l-4.17-3.12a2.24,2.24,0,0,1-.44-3.14c.74-1,7-6.92,9.52-4.45l1.84,1.3a11.55,11.55,0,0,0,6.86,2.25,5.85,5.85,0,0,1,0,11.7"/><path class="cls-3" d="M56.8,89.25a22.79,22.79,0,0,0,13.61-4.54l4.16-3.12A2.25,2.25,0,0,0,75,78.45c-.74-1-7.06-6.92-9.53-4.45l-1.83,1.3a11.55,11.55,0,0,1-6.86,2.25,5.85,5.85,0,0,0,0,11.7"/><path class="cls-2" d="M89.25,45.1a22.78,22.78,0,0,0-4.54-13.6l-3.12-4.17a2.24,2.24,0,0,0-3.14-.44c-1,.74-6.92,7-4.45,9.52l1.31,1.84a11.61,11.61,0,0,1,2.24,6.86,5.85,5.85,0,0,0,11.7,0"/><path class="cls-3" d="M89.25,56.8a22.79,22.79,0,0,1-4.54,13.61c-1.62,2.17-3.12,4.16-3.12,4.16a2.25,2.25,0,0,1-3.14.45c-1-.74-6.92-7.06-4.45-9.53l1.31-1.83a11.61,11.61,0,0,0,2.24-6.86,5.85,5.85,0,0,1,11.7,0"/><path class="cls-3" d="M12.66,45.1a22.84,22.84,0,0,1,4.53-13.6l3.13-4.17a2.24,2.24,0,0,1,3.14-.44c1,.74,6.92,7,4.44,9.52l-1.3,1.84a11.54,11.54,0,0,0-2.24,6.86,5.85,5.85,0,0,1-11.7,0"/><path class="cls-2" d="M12.66,56.8a22.84,22.84,0,0,0,4.53,13.61l3.13,4.16a2.25,2.25,0,0,0,3.14.45c1-.74,6.92-7.06,4.44-9.53l-1.3-1.83a11.54,11.54,0,0,1-2.24-6.86,5.85,5.85,0,0,0-11.7,0"/><path class="cls-4" d="M28.73,19.27a9.46,9.46,0,1,0,0,18.91h.48a9.48,9.48,0,0,0,9-9.45c0-.16,0-.32,0-.48a9.47,9.47,0,0,0-9.44-9"/><path class="cls-4" d="M73.18,38.18h.49a9.5,9.5,0,1,0-.49,0"/><path class="cls-4" d="M28.73,63.73a9.46,9.46,0,1,0,9.45,9.45c0-.16,0-.32,0-.48a9.47,9.47,0,0,0-9.44-9"/><path class="cls-4" d="M73.18,63.73a9.46,9.46,0,1,0,9.46,9.45,9.46,9.46,0,0,0-9.46-9.45"/><path class="cls-5" d="M51,67.62A2.23,2.23,0,0,1,49.37,67l-12-12A10.72,10.72,0,0,1,51,38.52,10.71,10.71,0,0,1,64.52,55l-12,12a2.21,2.21,0,0,1-1.58.66"/></g></g></svg>