<svg xmlns="http://www.w3.org/2000/svg" xmlns:xlink="http://www.w3.org/1999/xlink" viewBox="0 0 109.22 109.22"><defs><style>.cls-1{fill:none;}.cls-2{fill:#fff;}.cls-3{clip-path:url(#clip-path);}.cls-4{fill:#2e70a3;}.cls-5{fill:#3b9945;}.cls-6{fill:#fcbf33;}</style><clipPath id="clip-path"><rect class="cls-1" x="20.58" y="19.82" width="67.09" height="68.8"/></clipPath></defs><g id="Layer_2" data-name="Layer 2"><g id="Reward_Points" data-name="Reward Points"><rect class="cls-2" width="109.22" height="109.22"/><g class="cls-3"><path class="cls-4" d="M55.75,88.61H28.13a7.73,7.73,0,0,1-7.55-7.9v-53a7.73,7.73,0,0,1,7.55-7.9H55.75a7.73,7.73,0,0,1,7.55,7.9v53a7.73,7.73,0,0,1-7.55,7.9"/><path class="cls-2" d="M54.1,86.4H29.78a7.21,7.21,0,0,1-7.22-7.21V28.79a7.22,7.22,0,0,1,7.22-7.22H54.1a7.22,7.22,0,0,1,7.22,7.22v50.4A7.21,7.21,0,0,1,54.1,86.4"/></g><rect class="cls-4" x="33.96" y="24.96" width="15.95" height="2.05"/><g class="cls-3"><path class="cls-4" d="M44.89,82.41a3,3,0,1,1-3-3,2.95,2.95,0,0,1,3,3"/><path class="cls-5" d="M87.67,52.54A21.66,21.66,0,1,1,66,30.88,21.66,21.66,0,0,1,87.67,52.54"/><path class="cls-6" d="M67.21,56.13l-1.43,4.45c-1.43,4.44-5.27,7.29-8.54,6.24s-4.67-5.58-3.25-10l1.77-5.5a4.48,4.48,0,0,0,1.84-8.72,4.52,4.52,0,0,0-5.68,2.87A4.46,4.46,0,0,0,54,50.75l-1.76,5.49c-1.74,5.43.24,10.9,4.44,12.25s9.06-1.93,10.8-7.36l1.42-4.44a9.22,9.22,0,0,0,5.89-1.17.94.94,0,0,0,.52-.79,15.46,15.46,0,0,0,6-7.46c1.29-4-.48-5.06-3.47-6.77a1.34,1.34,0,0,0-.9-1,1.28,1.28,0,0,0-1.6.77,1.23,1.23,0,0,0,.87,1.51,1,1,0,0,0,.82,0c2.93,1.69,3.73,2.15,2.8,5a14.06,14.06,0,0,1-5.39,6.64,1.06,1.06,0,0,0-.92.11,6.37,6.37,0,0,1-4.83.84,6.23,6.23,0,0,1-3.38-3.47,1.16,1.16,0,0,0-.68-.63,14,14,0,0,1-.53-8.54c.93-2.9,1.79-2.82,5.16-2.49a1.26,1.26,0,0,0,.66.48A1.24,1.24,0,0,0,71.54,39a1.29,1.29,0,0,0-.86-1.57,1.43,1.43,0,0,0-1.33.32c-3.42-.35-5.47-.53-6.76,3.48a15.28,15.28,0,0,0,.54,9.56,1.19,1.19,0,0,0,0,1,8.85,8.85,0,0,0,4,4.36"/></g></g></g></svg>