<svg xmlns="http://www.w3.org/2000/svg" xmlns:xlink="http://www.w3.org/1999/xlink" viewBox="0 0 67.09 68.8"><defs><style>.cls-1{fill:none;}.cls-2{clip-path:url(#clip-path);}.cls-3{fill:#2e70a3;}.cls-4{fill:#fff;}.cls-5{fill:#3b9945;}.cls-6{fill:#fcbf33;}</style><clipPath id="clip-path" transform="translate(0)"><rect class="cls-1" width="67.09" height="68.8"/></clipPath></defs><g id="Layer_2" data-name="Layer 2"><g id="Inquiries"><g class="cls-2"><path class="cls-3" d="M35.17,68.8H7.55A7.74,7.74,0,0,1,0,60.89v-53A7.74,7.74,0,0,1,7.55,0H35.17a7.74,7.74,0,0,1,7.55,7.91v53a7.74,7.74,0,0,1-7.55,7.91" transform="translate(0)"/><path class="cls-4" d="M33.52,66.59H9.2A7.22,7.22,0,0,1,2,59.37V9A7.22,7.22,0,0,1,9.2,1.75H33.52A7.22,7.22,0,0,1,40.74,9v50.4a7.22,7.22,0,0,1-7.22,7.22" transform="translate(0)"/></g><rect class="cls-3" x="13.39" y="5.15" width="15.95" height="2.05"/><g class="cls-2"><path class="cls-3" d="M24.32,62.59a3,3,0,1,1-3-3,3,3,0,0,1,3,3" transform="translate(0)"/><path class="cls-5" d="M67.09,32.73A21.66,21.66,0,1,1,45.43,11.06,21.66,21.66,0,0,1,67.09,32.73" transform="translate(0)"/><path class="cls-6" d="M46.63,36.32,45.2,40.76c-1.42,4.44-5.27,7.29-8.54,6.24S32,41.42,33.42,37l1.76-5.49A4.49,4.49,0,0,0,37,22.76a4.54,4.54,0,0,0-5.69,2.87,4.46,4.46,0,0,0,2.11,5.3l-1.76,5.5c-1.74,5.42.25,10.89,4.44,12.24s9.06-1.93,10.8-7.35l1.43-4.45a9.13,9.13,0,0,0,5.88-1.17,1,1,0,0,0,.53-.79,15.48,15.48,0,0,0,6-7.46c1.28-4-.49-5.05-3.48-6.76a1.35,1.35,0,0,0-.89-1,1.29,1.29,0,0,0-1.61.78,1.24,1.24,0,0,0,.87,1.51,1.05,1.05,0,0,0,.82,0c2.93,1.69,3.74,2.15,2.81,5.06a14.14,14.14,0,0,1-5.4,6.64,1,1,0,0,0-.92.11,6.37,6.37,0,0,1-4.83.83,6.23,6.23,0,0,1-3.38-3.47,1.12,1.12,0,0,0-.68-.62,14,14,0,0,1-.53-8.54c.94-2.9,1.79-2.83,5.16-2.5a1.23,1.23,0,0,0,.66.49A1.24,1.24,0,0,0,51,19.2a1.29,1.29,0,0,0-.86-1.57,1.45,1.45,0,0,0-1.33.32c-3.42-.34-5.47-.53-6.76,3.48A15.38,15.38,0,0,0,42.55,31a1.19,1.19,0,0,0,0,1,8.85,8.85,0,0,0,4.05,4.36" transform="translate(0)"/></g></g></g></svg>