<svg xmlns="http://www.w3.org/2000/svg" xmlns:xlink="http://www.w3.org/1999/xlink" viewBox="0 0 60.51 79.13"><defs><style>.cls-1,.cls-5,.cls-6{fill:none;}.cls-2{clip-path:url(#clip-path);}.cls-3{fill:#3b9945;}.cls-4{fill:#fff;}.cls-5,.cls-6{stroke:#fcbf33;stroke-miterlimit:10;}.cls-5{stroke-width:4.2px;}.cls-6{stroke-width:4.6px;}</style><clipPath id="clip-path" transform="translate(0)"><rect class="cls-1" width="60.51" height="79.13"/></clipPath></defs><g id="Layer_2" data-name="Layer 2"><g id="Daily_Health_Monitoring" data-name="Daily Health Monitoring"><g class="cls-2"><path class="cls-3" d="M56.75,79.13h-53A3.77,3.77,0,0,1,0,75.36V6.87A3.77,3.77,0,0,1,3.77,3.1h53a3.76,3.76,0,0,1,3.76,3.77V75.36a3.76,3.76,0,0,1-3.76,3.77" transform="translate(0)"/></g><rect class="cls-4" x="3.66" y="6.36" width="53.19" height="68.91"/><rect class="cls-3" x="16.29" y="1.55" width="27.93" height="7.76"/><rect class="cls-3" x="20.95" width="18.62" height="7.76"/><path class="cls-5" d="M11.08,52.34l3.64,5.93,10.52-9.64M11.08,36.94l3.64,5.93,10.52-9.64M11.08,22.94l3.64,5.93,10.52-9.64" transform="translate(0)"/><g class="cls-2"><path class="cls-6" d="M30.26,55.67H51.94M30.26,40.55H51.94M30.26,25.43H51.94" transform="translate(0)"/></g></g></g></svg>