<svg xmlns="http://www.w3.org/2000/svg" xmlns:xlink="http://www.w3.org/1999/xlink" viewBox="0 0 109.22 109.22"><defs><style>.cls-1,.cls-5,.cls-6{fill:none;}.cls-2{fill:#fff;}.cls-3{clip-path:url(#clip-path);}.cls-4{fill:#3b9945;}.cls-5,.cls-6{stroke:#fcbf33;stroke-miterlimit:10;}.cls-5{stroke-width:4.2px;}.cls-6{stroke-width:4.6px;}</style><clipPath id="clip-path"><rect class="cls-1" x="23.87" y="14.65" width="60.51" height="79.13"/></clipPath></defs><g id="Layer_2" data-name="Layer 2"><g id="Reward_Points" data-name="Reward Points"><rect class="cls-2" width="109.22" height="109.22"/><g class="cls-3"><path class="cls-4" d="M80.61,93.78h-53A3.76,3.76,0,0,1,23.87,90V21.52a3.76,3.76,0,0,1,3.76-3.77h53a3.77,3.77,0,0,1,3.77,3.77V90a3.77,3.77,0,0,1-3.77,3.77"/></g><rect class="cls-2" x="27.53" y="21.01" width="53.19" height="68.91"/><rect class="cls-4" x="40.16" y="16.2" width="27.93" height="7.76"/><rect class="cls-4" x="44.81" y="14.65" width="18.62" height="7.76"/><path class="cls-5" d="M34.94,67l3.65,5.93,10.52-9.64M34.94,51.59l3.65,5.93,10.52-9.64M34.94,37.59l3.65,5.93,10.52-9.64"/><g class="cls-3"><path class="cls-6" d="M54.12,70.32H75.81M54.12,55.2H75.81M54.12,40.08H75.81"/></g></g></g></svg>