<svg xmlns="http://www.w3.org/2000/svg" xmlns:xlink="http://www.w3.org/1999/xlink" viewBox="0 0 109.22 109.22"><defs><style>.cls-1{fill:none;}.cls-2{fill:#fff;}.cls-3{clip-path:url(#clip-path);}.cls-4{fill:#fcbf33;}.cls-5{fill:#f2b230;}.cls-6{font-size:42.35px;font-family:AcuminPro-Bold, Acumin Pro;font-weight:700;}.cls-6,.cls-7{fill:#3b9945;}</style><clipPath id="clip-path"><rect class="cls-1" x="9.36" y="13.32" width="89.52" height="81.79"/></clipPath></defs><g id="Layer_2" data-name="Layer 2"><g id="Reward_Points" data-name="Reward Points"><rect class="cls-2" width="109.22" height="109.22"/><g class="cls-3"><path class="cls-4" d="M81.84,63.25a28.08,28.08,0,0,1-11.28,4.31c-4.29.68-11.4.94-19.56,2.4C45.11,71,41.66,71.65,39.75,72A10.45,10.45,0,0,0,36,73.55L24.36,95.11,9.36,84.2s13-23.35,20.57-31h0c.89-.88,1.82-1.83,2.8-2.86,4.56-4.75,6.88-9.78,20.47,3.56a.82.82,0,0,0,.23.11,12.91,12.91,0,0,0,4,1c.36,0,.75.07,1.16.09a39.3,39.3,0,0,1,6.54.94c9.91,2.34,18.33,6.16,16.68,7.2"/><path class="cls-4" d="M91.64,55.37c2-2.39,7.24-10.9,7.24-10.9s-2-1.23-3.57-.79c-4.7,1.27-10,7.73-10,7.85s-8.14,2.57-12,5.54h0s-11.4-3.37-15.83-2a4.44,4.44,0,0,0-.73.28,11.56,11.56,0,0,0-2.81,2.23c-3.43,3.54-6.76,9.62-4.34,11.32.6.41,25.76-1,28.59-2.84.67-.43,12.41-9.36,13.47-10.64"/><path class="cls-5" d="M73.29,57.07c-2.12-1.07-18.43-4.18-19.16-4.5-2.75.32-5.23,2.39-4.89,3.23C49.7,57,52.17,58,54.46,58.14c3,.13,5.45-1.33,7-1.93.7-.27,2.82.44,4.06.27a26.53,26.53,0,0,1,7.78.59"/><path class="cls-4" d="M48.4,44.8s22.82,2.46,26.8,1.27c0,0,1.42,3-2.84,5.52S55.81,53.93,53.05,56C42.67,63.54,34.8,61.2,34.8,61.2S25.89,42.4,48.4,44.8"/><text class="cls-6" transform="translate(56.48 42.5)">P</text></g><rect class="cls-7" x="56.54" y="19" width="29.27" height="2.9"/><rect class="cls-7" x="56.54" y="22.82" width="29.27" height="2.9"/></g></g></svg>