<svg xmlns="http://www.w3.org/2000/svg" viewBox="0 0 87.28 87.28"><defs><style>.cls-1{fill:#fff;}.cls-2{fill:#efeeed;}.cls-3{fill:#1c364a;}.cls-4{fill:#306ea3;}.cls-5{fill:#c72127;}.cls-6{fill:#391116;}.cls-7{fill:#d82629;}.cls-8{fill:#862a29;}</style></defs><g id="Layer_2" data-name="Layer 2"><g id="Education_and_Nutrition_icon" data-name="Education and Nutrition icon"><path class="cls-1" d="M87.28,43.64A43.64,43.64,0,1,1,43.64,0,43.64,43.64,0,0,1,87.28,43.64"/><path class="cls-2" d="M66.58,54.78s-3.95,3.6,0,8.5l-35.07-.06V54.78Z"/><path class="cls-3" d="M35.54,52.94H22.76a5.84,5.84,0,0,0-5.18,6c-.11,5.49,5.12,6,5.07,6.12s12.89,0,12.89,0-5.28-1.05-4.7-7.39a6.45,6.45,0,0,1,4.7-4.7"/><path class="cls-4" d="M35.43,54.82a4,4,0,0,0-3.42,4s-.19,4.17,3.61,4.32,32.57,0,32.57,0V65H35a6.42,6.42,0,0,1-4.82-6.63S31,53.58,35,52.94H68.19v1.82Z"/><path class="cls-5" d="M40.6,21.24s-8.59-2.34-13,5.13S30.89,52,39.93,52.49a25.51,25.51,0,0,1,6,.07,8.66,8.66,0,0,0,4.89-.86c2.11-1.25,7.46-8,8.67-19.57S48.84,20.17,47.28,21s-6.68.29-6.68.29"/><path class="cls-6" d="M39.09,15.56a.67.67,0,0,1,.92-.67c.94.21,3.84,5.48,3,10.16l-.9-.16a12.3,12.3,0,0,0-3-9.33"/><path class="cls-7" d="M48.37,23.71a5.12,5.12,0,0,0-.67,0,6.92,6.92,0,0,0-2.11.55,5.35,5.35,0,0,1-2.31.56H43l0,.2-.9-.16s0-.06,0-.19A10.59,10.59,0,0,0,40,24.14a5.08,5.08,0,0,0-.59,0,11.05,11.05,0,0,0-1.7.15,19.49,19.49,0,0,0-5.29,1.65c-.85.35-1.31,1-1.19,1.6a1.14,1.14,0,0,0,.74.77,1,1,0,0,0,.3,0c.61,0,1.18-.57,2.23-1a6.21,6.21,0,0,1,2.29-.41H37a5.1,5.1,0,0,1,2,.38,16.1,16.1,0,0,1,2.31,1.57,6.78,6.78,0,0,0,3.14.77c.49,0,.94.06,1.36.06a14.38,14.38,0,0,0,2.85-.29,9.72,9.72,0,0,1,1.8-.29,2.17,2.17,0,0,1,1.07.28c2.09,1.22,2,5.06,2,6.6a13.38,13.38,0,0,1-1.73,6.18,6.88,6.88,0,0,0,.42,2.56.19.19,0,0,0,.15.08c.87,0,4-5.28,4.07-10.48a11.67,11.67,0,0,0-1-5.41,11.29,11.29,0,0,0-3.26-4.16,7.48,7.48,0,0,0-3.76-1.07"/><path class="cls-8" d="M42.13,24.7c0,.13,0,.19,0,.19l.9.16,0-.2h-.16a5,5,0,0,1-.75-.14"/></g></g></svg>