<svg xmlns="http://www.w3.org/2000/svg" xmlns:xlink="http://www.w3.org/1999/xlink" viewBox="0 0 562.34 460"><defs><style>.cls-1,.cls-15,.cls-18,.cls-19,.cls-20,.cls-21,.cls-22,.cls-23{fill:none;}.cls-2{font-size:15px;fill:#251f20;font-family:AbrilText-Regular, Abril Text;}.cls-3{letter-spacing:0.03em;}.cls-4{letter-spacing:0.03em;}.cls-5{letter-spacing:0.03em;}.cls-6{letter-spacing:0.02em;}.cls-7{letter-spacing:0.01em;}.cls-8{letter-spacing:0.03em;}.cls-9{letter-spacing:0.01em;}.cls-10{letter-spacing:0.02em;}.cls-11{letter-spacing:0.01em;}.cls-12{letter-spacing:0.02em;}.cls-13{letter-spacing:0.01em;}.cls-14{clip-path:url(#clip-path);}.cls-15{stroke:#e6e6e6;stroke-width:2px;}.cls-16{font-size:24px;font-family:AcuminPro-Bold, Acumin Pro;font-weight:700;}.cls-16,.cls-17{fill:#231f20;}.cls-17{font-size:12px;font-family:AcuminPro-Semibold, Acumin Pro;font-weight:600;}.cls-18{stroke:#4392cf;}.cls-18,.cls-19,.cls-20,.cls-21,.cls-22,.cls-23{stroke-miterlimit:10;}.cls-18,.cls-19,.cls-20,.cls-21,.cls-22{stroke-width:55px;}.cls-19{stroke:#fbbf34;}.cls-20{stroke:#306ea3;}.cls-21{stroke:#579441;}.cls-22{stroke:#fdbe66;}.cls-23{stroke:#231f20;}</style><clipPath id="clip-path"><rect class="cls-1" width="562.34" height="460"/></clipPath></defs><g id="Layer_2" data-name="Layer 2"><g id="Employee_Breakdown_Tenure_chart" data-name="Employee Breakdown Tenure chart"><text class="cls-2" transform="translate(129.39 37.88)"><tspan class="cls-3">Em</tspan><tspan class="cls-4" x="23.64" y="0">p</tspan><tspan class="cls-5" x="32.92" y="0">l</tspan><tspan class="cls-6" x="37.77" y="0">o</tspan><tspan class="cls-7" x="46.11" y="0">y</tspan><tspan class="cls-3" x="53.8" y="0">ee </tspan><tspan class="cls-8" x="73.24" y="0">b</tspan><tspan class="cls-9" x="82.47" y="0">r</tspan><tspan class="cls-10" x="89.35" y="0">e</tspan><tspan class="cls-3" x="97.2" y="0">a</tspan><tspan class="cls-11" x="105.28" y="0">k</tspan><tspan class="cls-5" x="114" y="0">d</tspan><tspan class="cls-10" x="123.18" y="0">o</tspan><tspan class="cls-3" x="131.59" y="0">w</tspan><tspan class="cls-8" x="143.65" y="0">n </tspan><tspan class="cls-6" x="156.69" y="0">b</tspan><tspan class="cls-4" x="165.7" y="0">y l</tspan><tspan class="cls-3" x="181.96" y="0">e</tspan><tspan class="cls-8" x="189.96" y="0">ng</tspan><tspan class="cls-12" x="207.52" y="0">t</tspan><tspan class="cls-8" x="213.51" y="0">h </tspan><tspan class="cls-3" x="226.48" y="0">of </tspan><tspan class="cls-10" x="244.09" y="0">t</tspan><tspan class="cls-5" x="250.08" y="0">e</tspan><tspan class="cls-10" x="258.07" y="0">n</tspan><tspan class="cls-3" x="267.54" y="0">u</tspan><tspan class="cls-13" x="277.03" y="0">r</tspan><tspan x="283.93" y="0">e</tspan></text><g class="cls-14"><rect class="cls-15" x="1" y="1" width="560.34" height="458"/></g><text class="cls-16" transform="translate(478.33 143.89)">12</text><text class="cls-16" transform="translate(501.59 143.89)">%</text><text class="cls-17" transform="translate(492.24 160.82)">1 yea</text><text class="cls-17" transform="translate(519.25 160.82)">r</text><text class="cls-16" transform="translate(478.62 230.47)">25</text><text class="cls-16" transform="translate(505.11 230.47)">%</text><text class="cls-17" transform="translate(478.37 247.41)">1-3 years</text><text class="cls-16" transform="translate(482.12 383.08)">15</text><text class="cls-16" transform="translate(505.11 383.08)">%</text><text class="cls-17" transform="translate(476.59 400.01)">3-5 year</text><text class="cls-17" transform="translate(521.67 400.01)">s</text><text class="cls-16" transform="translate(34.98 286.71)">36</text><text class="cls-16" transform="translate(62.19 286.71)">%</text><text class="cls-17" transform="translate(37.52 303.64)">7+</text><text class="cls-17" transform="translate(51.45 303.64)"><tspan xml:space="preserve"> years</tspan></text><text class="cls-16" transform="translate(38.94 372.13)">12</text><text class="cls-16" transform="translate(62.19 372.13)">%</text><text class="cls-17" transform="translate(44.56 389.06)">5-</text><text class="cls-17" transform="translate(55.55 389.06)">7 year</text><text class="cls-17" transform="translate(88.37 389.06)">s</text><g class="cls-14"><path class="cls-18" d="M179.34,342.6A124.59,124.59,0,0,1,276,139.43"/><path class="cls-19" d="M276,139.43a124.16,124.16,0,0,1,85.82,34.27"/><path class="cls-20" d="M360.44,172.41a124.57,124.57,0,0,1,6.26,177"/><path class="cls-21" d="M261.6,387.77a127,127,0,0,0,14.41.82,124.25,124.25,0,0,0,90.69-39.16"/><path class="cls-22" d="M179.34,342.6A124.52,124.52,0,0,0,256.2,387l5.4.74a127,127,0,0,0,14.41.82"/></g><path class="cls-23" d="M329.39,147.42H523.86M154.42,291.24H35.11m185.58,84.42h-176m283.07,11.93H527.1M397.71,234H527.1"/></g></g></svg>