<svg xmlns="http://www.w3.org/2000/svg" xmlns:xlink="http://www.w3.org/1999/xlink" viewBox="0 0 69.09 58.22"><defs><style>.cls-1{fill:none;}.cls-2{fill:#fcbf33;}.cls-3{clip-path:url(#clip-path);}.cls-4{fill:#3b9945;}</style><clipPath id="clip-path" transform="translate(0 0)"><rect class="cls-1" width="69.09" height="58.22"/></clipPath></defs><g id="Layer_2" data-name="Layer 2"><g id="Employees_Assisted" data-name="Employees Assisted"><rect class="cls-2" x="59.63" y="27.73" width="0.72" height="15.9" transform="matrix(0.58, -0.82, 0.82, 0.58, -3.76, 64.1)"/><g class="cls-3"><path class="cls-2" d="M53.94,31.36c-.32.46-2.4-.45-2.86-.77a1,1,0,0,1-.25-1.43,1,1,0,0,1,1.43-.25c.46.33,2,2,1.68,2.45" transform="translate(0 0)"/><path class="cls-2" d="M65.79,39.73c.33-.47,2.41.44,2.87.76a1,1,0,0,1,.24,1.43,1,1,0,0,1-1.42.25c-.47-.33-2-2-1.69-2.44" transform="translate(0 0)"/><path class="cls-4" d="M55.47,58.22,42.25,52.81a16.62,16.62,0,0,1-2.16-10.94s6,1,6-3.11A25.56,25.56,0,0,0,45.9,34s1.65-.6,1.44-1.91a1.09,1.09,0,0,0,.31-1.22,8.67,8.67,0,0,1-1-3.37s3,0,3-1.14-4.81-6.48-4.81-6.48,1-2.78.74-4.33S47.16,2.79,30.84.33C18-1.6,9.45,5.19,7.71,15c-1.36,7.71.94,15.15,6.06,20.09,6.46,6.23.79,17.73.79,17.73L0,58.22Z" transform="translate(0 0)"/></g></g></g></svg>