<svg xmlns="http://www.w3.org/2000/svg" xmlns:xlink="http://www.w3.org/1999/xlink" viewBox="0 0 546.13 453"><defs><style>.cls-1,.cls-14,.cls-17,.cls-18,.cls-19{fill:none;}.cls-2{font-size:15px;fill:#251f20;font-family:AbrilText-Regular, Abril Text;}.cls-3{letter-spacing:0.03em;}.cls-4{letter-spacing:0.03em;}.cls-5{letter-spacing:0.03em;}.cls-6{letter-spacing:0.02em;}.cls-7{letter-spacing:0.01em;}.cls-8{letter-spacing:0.03em;}.cls-9{letter-spacing:0.01em;}.cls-10{letter-spacing:0.02em;}.cls-11{letter-spacing:0.01em;}.cls-12{letter-spacing:0.01em;}.cls-13{clip-path:url(#clip-path);}.cls-14{stroke:#fbbf34;}.cls-14,.cls-17,.cls-18{stroke-miterlimit:10;}.cls-14,.cls-17{stroke-width:55px;}.cls-15{font-size:24px;font-family:AcuminPro-Bold, Acumin Pro;font-weight:700;}.cls-15,.cls-16{fill:#231f20;}.cls-16{font-size:12px;font-family:AcuminPro-Semibold, Acumin Pro;font-weight:600;}.cls-17{stroke:#4392cf;}.cls-18{stroke:#231f20;}.cls-19{stroke:#e6e6e6;stroke-width:2px;}</style><clipPath id="clip-path"><rect class="cls-1" width="546.13" height="453"/></clipPath></defs><g id="Layer_2" data-name="Layer 2"><g id="Employee_Breakdown_Gender_chart" data-name="Employee Breakdown Gender chart"><text class="cls-2" transform="translate(157.26 34.81)"><tspan class="cls-3">Em</tspan><tspan class="cls-4" x="23.64" y="0">p</tspan><tspan class="cls-5" x="32.92" y="0">l</tspan><tspan class="cls-6" x="37.77" y="0">o</tspan><tspan class="cls-7" x="46.11" y="0">y</tspan><tspan class="cls-3" x="53.8" y="0">ee </tspan><tspan class="cls-8" x="73.24" y="0">b</tspan><tspan class="cls-9" x="82.47" y="0">r</tspan><tspan class="cls-10" x="89.35" y="0">e</tspan><tspan class="cls-3" x="97.2" y="0">a</tspan><tspan class="cls-11" x="105.28" y="0">k</tspan><tspan class="cls-5" x="114" y="0">d</tspan><tspan class="cls-10" x="123.18" y="0">o</tspan><tspan class="cls-3" x="131.59" y="0">wn</tspan><tspan class="cls-4" x="153.27" y="0"> </tspan><tspan class="cls-11" x="156.7" y="0">b</tspan><tspan class="cls-5" x="165.7" y="0">y</tspan><tspan class="cls-4" x="173.71" y="0"> </tspan><tspan class="cls-12" x="177.15" y="0">g</tspan><tspan class="cls-5" x="184.83" y="0">e</tspan><tspan class="cls-4" x="192.82" y="0">n</tspan><tspan class="cls-5" x="202.42" y="0">de</tspan><tspan x="219.6" y="0">r</tspan></text><g class="cls-13"><circle class="cls-14" cx="256.58" cy="247" r="124.58"/></g><text class="cls-15" transform="translate(441.24 317.84)">39</text><text class="cls-15" transform="translate(468.09 317.84)">.7</text><text class="cls-15" transform="translate(486.12 317.84)">%</text><text class="cls-16" transform="translate(441.24 334.77)">Female</text><g class="cls-13"><path class="cls-17" d="M335.82,343.13a124.58,124.58,0,1,1-79.24-220.71"/></g><line class="cls-18" x1="356.06" y1="321.99" x2="507.82" y2="321.99"/><text class="cls-15" transform="translate(38.31 137.84)">60</text><text class="cls-15" transform="translate(66.25 137.84)">.3</text><text class="cls-15" transform="translate(85.88 137.84)">%</text><text class="cls-16" transform="translate(38.31 154.77)">Ma</text><text class="cls-16" transform="translate(55.4 154.77)">le</text><line class="cls-18" x1="38.32" y1="141.99" x2="173.19" y2="141.99"/><g class="cls-13"><rect class="cls-19" x="1" y="1" width="544.13" height="451"/></g></g></g></svg>