<svg xmlns="http://www.w3.org/2000/svg" viewBox="0 0 65.75 65.75"><defs><style>.cls-1{fill:#fcbf33;}.cls-2{fill:#4091cf;}.cls-3{fill:#1c384a;}.cls-4{fill:#599442;}</style></defs><g id="Layer_2" data-name="Layer 2"><g id="Employees"><polygon class="cls-1" points="17.68 54.16 20.07 57.16 32.88 47.03 45.68 57.16 48.07 54.16 34.8 43.64 34.8 29.02 30.95 29.02 30.95 43.64 17.68 54.16"/><polygon class="cls-1" points="17.68 54.16 20.07 57.16 32.88 47.03 32.88 29.02 30.95 29.02 30.95 43.64 17.68 54.16"/><path class="cls-2" d="M32.88,15.54A11.7,11.7,0,0,1,44.56,27.1V31H21.19V27.1A11.7,11.7,0,0,1,32.88,15.54"/><path class="cls-3" d="M54.19,50.34A11.59,11.59,0,0,1,65.75,61.9v3.85H42.64V61.9A11.59,11.59,0,0,1,54.19,50.34"/><path class="cls-1" d="M32.88,0a8,8,0,0,1,7.83,7.83A7.84,7.84,0,0,1,25,7.83,8,8,0,0,1,32.88,0"/><path class="cls-1" d="M54.19,34.93a7.71,7.71,0,1,1-7.7,7.71,7.73,7.73,0,0,1,7.7-7.71"/><path class="cls-1" d="M11.56,34.93a7.71,7.71,0,1,1-7.71,7.71,7.72,7.72,0,0,1,7.71-7.71"/><path class="cls-4" d="M11.56,50.34A11.6,11.6,0,0,1,23.12,61.9v3.85H0V61.9A11.59,11.59,0,0,1,11.56,50.34"/></g></g></svg>