<svg xmlns="http://www.w3.org/2000/svg" xmlns:xlink="http://www.w3.org/1999/xlink" viewBox="0 0 562.34 460"><defs><style>.cls-1,.cls-16,.cls-19,.cls-20,.cls-21,.cls-22{fill:none;}.cls-2{font-size:15px;fill:#251f20;font-family:AbrilText-Regular, Abril Text;}.cls-3{letter-spacing:0.03em;}.cls-4{letter-spacing:0.03em;}.cls-5{letter-spacing:0.02em;}.cls-6{letter-spacing:0.01em;}.cls-7{letter-spacing:0.03em;}.cls-8{letter-spacing:0.02em;}.cls-9{letter-spacing:0.01em;}.cls-10{letter-spacing:0.01em;}.cls-11{letter-spacing:0.01em;}.cls-12{letter-spacing:0.02em;}.cls-13{letter-spacing:0.03em;}.cls-14{letter-spacing:0.01em;}.cls-15{clip-path:url(#clip-path);}.cls-16{stroke:#e6e6e6;stroke-width:2px;}.cls-17{font-size:24px;font-family:AcuminPro-Bold, Acumin Pro;font-weight:700;}.cls-17,.cls-18{fill:#231f20;}.cls-18{font-size:12px;font-family:AcuminPro-Semibold, Acumin Pro;font-weight:600;}.cls-19{stroke:#579441;}.cls-19,.cls-20,.cls-21,.cls-22{stroke-miterlimit:10;}.cls-19,.cls-20,.cls-21{stroke-width:55px;}.cls-20{stroke:#4392cf;}.cls-21{stroke:#fbbf34;}.cls-22{stroke:#231f20;}</style><clipPath id="clip-path"><rect class="cls-1" width="562.34" height="460"/></clipPath></defs><g id="Layer_2" data-name="Layer 2"><g id="Employee_Breakdown_Contract_chart" data-name="Employee Breakdown Contract chart"><text class="cls-2" transform="translate(127.38 37.88)"><tspan class="cls-3">Emp</tspan><tspan class="cls-4" x="32.94" y="0">l</tspan><tspan class="cls-5" x="37.77" y="0">o</tspan><tspan class="cls-6" x="46.11" y="0">y</tspan><tspan class="cls-7" x="53.82" y="0">ee</tspan><tspan class="cls-4" x="69.81" y="0"> </tspan><tspan class="cls-7" x="73.24" y="0">b</tspan><tspan class="cls-6" x="82.48" y="0">r</tspan><tspan class="cls-8" x="89.38" y="0">e</tspan><tspan class="cls-7" x="97.23" y="0">a</tspan><tspan class="cls-9" x="105.31" y="0">k</tspan><tspan class="cls-7" x="114.03" y="0">d</tspan><tspan class="cls-8" x="123.21" y="0">o</tspan><tspan class="cls-7" x="131.62" y="0">w</tspan><tspan class="cls-4" x="143.68" y="0">n </tspan><tspan class="cls-10" x="156.72" y="0">b</tspan><tspan class="cls-3" x="165.73" y="0">y</tspan><tspan class="cls-4" x="173.74" y="0"> </tspan><tspan class="cls-3" x="177.18" y="0">co</tspan><tspan class="cls-11" x="193.54" y="0">n</tspan><tspan class="cls-12" x="202.87" y="0">t</tspan><tspan class="cls-9" x="208.86" y="0">r</tspan><tspan class="cls-8" x="215.82" y="0">a</tspan><tspan class="cls-3" x="223.75" y="0">c</tspan><tspan class="cls-13" x="231.55" y="0">t </tspan><tspan class="cls-14" x="241.11" y="0">t</tspan><tspan class="cls-3" x="246.93" y="0">y</tspan><tspan class="cls-13" x="254.94" y="0">p</tspan><tspan x="264.22" y="0">e</tspan></text><g class="cls-15"><rect class="cls-16" x="1" y="1" width="560.34" height="458"/></g><text class="cls-17" transform="translate(490.7 156.37)">87</text><text class="cls-17" transform="translate(516.84 156.37)">%</text><text class="cls-18" transform="translate(495.36 173.3)">Re</text><text class="cls-18" transform="translate(509.95 173.3)">gula</text><text class="cls-18" transform="translate(533.75 173.3)">r</text><text class="cls-17" transform="translate(105.29 87.67)">7%</text><text class="cls-18" transform="translate(104.26 104.6)">Pr</text><text class="cls-18" transform="translate(116.37 104.6)">obationa</text><text class="cls-18" transform="translate(164.78 104.6)">ry</text><text class="cls-17" transform="translate(22.94 152.19)">6%</text><text class="cls-18" transform="translate(23.97 169.13)">Consultant</text><text class="cls-18" transform="translate(84.65 169.13)">, </text><text class="cls-18" transform="translate(90.65 169.13)">FT</text><text class="cls-18" transform="translate(105.14 169.13)">E</text><text class="cls-18" transform="translate(112.99 169.13)">, and </text><text class="cls-18" transform="translate(23.97 183.53)">Pr</text><text class="cls-18" transform="translate(36.08 183.53)">oject-</text><text class="cls-18" transform="translate(68.05 183.53)">Base</text><text class="cls-18" transform="translate(95.43 183.53)">d</text><g class="cls-15"><path class="cls-19" d="M306,139.43a124.57,124.57,0,1,1-91,39.49"/><path class="cls-20" d="M215,178.92A125,125,0,0,1,251.37,152"/><path class="cls-21" d="M250.51,152.42a124.17,124.17,0,0,1,55.46-13"/></g><path class="cls-22" d="M375.91,160.9H538.34m-260.1-15V91.21h-174m123.91,64.66H22.94"/></g></g></svg>