<svg xmlns="http://www.w3.org/2000/svg" xmlns:xlink="http://www.w3.org/1999/xlink" viewBox="0 0 109.22 109.22"><defs><style>.cls-1{fill:none;}.cls-2{fill:#fff;}.cls-3{fill:#fcbf33;}.cls-4{clip-path:url(#clip-path);}.cls-5{fill:#3b9945;}</style><clipPath id="clip-path"><rect class="cls-1" x="19.58" y="25.11" width="69.09" height="58.22"/></clipPath></defs><g id="Layer_2" data-name="Layer 2"><g id="Reward_Points" data-name="Reward Points"><rect class="cls-2" width="109.22" height="109.22"/><rect class="cls-3" x="79.21" y="52.84" width="0.72" height="15.9" transform="matrix(0.58, -0.82, 0.82, 0.58, -15.99, 90.72)"/><g class="cls-4"><path class="cls-3" d="M73.52,56.46c-.33.47-2.4-.44-2.87-.76A1,1,0,0,1,71.84,54c.46.33,2,2,1.68,2.44"/><path class="cls-3" d="M85.37,64.83c.33-.46,2.4.45,2.87.77a1,1,0,0,1-1.19,1.68c-.46-.33-2-2-1.68-2.45"/><path class="cls-5" d="M75.05,83.32l-13.22-5.4A16.62,16.62,0,0,1,59.67,67s6,.94,6-3.11a25.8,25.8,0,0,0-.2-4.73s1.64-.59,1.44-1.91a1.06,1.06,0,0,0,.3-1.21,8.74,8.74,0,0,1-1-3.37s3,0,3-1.14S64.46,45,64.46,45s1-2.77.75-4.33,1.53-12.8-14.8-15.25C37.58,23.5,29,30.3,27.29,40.1c-1.36,7.71.94,15.15,6.06,20.09,6.45,6.22.78,17.73.78,17.73l-14.55,5.4Z"/></g></g></g></svg>