<svg xmlns="http://www.w3.org/2000/svg" viewBox="0 0 87.28 87.28"><defs><style>.cls-1{fill:#fff;}.cls-2{font-size:36.39px;fill:#fec033;font-family:AcuminPro-Semibold, Acumin Pro;font-weight:600;}.cls-3{fill:#1c364a;}</style></defs><g id="Layer_2" data-name="Layer 2"><g id="Financial_Literacy_icon" data-name="Financial Literacy icon"><path class="cls-1" d="M87.28,43.64A43.64,43.64,0,1,1,43.64,0,43.64,43.64,0,0,1,87.28,43.64"/><text class="cls-2" transform="translate(34.18 55.6)">$</text><path class="cls-3" d="M61.61,24.8S48.73,13.42,33.7,20.08,18.45,42.84,18.45,42.84h7.09L14.37,57.65,3.21,42.76h7.84A32.41,32.41,0,0,1,14.3,28.94C20.45,16.41,33,12.3,35.64,11.49a33.72,33.72,0,0,1,10.42-.83,36.12,36.12,0,0,1,20.76,9.05Z"/><path class="cls-3" d="M26.51,61.56S39.38,73,54.42,66.3,69.68,43.55,69.68,43.55H62.59L73.76,28.73,84.92,43.64H77.07a32.14,32.14,0,0,1-3.25,13.82C67.67,70,55.16,74.07,52.47,74.89a33.78,33.78,0,0,1-10.42.81A36,36,0,0,1,21.3,66.64Z"/></g></g></svg>