<svg xmlns="http://www.w3.org/2000/svg" xmlns:xlink="http://www.w3.org/1999/xlink" viewBox="0 0 454.39 246.55"><defs><style>.cls-1{fill:none;}.cls-2{clip-path:url(#clip-path);}.cls-3{fill:#241f21;}.cls-4{fill:#ededed;}.cls-5{fill:#599442;}.cls-6{fill:#fff;}.cls-7{fill:#2e70a3;}.cls-8{fill:#fcbf33;}.cls-9{fill:#4091cf;}.cls-10{fill:#1c384a;}.cls-11{fill:#a6a6a6;}.cls-12{fill:#ff7330;}</style><clipPath id="clip-path" transform="translate(0 0)"><rect class="cls-1" width="454.39" height="246.55"/></clipPath></defs><g id="Layer_2" data-name="Layer 2"><g id="Emergency_Relief_Operations" data-name="Emergency Relief Operations"><g class="cls-2"><path class="cls-3" d="M47,220.7c0-1.21-.82-1.42-2.45-1.84s-2.4-.81-2.4-2.43a2.52,2.52,0,0,1,2.69-2.59,7.47,7.47,0,0,1,1.8.38c.19,0,.24-.1.33-.27h.38l.09,2.6h-.47c-.4-1.59-1.06-2.11-2.15-2.11s-1.73.54-1.73,1.38c0,1,.85,1.35,2,1.65,1.39.37,2.84.75,2.84,2.68a2.71,2.71,0,0,1-3,2.86,9.67,9.67,0,0,1-2.06-.37c-.19,0-.23.16-.33.4h-.4L42,220.1h.48c.38,1.43.81,2.3,2.39,2.3,1.35,0,2.09-.65,2.09-1.7" transform="translate(0 0)"/><path class="cls-3" d="M50.8,216.5l.09,1.2h0a2.47,2.47,0,0,1,2.22-1.28c1.34,0,1.93.67,1.93,2.16v3.7l.84.08v.51H53v-.51l.84-.08v-3.69c0-.84-.19-1.32-1.17-1.32A1.58,1.58,0,0,0,51,218.88v3.4l.87.08v.51H49v-.51l.83-.08v-5.11l-.83-.09v-.5Z" transform="translate(0 0)"/><path class="cls-3" d="M60.39,221.13v-1h-.71c-1.16,0-1.54.48-1.54,1.23s.23,1,.9,1a1.25,1.25,0,0,0,1.35-1.18m0-1.59v-.86c0-1.1-.27-1.73-1.27-1.73-.38,0-1.07.05-1.07.54a1.1,1.1,0,0,0,0,.16h.42a1.9,1.9,0,0,1,.07.46.65.65,0,0,1-.72.67.7.7,0,0,1-.74-.79c0-.92.94-1.57,2.2-1.57,1.59,0,2.29.62,2.29,2.4v2.9c0,.54.09.71.39.71a1.3,1.3,0,0,0,.42-.08l.11.43a1.92,1.92,0,0,1-.92.22c-.66,0-1-.24-1.15-.9a2.19,2.19,0,0,1-1.86.91c-1,0-1.78-.43-1.78-1.62,0-1.39,1.13-1.85,2.7-1.85Z" transform="translate(0 0)"/><path class="cls-3" d="M64.57,219.65c0,1.63.47,2.61,1.79,2.61A1.66,1.66,0,0,0,68,221.13l.56.19a2.38,2.38,0,0,1-2.4,1.69c-1.87,0-2.86-1.2-2.86-3.11,0-2.29,1.28-3.48,3.1-3.48,1.26,0,2.17.69,2.17,1.71,0,.75-.43,1.05-.91,1.05a.75.75,0,0,1-.82-.74,1.28,1.28,0,0,1,.13-.56h.43a1,1,0,0,0,0-.28c0-.42-.35-.58-1-.58-1.21,0-1.82.94-1.82,2.63" transform="translate(0 0)"/></g><path class="cls-3" d="M75.3,222.29l.69.08v.5H73.2v-.49l.63,0v-.07l-2.27-2.82v-.12l2.27-2.15v-.08L73,217v-.48h2.61v.51l-.9.09-2,1.91Zm-3.88-8.95v8.94l.82.09v.5H69.36v-.5l.85-.09V214l-.85-.09v-.5Z" transform="translate(0 0)"/><g class="cls-2"><path class="cls-3" d="M85.51,214l.11,2.44h-.47c-.33-1.55-.84-1.88-2.43-1.88H81.59v3.58h.66c1,0,1.31-.39,1.5-1.51h.4v3.76h-.42c-.21-1.33-.43-1.61-1.6-1.61h-.54v3.52l1.64.1v.49h-4v-.49l1-.09v-7.71l-1-.1V214Z" transform="translate(0 0)"/><path class="cls-3" d="M89.52,217c-1.29,0-1.57,1.24-1.57,2.63s.29,2.74,1.61,2.74,1.57-1.24,1.57-2.65S90.86,217,89.52,217m.06-.61c2,0,2.88,1.35,2.88,3.28S91.36,223,89.51,223s-2.89-1.33-2.89-3.26,1.15-3.33,3-3.33" transform="translate(0 0)"/><path class="cls-3" d="M96.39,217c-1.29,0-1.57,1.24-1.57,2.63s.29,2.74,1.61,2.74S98,221.16,98,219.75,97.73,217,96.39,217m.07-.61c1.94,0,2.87,1.35,2.87,3.28s-1.09,3.31-3,3.31-2.88-1.33-2.88-3.26,1.14-3.33,3-3.33" transform="translate(0 0)"/><path class="cls-3" d="M104.85,220.62v-2.1a1.34,1.34,0,0,0-.39-1,1.5,1.5,0,0,0-1.12-.43c-1.27,0-1.64,1-1.64,2.64,0,1.26.23,2.53,1.52,2.53a1.62,1.62,0,0,0,1.63-1.62m1.21,1.66.89.08v.51h-2l-.1-1a2.23,2.23,0,0,1-2,1.09c-1.67,0-2.48-1.26-2.48-3.17,0-2.16,1-3.42,2.72-3.42a2.23,2.23,0,0,1,1.76.7V214l-1-.11v-.48l2.22-.08Z" transform="translate(0 0)"/><path class="cls-3" d="M157.66,222.29h.6c1.78,0,2.35-.66,2.35-1.91s-.66-1.79-2.27-1.79h-.68Zm0-4.31H158c1.71,0,2.28-.7,2.28-1.8s-.59-1.62-2.2-1.62h-.41Zm.5-4c2.11,0,3.48.5,3.48,2.12a2,2,0,0,1-1.92,2.05v0c1.45.21,2.36,1,2.36,2.19,0,2-1.69,2.51-4,2.51h-2.84v-.51l1.08-.08v-7.72l-1.08-.07V214Z" transform="translate(0 0)"/><path class="cls-3" d="M167.39,219v-.28c0-1.16-.39-1.76-1.25-1.76s-1.5.93-1.58,2Zm-1.22-2.62c1.53,0,2.46.88,2.46,2.76,0,.16,0,.35,0,.53h-4c0,1.56.46,2.54,1.77,2.54a1.6,1.6,0,0,0,1.65-1.09l.56.19a2.39,2.39,0,0,1-2.45,1.66c-1.94,0-2.85-1.29-2.85-3.21,0-2.15,1.27-3.38,2.93-3.38" transform="translate(0 0)"/></g><polygon class="cls-3" points="169.15 216.56 171.94 216.56 171.94 217.07 171.07 217.12 172.54 221.64 172.59 221.64 174.06 217.12 173.19 217.07 173.19 216.56 175.45 216.56 175.45 217.07 174.81 217.12 172.78 222.87 171.79 222.87 169.72 217.12 169.15 217.07 169.15 216.56"/><g class="cls-2"><path class="cls-3" d="M180.19,219v-.28c0-1.16-.4-1.76-1.26-1.76s-1.5.93-1.58,2ZM179,216.42c1.52,0,2.45.88,2.45,2.76a5,5,0,0,1,0,.53h-4c0,1.56.46,2.54,1.77,2.54a1.59,1.59,0,0,0,1.65-1.09l.56.19a2.38,2.38,0,0,1-2.45,1.66c-1.93,0-2.85-1.29-2.85-3.21,0-2.15,1.27-3.38,2.94-3.38" transform="translate(0 0)"/><path class="cls-3" d="M185.74,222.36v.51h-3.4v-.51l.82-.08v-5.11l-.82-.09v-.5l1.82-.07.09,1.1h.05a2,2,0,0,1,1.83-1.19,1.19,1.19,0,0,1,1.3,1.18c0,.69-.36,1-.89,1a.76.76,0,0,1-.81-.86l.4-.17a.4.4,0,0,0,0-.15c0-.23-.19-.31-.42-.31a1.7,1.7,0,0,0-1.37,1.62v3.56Z" transform="translate(0 0)"/><path class="cls-3" d="M191.75,221.13v-1H191c-1.16,0-1.54.48-1.54,1.23s.23,1,.9,1a1.25,1.25,0,0,0,1.35-1.18m0-1.59v-.86c0-1.1-.27-1.73-1.27-1.73-.38,0-1.07.05-1.07.54a.5.5,0,0,0,0,.16h.42a2.57,2.57,0,0,1,.07.46.65.65,0,0,1-.72.67.7.7,0,0,1-.74-.79c0-.92.94-1.57,2.2-1.57,1.59,0,2.29.62,2.29,2.4v2.9c0,.54.08.71.39.71a1.3,1.3,0,0,0,.42-.08l.11.43a1.92,1.92,0,0,1-.92.22c-.67,0-1.05-.24-1.15-.9a2.2,2.2,0,0,1-1.87.91c-1,0-1.77-.43-1.77-1.62,0-1.39,1.13-1.85,2.7-1.85Z" transform="translate(0 0)"/><path class="cls-3" d="M197.16,220.36c.65,0,1.18-.41,1.18-1.72s-.48-1.66-1.19-1.66-1.25.44-1.25,1.69.51,1.69,1.26,1.69m-1.52,2.72a1.37,1.37,0,0,0-.32.86c0,.6.29,1,1.89,1,1.25,0,2-.26,2-1.07s-.63-.76-1.81-.76Zm4.06-6.94a.83.83,0,0,1,.4.09v.71l-1.2.18a2,2,0,0,1,.65,1.55,2.21,2.21,0,0,1-2.38,2.28,3.14,3.14,0,0,1-.72-.07c-.41.37-.6.57-.6.75s.17.26.52.26h1.2c1.46,0,2.55.22,2.55,1.66,0,1.27-.8,2-3.21,2-1.93,0-2.58-.54-2.58-1.37a1.47,1.47,0,0,1,.87-1.31.74.74,0,0,1-.44-.7c0-.57.51-.92,1.13-1.46a1.9,1.9,0,0,1-1.22-1.9,2.31,2.31,0,0,1,2.5-2.39,2.47,2.47,0,0,1,1.36.35,1.75,1.75,0,0,1,1.17-.63" transform="translate(0 0)"/><path class="cls-3" d="M205.14,219v-.28c0-1.16-.4-1.76-1.26-1.76s-1.5.93-1.57,2Zm-1.22-2.62c1.52,0,2.45.88,2.45,2.76,0,.16,0,.35,0,.53h-4c0,1.56.45,2.54,1.76,2.54a1.58,1.58,0,0,0,1.65-1.09l.56.19a2.38,2.38,0,0,1-2.45,1.66c-1.93,0-2.85-1.29-2.85-3.21,0-2.15,1.28-3.38,2.94-3.38" transform="translate(0 0)"/></g><polygon class="cls-3" points="267.24 217.98 271.19 217.98 271.19 214.58 270.19 214.49 270.19 213.98 273.53 213.98 273.53 214.48 272.53 214.56 272.53 222.28 273.53 222.38 273.53 222.87 270.19 222.87 270.19 222.38 271.19 222.28 271.19 218.67 267.24 218.67 267.24 222.28 268.25 222.38 268.25 222.87 264.9 222.87 264.9 222.38 265.91 222.28 265.91 214.58 264.9 214.49 264.9 213.98 268.25 213.98 268.25 214.48 267.24 214.56 267.24 217.98"/><g class="cls-2"><path class="cls-3" d="M277.51,217c-1.3,0-1.58,1.24-1.58,2.63s.29,2.74,1.61,2.74,1.58-1.24,1.58-2.65-.28-2.72-1.61-2.72m.06-.61c1.94,0,2.87,1.35,2.87,3.28s-1.09,3.31-2.95,3.31-2.88-1.33-2.88-3.26,1.14-3.33,3-3.33" transform="translate(0 0)"/><path class="cls-3" d="M282.22,217.18h-1v-.62h1v-1.64l.92-.25h.29v1.89h1.39v.62h-1.39v4.13c0,.7.16,1,.66,1s.76-.23,1-1l.48.13c-.26,1.08-.76,1.6-1.84,1.6a1.33,1.33,0,0,1-1.49-1.5Z" transform="translate(0 0)"/></g><polygon class="cls-3" points="299.14 213.98 299.14 214.48 298.19 214.55 298.19 222.28 299.14 222.37 299.14 222.87 295.94 222.87 295.94 222.37 296.89 222.28 296.89 214.58 296.84 214.58 294.12 222.87 293.49 222.87 290.63 214.59 290.58 214.59 290.58 222.28 291.46 222.37 291.46 222.87 289.06 222.87 289.06 222.37 289.88 222.28 289.88 214.55 289.06 214.48 289.06 213.98 291.82 213.98 294.09 220.74 294.14 220.74 296.35 213.98 299.14 213.98"/><g class="cls-2"><path class="cls-3" d="M304.43,219v-.28c0-1.16-.4-1.76-1.26-1.76s-1.5.93-1.58,2Zm-1.22-2.62c1.52,0,2.45.88,2.45,2.76a5,5,0,0,1,0,.53h-4c0,1.56.46,2.54,1.77,2.54a1.59,1.59,0,0,0,1.65-1.09l.56.19a2.38,2.38,0,0,1-2.45,1.66c-1.93,0-2.85-1.29-2.85-3.21,0-2.15,1.27-3.38,2.94-3.38" transform="translate(0 0)"/><path class="cls-3" d="M310.27,221.13v-1h-.71c-1.16,0-1.54.48-1.54,1.23s.23,1,.91,1a1.25,1.25,0,0,0,1.34-1.18m0-1.59v-.86c0-1.1-.26-1.73-1.27-1.73-.38,0-1.07.05-1.07.54a1.1,1.1,0,0,0,0,.16h.42a1.93,1.93,0,0,1,.08.46.66.66,0,0,1-.73.67A.7.7,0,0,1,307,218c0-.92.94-1.57,2.2-1.57,1.59,0,2.29.62,2.29,2.4v2.9c0,.54.09.71.39.71a1.3,1.3,0,0,0,.42-.08l.12.43a2,2,0,0,1-.93.22c-.66,0-1-.24-1.14-.9a2.21,2.21,0,0,1-1.87.91c-1,0-1.78-.43-1.78-1.62,0-1.39,1.13-1.85,2.71-1.85Z" transform="translate(0 0)"/></g><polygon class="cls-3" points="315.07 213.34 315.07 222.28 316.04 222.37 316.04 222.87 312.96 222.87 312.96 222.37 313.87 222.28 313.87 214.01 312.96 213.92 312.96 213.42 315.07 213.34"/><g class="cls-2"><path class="cls-3" d="M317,220.74h.5a1.77,1.77,0,0,0,1.91,1.65c.8,0,1.27-.38,1.27-1.11s-.75-1-1.57-1.16-2-.39-2-1.77a2,2,0,0,1,2.07-1.93,2.39,2.39,0,0,1,1.22.29.53.53,0,0,0,.23.08c.15,0,.2-.14.22-.37h.42v2h-.5a1.57,1.57,0,0,0-1.6-1.4,1,1,0,0,0-1.16.94c0,.73.71.87,1.54,1s2,.45,2,1.93a2,2,0,0,1-2.13,2.11,3,3,0,0,1-1.67-.47.44.44,0,0,0-.15,0c-.1,0-.17.09-.2.52H317Z" transform="translate(0 0)"/></g><polygon class="cls-3" points="361.06 217.98 365.01 217.98 365.01 214.58 364 214.49 364 213.98 367.35 213.98 367.35 214.48 366.34 214.56 366.34 222.28 367.35 222.38 367.35 222.87 364 222.87 364 222.38 365.01 222.28 365.01 218.67 361.06 218.67 361.06 222.28 362.06 222.38 362.06 222.87 358.72 222.87 358.72 222.38 359.72 222.28 359.72 214.58 358.72 214.49 358.72 213.98 362.06 213.98 362.06 214.48 361.06 214.56 361.06 217.98"/><g class="cls-2"><path class="cls-3" d="M368,216.56h2.81v.51l-.88.05,1.47,4.33h.05l1.46-4.33-.87-.05v-.51h2.26v.51l-.64.05-2.42,6.73c-.4,1.09-.73,1.7-1.79,1.7-.78,0-1.46-.39-1.46-1.2a.82.82,0,0,1,.83-.89c.41,0,.72.26.73.84l-.48.26c-.06.32.16.43.5.43.54,0,.68-.34,1.12-1.63l.12-.36-2.24-5.88-.57-.05Z" transform="translate(0 0)"/><path class="cls-3" d="M377.38,220.36c.65,0,1.18-.41,1.18-1.72s-.48-1.66-1.19-1.66-1.25.44-1.25,1.69.51,1.69,1.26,1.69m-1.52,2.72a1.37,1.37,0,0,0-.32.86c0,.6.29,1,1.89,1,1.25,0,2-.26,2-1.07s-.63-.76-1.81-.76Zm4.06-6.94a.83.83,0,0,1,.4.09v.71l-1.2.18a2,2,0,0,1,.65,1.55,2.21,2.21,0,0,1-2.38,2.28,3.14,3.14,0,0,1-.72-.07c-.41.37-.6.57-.6.75s.17.26.52.26h1.2c1.46,0,2.55.22,2.55,1.66,0,1.27-.8,2-3.21,2-1.93,0-2.58-.54-2.58-1.37a1.46,1.46,0,0,1,.88-1.31.73.73,0,0,1-.45-.7c0-.57.51-.92,1.13-1.46a1.9,1.9,0,0,1-1.22-1.9,2.31,2.31,0,0,1,2.5-2.39,2.45,2.45,0,0,1,1.36.35,1.75,1.75,0,0,1,1.17-.63" transform="translate(0 0)"/><path class="cls-3" d="M382.5,213.61a.78.78,0,1,1-.79.79.73.73,0,0,1,.79-.79m.75,2.9v5.77l1,.09v.5h-3.13v-.5l1-.09v-5.11l-1-.09v-.5Z" transform="translate(0 0)"/><path class="cls-3" d="M389.22,219v-.28c0-1.16-.39-1.76-1.26-1.76s-1.5.93-1.57,2ZM388,216.42c1.53,0,2.45.88,2.45,2.76,0,.16,0,.35,0,.53h-4c0,1.56.46,2.54,1.76,2.54a1.6,1.6,0,0,0,1.66-1.09l.55.19a2.38,2.38,0,0,1-2.45,1.66c-1.93,0-2.84-1.29-2.84-3.21,0-2.15,1.27-3.38,2.93-3.38" transform="translate(0 0)"/><path class="cls-3" d="M393.24,216.5l.09,1.2h0a2.5,2.5,0,0,1,2.23-1.28c1.34,0,1.93.67,1.93,2.16v3.7l.84.08v.51h-2.89v-.51l.84-.08v-3.69c0-.84-.19-1.32-1.17-1.32a1.58,1.58,0,0,0-1.69,1.61v3.4l.87.08v.51h-2.9v-.51l.83-.08v-5.11l-.83-.09v-.5Z" transform="translate(0 0)"/><path class="cls-3" d="M403.37,219v-.28c0-1.16-.39-1.76-1.25-1.76s-1.5.93-1.58,2Zm-1.21-2.62c1.52,0,2.45.88,2.45,2.76,0,.16,0,.35,0,.53h-4c0,1.56.46,2.54,1.77,2.54a1.6,1.6,0,0,0,1.65-1.09l.56.19a2.39,2.39,0,0,1-2.45,1.66c-1.94,0-2.85-1.29-2.85-3.21,0-2.15,1.27-3.38,2.94-3.38" transform="translate(0 0)"/></g><polygon class="cls-3" points="411.48 213.98 411.48 214.48 410.53 214.56 410.53 218.12 411.04 218 413.86 214.56 412.9 214.48 412.9 213.98 415.57 213.98 415.57 214.48 414.71 214.56 412.06 217.75 415.27 222.29 416.03 222.38 416.03 222.87 412.75 222.87 412.75 222.38 413.65 222.29 411.1 218.66 410.53 218.81 410.53 222.28 411.48 222.37 411.48 222.87 408.24 222.87 408.24 222.37 409.19 222.28 409.19 214.56 408.24 214.48 408.24 213.98 411.48 213.98"/><g class="cls-2"><path class="cls-3" d="M418,213.61a.78.78,0,1,1,0,1.55.7.7,0,0,1-.8-.76.72.72,0,0,1,.79-.79m.75,2.9v5.77l1,.09v.5h-3.12v-.5l.95-.09v-5.11l-.95-.09v-.5Z" transform="translate(0 0)"/><path class="cls-3" d="M421.25,217.18h-.95v-.62h.95v-1.64l.91-.25h.3v1.89h1.39v.62h-1.39v4.13c0,.7.16,1,.66,1s.76-.23,1-1l.49.13c-.26,1.08-.76,1.6-1.84,1.6a1.33,1.33,0,0,1-1.49-1.5Z" transform="translate(0 0)"/><path class="cls-3" d="M425.43,220.74h.49a1.78,1.78,0,0,0,1.91,1.65c.8,0,1.27-.38,1.27-1.11s-.75-1-1.56-1.16c-1-.2-2-.39-2-1.77a2,2,0,0,1,2.07-1.93,2.44,2.44,0,0,1,1.22.29.49.49,0,0,0,.23.08c.15,0,.2-.14.21-.37h.42v2h-.5a1.57,1.57,0,0,0-1.6-1.4,1,1,0,0,0-1.15.94c0,.73.71.87,1.54,1s2,.45,2,1.93a2,2,0,0,1-2.13,2.11,3,3,0,0,1-1.66-.47.49.49,0,0,0-.16,0c-.1,0-.16.09-.2.52h-.43Z" transform="translate(0 0)"/></g><rect class="cls-4" x="390.4" y="127.45" width="7.27" height="13.71"/><g class="cls-2"><path class="cls-3" d="M383.59,145l10.47,3,10.19-3,.11-4a1.87,1.87,0,0,0-1.89-1.88H385.6a1.91,1.91,0,0,0-1.89,1.88Z" transform="translate(0 0)"/><path class="cls-5" d="M397.67,129.48H411c1.38,0,1.53-.4,1.53-1.63v-1.4a3,3,0,0,0-3-3H388.12a3,3,0,1,0,0,6.07Z" transform="translate(0 0)"/><path class="cls-5" d="M415.29,196.17V155.36A10.41,10.41,0,0,0,404.91,145H383.16a10.41,10.41,0,0,0-10.38,10.39v40.81a2,2,0,0,0,2,2h38.45a2,2,0,0,0,2-2" transform="translate(0 0)"/><path class="cls-6" d="M388.76,178.34V174.6a.67.67,0,0,1,.66-.66h2.14V171.8a.66.66,0,0,1,.65-.66H396a.67.67,0,0,1,.66.66v2.14h2.14a.66.66,0,0,1,.65.66v3.74a.66.66,0,0,1-.65.66h-2.14v2.13a.67.67,0,0,1-.66.66h-3.74a.66.66,0,0,1-.65-.66V179h-2.14a.67.67,0,0,1-.66-.66M381.47,169v15.57a2.93,2.93,0,0,0,2.92,2.92h19.86a2.92,2.92,0,0,0,2.92-2.92V169a2.93,2.93,0,0,0-2.92-2.93H384.39a2.94,2.94,0,0,0-2.92,2.93" transform="translate(0 0)"/><path class="cls-7" d="M391.56,179v2.13a.66.66,0,0,0,.66.66H396a.67.67,0,0,0,.66-.66V179h2.14a.66.66,0,0,0,.65-.66V174.6a.66.66,0,0,0-.65-.66h-2.14V171.8a.67.67,0,0,0-.66-.66h-3.73a.66.66,0,0,0-.66.66v2.14h-2.14a.67.67,0,0,0-.66.66v3.74a.67.67,0,0,0,.66.66Z" transform="translate(0 0)"/><path class="cls-8" d="M409.43,148.45a5,5,0,0,0,3.57,5.06,6.26,6.26,0,0,0,1.88.29,5.19,5.19,0,0,0,5.46-5.35c0-2.75-3.53-7.55-5-9.77-.35-.53-.54-.53-.89,0a53.9,53.9,0,0,0-4.15,6.74,7.67,7.67,0,0,0-.86,3" transform="translate(0 0)"/><path class="cls-6" d="M399.86,154.22H388.79a1.13,1.13,0,1,1,0-2.25h11.07a1.13,1.13,0,1,1,0,2.25m0,5H388.79a1.13,1.13,0,0,1,0-2.26h11.07a1.13,1.13,0,0,1,0,2.26" transform="translate(0 0)"/></g><polygon class="cls-9" points="102.15 182.66 46.34 182.66 51.41 171.24 51.41 138.26 46.34 129.38 102.15 129.38 97.08 138.26 97.08 171.24 102.15 182.66"/><polygon class="cls-7" points="46.34 121.77 48.87 123.03 51.41 121.77 53.95 123.03 56.48 121.77 59.02 123.03 61.56 121.77 64.09 123.03 66.63 121.77 69.17 123.03 71.71 121.77 74.24 123.03 76.78 121.77 79.32 123.03 81.86 121.77 84.39 123.03 86.93 121.77 89.47 123.03 92 121.77 94.54 123.03 97.08 121.77 99.62 123.03 102.15 121.77 102.15 129.38 46.34 129.38 46.34 121.77"/><g class="cls-2"><path class="cls-8" d="M80.59,167.44H62.83L57.75,170V154.75A10.15,10.15,0,0,1,67.9,144.6H85.66l5.08-2.54v15.23a10.16,10.16,0,0,1-10.15,10.15" transform="translate(0 0)"/></g><polygon class="cls-7" points="102.15 190.27 99.62 189 97.08 190.27 94.54 189 92 190.27 89.47 189 86.93 190.27 84.39 189 81.86 190.27 79.32 189 76.78 190.27 74.24 189 71.71 190.27 69.17 189 66.63 190.27 64.09 189 61.56 190.27 59.02 189 56.48 190.27 53.95 189 51.41 190.27 48.87 189 46.34 190.27 46.34 182.66 102.15 182.66 102.15 190.27"/><polygon class="cls-8" points="84.39 195.34 79.32 192.81 41.26 192.81 36.19 195.34 36.19 175.05 41.26 177.59 79.32 177.59 84.39 175.05 84.39 195.34"/><polygon class="cls-10" points="36.19 195.34 28.57 195.34 29.84 192.81 28.57 190.27 29.84 187.73 28.57 185.2 29.84 182.66 28.57 180.12 29.84 177.59 28.57 175.05 36.19 175.05 36.19 195.34"/><polygon class="cls-10" points="84.39 175.05 92 175.05 90.74 177.58 92 180.12 90.74 182.66 92 185.2 90.74 187.73 92 190.27 90.74 192.81 92 195.34 84.39 195.34 84.39 175.05"/><rect class="cls-10" x="45.07" y="182.66" width="30.45" height="5.07"/><rect class="cls-5" x="146.77" y="155.52" width="26.15" height="35.95"/><polygon class="cls-4" points="169.65 198.01 150.04 198.01 146.78 191.47 172.92 191.47 169.65 198.01"/><polygon class="cls-4" points="172.92 155.52 146.77 155.52 150.04 148.98 169.65 148.98 172.92 155.52"/><g class="cls-2"><path class="cls-4" d="M172.92,178.4l-3.62,1.45a25.46,25.46,0,0,1-9.45,1.82,25.35,25.35,0,0,0-9.46,1.82l-3.62,1.44V168.59l3.62-1.45a25.55,25.55,0,0,1,9.46-1.82,25.26,25.26,0,0,0,9.45-1.82l3.62-1.44Z" transform="translate(0 0)"/></g><rect class="cls-10" x="188.98" y="129.37" width="13.07" height="3.27"/><g class="cls-2"><path class="cls-10" d="M200.42,135.13V131h-9.8v4.12A14.7,14.7,0,0,0,180.81,149v44.13a4.91,4.91,0,0,0,9.81,0,4.9,4.9,0,1,0,9.8,0,4.91,4.91,0,0,0,9.81,0V149a14.71,14.71,0,0,0-9.81-13.85" transform="translate(0 0)"/><path class="cls-8" d="M200.42,129.37h-9.8V126.1a1.63,1.63,0,0,1,1.63-1.63h6.54a1.63,1.63,0,0,1,1.63,1.63Z" transform="translate(0 0)"/></g><rect class="cls-8" x="180.81" y="152.25" width="29.42" height="31.05"/><g class="cls-2"><path class="cls-5" d="M105.3,50.41h.36c2.46,0,3.45-1,3.45-3s-1-2.67-3.3-2.67h-.51Zm0,1.78v6l1.83.2v2H99.28v-2l1.83-.2V44.72l-1.83-.2V42.59h6.53c3.89,0,7.7.58,7.7,4.29,0,2.95-1.86,4-4.88,4.22v.07c3.25.36,4.45,1.43,4.45,4.37v1.68c0,.86.07,1.37.86,1.37s1-.81,1.2-2.34l1.29.18c-.13,2.52-.91,4.22-3.94,4.22-2.16,0-3.63-1-3.63-3.66V54.65c0-1.65-.64-2.46-2.39-2.46Z" transform="translate(0 0)"/><path class="cls-5" d="M125.15,52.67v-.45c0-2.32-.33-3.33-1.65-3.33-1.5,0-2,1.67-2,3.78Zm-1.5-5.31c3.25,0,5.49,1.76,5.49,5.62,0,.33,0,1-.06,1.37h-7.62c0,2.36.56,4.19,2.85,4.19,1.57,0,2.31-.91,2.92-2.29l1.8.64a5.21,5.21,0,0,1-5.36,3.76c-4.11,0-6.32-2.59-6.32-6.43,0-4.37,2.69-6.86,6.3-6.86" transform="translate(0 0)"/></g><polygon class="cls-5" points="136.3 41.31 136.3 58.44 138.05 58.62 138.05 60.37 130.66 60.37 130.66 58.62 132.36 58.44 132.36 43.4 130.66 43.22 130.66 41.52 136.3 41.31"/><g class="cls-2"><path class="cls-5" d="M142.63,41.52A2,2,0,0,1,145,43.73a2.38,2.38,0,0,1-4.75,0,2.12,2.12,0,0,1,2.42-2.23m2.28,6.07V58.44l1.93.18v1.75h-7.77V58.62l1.91-.18V49.67l-1.86-.17V47.79Z" transform="translate(0 0)"/><path class="cls-5" d="M155.59,52.67v-.45c0-2.32-.33-3.33-1.65-3.33-1.5,0-2,1.67-2,3.78Zm-1.5-5.31c3.25,0,5.49,1.76,5.49,5.62,0,.33,0,1-.06,1.37H151.9c0,2.36.56,4.19,2.85,4.19,1.57,0,2.31-.91,2.92-2.29l1.8.64a5.21,5.21,0,0,1-5.36,3.76c-4.11,0-6.32-2.59-6.32-6.43,0-4.37,2.69-6.86,6.3-6.86" transform="translate(0 0)"/><path class="cls-5" d="M170.25,49.57h-3.53v8.87l3.09.23v1.7h-8.76v-1.7l1.73-.23V49.57h-1.65V47.64h1.65v-.51c0-4,1.83-6.4,5.76-6.4,2.65,0,3.77,1.52,3.77,2.92a1.93,1.93,0,0,1-2,2.19,1.66,1.66,0,0,1-1.85-1.73,1.74,1.74,0,0,1,.13-.64l.91-.1a1.92,1.92,0,0,0,.08-.51c0-.58-.46-.76-1-.76-1.53,0-1.88,1.22-1.88,2.8v2.74h3.53Z" transform="translate(0 0)"/><path class="cls-5" d="M182.06,51.33h.61c2.39,0,3.61-1,3.61-3.43,0-2.57-1.14-3.21-3.46-3.21h-.76Zm1.2-8.74c4.37,0,7.49,1.09,7.49,5,0,4.37-3.61,5.74-8.05,5.74h-.64v4.9l2.67.18v1.93H176V58.44l1.83-.18V44.69L176,44.52V42.59Z" transform="translate(0 0)"/><path class="cls-5" d="M199.44,56.64V55.06h-1c-1.6,0-2.06.64-2.06,2s.41,1.72,1.4,1.72,1.65-.55,1.65-2.1m0-2.9V51.91c0-2-.46-3.1-2.26-3.1-.76,0-1.45.18-1.45.84a2.45,2.45,0,0,0,.05.35h1a5.15,5.15,0,0,1,.15,1c0,1-.63,1.75-2,1.75a1.83,1.83,0,0,1-2-2c0-2,1.83-3.38,5.11-3.38s5.31,1.15,5.31,4.8V57.4c0,.91.05,1.34.58,1.34a2.28,2.28,0,0,0,.84-.2l.36,1.3a5.52,5.52,0,0,1-2.87.81,2.31,2.31,0,0,1-2.62-1.91,3.72,3.72,0,0,1-3.58,1.91c-2,0-3.74-.89-3.74-3.33,0-2.77,1.93-3.58,5.29-3.58Z" transform="translate(0 0)"/><path class="cls-5" d="M210.22,53.92c0,2.94.61,4.65,2.79,4.65,1.6,0,2.24-1.27,2.72-2.42l1.83.64a5.1,5.1,0,0,1-5.26,3.86c-4.07,0-6.25-2.41-6.25-6.33,0-4.29,2.51-7,6.68-7,3.3,0,4.75,1.81,4.75,3.81a2.08,2.08,0,0,1-2.13,2.29,1.79,1.79,0,0,1-1.88-1.91,3.32,3.32,0,0,1,.18-1.09h1a1.78,1.78,0,0,0,.08-.48c0-.76-.61-1-1.53-1-2.16,0-2.94,2.08-2.94,5" transform="translate(0 0)"/></g><path class="cls-5" d="M232.78,58.44l1.22.15v1.78h-6.86V58.62l1.11-.13v-.13l-3.63-4.62v-.48L229,49.57v-.15l-1.57-.1V47.64h5.89v1.73l-1.8.18-3.41,2.94Zm-8.31-17.13V58.44l1.27.18v1.75H218.9V58.62l1.63-.18v-15l-1.6-.18V41.49Z" transform="translate(0 0)"/><g class="cls-2"><path class="cls-5" d="M235.24,56.25h1.58a3.55,3.55,0,0,0,3.71,2.65c1.42,0,2.11-.46,2.11-1.4,0-1.14-1.15-1.35-2.57-1.6-2.13-.38-4.75-.81-4.75-4.19,0-2.65,2-4.35,4.72-4.35a4.74,4.74,0,0,1,2.39.61,1.1,1.1,0,0,0,.54.15c.33,0,.38-.17.5-.61h1.35v3.94h-1.55c-.66-1.62-1.55-2.41-3.17-2.41-1,0-1.94.38-1.94,1.32s1.12,1.24,2.49,1.52c2.14.41,4.88.92,4.88,4.32,0,2.82-1.85,4.45-4.67,4.45a6.26,6.26,0,0,1-3.13-.79,1.33,1.33,0,0,0-.48-.13c-.28,0-.38.18-.53.77h-1.48Z" transform="translate(0 0)"/><path class="cls-5" d="M258.16,58.29c4.14,0,5.84-2.14,5.84-7,0-5.54-2.31-6.64-6.07-6.64h-.38v13.6Zm-.58,2.08H251.5v-2l1.86-.17V44.69l-1.86-.15V42.59h6.79c6.17,0,10.19,2.26,10.19,8.58,0,7.17-4.93,9.2-10.9,9.2" transform="translate(0 0)"/><path class="cls-5" d="M278,52.67v-.45c0-2.32-.33-3.33-1.65-3.33-1.5,0-2,1.67-2,3.78Zm-1.5-5.31c3.25,0,5.49,1.76,5.49,5.62,0,.33,0,1-.05,1.37H274.3c0,2.36.55,4.19,2.84,4.19,1.58,0,2.31-.91,2.92-2.29l1.81.64a5.23,5.23,0,0,1-5.36,3.76c-4.12,0-6.33-2.59-6.33-6.43,0-4.37,2.69-6.86,6.3-6.86" transform="translate(0 0)"/></g><polygon class="cls-5" points="289.13 41.31 289.13 58.44 290.89 58.62 290.89 60.37 283.49 60.37 283.49 58.62 285.19 58.44 285.19 43.4 283.49 43.22 283.49 41.52 289.13 41.31"/><g class="cls-2"><path class="cls-5" d="M295.46,41.52a2,2,0,0,1,2.34,2.21,2.38,2.38,0,0,1-4.75,0,2.12,2.12,0,0,1,2.41-2.23m2.29,6.07V58.44l1.93.18v1.75H291.9V58.62l1.91-.18V49.67L292,49.5V47.79Z" transform="translate(0 0)"/></g><polygon class="cls-5" points="300.04 47.64 306.89 47.64 306.89 49.39 305.35 49.5 307.86 56.59 307.96 56.59 310.32 49.5 308.83 49.39 308.83 47.64 313.65 47.64 313.65 49.39 312.38 49.5 308.55 60.37 305.47 60.37 301.18 49.5 300.04 49.39 300.04 47.64"/><g class="cls-2"><path class="cls-5" d="M322.22,52.67v-.45c0-2.32-.33-3.33-1.66-3.33-1.49,0-1.95,1.67-2,3.78Zm-1.5-5.31c3.25,0,5.49,1.76,5.49,5.62,0,.33,0,1-.06,1.37h-7.62c0,2.36.56,4.19,2.85,4.19,1.57,0,2.31-.91,2.92-2.29l1.8.64a5.21,5.21,0,0,1-5.36,3.76c-4.11,0-6.32-2.59-6.32-6.43,0-4.37,2.69-6.86,6.3-6.86" transform="translate(0 0)"/><path class="cls-5" d="M336.22,58.59v1.78h-8.49V58.59l1.65-.18V49.65l-1.65-.18V47.74l5.18-.17.18,2.18h.1a3.87,3.87,0,0,1,3.66-2.39,2.78,2.78,0,0,1,3,3,2.41,2.41,0,0,1-2.47,2.67c-1.6,0-2.16-1-2.13-2.31l1-.31a1.47,1.47,0,0,0,0-.33c0-.43-.3-.61-.73-.61-1.43,0-2.29,1.73-2.29,3.61v5.28Z" transform="translate(0 0)"/><path class="cls-5" d="M348.62,52.67v-.45c0-2.32-.33-3.33-1.66-3.33-1.5,0-1.95,1.67-2,3.78Zm-1.5-5.31c3.25,0,5.48,1.76,5.48,5.62,0,.33,0,1-.05,1.37h-7.62c0,2.36.56,4.19,2.85,4.19,1.57,0,2.31-.91,2.92-2.29l1.8.64a5.21,5.21,0,0,1-5.36,3.76c-4.11,0-6.32-2.59-6.32-6.43,0-4.37,2.69-6.86,6.3-6.86" transform="translate(0 0)"/><path class="cls-5" d="M363.2,55.49V52c0-1.73-1-2.77-2.39-2.77-1.85,0-2.31,1.65-2.31,4.85,0,2.7.28,4.65,2.26,4.65,1.6,0,2.44-1.37,2.44-3.2m-.13-6.73.05,0V43.37l-1.8-.2V41.49l5.74-.18v17.1l1.6.18v1.78h-5.08l-.25-1.7h-.08a4.1,4.1,0,0,1-3.76,2c-3.35,0-5.16-2.36-5.16-6.43,0-4.24,2-6.86,5.62-6.86a3.7,3.7,0,0,1,3.12,1.4" transform="translate(0 0)"/><path class="cls-7" d="M173.19,7.67C173.58,4.24,176,0,183,0c6.43,0,9.31,3.64,9.31,7.58a5.9,5.9,0,0,1-3.47,5.68v.12a6.59,6.59,0,0,1,4.53,6.69c0,4-2.41,8.81-10.42,8.81-7.49,0-10-4.49-10.29-8.17h5.89c.38,1.91,1.69,3.52,4.57,3.52A3.89,3.89,0,0,0,187.3,20c0-2.58-1.36-4.15-4.58-4.15h-2.54V11.18h2.25c2.75,0,3.89-.93,3.89-3.26,0-1.91-1.14-3.22-3.55-3.22-2.84,0-3.52,1.61-3.82,3Z" transform="translate(0 0)"/><path class="cls-7" d="M215.12.51V5c-4.4,6.27-8.72,15.29-9.83,23.38h-6.22c1.1-8.22,6.1-18,9.87-22.87H195.81v-5Z" transform="translate(0 0)"/><path class="cls-7" d="M216.22,33.29a35.86,35.86,0,0,0,3.13-12.37h6.23c-.47,4.19-1.86,8.89-4.66,12.37Z" transform="translate(0 0)"/><path class="cls-7" d="M229.22,28.38V28c0-4.87,2.16-8.81,8.22-13.21,3.93-2.88,5.12-3.85,5.12-6.31S241.37,4.7,239,4.7c-2.75,0-3.72,1.69-4.1,4.11h-5.85C229.47,4,232.61,0,239,0c7.16,0,9.62,4.28,9.62,8.43s-1.78,6-6.9,9.61c-3.43,2.42-4.83,4-5.3,5.3h13.21l-.76,5Z" transform="translate(0 0)"/><path class="cls-7" d="M271,.51V5c-4.41,6.27-8.73,15.29-9.83,23.38h-6.23c1.11-8.22,6.1-18,9.87-22.87H251.66v-5Z" transform="translate(0 0)"/><path class="cls-7" d="M288.59,19c0-2.67-1-5-4.32-5-2.71,0-4.28,1.61-4.28,4.83,0,2.25,1.06,5.25,4.28,5.25,3,0,4.32-2.2,4.32-5M288,7.28c-.34-1.35-1.1-2.66-3.56-2.66-3.72,0-4.7,3.47-4.87,7.24a7.76,7.76,0,0,1,6.31-2.59c5.13,0,8.73,3.77,8.73,9.24,0,6-3.81,10.37-10.21,10.37-8.09,0-10.8-6.22-10.8-14.1C273.64,7.54,276.23,0,284.78,0c6.06,0,8.85,3.81,9.15,7.28Z" transform="translate(0 0)"/><path class="cls-3" d="M155.16,75.77h-1.47V74h1.47V73a3.64,3.64,0,0,1,.74-2.4,2.73,2.73,0,0,1,2.24-.9,4.84,4.84,0,0,1,1.2.11v1.89a3.13,3.13,0,0,0-.66-.08,1.79,1.79,0,0,0-.56.08.72.72,0,0,0-.36.26,1.18,1.18,0,0,0-.2.48,3.06,3.06,0,0,0-.07.73V74h1.77v1.79h-1.77v7.88h-2.33Z" transform="translate(0 0)"/><path class="cls-3" d="M163.08,76.44a4,4,0,0,0-.6,2.37,3.91,3.91,0,0,0,.63,2.34,2,2,0,0,0,1.7.86,1.93,1.93,0,0,0,1.68-.85,4,4,0,0,0,.6-2.33,5.35,5.35,0,0,0-.26-1.76A2.26,2.26,0,0,0,166,76a2.15,2.15,0,0,0-1.26-.36,2,2,0,0,0-1.7.82m5.13-1.31a5.22,5.22,0,0,1,1.26,3.66,5.32,5.32,0,0,1-1.26,3.66,4.85,4.85,0,0,1-6.86,0,5.29,5.29,0,0,1-1.25-3.64,5.22,5.22,0,0,1,1.28-3.66,4.46,4.46,0,0,1,3.49-1.41,4.31,4.31,0,0,1,3.34,1.37" transform="translate(0 0)"/><path class="cls-3" d="M171.41,74h2.29a14.83,14.83,0,0,1,.06,1.79,3,3,0,0,1,1.16-1.46,3.47,3.47,0,0,1,2-.55V76a3.39,3.39,0,0,0-2.38.7,3.35,3.35,0,0,0-.79,2.56v4.38h-2.33V76.59c0-1.27,0-2.14,0-2.61" transform="translate(0 0)"/><path class="cls-3" d="M186,73.2c0,.42-.19,1.34-.43,2.77a3.28,3.28,0,0,1,2.35-.78,3.52,3.52,0,0,1,2.77,1.14,4.34,4.34,0,0,1,1,3,5.36,5.36,0,0,1-.26,1.73,4.33,4.33,0,0,1-.78,1.45,3.52,3.52,0,0,1-1.42,1,5.24,5.24,0,0,1-2.05.38,4.86,4.86,0,0,1-3-.91,3.65,3.65,0,0,1-1.41-2.52h2.36a2,2,0,0,0,2.11,1.6,1.86,1.86,0,0,0,1.56-.69,2.94,2.94,0,0,0,.54-1.86c0-1.63-.68-2.45-2.06-2.45a2.22,2.22,0,0,0-1.37.36,2.38,2.38,0,0,0-.76,1L183,78.14c.15-.74.33-1.84.56-3.3s.38-2.66.48-3.58h7.29L191,73.2Z" transform="translate(0 0)"/><path class="cls-3" d="M196.88,73.23a2,2,0,0,0-.69,1,5.63,5.63,0,0,0-.34,1.4,14.26,14.26,0,0,0-.11,1.87c0,.51,0,1,0,1.36A7.58,7.58,0,0,0,196,80a3.46,3.46,0,0,0,.37,1,1.84,1.84,0,0,0,.63.67,1.67,1.67,0,0,0,1,.26,1.7,1.7,0,0,0,.95-.25,2,2,0,0,0,.64-.64,3.54,3.54,0,0,0,.36-1,8.9,8.9,0,0,0,.18-1.23c0-.41,0-.89,0-1.44a14.5,14.5,0,0,0-.08-1.72,7,7,0,0,0-.31-1.4,2.11,2.11,0,0,0-.65-1,1.68,1.68,0,0,0-1.08-.34,1.87,1.87,0,0,0-1.1.31m2.88-1.86a3.54,3.54,0,0,1,1.3.91,4.64,4.64,0,0,1,.85,1.4,7.78,7.78,0,0,1,.48,1.73,13.56,13.56,0,0,1,.14,2,14.64,14.64,0,0,1-.13,1.93,8.3,8.3,0,0,1-.46,1.76,5,5,0,0,1-.84,1.46,3.55,3.55,0,0,1-1.32,1,4.54,4.54,0,0,1-1.86.37,4.44,4.44,0,0,1-1.84-.36,3.68,3.68,0,0,1-1.32-.94,4.86,4.86,0,0,1-.84-1.43,7.86,7.86,0,0,1-.48-1.74,13.15,13.15,0,0,1-.14-2,11.84,11.84,0,0,1,.15-1.94,8.56,8.56,0,0,1,.49-1.75,5.23,5.23,0,0,1,.88-1.43,3.83,3.83,0,0,1,1.33-1A4.46,4.46,0,0,1,198,71a4.59,4.59,0,0,1,1.78.33" transform="translate(0 0)"/><path class="cls-3" d="M217,81.79a4.23,4.23,0,0,1-.78,1,3.45,3.45,0,0,1-1.25.77,5.39,5.39,0,0,1-1.77.28,4.13,4.13,0,0,1-3.31-1.37,5.39,5.39,0,0,1-1.18-3.65,5.46,5.46,0,0,1,1.24-3.64,4.2,4.2,0,0,1,3.39-1.46,5,5,0,0,1,1.59.24,3.71,3.71,0,0,1,1.16.6,4,4,0,0,1,.76.84,4.06,4.06,0,0,1,.44.89,3.87,3.87,0,0,1,.15.8h-2.3a1.73,1.73,0,0,0-1.86-1.51,1.8,1.8,0,0,0-1.6.84,4.1,4.1,0,0,0-.56,2.33,4.25,4.25,0,0,0,.56,2.41,1.8,1.8,0,0,0,1.58.83,1.85,1.85,0,0,0,1.86-1.45h2.32a5.45,5.45,0,0,1-.44,1.21" transform="translate(0 0)"/><path class="cls-3" d="M221.55,76.44a4,4,0,0,0-.6,2.37,3.91,3.91,0,0,0,.63,2.34,2,2,0,0,0,1.7.86,1.93,1.93,0,0,0,1.68-.85,4,4,0,0,0,.6-2.33,5.35,5.35,0,0,0-.26-1.76,2.26,2.26,0,0,0-.79-1.09,2.15,2.15,0,0,0-1.26-.36,2,2,0,0,0-1.7.82m5.13-1.31a5.22,5.22,0,0,1,1.26,3.66,5.32,5.32,0,0,1-1.26,3.66,4.85,4.85,0,0,1-6.86,0,5.92,5.92,0,0,1,0-7.3,4.5,4.5,0,0,1,3.5-1.41,4.31,4.31,0,0,1,3.34,1.37" transform="translate(0 0)"/><path class="cls-3" d="M229.88,74h2.23a12.37,12.37,0,0,1,.1,1.27,3,3,0,0,1,2.72-1.49,2.88,2.88,0,0,1,1.62.43,2.59,2.59,0,0,1,.95,1.13,3.36,3.36,0,0,1,3-1.56,3,3,0,0,1,2.22.86,3.72,3.72,0,0,1,.86,2.7v6.33h-2.3V77.59a3,3,0,0,0-.13-.94,1.45,1.45,0,0,0-.5-.7,1.53,1.53,0,0,0-1-.29c-1.21,0-1.81.82-1.81,2.46v5.53H235.6v-6a2.65,2.65,0,0,0-.34-1.46,1.29,1.29,0,0,0-1.21-.53c-1.23,0-1.84.86-1.84,2.59v5.38H229.9V76.46c0-1.12,0-1.95,0-2.48" transform="translate(0 0)"/><path class="cls-3" d="M246.11,74h2.23a12.37,12.37,0,0,1,.1,1.27,3,3,0,0,1,2.72-1.49,2.88,2.88,0,0,1,1.62.43,2.66,2.66,0,0,1,.95,1.13,3.36,3.36,0,0,1,3-1.56,3,3,0,0,1,2.22.86,3.72,3.72,0,0,1,.86,2.7v6.33h-2.3V77.59a3,3,0,0,0-.13-.94,1.45,1.45,0,0,0-.5-.7,1.53,1.53,0,0,0-.95-.29c-1.21,0-1.81.82-1.81,2.46v5.53h-2.29v-6a2.65,2.65,0,0,0-.34-1.46,1.29,1.29,0,0,0-1.21-.53c-1.23,0-1.84.86-1.84,2.59v5.38h-2.31V76.46c0-1.12,0-1.95,0-2.48" transform="translate(0 0)"/><path class="cls-3" d="M270.63,83.65h-2.27c0-.13-.05-.55-.08-1.23a2.88,2.88,0,0,1-2.76,1.46,3.1,3.1,0,0,1-2.33-.89,3.7,3.7,0,0,1-.87-2.69V74h2.33v5.85c0,1.41.55,2.11,1.66,2.11a1.74,1.74,0,0,0,1.52-.65,4,4,0,0,0,.45-2.19V74h2.33v6.84c0,1.38,0,2.32,0,2.83" transform="translate(0 0)"/><path class="cls-3" d="M273.16,74h2.26a7.28,7.28,0,0,1,.09,1.36,2.9,2.9,0,0,1,2.87-1.58,3,3,0,0,1,2.35.95,4,4,0,0,1,.87,2.77v6.17h-2.32V77.74c0-1.38-.58-2.06-1.72-2.06-1.37,0-2.05.88-2.05,2.66v5.31h-2.33V76.4c0-1.13,0-1.94,0-2.42" transform="translate(0 0)"/></g><path class="cls-3" d="M286.47,83.65h-2.33V74h2.33ZM284.14,69.9h2.33v2.27h-2.33Z" transform="translate(0 0)"/><g class="cls-2"><path class="cls-3" d="M289.52,74v-2.7h2.33V74h2v1.79h-2v5.09a1.31,1.31,0,0,0,.23.87,1,1,0,0,0,.83.26,5.73,5.73,0,0,0,.69,0V83.6a5.77,5.77,0,0,1-1.69.18,2.3,2.3,0,0,1-1.83-.65,2.93,2.93,0,0,1-.56-1.94V75.77H288V74Z" transform="translate(0 0)"/></g><path class="cls-3" d="M297.89,83.65h-2.33V74h2.33ZM295.56,69.9h2.33v2.27h-2.33Z" transform="translate(0 0)"/><g class="cls-2"><path class="cls-3" d="M305.89,76.11a1.77,1.77,0,0,0-1.5-.64c-1.28,0-2,.78-2.14,2.35h4.15a2.8,2.8,0,0,0-.51-1.71m-3.13,5.13a1.9,1.9,0,0,0,1.61.77,2,2,0,0,0,1.25-.31,2,2,0,0,0,.65-.88h2.35a3.78,3.78,0,0,1-.3.79A4.28,4.28,0,0,1,307,83.16a4.33,4.33,0,0,1-1.14.51,5.24,5.24,0,0,1-1.53.21,4.57,4.57,0,0,1-2-.42,3.6,3.6,0,0,1-1.4-1.1,5.15,5.15,0,0,1-.79-1.57,6.16,6.16,0,0,1-.27-1.84A5.71,5.71,0,0,1,301,75.18a4.16,4.16,0,0,1,3.4-1.42,4.79,4.79,0,0,1,2,.4,3.15,3.15,0,0,1,1.35,1.1,5,5,0,0,1,.72,1.5,6.25,6.25,0,0,1,.23,1.71q0,.56,0,.84h-6.53a3.18,3.18,0,0,0,.57,1.93" transform="translate(0 0)"/><path class="cls-3" d="M314.27,82.14c1,0,1.54-.36,1.54-1.1a1,1,0,0,0-.4-.85,4.76,4.76,0,0,0-1.55-.56,11.69,11.69,0,0,1-1.53-.48,6.58,6.58,0,0,1-1-.51,2.18,2.18,0,0,1-.61-.6,2.24,2.24,0,0,1-.31-.67,3.48,3.48,0,0,1-.08-.76,2.65,2.65,0,0,1,.92-2,4.17,4.17,0,0,1,2.84-.82,5.6,5.6,0,0,1,1.77.25,2.9,2.9,0,0,1,1.21.69,3.54,3.54,0,0,1,.67.92,3,3,0,0,1,.27,1h-2.26c-.16-.8-.74-1.2-1.75-1.2a1.6,1.6,0,0,0-1,.28.9.9,0,0,0-.32.71.77.77,0,0,0,.39.68,6.09,6.09,0,0,0,1.58.55,10,10,0,0,1,1.88.59,3.26,3.26,0,0,1,1.11.75,2.6,2.6,0,0,1,.51.86,3.44,3.44,0,0,1,.14,1,2.68,2.68,0,0,1-1,2.15,4.57,4.57,0,0,1-3,.86,4.72,4.72,0,0,1-3-.85,3.46,3.46,0,0,1-1.22-2.25h2.32a1.79,1.79,0,0,0,2,1.36" transform="translate(0 0)"/><path class="cls-4" d="M327,164a33.81,33.81,0,1,0-33.81,33.8A33.81,33.81,0,0,0,327,164" transform="translate(0 0)"/><path class="cls-11" d="M293.18,138.89A25.07,25.07,0,1,0,318.24,164a25.1,25.1,0,0,0-25.06-25.07m0,51A25.92,25.92,0,1,1,319.09,164a25.94,25.94,0,0,1-25.91,25.91" transform="translate(0 0)"/><path class="cls-12" d="M272.06,166.14c10.38,1.92,17.25-5.93,31.17-14.62a8.76,8.76,0,0,0,3.12-3.52,4.39,4.39,0,0,0-.25-4.51,6,6,0,0,0-2.47-1.63,33.55,33.55,0,0,0-25.31-.37,19.71,19.71,0,0,0-8.85,6.53c-3.33,4.43-5.72,11.88-2.58,15.68.42.5,1.63,1.78,5.17,2.44" transform="translate(0 0)"/><path class="cls-7" d="M260,161.17h-4.68c-4.79,0-8.68-4.69-8.68-10.47V136.22a2.12,2.12,0,1,1,4.23,0V150.7c0,3.38,2,6.24,4.45,6.24H260c2.41,0,4.44-2.86,4.44-6.24V136.22a2.12,2.12,0,0,1,4.24,0V150.7c0,5.78-3.9,10.47-8.68,10.47" transform="translate(0 0)"/><path class="cls-7" d="M257.7,199a2.12,2.12,0,0,1-2.12-2.12V136.22a2.12,2.12,0,1,1,4.23,0V196.9A2.11,2.11,0,0,1,257.7,199" transform="translate(0 0)"/><path class="cls-7" d="M336.33,147.48c0-7.43-4.11-13.46-9.19-13.46s-9.2,6-9.2,13.46,4.12,13.47,9.2,13.47,9.19-6,9.19-13.47" transform="translate(0 0)"/><path class="cls-7" d="M327.14,199A2.12,2.12,0,0,1,325,196.9V145.85a2.12,2.12,0,1,1,4.23,0V196.9a2.11,2.11,0,0,1-2.11,2.12" transform="translate(0 0)"/><path class="cls-6" d="M273.34,176.66c.5,4.62,6.84,7.08,9.7,8.18a24.76,24.76,0,0,0,15.79.49c1.84-.53,12.44-3.58,12.79-9.14.33-5.27-8.72-9.71-14.32-11.15-2.18-.56-8.63-2.1-15.17,1.2-1.17.59-9.4,4.89-8.79,10.42" transform="translate(0 0)"/><path class="cls-5" d="M305.28,151.7a16.83,16.83,0,0,0-6.22-1.6c-1.91-.12-2.3,2.88-.45,3.32l5.66,1.36c-.13-1-.27-2.06-.4-3.09a12,12,0,0,0-2.4,1.93,1.72,1.72,0,0,0,.75,2.83,2.74,2.74,0,0,0,1.83,0A2.83,2.83,0,0,0,305,156c.25-.28-.74-.9-1-.55a5.5,5.5,0,0,0-.32,1.11c-.12.36-.24.73-.38,1.08a18.58,18.58,0,0,1-1.14,2.38c-.78,1.39.86,3.32,2.32,2.31a14,14,0,0,0,5.17-6.59l-2.08,1.18,3.07,1c1.53.49,2.48-1.24,1.91-2.49l-1.35-2.94-.27,2.05c-.34.31.26.11.56.12a4.62,4.62,0,0,0,1.48-.12,2.59,2.59,0,0,0,1.92-2.55,3,3,0,0,0-2.1-2.65,3.87,3.87,0,0,0-2.08,0,6.67,6.67,0,0,0-.94.35l-.34.14c-.35.1-.26.19.27.26l.43.75a5.32,5.32,0,0,1,0-1.64,4.94,4.94,0,0,0-.31-1.94,3.39,3.39,0,0,0-2.47-2.1,2.73,2.73,0,0,0-3,1.36c-.64,1.23-.5,2.94-.61,4.29-.05.7-.1,1.39-.16,2.09a9.46,9.46,0,0,0-.17,2.3l0,.35.51-.22-.51-.14c-.61-.23-1.2-.55-1.79-.82-2.08-1-4.89-2.14-6.44.32a1.71,1.71,0,0,0,1.46,2.55h3.51a10.69,10.69,0,0,1,3.1.07l-.75-.43c.16.12.3.84.46,1.12a4,4,0,0,0,1.07,1.18,6.2,6.2,0,0,0,2.76,1.08c1,.16,4-.12,4.29,1.24a1.7,1.7,0,0,0,2.48,1c2.83-1.81.53-5.47-1.17-7.2a11,11,0,0,0-3.43-2.36,10.49,10.49,0,0,0-2.05-.68c-.44-.09-1.5,0-1.86-.29s-.13-2.28-.16-2.88a9.56,9.56,0,0,0-1-3.75c-1-2.08-5.13-4.91-6.66-1.73-.74,1.55.45,3.42,1.2,4.73a23.68,23.68,0,0,0,1.41,2.17c.3.41.62.82.94,1.21l.36.43c.12.15.21.4.28.21l.43-.75a11.74,11.74,0,0,1-2.3,1.66,29.7,29.7,0,0,0-7,7.26,1.71,1.71,0,0,0,1,2.49,12.3,12.3,0,0,0,4.52.29,11.78,11.78,0,0,0,2.28-.52c.36-.13.72-.27,1.07-.43l.32-.14c.36-.09.28-.24-.23-.44a26.63,26.63,0,0,1,.91,4.4,3.5,3.5,0,0,0,.63,2.14,2.68,2.68,0,0,0,2.15.85c1.43.05,3.23.32,4.61-.16a2.7,2.7,0,0,0,1.56-3.58c-.48-1.35-1.37-2.54-1.9-3.89a22.74,22.74,0,0,1-1.24-4.61l-1.64,2.15c2,.18,2.94,1.71,4.36,2.83,1.61,1.29,4,1.85,5.64.25a3.11,3.11,0,0,0-.47-4.91,11.16,11.16,0,0,0-2.62-1l-3.35-1.12c-2.07-.7-3,2.57-.9,3.26l4.09,1.37a3.44,3.44,0,0,0,.81.3c.16.12.2.08.12-.13s-.06-.19,0-.23-.19.11-.22.1a6.21,6.21,0,0,1-.82-.34c-1-.72-1.8-1.79-2.87-2.51a8.13,8.13,0,0,0-3.8-1.23c-1.2-.12-1.79,1.17-1.63,2.14a23.44,23.44,0,0,0,1.31,4.79c.31.76.63,1.52,1,2.25.26.52,1,1.35.91,1.91.07-.28.15-.57.23-.85s.47,0-.12-.1c-.39-.05-.84,0-1.24,0a6.88,6.88,0,0,1-2.18-.11l.75.44-.17-.21c.14.25.29.5.44.74a14.08,14.08,0,0,1-.26-2.08c-.11-.75-.25-1.5-.43-2.24-.37-1.48-.79-3.19-2.48-3.6-1.44-.34-2.77.69-4.11,1a8.49,8.49,0,0,1-4.16,0c.33.83.67,1.66,1,2.49a27.27,27.27,0,0,1,3.8-4.37,24.05,24.05,0,0,1,2.12-1.78c.8-.59,1.73-1.06,2.48-1.71,1.89-1.64.52-3.56-.7-5a18.34,18.34,0,0,1-1.73-2.54c-.25-.42-.48-.85-.7-1.3-.09-.19-.19-.38-.28-.58s0-.4-.05-.2l-.44.75.08,0-.86.23c1.47-.13,2.1,2,2.24,3.12.25,1.9-.37,4,1.12,5.53a4.51,4.51,0,0,0,2.94,1.15,7.51,7.51,0,0,1,2.57.82,7.84,7.84,0,0,1,2.32,1.89,7.21,7.21,0,0,1,.73,1.07,3.74,3.74,0,0,0,.28.52c.31.46-.41.36.42-.18l2.49,1a4.43,4.43,0,0,0-3.32-3.17c-1.46-.44-3.09-.15-4.51-.71-.53-.22-.6-.4-.76-.92a2.65,2.65,0,0,0-2.32-1.91,61.51,61.51,0,0,0-6.79,0l1.46,2.55c-.35.55-.37,0,0,.18a5.31,5.31,0,0,0,.68.2c.75.28,1.48.67,2.2,1,1.24.57,2.52,1.22,3.9.76,1.66-.57,1.86-2.26,2-3.77.13-1.74.26-3.48.4-5.22a6.11,6.11,0,0,0,.1-1.26c.08-.28,0-.28-.36,0-.4.09-.5.15-.31.17,0,0,.11,1,.09,1.27-.11,1.57.12,3.21,1.95,3.57a3.43,3.43,0,0,0,2.08-.38,5,5,0,0,0,.91-.34c-.12.12.24-1.33.27-1.29-.15-.15-1.25,0-1.46,0a3.22,3.22,0,0,0-2,.86,1.75,1.75,0,0,0-.27,2.06c.45,1,.9,2,1.36,2.94l1.91-2.49-3.07-1a1.74,1.74,0,0,0-2.08,1.19,10,10,0,0,1-3.62,4.57l2.31,2.32a23.18,23.18,0,0,0,1.62-3.55,6.92,6.92,0,0,0,.65-3.57,2.44,2.44,0,0,0-2.14-2,3,3,0,0,0-1.5.27c-.17.07-.74.24-.58.3l.75,2.83a8.57,8.57,0,0,1,1.71-1.4,1.72,1.72,0,0,0-.41-3.1l-5.66-1.35-.45,3.33a12.39,12.39,0,0,1,4.51,1.13,1.74,1.74,0,0,0,2.32-.61,1.7,1.7,0,0,0-.61-2.31" transform="translate(0 0)"/></g><rect class="cls-9" y="99.46" width="454.39" height="1.69"/><rect class="cls-9" y="244.85" width="454.39" height="1.69"/></g></g></svg>