<svg xmlns="http://www.w3.org/2000/svg" xmlns:xlink="http://www.w3.org/1999/xlink" viewBox="0 0 591.32 197.11"><defs><style>.cls-1{fill:none;}.cls-2{clip-path:url(#clip-path);}.cls-3{fill:#fcbf33;}.cls-4{fill:#1c384a;}.cls-5{fill:#599442;}.cls-6{fill:#ededed;}.cls-7{fill:#4091cf;}.cls-8{fill:#fff;}.cls-9{fill:#ffcc75;}.cls-10{fill:#99d9d6;}.cls-11{fill:#2e70a3;}.cls-12{fill:#241f21;}.cls-13{fill:#3d6e36;}</style><clipPath id="clip-path" transform="translate(0 0)"><rect class="cls-1" width="591.32" height="197.11"/></clipPath></defs><g id="Layer_2" data-name="Layer 2"><g id="Support_Provided_for_schools" data-name="Support Provided for schools"><g class="cls-2"><path class="cls-3" d="M4.76,33.35H139.32a4.76,4.76,0,0,1,4.76,4.76V106a4.76,4.76,0,0,1-4.76,4.76H4.76A4.76,4.76,0,0,1,0,106V38.11a4.76,4.76,0,0,1,4.76-4.76" transform="translate(0 0)"/><path class="cls-3" d="M153.84,33.35H288.4a4.76,4.76,0,0,1,4.76,4.76V106a4.76,4.76,0,0,1-4.76,4.76H153.84a4.76,4.76,0,0,1-4.76-4.76V38.11a4.76,4.76,0,0,1,4.76-4.76" transform="translate(0 0)"/><path class="cls-3" d="M302.92,33.35H437.48a4.76,4.76,0,0,1,4.76,4.76V106a4.76,4.76,0,0,1-4.76,4.76H302.92a4.76,4.76,0,0,1-4.76-4.76V38.11a4.76,4.76,0,0,1,4.76-4.76" transform="translate(0 0)"/><path class="cls-3" d="M69.29,119.75H203.85a4.76,4.76,0,0,1,4.76,4.76v67.84a4.76,4.76,0,0,1-4.76,4.76H69.29a4.76,4.76,0,0,1-4.76-4.76V124.51a4.76,4.76,0,0,1,4.76-4.76" transform="translate(0 0)"/><path class="cls-3" d="M218.37,119.75H372.94a4.77,4.77,0,0,1,4.77,4.76v67.84a4.77,4.77,0,0,1-4.77,4.76H218.37a4.76,4.76,0,0,1-4.76-4.76V124.51a4.76,4.76,0,0,1,4.76-4.76" transform="translate(0 0)"/><path class="cls-3" d="M387.47,119.75H522a4.77,4.77,0,0,1,4.77,4.76v67.84a4.77,4.77,0,0,1-4.77,4.76H387.47a4.76,4.76,0,0,1-4.76-4.76V124.51a4.76,4.76,0,0,1,4.76-4.76" transform="translate(0 0)"/><path class="cls-3" d="M452,33.35H586.56a4.76,4.76,0,0,1,4.76,4.76V106a4.76,4.76,0,0,1-4.76,4.76H452a4.76,4.76,0,0,1-4.76-4.76V38.11A4.76,4.76,0,0,1,452,33.35" transform="translate(0 0)"/><path class="cls-4" d="M63.94,65.24c3.09,0,4.44-1.8,4.44-5.11,0-4-1.52-4.92-4.72-4.92h-.41v10Zm-.25.45H60.27v-.45h1.34v-10H60.27v-.46h3.86c3.79,0,6.06,1.39,6.06,5.28,0,4.41-2.83,5.66-6.5,5.66" transform="translate(0 0)"/><path class="cls-4" d="M76.37,61.24c.09-1.71-.25-2.77-1.44-2.77s-1.72,1-1.83,2.77Zm-1.3-3.14c2,0,3,1.2,2.86,3.56H73.08v.22c0,2.25.52,3.44,2.22,3.44a2.16,2.16,0,0,0,2.21-1.91l.45.06a2.77,2.77,0,0,1-3,2.38c-2.41,0-3.49-1.52-3.49-3.8,0-2.73,1.55-3.95,3.63-3.95" transform="translate(0 0)"/><path class="cls-4" d="M79,63.25h.4A2.31,2.31,0,0,0,82,65.33c1.31,0,1.85-.52,1.85-1.41s-1-1.18-2-1.37c-1.25-.22-2.62-.45-2.62-2.09a2.39,2.39,0,0,1,2.58-2.36,3.32,3.32,0,0,1,1.53.36,1.82,1.82,0,0,0,.43.11c.16,0,.19-.18.22-.5h.35v2.31h-.39a2.09,2.09,0,0,0-2.14-1.85c-1,0-1.69.44-1.69,1.21,0,.95.95,1.11,2,1.29,1.25.24,2.62.54,2.62,2.38a2.43,2.43,0,0,1-2.73,2.44,4.18,4.18,0,0,1-2.08-.53.4.4,0,0,0-.23-.1c-.14,0-.19.13-.27.63H79Z" transform="translate(0 0)"/></g><polygon class="cls-4" points="90.2 65.28 91.31 65.28 88.89 61.78 88.15 61.94 88.15 65.28 89.17 65.28 89.17 65.69 85.48 65.69 85.48 65.28 86.65 65.28 86.65 54.38 85.48 54.38 85.48 53.97 88.15 53.97 88.15 61.45 88.74 61.31 91.65 58.66 90.26 58.66 90.26 58.25 93.43 58.25 93.43 58.66 92.37 58.66 89.99 60.86 93.07 65.28 93.85 65.28 93.85 65.69 90.2 65.69 90.2 65.28"/><g class="cls-2"><path class="cls-4" d="M95.42,58.66H94.25v-.41h1.17v-2l1.5-.41v2.42h2.19v.41H96.92V63.8c0,.92.23,1.31,1,1.31s1.23-.59,1.37-1.65l.36,0c-.14,1.22-.59,2.35-2.27,2.35-1.17,0-2-.46-2-1.86Z" transform="translate(0 0)"/><path class="cls-4" d="M104,58.47c-1.59,0-1.9,1.55-1.9,3.42s.32,3.58,1.9,3.58,1.86-1.47,1.86-3.55c0-1.85-.31-3.45-1.86-3.45m0-.37c2.19,0,3.47,1.2,3.47,3.82,0,2.43-1.28,3.93-3.53,3.93s-3.51-1.41-3.51-3.85,1.43-3.9,3.57-3.9" transform="translate(0 0)"/><path class="cls-4" d="M110.92,60.89V63.3A2.08,2.08,0,0,0,113,65.36c1.36,0,1.78-1,1.78-3.4,0-2-.28-3.27-1.78-3.27a2.2,2.2,0,0,0-2.11,2.2m0-1.43a2.8,2.8,0,0,1,2.53-1.36c1.85,0,3,1.26,3,3.79s-1.18,4-3.18,4a2.66,2.66,0,0,1-2.3-1V69h2v.41h-4.88V69h1.36V58.66H108.2v-.41H111Z" transform="translate(0 0)"/><path class="cls-4" d="M62.16,79c0,3.26,1.12,5.21,3.37,5.21,1.72,0,2.77-1.09,3.24-3.06h.34L69,84.43h-.23c-.11-.2-.17-.31-.41-.31a20.1,20.1,0,0,1-3,.48c-3,0-5-1.65-5-5.64,0-3.7,2.24-5.62,5.11-5.62a19.66,19.66,0,0,1,2.75.48c.24,0,.3-.11.41-.31h.23L69,76.74h-.34c-.47-2-1.44-3-3.16-3-2.11,0-3.31,1.57-3.31,5.18" transform="translate(0 0)"/><path class="cls-4" d="M74,77.23c-1.59,0-1.9,1.54-1.9,3.42s.33,3.58,1.9,3.58,1.86-1.47,1.86-3.55c0-1.86-.31-3.45-1.86-3.45m0-.38c2.19,0,3.47,1.21,3.47,3.83,0,2.42-1.28,3.92-3.53,3.92s-3.51-1.4-3.51-3.84,1.43-3.91,3.57-3.91" transform="translate(0 0)"/><path class="cls-4" d="M81.07,77v1.42a2.59,2.59,0,0,1,2.53-1.58,2,2,0,0,1,2.17,1.74,2.77,2.77,0,0,1,2.63-1.74c1.28,0,2.23.67,2.23,2.61V84h1.19v.41H88V84h1.17v-5c0-1.18-.26-1.68-1.15-1.68a2.27,2.27,0,0,0-2.13,2.49V84H87v.41H83.18V84h1.17V79.16c0-1.23-.26-1.75-1.15-1.75a2.27,2.27,0,0,0-2.13,2.49V84h1.19v.41H78.4V84h1.17V77.41H78.4V77Z" transform="translate(0 0)"/><path class="cls-4" d="M94.86,79.65v2.41A2.08,2.08,0,0,0,97,84.12c1.36,0,1.78-1,1.78-3.41,0-2-.28-3.26-1.78-3.26a2.19,2.19,0,0,0-2.11,2.2m0-1.44a2.8,2.8,0,0,1,2.53-1.36c1.85,0,3,1.27,3,3.8S99.2,84.6,97.2,84.6a2.66,2.66,0,0,1-2.3-1v4.2h2v.4H92v-.4H93.4V77.41H92.14V77H94.9Z" transform="translate(0 0)"/><path class="cls-4" d="M107.33,84.45l-.1-1.46a2.74,2.74,0,0,1-2.64,1.61c-1.43,0-2.34-.72-2.34-2.61V77.41h-1.19V77h2.69v5.15c0,1.19.22,1.88,1.3,1.88a2.42,2.42,0,0,0,2.14-2.38V77.41H106V77h2.69v7h1.2v.41Z" transform="translate(0 0)"/><path class="cls-4" d="M111.28,77.41h-1.17V77h1.17V75l1.5-.4V77H115v.4h-2.19v5.15c0,.92.24,1.31,1,1.31s1.24-.6,1.38-1.66l.36.05c-.14,1.22-.6,2.34-2.27,2.34-1.17,0-2-.45-2-1.86Z" transform="translate(0 0)"/><path class="cls-4" d="M121.19,80c.1-1.7-.25-2.76-1.44-2.76s-1.71,1-1.82,2.76Zm-1.29-3.14c2,0,2.95,1.21,2.85,3.57h-4.84v.21c0,2.25.52,3.44,2.22,3.44a2.15,2.15,0,0,0,2.2-1.91l.46.07a2.76,2.76,0,0,1-3,2.37c-2.4,0-3.48-1.51-3.48-3.79,0-2.74,1.55-4,3.63-4" transform="translate(0 0)"/><path class="cls-4" d="M126.3,80.23V84H128v.41h-4.33V84h1.17V77.41h-1.17V77h2.67v1.5a2,2,0,0,1,1.93-1.66,1.43,1.43,0,0,1,1.57,1.42c0,.91-.48,1.22-1,1.22a.86.86,0,0,1-.87-1,1.51,1.51,0,0,1,0-.42h.48a.84.84,0,0,0,0-.25c0-.33-.25-.39-.5-.39-.91,0-1.69,1.37-1.69,2.78" transform="translate(0 0)"/><path class="cls-4" d="M130.54,82H131a2.31,2.31,0,0,0,2.53,2.08c1.31,0,1.86-.52,1.86-1.41s-1-1.19-2-1.37c-1.25-.22-2.63-.46-2.63-2.1a2.4,2.4,0,0,1,2.58-2.36,3.29,3.29,0,0,1,1.53.36,1.42,1.42,0,0,0,.44.11c.15,0,.18-.17.22-.5h.34v2.31h-.39a2.09,2.09,0,0,0-2.14-1.84c-1,0-1.69.44-1.69,1.2,0,1,1,1.11,2,1.3,1.25.23,2.63.53,2.63,2.37a2.43,2.43,0,0,1-2.74,2.44,4.08,4.08,0,0,1-2.08-.53.45.45,0,0,0-.23-.09c-.14,0-.19.12-.27.62h-.34Z" transform="translate(0 0)"/><path class="cls-4" d="M292.81,144.3h-.38c-.42-2.55-1.23-2.69-3.12-2.69h-.2v10h1.48v.45H286v-.45h1.49v-10h-.22c-1.89,0-2.71.14-3.13,2.69h-.37l.15-3.14h8.75Z" transform="translate(0 0)"/><path class="cls-4" d="M296,147.88v3.81h1.65v.4h-4.33v-.4h1.18v-6.63h-1.18v-.4H296v1.5a2,2,0,0,1,1.92-1.66,1.42,1.42,0,0,1,1.58,1.42c0,.91-.49,1.22-1,1.22a.86.86,0,0,1-.88-1,2.18,2.18,0,0,1,.05-.43h.48a.77.77,0,0,0,0-.25c0-.32-.25-.39-.5-.39-.9,0-1.68,1.38-1.68,2.79" transform="translate(0 0)"/><path class="cls-4" d="M304.52,150.13v-1.38h-.58c-1.61,0-2.11.75-2.11,1.67s.34,1.24,1.11,1.24a1.53,1.53,0,0,0,1.58-1.53m0-1.77v-1.14c0-1.42-.33-2.34-1.63-2.34-.61,0-1.25.17-1.25.7,0,.06,0,.14,0,.22h.44a1.63,1.63,0,0,1,.13.61.84.84,0,0,1-.89.89c-.52,0-.82-.39-.82-1,0-1.15,1.25-1.81,2.71-1.81,1.87,0,2.78.7,2.78,2.95v3.18c0,.64.18.85.53.85s.61-.21.7-1.46l.36,0c-.06,1.56-.53,2.2-1.61,2.2a1.28,1.28,0,0,1-1.44-1.12,2.38,2.38,0,0,1-2.17,1.12c-1.17,0-2.17-.47-2.17-1.81,0-1.58,1.38-2.08,3.36-2.08Z" transform="translate(0 0)"/><path class="cls-4" d="M310.82,144.66v1.47a2.84,2.84,0,0,1,2.75-1.63c1.43,0,2.31.72,2.31,2.61v4.58h1.19v.4h-3.86v-.4h1.17v-4.83c0-1.16-.28-1.8-1.25-1.8a2.39,2.39,0,0,0-2.31,2.49v4.14H312v.4h-3.85v-.4h1.17v-6.63h-1.17v-.4Z" transform="translate(0 0)"/><path class="cls-4" d="M317.91,149.66h.41a2.3,2.3,0,0,0,2.53,2.07c1.31,0,1.86-.51,1.86-1.4s-1-1.19-2-1.38c-1.25-.22-2.63-.45-2.63-2.09a2.4,2.4,0,0,1,2.58-2.36,3.26,3.26,0,0,1,1.53.36,1.42,1.42,0,0,0,.44.11c.16,0,.19-.17.22-.5h.34v2.31h-.39a2.08,2.08,0,0,0-2.14-1.84c-1,0-1.69.44-1.69,1.2,0,1,1,1.11,2,1.3,1.25.23,2.63.53,2.63,2.37a2.42,2.42,0,0,1-2.73,2.44,4.05,4.05,0,0,1-2.08-.53.48.48,0,0,0-.24-.09c-.14,0-.18.12-.26.62h-.35Z" transform="translate(0 0)"/><path class="cls-4" d="M326.24,141.17a.85.85,0,0,1,1,.92.95.95,0,1,1-1-.92m.88,3.49v7h1.19v.4h-3.86v-.4h1.17v-6.63h-1.17v-.4Z" transform="translate(0 0)"/><path class="cls-4" d="M329.2,149.66h.4a2.32,2.32,0,0,0,2.54,2.07c1.31,0,1.86-.51,1.86-1.4s-1-1.19-2-1.38c-1.25-.22-2.62-.45-2.62-2.09a2.39,2.39,0,0,1,2.58-2.36,3.32,3.32,0,0,1,1.53.36,1.42,1.42,0,0,0,.44.11c.15,0,.18-.17.21-.5h.35v2.31h-.39a2.09,2.09,0,0,0-2.14-1.84c-1,0-1.69.44-1.69,1.2,0,1,.95,1.11,2,1.3,1.25.23,2.62.53,2.62,2.37a2.42,2.42,0,0,1-2.73,2.44,4.08,4.08,0,0,1-2.08-.53.45.45,0,0,0-.23-.09c-.14,0-.19.12-.27.62h-.34Z" transform="translate(0 0)"/><path class="cls-4" d="M336.62,145.06h-1.17v-.4h1.17v-2l1.5-.4v2.42h2.19v.4h-2.19v5.14c0,.93.24,1.32,1.05,1.32s1.23-.6,1.37-1.66l.36,0c-.14,1.22-.59,2.34-2.26,2.34-1.17,0-2-.45-2-1.86Z" transform="translate(0 0)"/><path class="cls-4" d="M345.16,144.88c-1.6,0-1.91,1.54-1.91,3.42s.33,3.58,1.91,3.58,1.85-1.47,1.85-3.55c0-1.86-.31-3.45-1.85-3.45m0-.38c2.18,0,3.47,1.2,3.47,3.83,0,2.42-1.29,3.92-3.54,3.92s-3.51-1.41-3.51-3.84,1.44-3.91,3.58-3.91" transform="translate(0 0)"/><path class="cls-4" d="M352.25,147.88v3.81h1.66v.4h-4.33v-.4h1.17v-6.63h-1.17v-.4h2.67v1.5a2,2,0,0,1,1.92-1.66,1.42,1.42,0,0,1,1.58,1.42c0,.91-.48,1.22-1,1.22a.86.86,0,0,1-.87-1,2.15,2.15,0,0,1,0-.43h.49a.77.77,0,0,0,0-.25c0-.32-.25-.39-.5-.39-.91,0-1.69,1.38-1.69,2.79" transform="translate(0 0)"/><path class="cls-4" d="M286.87,165h.33c2.08,0,2.94-.7,2.94-2.47s-.88-2.18-2.85-2.18h-.42Zm0,.44v4.94h1.64v.45H283.9v-.45h1.33v-10H283.9v-.46h3.71c2.39,0,4.34.36,4.34,2.6,0,1.86-1.25,2.5-3.11,2.64v0c1.92.22,2.63.88,2.63,2.69v1.39c0,.58,0,1,.67,1s.64-.5.84-1.5l.34.08c-.17.87-.2,2.19-1.78,2.19-1.36,0-1.76-.63-1.76-1.89V167c0-1-.38-1.55-1.85-1.55Z" transform="translate(0 0)"/><path class="cls-4" d="M298.41,168.88v-1.37h-.58c-1.61,0-2.11.75-2.11,1.67,0,.76.34,1.23,1.11,1.23a1.53,1.53,0,0,0,1.58-1.53m0-1.76V166c0-1.42-.33-2.34-1.63-2.34-.61,0-1.25.17-1.25.7a1.92,1.92,0,0,0,0,.22H296a1.72,1.72,0,0,1,.13.61.84.84,0,0,1-.9.89c-.51,0-.81-.39-.81-1,0-1.16,1.25-1.81,2.71-1.81,1.87,0,2.78.7,2.78,3v3.17c0,.64.18.86.53.86s.61-.22.7-1.47l.36,0c-.06,1.57-.53,2.21-1.61,2.21a1.28,1.28,0,0,1-1.44-1.13,2.37,2.37,0,0,1-2.17,1.13c-1.17,0-2.17-.47-2.17-1.82,0-1.57,1.37-2.07,3.36-2.07Z" transform="translate(0 0)"/><path class="cls-4" d="M307.58,168.21v-2.45a2.07,2.07,0,0,0-2-2c-1.34,0-1.92,1.13-1.92,3.41,0,2,.36,3.26,1.74,3.26a2.16,2.16,0,0,0,2.15-2.2m-.05,1.44a2.68,2.68,0,0,1-2.45,1.36c-1.84,0-3-1.27-3-3.8s1.28-4,3.3-4a2.38,2.38,0,0,1,2.18,1.09v-4.81h-1.46v-.41h3v11.31h1.27v.41h-2.64Z" transform="translate(0 0)"/><path class="cls-4" d="M312.77,159.93a.84.84,0,0,1,1,.92.87.87,0,0,1-.93,1,.94.94,0,1,1,0-1.87m.88,3.48v7h1.18v.41H311v-.41h1.18v-6.62H311v-.41Z" transform="translate(0 0)"/><path class="cls-4" d="M319.24,163.63c-1.59,0-1.9,1.55-1.9,3.42s.32,3.58,1.9,3.58,1.86-1.47,1.86-3.55c0-1.85-.31-3.45-1.86-3.45m0-.37c2.19,0,3.47,1.2,3.47,3.82,0,2.43-1.28,3.93-3.53,3.93s-3.52-1.41-3.52-3.85,1.44-3.9,3.58-3.9" transform="translate(0 0)"/><path class="cls-4" d="M323.87,168.41h.4a2.32,2.32,0,0,0,2.54,2.08c1.31,0,1.86-.52,1.86-1.41s-1-1.18-2-1.37c-1.25-.22-2.62-.45-2.62-2.09a2.39,2.39,0,0,1,2.58-2.36,3.32,3.32,0,0,1,1.53.36,1.77,1.77,0,0,0,.44.11c.15,0,.18-.18.21-.5h.35v2.31h-.39a2.09,2.09,0,0,0-2.14-1.85c-1,0-1.69.44-1.69,1.21,0,.95,1,1.11,2,1.29,1.25.24,2.62.54,2.62,2.38a2.43,2.43,0,0,1-2.73,2.44,4.18,4.18,0,0,1-2.08-.53.4.4,0,0,0-.23-.1c-.14,0-.19.13-.27.63h-.34Z" transform="translate(0 0)"/></g><polygon class="cls-4" points="233.57 54.75 233.57 55.2 232.4 55.2 232.4 65.24 233.57 65.24 233.57 65.69 229.59 65.69 229.59 65.24 230.76 65.24 230.76 55.27 230.69 55.27 227.35 65.69 226.88 65.69 223.41 55.27 223.35 55.27 223.35 65.24 224.52 65.24 224.52 65.69 221.63 65.69 221.63 65.24 222.8 65.24 222.8 55.2 221.63 55.2 221.63 54.75 224.96 54.75 227.68 63 230.3 54.75 233.57 54.75"/><g class="cls-2"><path class="cls-4" d="M238.29,58.47c-1.59,0-1.9,1.55-1.9,3.42s.32,3.58,1.9,3.58,1.86-1.47,1.86-3.55c0-1.85-.31-3.45-1.86-3.45m0-.37c2.19,0,3.47,1.2,3.47,3.82,0,2.43-1.28,3.93-3.53,3.93s-3.51-1.41-3.51-3.85,1.43-3.9,3.57-3.9" transform="translate(0 0)"/><path class="cls-4" d="M245,60.89V63.3a1.92,1.92,0,0,0,2.05,2.06c1.29,0,1.84-1,1.84-3.4,0-2-.31-3.27-1.74-3.27a2.19,2.19,0,0,0-2.15,2.2m.05-1.43a2.79,2.79,0,0,1,2.53-1.36c1.84,0,2.95,1.26,2.95,3.79s-1.3,4-3.3,4a2.84,2.84,0,0,1-2.47-1.07l-.87,1h-.34V54.38h-1.27V54h2.77Z" transform="translate(0 0)"/><path class="cls-4" d="M253.34,54.77a.85.85,0,0,1,1,.92.95.95,0,1,1-1-.92m.88,3.48v7h1.19v.41h-3.86v-.41h1.17V58.66h-1.17v-.41Z" transform="translate(0 0)"/></g><polygon class="cls-4" points="258.78 53.97 258.78 65.28 259.96 65.28 259.96 65.69 256.11 65.69 256.11 65.28 257.28 65.28 257.28 54.38 256.11 54.38 256.11 53.97 258.78 53.97"/><g class="cls-2"><path class="cls-4" d="M265.66,61.24c.09-1.71-.25-2.77-1.44-2.77s-1.72,1-1.83,2.77Zm-1.3-3.14c2,0,3,1.2,2.86,3.56h-4.84v.22c0,2.25.51,3.44,2.22,3.44a2.15,2.15,0,0,0,2.2-1.91l.45.06a2.75,2.75,0,0,1-3,2.38c-2.4,0-3.48-1.52-3.48-3.8,0-2.73,1.55-3.95,3.62-3.95" transform="translate(0 0)"/><path class="cls-4" d="M225.13,84c3.1,0,4.44-1.79,4.44-5.11,0-4-1.52-4.92-4.72-4.92h-.41V84Zm-.25.46h-3.42V84h1.34V74h-1.34v-.45h3.86c3.8,0,6.06,1.39,6.06,5.28,0,4.41-2.83,5.66-6.5,5.66" transform="translate(0 0)"/><path class="cls-4" d="M237.56,80c.09-1.7-.25-2.76-1.44-2.76s-1.72,1-1.83,2.76Zm-1.3-3.14c2,0,3,1.21,2.86,3.57h-4.84v.21c0,2.25.51,3.44,2.21,3.44a2.16,2.16,0,0,0,2.21-1.91l.45.07a2.75,2.75,0,0,1-3,2.37c-2.41,0-3.48-1.51-3.48-3.79,0-2.74,1.54-4,3.62-4" transform="translate(0 0)"/></g><polygon class="cls-4" points="239.61 77.01 243.26 77.01 243.26 77.41 241.98 77.41 244 82.63 245.95 77.41 244.72 77.41 244.72 77.01 247.36 77.01 247.36 77.41 246.57 77.41 243.75 84.6 243.34 84.6 240.31 77.41 239.61 77.41 239.61 77.01"/><g class="cls-2"><path class="cls-4" d="M249.59,73.52a.86.86,0,0,1,1,.93.95.95,0,1,1-1-.93m.88,3.49v7h1.18v.41H247.8V84H249V77.41H247.8V77Z" transform="translate(0 0)"/><path class="cls-4" d="M254.16,80.59c0,2.37.65,3.47,2.12,3.47A2.15,2.15,0,0,0,258.45,82l.46.08a2.75,2.75,0,0,1-3,2.53c-2.17,0-3.4-1.34-3.4-3.73,0-2.69,1.51-4,3.73-4,1.67,0,2.61.77,2.61,2,0,.79-.41,1.14-.95,1.14a.88.88,0,0,1-.91-1,2.15,2.15,0,0,1,.08-.57h.42a1.63,1.63,0,0,0,.05-.36c0-.55-.38-.86-1.2-.86-1.52,0-2.19,1-2.19,3.36" transform="translate(0 0)"/><path class="cls-4" d="M264.86,80c.1-1.7-.25-2.76-1.44-2.76s-1.71,1-1.82,2.76Zm-1.29-3.14c2,0,2.95,1.21,2.85,3.57h-4.84v.21c0,2.25.52,3.44,2.22,3.44a2.15,2.15,0,0,0,2.2-1.91l.46.07a2.76,2.76,0,0,1-3,2.37c-2.4,0-3.48-1.51-3.48-3.79,0-2.74,1.55-4,3.63-4" transform="translate(0 0)"/><path class="cls-4" d="M267.5,82h.41a2.31,2.31,0,0,0,2.53,2.08c1.31,0,1.86-.52,1.86-1.41s-1-1.19-2-1.37c-1.25-.22-2.62-.46-2.62-2.1a2.39,2.39,0,0,1,2.57-2.36,3.26,3.26,0,0,1,1.53.36,1.42,1.42,0,0,0,.44.11c.16,0,.19-.17.22-.5h.34v2.31h-.39a2.08,2.08,0,0,0-2.14-1.84c-1,0-1.68.44-1.68,1.2,0,1,.95,1.11,2,1.3,1.25.23,2.62.53,2.62,2.37a2.42,2.42,0,0,1-2.73,2.44,4.08,4.08,0,0,1-2.08-.53.48.48,0,0,0-.24-.09c-.14,0-.18.12-.26.62h-.35Z" transform="translate(0 0)"/><path class="cls-4" d="M373.24,60.8h.8c2.08,0,2.94-.91,2.94-2.92s-.88-2.67-2.85-2.67h-.89Zm1-6c2.6,0,4.55.67,4.55,3,0,2.73-2.22,3.45-5,3.45h-.6v4h2v.45h-4.93v-.45h1.33v-10h-1.33v-.46Z" transform="translate(0 0)"/><path class="cls-4" d="M382.39,61.47v3.81H384v.41h-4.32v-.41h1.17V58.66h-1.17v-.41h2.67v1.5a2,2,0,0,1,1.92-1.65,1.42,1.42,0,0,1,1.58,1.42c0,.9-.49,1.22-1,1.22a.87.87,0,0,1-.88-1,2,2,0,0,1,.05-.42h.48a.61.61,0,0,0,0-.25c0-.33-.26-.39-.51-.39-.9,0-1.68,1.38-1.68,2.78" transform="translate(0 0)"/><path class="cls-4" d="M388.28,54.77a.84.84,0,0,1,1,.92.87.87,0,0,1-.93,1,.94.94,0,1,1,0-1.87m.88,3.48v7h1.18v.41h-3.86v-.41h1.18V58.66h-1.18v-.41Z" transform="translate(0 0)"/><path class="cls-4" d="M393.7,58.25v1.47a2.85,2.85,0,0,1,2.75-1.62c1.44,0,2.31.71,2.31,2.61v4.57H400v.41h-3.86v-.41h1.17V60.46c0-1.16-.28-1.8-1.25-1.8a2.39,2.39,0,0,0-2.31,2.48v4.14h1.19v.41H391v-.41h1.17V58.66H391v-.41Z" transform="translate(0 0)"/><path class="cls-4" d="M401.16,58.66H400v-.41h1.17v-2l1.5-.41v2.42h2.19v.41h-2.19V63.8c0,.92.23,1.31,1,1.31s1.23-.59,1.37-1.65l.36,0c-.14,1.22-.59,2.35-2.26,2.35-1.18,0-2-.46-2-1.86Z" transform="translate(0 0)"/><path class="cls-4" d="M411.07,61.24c.09-1.71-.25-2.77-1.44-2.77s-1.72,1-1.83,2.77Zm-1.3-3.14c2,0,3,1.2,2.86,3.56h-4.84v.22c0,2.25.51,3.44,2.21,3.44a2.16,2.16,0,0,0,2.21-1.91l.45.06a2.76,2.76,0,0,1-3,2.38c-2.41,0-3.48-1.52-3.48-3.8,0-2.73,1.54-3.95,3.62-3.95" transform="translate(0 0)"/><path class="cls-4" d="M416.18,61.47v3.81h1.65v.41h-4.32v-.41h1.17V58.66h-1.17v-.41h2.67v1.5a2,2,0,0,1,1.92-1.65,1.42,1.42,0,0,1,1.58,1.42c0,.9-.49,1.22-1,1.22a.87.87,0,0,1-.88-1,2,2,0,0,1,.05-.42h.48a.61.61,0,0,0,0-.25c0-.33-.25-.39-.5-.39-.91,0-1.69,1.38-1.69,2.78" transform="translate(0 0)"/><path class="cls-4" d="M374.24,77.88a3,3,0,0,0,1.88-2.68c0-1.08-.63-1.52-1.33-1.52a1.68,1.68,0,0,0-1.72,1.84,3.17,3.17,0,0,0,1.17,2.36m3.57,4.55a11.44,11.44,0,0,0-2.15-1.66A20.08,20.08,0,0,1,373.07,79a2.6,2.6,0,0,0-.75,2.16A2.45,2.45,0,0,0,375,84a3.3,3.3,0,0,0,2.85-1.52M379,85.1a3.53,3.53,0,0,0-.83-2.25,4.2,4.2,0,0,1-3.62,1.77c-2.1,0-3.82-.89-3.82-3.06a3.28,3.28,0,0,1,2-2.88,3.58,3.58,0,0,1-1-2.42,3,3,0,0,1,3.17-2.92c1.4,0,2.2.72,2.2,1.89s-1.06,2.17-2.55,2.89c.68.48,1.39.92,2.11,1.37a15.47,15.47,0,0,1,1.93,1.39A10.1,10.1,0,0,0,379,78.6h-1.14v-.4h2.72v.4h-1.06a13.3,13.3,0,0,1-.55,2.64,4.48,4.48,0,0,1,1.35,3,3.13,3.13,0,0,1-3.15,3.36c-1.34,0-1.78-.79-1.78-1.42s.43-1.12.94-1.12a.7.7,0,0,1,.77.78,1.89,1.89,0,0,1-.1.56h-.47a1.14,1.14,0,0,0-.06.3c0,.26.19.48.72.48,1.27,0,1.83-.89,1.83-2.11" transform="translate(0 0)"/></g><polygon class="cls-4" points="389.47 73.51 389.47 73.96 388.3 73.96 388.3 83.99 389.47 83.99 389.47 84.45 385.48 84.45 385.48 83.99 386.65 83.99 386.65 73.96 385.48 73.96 385.48 73.51 389.47 73.51"/><g class="cls-2"><path class="cls-4" d="M393.22,77v1.47A2.84,2.84,0,0,1,396,76.85c1.44,0,2.31.72,2.31,2.61V84h1.19v.41h-3.86V84h1.17V79.21c0-1.15-.28-1.8-1.25-1.8a2.39,2.39,0,0,0-2.31,2.49V84h1.19v.41h-3.86V84h1.17V77.41h-1.17V77Z" transform="translate(0 0)"/></g><polygon class="cls-4" points="404.83 84.04 405.94 84.04 403.52 80.54 402.78 80.69 402.78 84.04 403.8 84.04 403.8 84.44 400.11 84.44 400.11 84.04 401.28 84.04 401.28 73.13 400.11 73.13 400.11 72.73 402.78 72.73 402.78 80.21 403.38 80.07 406.28 77.41 404.89 77.41 404.89 77.01 408.06 77.01 408.06 77.41 407 77.41 404.63 79.62 407.71 84.04 408.49 84.04 408.49 84.44 404.83 84.44 404.83 84.04"/><g class="cls-2"><path class="cls-4" d="M146,151.64h.73c2.19,0,2.9-.62,2.9-2.56,0-1.74-.72-2.45-2.8-2.45H146Zm0-5.42h.41c2.09,0,2.79-.72,2.79-2.41s-.72-2.2-2.7-2.2H146Zm.61-5.06c2.59,0,4.28.61,4.28,2.61a2.43,2.43,0,0,1-2.36,2.51v0c1.78.25,2.91,1.21,2.91,2.69,0,2.48-2.08,3.09-4.91,3.09H143v-.45h1.33v-10H143v-.45Z" transform="translate(0 0)"/><path class="cls-4" d="M156.27,144.88c-1.6,0-1.91,1.54-1.91,3.42s.33,3.58,1.91,3.58,1.86-1.47,1.86-3.55c0-1.86-.31-3.45-1.86-3.45m0-.38c2.19,0,3.47,1.2,3.47,3.83,0,2.42-1.28,3.92-3.53,3.92s-3.52-1.41-3.52-3.84,1.44-3.91,3.58-3.91" transform="translate(0 0)"/><path class="cls-4" d="M163.37,144.66v1.47a2.83,2.83,0,0,1,2.75-1.63c1.43,0,2.31.72,2.31,2.61v4.58h1.19v.4h-3.86v-.4h1.17v-4.83c0-1.16-.28-1.8-1.25-1.8a2.39,2.39,0,0,0-2.31,2.49v4.14h1.18v.4h-3.86v-.4h1.18v-6.63h-1.18v-.4Z" transform="translate(0 0)"/><path class="cls-4" d="M176,149.45V147a2.06,2.06,0,0,0-2-2c-1.34,0-1.92,1.12-1.92,3.4,0,2,.36,3.27,1.74,3.27a2.17,2.17,0,0,0,2.15-2.21m-.05,1.44a2.66,2.66,0,0,1-2.45,1.36c-1.84,0-3-1.26-3-3.8s1.28-3.95,3.3-3.95a2.4,2.4,0,0,1,2.18,1.09v-4.81h-1.46v-.4h3v11.31h1.27v.4H176Z" transform="translate(0 0)"/><path class="cls-4" d="M146,166h.8c2.07,0,2.93-.91,2.93-2.92s-.87-2.67-2.84-2.67H146Zm1-6.05c2.59,0,4.55.67,4.55,3.05,0,2.73-2.22,3.45-5,3.45H146v4H148v.45H143v-.45h1.33v-10H143v-.46Z" transform="translate(0 0)"/><path class="cls-4" d="M156.63,168.88v-1.37h-.58c-1.61,0-2.11.75-2.11,1.67,0,.76.34,1.23,1.11,1.23a1.53,1.53,0,0,0,1.58-1.53m0-1.76V166c0-1.42-.33-2.34-1.63-2.34-.61,0-1.25.17-1.25.7a1.92,1.92,0,0,0,0,.22h.44a1.72,1.72,0,0,1,.13.61.84.84,0,0,1-.89.89c-.52,0-.82-.39-.82-1,0-1.16,1.25-1.81,2.71-1.81,1.87,0,2.78.7,2.78,3v3.17c0,.64.18.86.53.86s.61-.22.7-1.47l.36,0c-.06,1.57-.53,2.21-1.61,2.21a1.28,1.28,0,0,1-1.44-1.13A2.37,2.37,0,0,1,154.5,171c-1.17,0-2.17-.47-2.17-1.82,0-1.57,1.38-2.07,3.36-2.07Z" transform="translate(0 0)"/><path class="cls-4" d="M162.66,166.05v2.41a2.08,2.08,0,0,0,2.11,2.06c1.36,0,1.78-1,1.78-3.4,0-2-.28-3.27-1.78-3.27a2.2,2.2,0,0,0-2.11,2.2m.05-1.43a2.8,2.8,0,0,1,2.53-1.36c1.84,0,2.95,1.26,2.95,3.79s-1.18,4-3.18,4a2.63,2.63,0,0,1-2.3-1v4.2h2v.41h-4.87v-.41h1.36V163.82h-1.27v-.41h2.77Z" transform="translate(0 0)"/><path class="cls-4" d="M174.18,166.4c.09-1.71-.25-2.77-1.44-2.77s-1.72,1-1.83,2.77Zm-1.3-3.14c2,0,3,1.2,2.86,3.56H170.9V167c0,2.25.51,3.44,2.22,3.44a2.15,2.15,0,0,0,2.2-1.91l.45.06a2.75,2.75,0,0,1-3,2.38c-2.4,0-3.48-1.52-3.48-3.8,0-2.73,1.55-4,3.62-4" transform="translate(0 0)"/><path class="cls-4" d="M179.29,166.63v3.81H181v.41h-4.33v-.41h1.17v-6.62h-1.17v-.41h2.67v1.5a2,2,0,0,1,1.92-1.65,1.42,1.42,0,0,1,1.58,1.42c0,.9-.48,1.22-1,1.22s-.87-.36-.87-1a2,2,0,0,1,0-.42h.49a.8.8,0,0,0,0-.25c0-.33-.25-.39-.5-.39-.91,0-1.69,1.38-1.69,2.78" transform="translate(0 0)"/><path class="cls-5" d="M445.46,158.43a20.89,20.89,0,1,1-20.88-20.88,20.88,20.88,0,0,1,20.88,20.88" transform="translate(0 0)"/><path class="cls-4" d="M459.5,147.2h.8c2.08,0,2.94-.9,2.94-2.92s-.88-2.67-2.85-2.67h-.89Zm1-6c2.6,0,4.55.67,4.55,3,0,2.74-2.22,3.46-4.95,3.46h-.6v4h2v.45h-4.93v-.45h1.33v-10h-1.33v-.45Z" transform="translate(0 0)"/><path class="cls-4" d="M469.22,144.88c-1.59,0-1.9,1.54-1.9,3.42s.33,3.58,1.9,3.58,1.86-1.47,1.86-3.55c0-1.86-.31-3.45-1.86-3.45m0-.38c2.18,0,3.46,1.2,3.46,3.83,0,2.42-1.28,3.92-3.53,3.92s-3.51-1.41-3.51-3.84,1.43-3.91,3.58-3.91" transform="translate(0 0)"/><path class="cls-4" d="M475.46,148.23c0,2.38.66,3.47,2.13,3.47a2.14,2.14,0,0,0,2.17-2.06l.45.08a2.74,2.74,0,0,1-3,2.53c-2.17,0-3.41-1.34-3.41-3.73,0-2.69,1.52-4,3.74-4,1.67,0,2.6.77,2.6,2,0,.8-.4,1.15-1,1.15a.87.87,0,0,1-.9-1,2.21,2.21,0,0,1,.07-.58h.43a1.53,1.53,0,0,0,0-.36c0-.54-.37-.85-1.2-.85-1.52,0-2.19,1-2.19,3.35" transform="translate(0 0)"/></g><polygon class="cls-4" points="485.63 151.69 486.74 151.69 484.32 148.19 483.59 148.34 483.59 151.69 484.6 151.69 484.6 152.09 480.92 152.09 480.92 151.69 482.09 151.69 482.09 140.78 480.92 140.78 480.92 140.38 483.59 140.38 483.59 147.86 484.18 147.72 487.09 145.06 485.7 145.06 485.7 144.66 488.87 144.66 488.87 145.06 487.81 145.06 485.43 147.27 488.51 151.69 489.29 151.69 489.29 152.09 485.63 152.09 485.63 151.69"/><g class="cls-2"><path class="cls-4" d="M494.61,147.64c.09-1.7-.25-2.76-1.44-2.76s-1.72,1-1.83,2.76Zm-1.3-3.14c2,0,2.95,1.2,2.86,3.56h-4.84v.22c0,2.25.51,3.44,2.21,3.44a2.16,2.16,0,0,0,2.21-1.91l.45.07a2.75,2.75,0,0,1-3,2.37c-2.41,0-3.48-1.52-3.48-3.8,0-2.73,1.54-3.95,3.62-3.95" transform="translate(0 0)"/><path class="cls-4" d="M498,145.06h-1.17v-.4H498v-2l1.5-.4v2.42h2.19v.4H499.5v5.14c0,.93.23,1.32,1.05,1.32s1.23-.6,1.37-1.66l.36,0c-.14,1.22-.59,2.34-2.26,2.34-1.18,0-2-.45-2-1.86Z" transform="translate(0 0)"/></g><polygon class="cls-4" points="463.72 162.94 462.74 160.37 461.69 160.37 461.69 159.91 466.06 159.91 466.06 160.37 464.53 160.37 467.45 168.43 470.02 160.37 468.44 160.37 468.44 159.91 471.67 159.91 471.67 160.37 470.64 160.37 467.11 171.01 466.75 171.01 464.02 163.74 460.94 171.01 460.58 171.01 457.03 160.37 455.99 160.37 455.99 159.91 460.36 159.91 460.36 160.37 458.83 160.37 461.36 168.62 463.72 162.94"/><g class="cls-2"><path class="cls-4" d="M473.68,159.93a.84.84,0,0,1,.95.92.95.95,0,1,1-1.89,0,.88.88,0,0,1,.94-.92m.87,3.48v7h1.19v.41h-3.86v-.41h1.17v-6.62h-1.17v-.41Z" transform="translate(0 0)"/><path class="cls-4" d="M484.24,163.41v7h1.19v.41h-3.84v-.41h1.17v-6.62h-3.64v6.62h1.53v.41h-4.22v-.41h1.19v-6.62h-1.24v-.41h1.24v-.7a3.57,3.57,0,0,1,3.84-3.94c1.33,0,2.47.64,2.47,1.91a1,1,0,0,1-1.09,1.15,1,1,0,0,1-1-1.06,1.32,1.32,0,0,1,0-.28l.61-.08a1.38,1.38,0,0,0,.07-.47c0-.56-.45-.81-1.18-.81-1.61,0-2.22,1.13-2.22,2.74v1.54Z" transform="translate(0 0)"/><path class="cls-6" d="M466.72,57.64a.62.62,0,0,1-.14-1.23l22.19-5.25a.62.62,0,0,1,.28,1.21l-22.18,5.25-.15,0" transform="translate(0 0)"/></g><rect class="cls-6" x="462.1" y="65.15" width="27.43" height="8.36"/><g class="cls-2"><path class="cls-4" d="M470.8,73.51h10l-.66-2.25a.82.82,0,0,0-.79-.59h-7.13a.83.83,0,0,0-.79.59Z" transform="translate(0 0)"/><path class="cls-4" d="M467.39,56.49l-1.21-2.43a.84.84,0,0,0-.75-.46h-2.5a.83.83,0,0,0-.83.83V65.15h27.43V57.79a.83.83,0,0,0-.84-.84H468.13a.83.83,0,0,1-.74-.46" transform="translate(0 0)"/><path class="cls-3" d="M464.78,60.12V62a.49.49,0,0,0,.49.5h7.37a.5.5,0,0,0,.5-.5V60.12a.49.49,0,0,0-.5-.49h-7.37a.49.49,0,0,0-.49.49" transform="translate(0 0)"/><path class="cls-4" d="M487,92.91h-1.24a.83.83,0,0,1-.79-.58l-.65-2.09h3.51v1.84a.83.83,0,0,1-.83.83" transform="translate(0 0)"/><path class="cls-4" d="M464.6,92.91h1.24a.83.83,0,0,0,.79-.58l.66-2.09h-3.52v1.84a.83.83,0,0,0,.83.83" transform="translate(0 0)"/></g><rect class="cls-6" x="462.1" y="73.51" width="27.43" height="8.36"/><g class="cls-2"><path class="cls-4" d="M470.8,81.87h10l-.66-2.25a.82.82,0,0,0-.79-.59h-7.13a.83.83,0,0,0-.79.59Z" transform="translate(0 0)"/><path class="cls-6" d="M488.7,90.24H462.94a.84.84,0,0,1-.84-.84V81.87h27.43V89.4a.84.84,0,0,1-.83.84" transform="translate(0 0)"/><path class="cls-4" d="M470.8,90.24h10L480.17,88a.81.81,0,0,0-.79-.6h-7.13a.82.82,0,0,0-.79.6Z" transform="translate(0 0)"/><path class="cls-5" d="M486.86,61.05a1.43,1.43,0,1,1-1.43-1.42,1.43,1.43,0,0,1,1.43,1.42" transform="translate(0 0)"/><path class="cls-6" d="M480.67,60.25h-.05a.62.62,0,0,1-.62-.62.62.62,0,0,1,.62-.62h.05a.62.62,0,0,1,.62.62.62.62,0,0,1-.62.62" transform="translate(0 0)"/><path class="cls-6" d="M478.27,60.25h-.06a.62.62,0,0,1-.62-.62.62.62,0,0,1,.62-.62h.06a.61.61,0,0,1,.62.62.62.62,0,0,1-.62.62" transform="translate(0 0)"/><path class="cls-6" d="M475.86,60.25h0a.63.63,0,0,1-.63-.62.62.62,0,0,1,.63-.62h0a.62.62,0,0,1,.62.62.62.62,0,0,1-.62.62" transform="translate(0 0)"/><path class="cls-6" d="M475.86,63.09h0a.62.62,0,1,1,0-1.24h0a.62.62,0,1,1,0,1.24" transform="translate(0 0)"/><path class="cls-6" d="M478.27,63.09h-.06a.62.62,0,0,1,0-1.24h.06a.62.62,0,1,1,0,1.24" transform="translate(0 0)"/><path class="cls-6" d="M480.67,63.09h-.05a.62.62,0,0,1,0-1.24h.05a.62.62,0,1,1,0,1.24" transform="translate(0 0)"/></g><rect class="cls-7" x="462.1" y="72.89" width="27.43" height="1.24"/><rect class="cls-7" x="462.1" y="81.25" width="27.43" height="1.24"/><g class="cls-2"><path class="cls-4" d="M509.92,61.22h.25c1.6,0,2.26-.54,2.26-1.9s-.67-1.68-2.18-1.68h-.33Zm0,.33v3.79h1.26v.35h-3.54v-.35h1v-7.7h-1v-.35h2.84c1.84,0,3.34.28,3.34,2,0,1.42-1,1.91-2.39,2v0c1.48.17,2,.67,2,2.06v1.07c0,.44,0,.74.51.74s.5-.38.65-1.15l.26.06c-.13.67-.15,1.68-1.36,1.68-1,0-1.36-.48-1.36-1.45V62.74c0-.78-.29-1.19-1.41-1.19Z" transform="translate(0 0)"/><path class="cls-4" d="M516.77,57.31a.65.65,0,0,1,.74.7.68.68,0,0,1-.72.74.68.68,0,0,1-.74-.74.68.68,0,0,1,.72-.7m.68,2.67v5.4h.91v.31h-3v-.31h.9V60.29h-.9V60Z" transform="translate(0 0)"/><path class="cls-4" d="M519,63.82h.31a1.78,1.78,0,0,0,1.95,1.59c1,0,1.43-.39,1.43-1.08s-.75-.91-1.56-1-2-.35-2-1.61a1.84,1.84,0,0,1,2-1.81,2.57,2.57,0,0,1,1.18.28,1.32,1.32,0,0,0,.33.08c.12,0,.14-.13.17-.38h.26v1.77h-.3a1.59,1.59,0,0,0-1.64-1.41c-.76,0-1.3.33-1.3.92s.74.85,1.54,1c1,.18,2,.4,2,1.82a1.86,1.86,0,0,1-2.09,1.87,3.14,3.14,0,0,1-1.6-.41.32.32,0,0,0-.18-.07c-.11,0-.14.1-.2.48H519Z" transform="translate(0 0)"/><path class="cls-4" d="M526.87,60.15c-1.23,0-1.47,1.19-1.47,2.63s.25,2.74,1.47,2.74,1.42-1.13,1.42-2.72c0-1.43-.24-2.65-1.42-2.65m0-.29c1.68,0,2.66.92,2.66,2.94,0,1.86-1,3-2.71,3s-2.7-1.08-2.7-3,1.11-3,2.75-3" transform="translate(0 0)"/><path class="cls-4" d="M532.84,63.54c.59,0,1-.37,1-1.68s-.34-1.71-1-1.71-1,.39-1,1.73.38,1.66,1.05,1.66m2.42-4.24A.28.28,0,0,0,535,59c-.22,0-.55.3-.55,1a2.27,2.27,0,0,0,0,.42,1.87,1.87,0,0,1,.53,1.37,2,2,0,0,1-2.13,2,4.24,4.24,0,0,1-.84-.09c-.44.3-.74.58-.74.72s.1.19.43.19h1.65c1.37,0,2.39.29,2.39,1.77,0,1.29-.81,2.24-3.26,2.24-1.65,0-2.48-.52-2.48-1.41a1,1,0,0,1,.89-1l.31.25a1.36,1.36,0,0,0-.13.6c0,.69.49,1.2,1.76,1.2,1.54,0,2.31-.64,2.31-1.55s-.53-1-1.73-1h-1.55c-.85,0-1.21-.34-1.21-.82s.33-.76,1-1.29a1.71,1.71,0,0,1-1.06-1.78,2,2,0,0,1,2.29-2,2.15,2.15,0,0,1,1.26.37,1.85,1.85,0,0,1,0-.24,1.21,1.21,0,0,1,1.18-1.36.72.72,0,0,1,.79.72.55.55,0,0,1-.58.56.61.61,0,0,1-.54-.32Z" transform="translate(0 0)"/><path class="cls-4" d="M538.33,62.45v2.93h1.27v.31h-3.33v-.31h.9V60.29h-.9V60h2.06v1.15a1.51,1.51,0,0,1,1.47-1.27A1.1,1.1,0,0,1,541,61c0,.7-.37.94-.77.94a.67.67,0,0,1-.67-.76,1.17,1.17,0,0,1,0-.32H540a.72.72,0,0,0,0-.19c0-.26-.19-.3-.38-.3-.69,0-1.29,1-1.29,2.13" transform="translate(0 0)"/><path class="cls-4" d="M544.85,64.18V63.12h-.44c-1.24,0-1.62.58-1.62,1.29s.26.94.85.94a1.17,1.17,0,0,0,1.21-1.17m0-1.36V62c0-1.09-.25-1.8-1.24-1.8-.47,0-1,.13-1,.54a1.11,1.11,0,0,0,0,.17H543a1.25,1.25,0,0,1,.09.46.64.64,0,0,1-.68.69c-.4,0-.63-.3-.63-.76,0-.89,1-1.39,2.08-1.39,1.44,0,2.13.54,2.13,2.27v2.43c0,.49.15.66.41.66s.47-.17.54-1.13l.28,0c-.05,1.2-.41,1.69-1.24,1.69a1,1,0,0,1-1.1-.86,1.83,1.83,0,0,1-1.67.86c-.9,0-1.67-.36-1.67-1.39,0-1.21,1.06-1.6,2.58-1.6Z" transform="translate(0 0)"/><path class="cls-4" d="M549.49,62v1.84a1.59,1.59,0,0,0,1.61,1.59c1,0,1.37-.76,1.37-2.62,0-1.53-.21-2.5-1.37-2.5A1.69,1.69,0,0,0,549.49,62m0-1.11a2.17,2.17,0,0,1,1.94-1c1.42,0,2.27,1,2.27,2.92s-.91,3-2.45,3a2,2,0,0,1-1.76-.8v3.22h1.55v.31h-3.74v-.31h1V60.29h-1V60h2.12Z" transform="translate(0 0)"/><path class="cls-4" d="M556.47,56.69v4.42a2.18,2.18,0,0,1,2.11-1.25c1.1,0,1.78.55,1.78,2v3.52h.91v.31h-3v-.31h.9V61.74c0-1-.21-1.45-1-1.45a1.83,1.83,0,0,0-1.76,1.91v3.18h.91v.31h-3v-.31h.9V57h-.9v-.32Z" transform="translate(0 0)"/><path class="cls-4" d="M510.69,75.05A2.3,2.3,0,0,0,512.13,73c0-.83-.48-1.16-1-1.16a1.29,1.29,0,0,0-1.32,1.41,2.4,2.4,0,0,0,.9,1.81m2.73,3.49a8.72,8.72,0,0,0-1.64-1.27,15.28,15.28,0,0,1-2-1.33,2,2,0,0,0-.58,1.66,1.89,1.89,0,0,0,2,2.11,2.51,2.51,0,0,0,2.18-1.17m.93,2a2.66,2.66,0,0,0-.64-1.72,3.22,3.22,0,0,1-2.78,1.35c-1.61,0-2.93-.68-2.93-2.35a2.53,2.53,0,0,1,1.5-2.21,2.76,2.76,0,0,1-.77-1.85,2.28,2.28,0,0,1,2.44-2.25c1.08,0,1.69.56,1.69,1.45s-.82,1.67-1.95,2.22c.51.38,1.06.71,1.61,1.06A10.89,10.89,0,0,1,514,77.36a8.09,8.09,0,0,0,.34-1.75h-.88v-.32h2.09v.32h-.82a9.66,9.66,0,0,1-.42,2,3.42,3.42,0,0,1,1,2.33,2.4,2.4,0,0,1-2.41,2.58c-1,0-1.36-.61-1.36-1.09s.32-.87.71-.87a.54.54,0,0,1,.59.6,1.47,1.47,0,0,1-.07.43h-.36a1.2,1.2,0,0,0-.05.23c0,.21.15.37.55.37,1,0,1.41-.68,1.41-1.62" transform="translate(0 0)"/><path class="cls-4" d="M521.48,76.34h.61c1.59,0,2.25-.7,2.25-2.25s-.67-2-2.18-2h-.68Zm.77-4.65c2,0,3.49.52,3.49,2.34,0,2.1-1.71,2.65-3.81,2.65h-.45v3.06H523v.35H519.2v-.35h1V72h-1v-.35Z" transform="translate(0 0)"/><path class="cls-4" d="M528.38,71.1v4.41a2.18,2.18,0,0,1,2.11-1.25c1.1,0,1.77.55,1.77,2v3.52h.92v.31h-3v-.31h.9V76.14c0-1-.21-1.45-1-1.45a1.84,1.84,0,0,0-1.76,1.91v3.18h.91v.31h-3v-.31h.9V71.41h-.9V71.1Z" transform="translate(0 0)"/><path class="cls-4" d="M536.53,74.55c-1.23,0-1.47,1.19-1.47,2.63s.25,2.74,1.47,2.74S538,78.8,538,77.2c0-1.43-.24-2.65-1.42-2.65m0-.29c1.68,0,2.66.93,2.66,2.94,0,1.86-1,3-2.71,3s-2.7-1.08-2.7-2.95,1.11-3,2.75-3" transform="translate(0 0)"/><path class="cls-4" d="M540.66,74.69h-.9v-.31h.9V72.83l1.15-.31v1.86h1.68v.31h-1.68v4c0,.71.18,1,.8,1s.95-.46,1.06-1.27l.27,0c-.11.94-.45,1.8-1.74,1.8-.9,0-1.54-.35-1.54-1.43Z" transform="translate(0 0)"/><path class="cls-4" d="M547.21,74.55c-1.23,0-1.47,1.19-1.47,2.63s.25,2.74,1.47,2.74,1.42-1.12,1.42-2.72c0-1.43-.24-2.65-1.42-2.65m0-.29c1.68,0,2.66.93,2.66,2.94,0,1.86-1,3-2.71,3s-2.7-1.08-2.7-2.95,1.11-3,2.75-3" transform="translate(0 0)"/><path class="cls-4" d="M552,77.13c0,1.82.51,2.66,1.64,2.66a1.64,1.64,0,0,0,1.66-1.58l.35.06a2.1,2.1,0,0,1-2.29,1.94c-1.67,0-2.62-1-2.62-2.87,0-2.06,1.17-3.08,2.87-3.08,1.29,0,2,.59,2,1.52,0,.62-.31.88-.73.88a.66.66,0,0,1-.69-.73,1.59,1.59,0,0,1,.06-.45h.32a1.36,1.36,0,0,0,0-.27c0-.42-.29-.66-.93-.66-1.16,0-1.68.8-1.68,2.58" transform="translate(0 0)"/><path class="cls-4" d="M559.16,74.55c-1.23,0-1.47,1.19-1.47,2.63s.26,2.74,1.47,2.74,1.42-1.12,1.42-2.72c0-1.43-.23-2.65-1.42-2.65m0-.29c1.68,0,2.66.93,2.66,2.94,0,1.86-1,3-2.71,3s-2.69-1.08-2.69-2.95,1.1-3,2.74-3" transform="translate(0 0)"/><path class="cls-4" d="M564.51,76.41v1.85a1.6,1.6,0,0,0,1.62,1.58c1,0,1.37-.76,1.37-2.62,0-1.53-.22-2.5-1.37-2.5a1.69,1.69,0,0,0-1.62,1.69m0-1.1a2.13,2.13,0,0,1,1.94-1c1.41,0,2.27,1,2.27,2.92s-.92,3-2.45,3a2,2,0,0,1-1.76-.8v3.22h1.54V83h-3.74v-.32h1V74.69h-1v-.31h2.13Z" transform="translate(0 0)"/><path class="cls-4" d="M570.87,71.71a.65.65,0,0,1,.73.7.73.73,0,1,1-.73-.7m.67,2.67v5.4h.91v.31h-3v-.31h.9V74.69h-.9v-.31Z" transform="translate(0 0)"/><path class="cls-4" d="M576.89,76.67c.08-1.3-.19-2.12-1.1-2.12s-1.32.76-1.4,2.12Zm-1-2.41c1.51,0,2.27.93,2.19,2.74h-3.71v.16c0,1.73.39,2.64,1.7,2.64a1.65,1.65,0,0,0,1.69-1.46l.35,0a2.13,2.13,0,0,1-2.33,1.82c-1.85,0-2.67-1.16-2.67-2.91,0-2.1,1.18-3,2.78-3" transform="translate(0 0)"/><path class="cls-4" d="M580.82,76.85v2.93h1.27v.31h-3.32v-.31h.9V74.69h-.9v-.31h2.05v1.15a1.52,1.52,0,0,1,1.47-1.27,1.1,1.1,0,0,1,1.22,1.09c0,.7-.38.94-.77.94s-.67-.28-.67-.76a1.82,1.82,0,0,1,0-.32h.37a.47.47,0,0,0,0-.19c0-.25-.19-.3-.39-.3-.69,0-1.29,1-1.29,2.13" transform="translate(0 0)"/><path class="cls-6" d="M46.45,53.49H10.21a2.77,2.77,0,0,0-2.77,2.76v21l20.89,1.84,20.88-1.84v-21a2.77,2.77,0,0,0-2.76-2.76" transform="translate(0 0)"/><polygon class="cls-8" points="39 70.81 35.23 73.57 32.47 73.57 32.47 57.17 45.53 57.17 45.53 73.57 42.77 73.57 39 70.81"/></g><polygon class="cls-5" points="39.87 67.69 39.92 67.3 39.41 67.49 39 67.3 39 67.63 35.23 68.98 35.23 73.57 39 73.57 42.77 73.57 42.77 68.98 39.87 67.69"/><g class="cls-2"><polyline class="cls-9" points="40.57 63.7 37.43 63.7 40.57 63.7"/><polyline class="cls-10" points="39 59.93 40.57 63.7 39 59.93"/></g><rect class="cls-6" x="24.19" y="83.26" width="8.28" height="6.62"/><g class="cls-2"><path class="cls-7" d="M36.15,90.57H20.5a.7.7,0,0,1,0-1.39H36.15a.7.7,0,0,1,0,1.39" transform="translate(0 0)"/><path class="cls-7" d="M7.44,77.25v3.24a2.78,2.78,0,0,0,2.77,2.77H46.45a2.77,2.77,0,0,0,2.76-2.77V77.25Z" transform="translate(0 0)"/><path class="cls-11" d="M28.85,57.86H11.13a.69.69,0,0,1,0-1.38H28.85a.69.69,0,1,1,0,1.38" transform="translate(0 0)"/><path class="cls-11" d="M28.85,61.14H11.13a.69.69,0,0,1,0-1.38H28.85a.69.69,0,1,1,0,1.38" transform="translate(0 0)"/><path class="cls-11" d="M20,64.42H11.13a.69.69,0,1,1,0-1.38H20a.69.69,0,1,1,0,1.38" transform="translate(0 0)"/><path class="cls-11" d="M28.85,67.7H11.13a.69.69,0,0,1,0-1.38H28.85a.69.69,0,0,1,0,1.38" transform="translate(0 0)"/><path class="cls-11" d="M28.85,71H11.13a.69.69,0,0,1,0-1.38H28.85a.69.69,0,0,1,0,1.38" transform="translate(0 0)"/><path class="cls-11" d="M20,74.26H11.13a.69.69,0,1,1,0-1.38H20a.69.69,0,1,1,0,1.38" transform="translate(0 0)"/></g><polygon class="cls-12" points="39 59.93 37.43 63.7 39 64.62 40.57 63.7 39 59.93"/><g class="cls-2"><path class="cls-3" d="M35.23,69a2.91,2.91,0,0,0,1.47.39A2.79,2.79,0,0,0,39,68.22a2.79,2.79,0,0,0,2.3,1.15A2.88,2.88,0,0,0,42.77,69h0l-2.2-5.28H37.43L35.23,69Z" transform="translate(0 0)"/></g><polygon class="cls-6" points="176.21 59.41 176.21 84.65 189.52 86.49 202.83 84.65 202.83 59.41 189.52 57.57 176.21 59.41"/><g class="cls-2"><path class="cls-4" d="M202.83,53.9v5.51H176.21V53.9A2.77,2.77,0,0,1,179,51.14h21.11a2.76,2.76,0,0,1,2.75,2.76" transform="translate(0 0)"/><path class="cls-4" d="M190.9,88.78a1.38,1.38,0,1,0-1.38,1.38,1.38,1.38,0,0,0,1.38-1.38m11.93-4.13v5.51a2.76,2.76,0,0,1-2.75,2.75H179a2.76,2.76,0,0,1-2.76-2.75V84.65Z" transform="translate(0 0)"/><path class="cls-7" d="M191.82,56h-4.59a.69.69,0,0,1-.69-.69.68.68,0,0,1,.69-.68h4.59a.69.69,0,0,1,0,1.37" transform="translate(0 0)"/><path class="cls-7" d="M190.9,88.78a1.38,1.38,0,1,1-1.38-1.38,1.38,1.38,0,0,1,1.38,1.38" transform="translate(0 0)"/><path class="cls-5" d="M191.22,72.71l.14-.68-1.08.31-.75-.31s0,.28,0,.52l-4.59,1.32v7.34h9.18V73.87Z" transform="translate(0 0)"/></g><polygon class="cls-12" points="189.52 62.85 191.43 67.44 189.52 68.36 187.61 67.44 189.52 62.85"/><g class="cls-2"><path class="cls-3" d="M194.11,73.86h0a3.53,3.53,0,0,1-1.78.47,3.38,3.38,0,0,1-2.8-1.39h0a3.42,3.42,0,0,1-2.8,1.39,3.56,3.56,0,0,1-1.79-.47h0l2.68-6.42h3.82Z" transform="translate(0 0)"/><path class="cls-13" d="M352.36,64v3.81H324.28V64a.54.54,0,0,1,.54-.54h27a.54.54,0,0,1,.54.54" transform="translate(0 0)"/></g><rect class="cls-6" x="327.43" y="56.26" width="21.77" height="11.57"/><g class="cls-2"><path class="cls-5" d="M320.42,67.24h35.8a2.17,2.17,0,0,1,2.17,2.18V85.61a2.17,2.17,0,0,1-2.17,2.18h-35.8a2.17,2.17,0,0,1-2.17-2.18V69.42a2.17,2.17,0,0,1,2.17-2.18" transform="translate(0 0)"/></g><rect class="cls-13" x="318.25" y="73.47" width="40.15" height="1.07"/><g class="cls-2"><path class="cls-8" d="M323.46,70.45a1,1,0,0,1-.61.91,1,1,0,0,1-1.08-.21,1,1,0,0,1,.7-1.7,1,1,0,0,1,.7.29,1,1,0,0,1,.29.71" transform="translate(0 0)"/><path class="cls-8" d="M326.86,70.45a1,1,0,0,1-.61.91,1,1,0,0,1-1.08-.21,1,1,0,0,1-.22-1.08,1,1,0,0,1,.92-.62,1,1,0,0,1,.7.29,1,1,0,0,1,.29.71" transform="translate(0 0)"/><path class="cls-8" d="M330.26,70.45a1,1,0,0,1-.62.91,1,1,0,0,1-1.29-1.29,1,1,0,0,1,.91-.62,1,1,0,0,1,1,1" transform="translate(0 0)"/><path class="cls-13" d="M349.19,80a2.18,2.18,0,0,0-2.16-1.9H329.61a2.18,2.18,0,0,0-2.18,2.18v7.55H349.2V80.24a2.53,2.53,0,0,0,0-.28" transform="translate(0 0)"/></g><rect class="cls-4" x="329.16" y="58.07" width="18.33" height="0.59"/><rect class="cls-4" x="329.16" y="60.45" width="18.33" height="0.59"/><rect class="cls-4" x="329.16" y="62.83" width="18.33" height="0.59"/><rect class="cls-4" x="329.16" y="65.21" width="18.33" height="0.59"/><rect class="cls-7" x="97.24" y="139.67" width="30.22" height="40.08"/><polygon class="cls-6" points="113.46 177.2 94.7 177.2 94.7 137.12 124.91 137.12 124.91 164.47 113.46 177.2"/><polygon class="cls-8" points="124.91 164.47 113.38 164.47 113.38 177.2 124.91 164.47"/><rect class="cls-6" x="236.81" y="140.5" width="25.97" height="0.91" transform="translate(-29.62 76.2) rotate(-16.39)"/><g class="cls-2"><path class="cls-4" d="M238.7,144.64V146H236v-1.36a1.36,1.36,0,1,1,2.71,0" transform="translate(0 0)"/><path class="cls-7" d="M232.54,145.49h38.82a1.83,1.83,0,0,1,1.83,1.83V169.1a1.82,1.82,0,0,1-1.83,1.82H232.54a1.82,1.82,0,0,1-1.83-1.82V147.32a1.82,1.82,0,0,1,1.83-1.83" transform="translate(0 0)"/><path class="cls-11" d="M252,158.21a9.15,9.15,0,1,1-9.15-9.15,9.14,9.14,0,0,1,9.15,9.15" transform="translate(0 0)"/><path class="cls-6" d="M242.8,166.32a8.11,8.11,0,1,1,8.11-8.11,8.12,8.12,0,0,1-8.11,8.11" transform="translate(0 0)"/><path class="cls-11" d="M242.8,162.15a3.94,3.94,0,1,1,3.94-3.94,3.93,3.93,0,0,1-3.94,3.94" transform="translate(0 0)"/><path class="cls-6" d="M261.69,136.41l.73-.26a.14.14,0,0,1,.19.09l.6,1.8a.15.15,0,0,1-.09.18l-.76.27a.14.14,0,0,1-.19-.09l-.58-1.8a.16.16,0,0,1,.1-.19" transform="translate(0 0)"/><path class="cls-6" d="M254.24,148.63h16.19a.45.45,0,0,1,.45.46v4.81a.46.46,0,0,1-.45.46H254.24a.46.46,0,0,1-.46-.46v-4.81a.45.45,0,0,1,.46-.46" transform="translate(0 0)"/></g><rect class="cls-3" x="261.32" y="151.58" width="0.43" height="2.78"/><rect class="cls-4" x="269.31" y="152.46" width="0.43" height="1.9"/><rect class="cls-4" x="267.71" y="152.46" width="0.43" height="1.9"/><rect class="cls-4" x="266.11" y="152.46" width="0.43" height="1.9"/><rect class="cls-4" x="264.51" y="152.46" width="0.43" height="1.9"/><rect class="cls-4" x="262.92" y="152.46" width="0.43" height="1.9"/><rect class="cls-4" x="259.72" y="152.46" width="0.43" height="1.9"/><rect class="cls-4" x="258.12" y="152.46" width="0.43" height="1.9"/><rect class="cls-4" x="256.52" y="152.46" width="0.43" height="1.9"/><rect class="cls-4" x="254.92" y="152.46" width="0.43" height="1.9"/><g class="cls-2"><path class="cls-3" d="M259,158.77a1.45,1.45,0,0,1-.89,1.33,1.44,1.44,0,1,1,.89-1.33" transform="translate(0 0)"/><path class="cls-3" d="M263.77,158.77a1.43,1.43,0,1,1-.42-1,1.44,1.44,0,0,1,.42,1" transform="translate(0 0)"/><path class="cls-3" d="M268.5,158.77a1.44,1.44,0,0,1-.89,1.33,1.44,1.44,0,1,1,.47-2.35,1.45,1.45,0,0,1,.42,1" transform="translate(0 0)"/><path class="cls-4" d="M257.57,164.3h9.53a1.75,1.75,0,0,1,0,3.49h-9.53a1.75,1.75,0,1,1,0-3.49" transform="translate(0 0)"/><path class="cls-6" d="M424.32,168a9.71,9.71,0,0,0-9.32-9l.1-2.45a12.16,12.16,0,0,1,11.66,11.31Z" transform="translate(0 0)"/><path class="cls-6" d="M430,168a17.42,17.42,0,0,0-5.31-10.35,17.22,17.22,0,0,0-9.73-4.43l.26-2.43a19.65,19.65,0,0,1,11.14,5.06,19.88,19.88,0,0,1,6.07,11.84Z" transform="translate(0 0)"/><path class="cls-6" d="M435.17,167.9a20.66,20.66,0,0,0-6.2-14.39A20.35,20.35,0,0,0,415.06,148h0v-2.46h0a22.5,22.5,0,0,1,22.56,22.39Z" transform="translate(0 0)"/><path class="cls-6" d="M415.4,164.94a2.56,2.56,0,1,0,2.56-2.55,2.56,2.56,0,0,0-2.56,2.55" transform="translate(0 0)"/><path class="cls-4" d="M38.63,13.14a3,3,0,0,0,1.92-.5,1.67,1.67,0,0,0,.62-1.4,1.75,1.75,0,0,0-.67-1.45A6.81,6.81,0,0,0,38,8.84a8,8,0,0,1-3.61-1.59,3.29,3.29,0,0,1-1-2.49,3.62,3.62,0,0,1,1.29-2.88A5.53,5.53,0,0,1,38.31.78a7.21,7.21,0,0,1,2.28.33A4.17,4.17,0,0,1,42.2,2a4.67,4.67,0,0,1,.93,1.25,4.41,4.41,0,0,1,.41,1.45H40.87c-.22-1.29-1.1-1.94-2.64-1.94a2.73,2.73,0,0,0-1.63.43A1.5,1.5,0,0,0,36,4.48a1.4,1.4,0,0,0,.62,1.24A8.11,8.11,0,0,0,39,6.56a13.29,13.29,0,0,1,2.47.8A4.69,4.69,0,0,1,43,8.4a3.6,3.6,0,0,1,.71,1.18,4.42,4.42,0,0,1,.2,1.36A3.73,3.73,0,0,1,42.47,14a6.23,6.23,0,0,1-4,1.15,7.92,7.92,0,0,1-2.31-.31,4.39,4.39,0,0,1-2.76-2.22,5.45,5.45,0,0,1-.53-1.67h2.66c.34,1.47,1.38,2.2,3.14,2.2" transform="translate(0 0)"/><path class="cls-4" d="M54.79,15H52.35c0-.14-.05-.58-.08-1.32a3.09,3.09,0,0,1-3,1.56,3.33,3.33,0,0,1-2.51-.95,4,4,0,0,1-.93-2.89V4.58h2.5v6.28c0,1.51.6,2.26,1.78,2.26a1.83,1.83,0,0,0,1.63-.7,4.16,4.16,0,0,0,.49-2.34V4.58h2.5v7.34c0,1.48,0,2.5,0,3" transform="translate(0 0)"/><path class="cls-4" d="M64.11,7.24a2,2,0,0,0-1.74-.86,2.17,2.17,0,0,0-1.9.83,4.58,4.58,0,0,0-.58,2.55,4.84,4.84,0,0,0,.55,2.56,2,2,0,0,0,1.81.86,2.17,2.17,0,0,0,1.37-.42,2.44,2.44,0,0,0,.83-1.22,5.81,5.81,0,0,0,.28-1.94,3.93,3.93,0,0,0-.62-2.36m-6.6-.16c0-1.12,0-1.95,0-2.5h2.42A10.4,10.4,0,0,1,60,6a3.28,3.28,0,0,1,3.12-1.66,3.7,3.7,0,0,1,3,1.41A5.63,5.63,0,0,1,67.29,9.5,6.23,6.23,0,0,1,66,13.69a4.07,4.07,0,0,1-3.26,1.51A2.9,2.9,0,0,1,60,13.9V19h-2.5Z" transform="translate(0 0)"/><path class="cls-4" d="M76,7.24a2,2,0,0,0-1.74-.86,2.17,2.17,0,0,0-1.9.83,4.58,4.58,0,0,0-.58,2.55,4.84,4.84,0,0,0,.55,2.56,2,2,0,0,0,1.81.86,2.17,2.17,0,0,0,1.37-.42,2.44,2.44,0,0,0,.83-1.22,5.81,5.81,0,0,0,.28-1.94A3.93,3.93,0,0,0,76,7.24m-6.6-.16c0-1.12,0-1.95,0-2.5h2.42A10.4,10.4,0,0,1,71.87,6,3.28,3.28,0,0,1,75,4.34a3.7,3.7,0,0,1,3,1.41A5.69,5.69,0,0,1,79.15,9.5a6.23,6.23,0,0,1-1.28,4.19,4.07,4.07,0,0,1-3.26,1.51,2.9,2.9,0,0,1-2.74-1.3V19h-2.5Z" transform="translate(0 0)"/><path class="cls-4" d="M83.89,7.22a4.35,4.35,0,0,0-.64,2.54,4.25,4.25,0,0,0,.67,2.51,2.14,2.14,0,0,0,1.83.93,2.05,2.05,0,0,0,1.8-.91,4.26,4.26,0,0,0,.64-2.51,5.52,5.52,0,0,0-.28-1.88,2.26,2.26,0,0,0-.84-1.17,2.3,2.3,0,0,0-1.36-.39,2.12,2.12,0,0,0-1.82.88m5.51-1.4a5.61,5.61,0,0,1,1.35,3.92,5.72,5.72,0,0,1-1.35,3.93,5.23,5.23,0,0,1-7.37,0,5.68,5.68,0,0,1-1.34-3.91,5.66,5.66,0,0,1,1.37-3.92,4.82,4.82,0,0,1,3.75-1.52A4.64,4.64,0,0,1,89.4,5.82" transform="translate(0 0)"/><path class="cls-4" d="M92.83,4.58h2.46a17.11,17.11,0,0,1,.06,1.92A3.32,3.32,0,0,1,96.6,4.93a3.78,3.78,0,0,1,2.15-.59V6.76a3.67,3.67,0,0,0-2.55.75,3.64,3.64,0,0,0-.85,2.75V15h-2.5V7.38c0-1.36,0-2.29,0-2.8" transform="translate(0 0)"/><path class="cls-4" d="M101.51,4.58V1.68H104v2.9h2.12V6.5H104V12a1.44,1.44,0,0,0,.24.94,1.14,1.14,0,0,0,.9.28,4.47,4.47,0,0,0,.74,0V14.9a5.79,5.79,0,0,1-1.82.2,2.45,2.45,0,0,1-2-.7,3.11,3.11,0,0,1-.6-2.08V6.5H99.85V4.58Z" transform="translate(0 0)"/><path class="cls-4" d="M118.53,7.44a3.7,3.7,0,0,0,1.38-.22,1.72,1.72,0,0,0,.88-.71,2.12,2.12,0,0,0,.32-1.23A2.15,2.15,0,0,0,120.77,4a1.93,1.93,0,0,0-.88-.72,3.3,3.3,0,0,0-1.28-.22h-2.7V7.44ZM118.91,1a5.14,5.14,0,0,1,3.51,1.15,3.88,3.88,0,0,1,1.33,3.09,3.91,3.91,0,0,1-1.38,3.23,5.47,5.47,0,0,1-3.54,1.11h-2.92V15h-2.62V1Z" transform="translate(0 0)"/><path class="cls-4" d="M125.63,4.58h2.46a17.11,17.11,0,0,1,.06,1.92,3.32,3.32,0,0,1,1.25-1.57,3.78,3.78,0,0,1,2.15-.59V6.76a3.67,3.67,0,0,0-2.55.75,3.64,3.64,0,0,0-.85,2.75V15h-2.5V7.38c0-1.36,0-2.29,0-2.8" transform="translate(0 0)"/><path class="cls-4" d="M135.67,7.22A4.35,4.35,0,0,0,135,9.76a4.18,4.18,0,0,0,.67,2.51,2.14,2.14,0,0,0,1.83.93,2.05,2.05,0,0,0,1.8-.91A4.26,4.26,0,0,0,140,9.78a5.52,5.52,0,0,0-.28-1.88,2.26,2.26,0,0,0-.84-1.17,2.3,2.3,0,0,0-1.36-.39,2.11,2.11,0,0,0-1.82.88m5.51-1.4a5.61,5.61,0,0,1,1.35,3.92,5.72,5.72,0,0,1-1.35,3.93,4.68,4.68,0,0,1-3.71,1.53,4.62,4.62,0,0,1-3.66-1.51,5.68,5.68,0,0,1-1.34-3.91,5.66,5.66,0,0,1,1.37-3.92,4.8,4.8,0,0,1,3.75-1.52,4.64,4.64,0,0,1,3.59,1.48" transform="translate(0 0)"/><path class="cls-4" d="M148.31,12.72h0c0-.14.07-.32.11-.52s.1-.39.14-.57.11-.41.19-.69l.21-.73c.06-.2.15-.48.25-.84s.2-.63.26-.85.17-.53.3-.95l.31-.94c.08-.2.19-.55.34-1s.27-.82.33-1h2.5L149.55,15h-2.66L143.33,4.58H146q2,6.45,2.28,8.14" transform="translate(0 0)"/></g><path class="cls-4" d="M157.33,15h-2.5V4.58h2.5ZM154.83.2h2.5V2.64h-2.5Z" transform="translate(0 0)"/><g class="cls-2"><path class="cls-4" d="M162.65,12.28a2.07,2.07,0,0,0,1.78.88,2.49,2.49,0,0,0,1.07-.2,1.83,1.83,0,0,0,.71-.51,2.06,2.06,0,0,0,.41-.78,4.47,4.47,0,0,0,.2-.92,8.21,8.21,0,0,0,.05-1.05,8.6,8.6,0,0,0-.09-1.35,3.65,3.65,0,0,0-.33-1,1.55,1.55,0,0,0-.72-.71,2.85,2.85,0,0,0-1.22-.23,2.15,2.15,0,0,0-1.85.9A4.26,4.26,0,0,0,162,9.79a4.2,4.2,0,0,0,.64,2.49m6.64-.2c0,1.28,0,2.24,0,2.88h-2.42a11.13,11.13,0,0,1-.1-1.22,3.18,3.18,0,0,1-3.08,1.46,3.8,3.8,0,0,1-3.13-1.46,6,6,0,0,1-1.17-3.88,6.06,6.06,0,0,1,1.28-4,4.24,4.24,0,0,1,3.44-1.54,4,4,0,0,1,1.75.33,2,2,0,0,1,.91.77V.2h2.5Z" transform="translate(0 0)"/><path class="cls-4" d="M177.84,6.87a1.9,1.9,0,0,0-1.61-.69c-1.37,0-2.14.84-2.3,2.52h4.46a3,3,0,0,0-.55-1.83m-3.36,5.5a2,2,0,0,0,1.73.83,2.22,2.22,0,0,0,1.34-.33,2.11,2.11,0,0,0,.7-.95h2.52a4.13,4.13,0,0,1-.32.85,3.76,3.76,0,0,1-.58.87,3.85,3.85,0,0,1-.87.79,4.14,4.14,0,0,1-1.23.55,5.61,5.61,0,0,1-1.64.22,5,5,0,0,1-2.16-.44,4,4,0,0,1-1.5-1.19,5.78,5.78,0,0,1-.85-1.68,6.66,6.66,0,0,1-.29-2,6.17,6.17,0,0,1,1.27-4,4.49,4.49,0,0,1,3.65-1.53,5.13,5.13,0,0,1,2.19.43A3.49,3.49,0,0,1,179.89,6a5.3,5.3,0,0,1,.77,1.61,6.49,6.49,0,0,1,.25,1.84,6.78,6.78,0,0,1,0,.9h-7a3.43,3.43,0,0,0,.61,2.07" transform="translate(0 0)"/><path class="cls-4" d="M185.71,12.28a2.07,2.07,0,0,0,1.78.88,2.49,2.49,0,0,0,1.07-.2,1.83,1.83,0,0,0,.71-.51,2.06,2.06,0,0,0,.41-.78,4.47,4.47,0,0,0,.2-.92,8.21,8.21,0,0,0,.05-1.05,8.6,8.6,0,0,0-.09-1.35,3.65,3.65,0,0,0-.33-1,1.55,1.55,0,0,0-.72-.71,2.85,2.85,0,0,0-1.22-.23,2.15,2.15,0,0,0-1.85.9,4.26,4.26,0,0,0-.65,2.51,4.2,4.2,0,0,0,.64,2.49m6.64-.2c0,1.28,0,2.24,0,2.88H190a11.13,11.13,0,0,1-.1-1.22,3.18,3.18,0,0,1-3.08,1.46,3.78,3.78,0,0,1-3.13-1.46,6,6,0,0,1-1.17-3.88,6.06,6.06,0,0,1,1.28-4,4.23,4.23,0,0,1,3.44-1.54,4,4,0,0,1,1.75.33,2,2,0,0,1,.91.77V.2h2.5Z" transform="translate(0 0)"/><path class="cls-4" d="M200.37,6.5h-1.58V4.58h1.58v-1A3.92,3.92,0,0,1,201.16,1a2.94,2.94,0,0,1,2.41-1,4.84,4.84,0,0,1,1.28.12v2a3.42,3.42,0,0,0-.7-.08,2,2,0,0,0-.6.08.79.79,0,0,0-.39.28,1.46,1.46,0,0,0-.22.52,3.46,3.46,0,0,0-.07.78v.86h1.9V6.5h-1.9V15h-2.5Z" transform="translate(0 0)"/><path class="cls-4" d="M208.73,7.22a4.35,4.35,0,0,0-.64,2.54,4.18,4.18,0,0,0,.67,2.51,2.14,2.14,0,0,0,1.83.93,2.05,2.05,0,0,0,1.8-.91A4.26,4.26,0,0,0,213,9.78a5.52,5.52,0,0,0-.28-1.88,2.26,2.26,0,0,0-.84-1.17,2.3,2.3,0,0,0-1.36-.39,2.11,2.11,0,0,0-1.82.88m5.51-1.4a5.61,5.61,0,0,1,1.35,3.92,5.72,5.72,0,0,1-1.35,3.93,4.68,4.68,0,0,1-3.71,1.53,4.62,4.62,0,0,1-3.66-1.51,5.68,5.68,0,0,1-1.34-3.91,5.66,5.66,0,0,1,1.37-3.92,4.8,4.8,0,0,1,3.75-1.52,4.64,4.64,0,0,1,3.59,1.48" transform="translate(0 0)"/><path class="cls-4" d="M217.67,4.58h2.46a17.11,17.11,0,0,1,.06,1.92,3.32,3.32,0,0,1,1.25-1.57,3.78,3.78,0,0,1,2.15-.59V6.76a3.67,3.67,0,0,0-2.55.75,3.64,3.64,0,0,0-.85,2.75V15h-2.5V7.38c0-1.36,0-2.29,0-2.8" transform="translate(0 0)"/><path class="cls-4" d="M232.31,4.6a6.51,6.51,0,0,1-1.23.47,7,7,0,0,1-1.31.29V3.46a5.87,5.87,0,0,0,1.77-.68,6,6,0,0,0,1.51-1.16h1.8V15h-2.54Z" transform="translate(0 0)"/><path class="cls-4" d="M240.35,5.18a1.57,1.57,0,0,0,.52,1.22,2.23,2.23,0,0,0,1.52.46c1.34,0,2-.55,2-1.66a1.74,1.74,0,0,0-.52-1.32,2.07,2.07,0,0,0-1.5-.5c-1.34,0-2,.6-2,1.8m3.76,7.49a2,2,0,0,0,.64-1.63,2.26,2.26,0,0,0-.3-1.19,1.83,1.83,0,0,0-.83-.72,3.2,3.2,0,0,0-1.27-.23,2.59,2.59,0,0,0-1.8.58,2.06,2.06,0,0,0-.62,1.56,2.18,2.18,0,0,0,.29,1.13,2,2,0,0,0,.86.77,2.9,2.9,0,0,0,1.31.28,2.52,2.52,0,0,0,1.72-.55m-5.34,1.44a3.55,3.55,0,0,1-1.38-2.95,3.21,3.21,0,0,1,.67-2,4.19,4.19,0,0,1,1.61-1.24A3,3,0,0,1,238,5.1a3.35,3.35,0,0,1,1.17-2.68,4.94,4.94,0,0,1,3.31-1,4.74,4.74,0,0,1,3.17,1,3.28,3.28,0,0,1,1.19,2.66A2.6,2.6,0,0,1,245,7.76,3.56,3.56,0,0,1,246.6,9a3.35,3.35,0,0,1,.67,2.11,3.61,3.61,0,0,1-1.39,3,5.76,5.76,0,0,1-3.65,1.08,5.4,5.4,0,0,1-3.46-1.09" transform="translate(0 0)"/><path class="cls-4" d="M258.42,14.09a3.72,3.72,0,0,1-3,1.07,7.25,7.25,0,0,1-1.76-.16V12.9A8.63,8.63,0,0,0,255,13a2,2,0,0,0,.9-.17,1.08,1.08,0,0,0,.53-.5,2.11,2.11,0,0,0,.23-.68,5,5,0,0,0,.06-.85V1h2.6v9.64a5.3,5.3,0,0,1-.91,3.47" transform="translate(0 0)"/><path class="cls-4" d="M270.81,15h-2.44c0-.14-.05-.58-.08-1.32a3.09,3.09,0,0,1-3,1.56,3.33,3.33,0,0,1-2.51-.95,4,4,0,0,1-.93-2.89V4.58h2.5v6.28c0,1.51.6,2.26,1.78,2.26a1.83,1.83,0,0,0,1.63-.7,4.16,4.16,0,0,0,.49-2.34V4.58h2.5v7.34c0,1.48,0,2.5,0,3" transform="translate(0 0)"/><path class="cls-4" d="M278.05,10.12a3.82,3.82,0,0,0-2,.41,1.44,1.44,0,0,0-.63,1.29,1.61,1.61,0,0,0,.18.78,1.32,1.32,0,0,0,.57.55,1.91,1.91,0,0,0,.91.21,3,3,0,0,0,1-.16,1.52,1.52,0,0,0,.68-.42,1.73,1.73,0,0,0,.38-.67,3.36,3.36,0,0,0,.19-.79,5.92,5.92,0,0,0,.05-.9v-.3ZM282,15h-2.4a4.37,4.37,0,0,1-.16-1.14,3.18,3.18,0,0,1-3,1.38,3.44,3.44,0,0,1-2.64-.95,3.18,3.18,0,0,1-.9-2.27,2.91,2.91,0,0,1,1.29-2.58,6.59,6.59,0,0,1,3.65-.86h1.58V7.82A1.77,1.77,0,0,0,279,6.64a1.84,1.84,0,0,0-1.43-.46,3.33,3.33,0,0,0-.84.1,1.2,1.2,0,0,0-.53.31,1.5,1.5,0,0,0-.28.43,3,3,0,0,0-.15.54h-2.4a3.44,3.44,0,0,1,1.13-2.33,4.64,4.64,0,0,1,3.17-.89c2.79,0,4.18,1.18,4.18,3.5v4.58A14.67,14.67,0,0,0,282,15" transform="translate(0 0)"/><path class="cls-4" d="M284.61,4.58H287a7.4,7.4,0,0,1,.1,1.46,3.13,3.13,0,0,1,3.08-1.7,3.24,3.24,0,0,1,2.52,1,4.25,4.25,0,0,1,.94,3V15h-2.5V8.62c0-1.48-.61-2.22-1.84-2.22-1.46,0-2.2,1-2.2,2.86V15h-2.5V7.18c0-1.21,0-2.08,0-2.6" transform="translate(0 0)"/><path class="cls-4" d="M311.33,14a6,6,0,0,1-3.9,1.18,6.92,6.92,0,0,1-2.84-.55,5.24,5.24,0,0,1-2-1.52,6.73,6.73,0,0,1-1.19-2.25A9.15,9.15,0,0,1,301,8a8.84,8.84,0,0,1,.42-2.75A7.49,7.49,0,0,1,302.6,3a5.43,5.43,0,0,1,2.06-1.61,6.84,6.84,0,0,1,2.89-.59,5.84,5.84,0,0,1,4,1.26,5.16,5.16,0,0,1,1.78,3.16h-2.64a3,3,0,0,0-3.2-2.32,3.56,3.56,0,0,0-1.72.41,3.28,3.28,0,0,0-1.18,1.13A5.61,5.61,0,0,0,303.9,6,8.46,8.46,0,0,0,303.69,8a8.39,8.39,0,0,0,.2,1.85,6.34,6.34,0,0,0,.63,1.62,3.19,3.19,0,0,0,1.2,1.19,3.54,3.54,0,0,0,1.81.44,3.59,3.59,0,0,0,1.07-.15,2.78,2.78,0,0,0,.81-.37A2.28,2.28,0,0,0,310,12a2.72,2.72,0,0,0,.4-.6,4,4,0,0,0,.26-.62h2.64a5.54,5.54,0,0,1-2,3.18" transform="translate(0 0)"/><path class="cls-4" d="M318,7.22a4.35,4.35,0,0,0-.64,2.54,4.25,4.25,0,0,0,.67,2.51,2.14,2.14,0,0,0,1.83.93,2.05,2.05,0,0,0,1.8-.91,4.26,4.26,0,0,0,.64-2.51,5.52,5.52,0,0,0-.28-1.88,2.26,2.26,0,0,0-.84-1.17,2.3,2.3,0,0,0-1.36-.39,2.12,2.12,0,0,0-1.82.88m5.51-1.4a5.61,5.61,0,0,1,1.35,3.92,5.72,5.72,0,0,1-1.35,3.93,5.23,5.23,0,0,1-7.37,0,5.68,5.68,0,0,1-1.34-3.91,5.66,5.66,0,0,1,1.37-3.92A4.82,4.82,0,0,1,320,4.34a4.64,4.64,0,0,1,3.59,1.48" transform="translate(0 0)"/><path class="cls-4" d="M327,4.58h2.4a11.39,11.39,0,0,1,.1,1.36,3.23,3.23,0,0,1,2.92-1.6,3,3,0,0,1,1.74.47,2.76,2.76,0,0,1,1,1.21,3.62,3.62,0,0,1,3.22-1.68,3.22,3.22,0,0,1,2.39.93,4,4,0,0,1,.92,2.89V15h-2.47V8.46a3.44,3.44,0,0,0-.13-1,1.76,1.76,0,0,0-.54-.75,1.62,1.62,0,0,0-1-.32c-1.29,0-1.94.88-1.94,2.64V15h-2.46V8.54A2.94,2.94,0,0,0,332.75,7a1.41,1.41,0,0,0-1.3-.57c-1.32,0-2,.93-2,2.78V15H327V7.24c0-1.2,0-2.08,0-2.66" transform="translate(0 0)"/><path class="cls-4" d="M344.39,4.58h2.4a11.39,11.39,0,0,1,.1,1.36,3.23,3.23,0,0,1,2.92-1.6,3,3,0,0,1,1.74.47,2.76,2.76,0,0,1,1,1.21,3.62,3.62,0,0,1,3.22-1.68,3.22,3.22,0,0,1,2.39.93,4,4,0,0,1,.92,2.89V15h-2.47V8.46a3.44,3.44,0,0,0-.13-1A1.76,1.76,0,0,0,356,6.7a1.62,1.62,0,0,0-1-.32c-1.29,0-1.94.88-1.94,2.64V15h-2.46V8.54A2.94,2.94,0,0,0,350.17,7a1.41,1.41,0,0,0-1.3-.57c-1.32,0-2,.93-2,2.78V15h-2.48V7.24c0-1.2,0-2.08,0-2.66" transform="translate(0 0)"/><path class="cls-4" d="M370.71,15h-2.44c0-.14,0-.58-.08-1.32a3.09,3.09,0,0,1-3,1.56,3.33,3.33,0,0,1-2.51-.95,4,4,0,0,1-.93-2.89V4.58h2.5v6.28c0,1.51.6,2.26,1.78,2.26a1.83,1.83,0,0,0,1.63-.7,4.16,4.16,0,0,0,.49-2.34V4.58h2.5v7.34c0,1.48,0,2.5,0,3" transform="translate(0 0)"/><path class="cls-4" d="M373.43,4.58h2.42A7.4,7.4,0,0,1,376,6,3.13,3.13,0,0,1,379,4.34a3.24,3.24,0,0,1,2.52,1,4.25,4.25,0,0,1,.94,3V15H380V8.62c0-1.48-.61-2.22-1.84-2.22-1.46,0-2.2,1-2.2,2.86V15h-2.5V7.18c0-1.21,0-2.08,0-2.6" transform="translate(0 0)"/></g><path class="cls-4" d="M387.71,15h-2.5V4.58h2.5ZM385.21.2h2.5V2.64h-2.5Z" transform="translate(0 0)"/><g class="cls-2"><path class="cls-4" d="M391,4.58V1.68h2.5v2.9h2.12V6.5h-2.12V12a1.44,1.44,0,0,0,.24.94,1.14,1.14,0,0,0,.9.28,4.47,4.47,0,0,0,.74,0V14.9a5.79,5.79,0,0,1-1.82.2,2.45,2.45,0,0,1-2-.7,3.11,3.11,0,0,1-.6-2.08V6.5h-1.66V4.58Z" transform="translate(0 0)"/><path class="cls-4" d="M401.73,12.68h0q.48-2,2.3-8.1h2.5L403,15.32a7.76,7.76,0,0,1-1.59,3.09,3.68,3.68,0,0,1-2.59.78,10.14,10.14,0,0,1-1.26-.08V17a7.54,7.54,0,0,0,.78,0,2.05,2.05,0,0,0,1.32-.37,3.06,3.06,0,0,0,.8-1.41L396.61,4.58h2.68q2.16,6.78,2.44,8.1" transform="translate(0 0)"/><path class="cls-4" d="M418.17,13.14a3,3,0,0,0,1.92-.5,1.67,1.67,0,0,0,.62-1.4A1.75,1.75,0,0,0,420,9.79a6.81,6.81,0,0,0-2.53-.95,7.92,7.92,0,0,1-3.61-1.59,3.29,3.29,0,0,1-1-2.49,3.62,3.62,0,0,1,1.29-2.88,5.51,5.51,0,0,1,3.67-1.1,7.25,7.25,0,0,1,2.28.33,4.05,4.05,0,0,1,1.6.91,4.67,4.67,0,0,1,.93,1.25,4.18,4.18,0,0,1,.41,1.45h-2.66c-.22-1.29-1.1-1.94-2.64-1.94a2.7,2.7,0,0,0-1.63.43,1.5,1.5,0,0,0-.57,1.27,1.4,1.4,0,0,0,.62,1.24,8,8,0,0,0,2.36.84,12.92,12.92,0,0,1,2.46.8,4.58,4.58,0,0,1,1.49,1,3.44,3.44,0,0,1,.71,1.18,4.14,4.14,0,0,1,.2,1.36A3.73,3.73,0,0,1,422,14a6.2,6.2,0,0,1-4,1.15,7.92,7.92,0,0,1-2.31-.31,4.43,4.43,0,0,1-1.7-.89,4.36,4.36,0,0,1-1.06-1.33,5.19,5.19,0,0,1-.53-1.67H415c.33,1.47,1.38,2.2,3.14,2.2" transform="translate(0 0)"/><path class="cls-4" d="M434,13a4.17,4.17,0,0,1-.83,1.12,3.47,3.47,0,0,1-1.35.82,5.51,5.51,0,0,1-1.89.3,4.43,4.43,0,0,1-3.56-1.46,5.79,5.79,0,0,1-1.26-3.92,5.83,5.83,0,0,1,1.33-3.91,4.54,4.54,0,0,1,3.63-1.57,5.38,5.38,0,0,1,1.71.26,4.06,4.06,0,0,1,1.25.65,3.85,3.85,0,0,1,.81.9,4,4,0,0,1,.47.95,3,3,0,0,1,.16.86H432a1.86,1.86,0,0,0-2-1.62,2,2,0,0,0-1.72.9,4.49,4.49,0,0,0-.6,2.5,4.61,4.61,0,0,0,.6,2.59,1.92,1.92,0,0,0,1.7.89,2,2,0,0,0,2-1.56h2.48A5,5,0,0,1,434,13" transform="translate(0 0)"/><path class="cls-4" d="M438.87,5.92a3.38,3.38,0,0,1,3.06-1.58,3.42,3.42,0,0,1,2.5,1,4.09,4.09,0,0,1,1,3V15h-2.48V8.7c0-1.53-.63-2.3-1.88-2.3a1.86,1.86,0,0,0-1.69.77,4.11,4.11,0,0,0-.49,2.21V15h-2.5V.2h2.5Z" transform="translate(0 0)"/><path class="cls-4" d="M450.69,7.22a4.27,4.27,0,0,0-.64,2.54,4.18,4.18,0,0,0,.67,2.51,2.14,2.14,0,0,0,1.83.93,2.07,2.07,0,0,0,1.8-.91A4.26,4.26,0,0,0,455,9.78a5.52,5.52,0,0,0-.28-1.88,2.37,2.37,0,0,0-.84-1.17,2.32,2.32,0,0,0-1.36-.39,2.11,2.11,0,0,0-1.82.88m5.51-1.4a5.61,5.61,0,0,1,1.35,3.92,5.72,5.72,0,0,1-1.35,3.93,4.7,4.7,0,0,1-3.71,1.53,4.62,4.62,0,0,1-3.66-1.51,5.68,5.68,0,0,1-1.34-3.91,5.66,5.66,0,0,1,1.37-3.92,4.8,4.8,0,0,1,3.75-1.52,4.65,4.65,0,0,1,3.59,1.48" transform="translate(0 0)"/><path class="cls-4" d="M462.31,7.22a4.27,4.27,0,0,0-.64,2.54,4.18,4.18,0,0,0,.67,2.51,2.14,2.14,0,0,0,1.83.93,2.07,2.07,0,0,0,1.8-.91,4.26,4.26,0,0,0,.64-2.51,5.52,5.52,0,0,0-.28-1.88,2.37,2.37,0,0,0-.84-1.17,2.32,2.32,0,0,0-1.36-.39,2.11,2.11,0,0,0-1.82.88m5.51-1.4a5.61,5.61,0,0,1,1.35,3.92,5.72,5.72,0,0,1-1.35,3.93,4.7,4.7,0,0,1-3.71,1.53,4.62,4.62,0,0,1-3.66-1.51,5.68,5.68,0,0,1-1.34-3.91,5.66,5.66,0,0,1,1.37-3.92,4.8,4.8,0,0,1,3.75-1.52,4.65,4.65,0,0,1,3.59,1.48" transform="translate(0 0)"/></g><rect class="cls-4" x="471.27" y="0.2" width="2.5" height="14.76"/><g class="cls-2"><path class="cls-4" d="M487.05,7.44a3.7,3.7,0,0,0,1.38-.22,1.76,1.76,0,0,0,.88-.71,2.2,2.2,0,0,0,.32-1.23A2.15,2.15,0,0,0,489.29,4a2,2,0,0,0-.88-.72,3.33,3.33,0,0,0-1.28-.22h-2.7V7.44ZM487.43,1a5.17,5.17,0,0,1,3.51,1.15,3.88,3.88,0,0,1,1.33,3.09,3.91,3.91,0,0,1-1.38,3.23,5.47,5.47,0,0,1-3.54,1.11h-2.92V15h-2.62V1Z" transform="translate(0 0)"/><path class="cls-4" d="M498.41,10.12a3.82,3.82,0,0,0-2,.41,1.44,1.44,0,0,0-.63,1.29,1.61,1.61,0,0,0,.18.78,1.32,1.32,0,0,0,.57.55,1.88,1.88,0,0,0,.91.21,3,3,0,0,0,1-.16,1.58,1.58,0,0,0,.68-.42,1.73,1.73,0,0,0,.38-.67,3.94,3.94,0,0,0,.19-.79,7.58,7.58,0,0,0,0-.9v-.3ZM502.35,15H500a4.37,4.37,0,0,1-.16-1.14,3.18,3.18,0,0,1-3,1.38,3.44,3.44,0,0,1-2.64-.95,3.18,3.18,0,0,1-.9-2.27,2.91,2.91,0,0,1,1.29-2.58,6.59,6.59,0,0,1,3.65-.86h1.58V7.82a1.77,1.77,0,0,0-.39-1.18,1.84,1.84,0,0,0-1.43-.46,3.33,3.33,0,0,0-.84.1,1.15,1.15,0,0,0-.53.31,1.5,1.5,0,0,0-.28.43,3,3,0,0,0-.15.54h-2.4a3.44,3.44,0,0,1,1.13-2.33A4.62,4.62,0,0,1,498,4.34c2.79,0,4.18,1.18,4.18,3.5v4.58a14.67,14.67,0,0,0,.14,2.54" transform="translate(0 0)"/><path class="cls-4" d="M505,4.58h2.46a17.11,17.11,0,0,1,.06,1.92,3.32,3.32,0,0,1,1.25-1.57,3.78,3.78,0,0,1,2.15-.59V6.76a3.67,3.67,0,0,0-2.55.75,3.6,3.6,0,0,0-.85,2.75V15H505V7.38c0-1.36,0-2.29,0-2.8" transform="translate(0 0)"/><path class="cls-4" d="M513.63,4.58V1.68h2.5v2.9h2.12V6.5h-2.12V12a1.44,1.44,0,0,0,.24.94,1.14,1.14,0,0,0,.9.28,4.55,4.55,0,0,0,.74,0V14.9a5.83,5.83,0,0,1-1.82.2,2.44,2.44,0,0,1-2-.7,3.11,3.11,0,0,1-.6-2.08V6.5H512V4.58Z" transform="translate(0 0)"/><path class="cls-4" d="M520,4.58h2.42a7.4,7.4,0,0,1,.1,1.46,3.13,3.13,0,0,1,3.08-1.7,3.27,3.27,0,0,1,2.52,1,4.25,4.25,0,0,1,.94,3V15h-2.5V8.62c0-1.48-.61-2.22-1.84-2.22-1.47,0-2.2,1-2.2,2.86V15H520V7.18c0-1.21,0-2.08,0-2.6" transform="translate(0 0)"/><path class="cls-4" d="M537.62,6.87A1.9,1.9,0,0,0,536,6.18c-1.37,0-2.14.84-2.3,2.52h4.46a3,3,0,0,0-.55-1.83m-3.36,5.5a2,2,0,0,0,1.73.83,2.22,2.22,0,0,0,1.34-.33,2.19,2.19,0,0,0,.7-.95h2.52a4.8,4.8,0,0,1-.32.85,4.11,4.11,0,0,1-.58.87,3.85,3.85,0,0,1-.87.79,4.38,4.38,0,0,1-1.23.55,5.61,5.61,0,0,1-1.64.22,5,5,0,0,1-2.16-.44,3.81,3.81,0,0,1-1.5-1.19,5.54,5.54,0,0,1-.85-1.68,6.35,6.35,0,0,1-.29-2,6.12,6.12,0,0,1,1.27-4A4.47,4.47,0,0,1,536,4.34a5.13,5.13,0,0,1,2.19.43A3.55,3.55,0,0,1,539.67,6a5.55,5.55,0,0,1,.77,1.61,6.49,6.49,0,0,1,.25,1.84,6.78,6.78,0,0,1,0,.9h-7a3.37,3.37,0,0,0,.61,2.07" transform="translate(0 0)"/><path class="cls-4" d="M542.79,4.58h2.46a17.11,17.11,0,0,1,.06,1.92,3.32,3.32,0,0,1,1.25-1.57,3.75,3.75,0,0,1,2.15-.59V6.76a3.67,3.67,0,0,0-2.55.75,3.6,3.6,0,0,0-.85,2.75V15h-2.5V7.38c0-1.36,0-2.29,0-2.8" transform="translate(0 0)"/><path class="cls-4" d="M554.33,13.34c1.1,0,1.66-.39,1.66-1.18a1,1,0,0,0-.43-.91,5.46,5.46,0,0,0-1.67-.61,13,13,0,0,1-1.64-.51,5.6,5.6,0,0,1-1.1-.55,2.25,2.25,0,0,1-.66-.64,2.31,2.31,0,0,1-.33-.72,3.37,3.37,0,0,1-.09-.82,2.82,2.82,0,0,1,1-2.17,4.46,4.46,0,0,1,3.05-.89,6.09,6.09,0,0,1,1.9.27,3.2,3.2,0,0,1,1.29.74,4,4,0,0,1,.72,1,3,3,0,0,1,.29,1.08h-2.42c-.17-.85-.8-1.28-1.88-1.28a1.67,1.67,0,0,0-1.12.3,1,1,0,0,0-.34.76.83.83,0,0,0,.42.73,6.34,6.34,0,0,0,1.7.59,12.05,12.05,0,0,1,2,.63,3.53,3.53,0,0,1,1.19.81,2.73,2.73,0,0,1,.55.92,3.61,3.61,0,0,1,.15,1.1,2.86,2.86,0,0,1-1.11,2.3,4.88,4.88,0,0,1-3.21.92,5,5,0,0,1-3.25-.91,3.59,3.59,0,0,1-1.31-2.41h2.48a1.93,1.93,0,0,0,2.16,1.46" transform="translate(0 0)"/></g></g></g></svg>