<svg xmlns="http://www.w3.org/2000/svg" viewBox="0 0 83.28 66.24"><defs><style>.cls-1{fill:#306ea3;}.cls-2{fill:#eea620;}.cls-3{fill:#fec133;}</style></defs><g id="Layer_2" data-name="Layer 2"><g id="JGS_Equity_Stake_icon" data-name="JGS Equity Stake icon"><rect class="cls-1" x="39.1" width="5.07" height="66.24"/><path class="cls-2" d="M26.25,41.69a.34.34,0,0,1-.31-.2L14.46,14.81,3,41.49a.34.34,0,0,1-.63-.27l11.78-27.4a.36.36,0,0,1,.63,0l11.78,27.4a.34.34,0,0,1-.17.45l-.14,0"/><path class="cls-2" d="M80.6,41.69a.33.33,0,0,1-.31-.2L68.81,14.81,57.34,41.49a.34.34,0,1,1-.62-.27L68.5,13.82a.35.35,0,0,1,.62,0l11.79,27.4a.34.34,0,0,1-.18.45l-.13,0"/><path class="cls-1" d="M0,40.12a19.26,19.26,0,0,0,14.67,6.93,19.19,19.19,0,0,0,14.26-6.93Z"/><path class="cls-1" d="M54.35,40.12a18.56,18.56,0,0,0,28.93,0Z"/><rect class="cls-3" x="8.52" y="9.38" width="66.24" height="5.07"/><rect class="cls-2" x="14.46" y="60.11" width="54.35" height="6.13"/></g></g></svg>