<svg xmlns="http://www.w3.org/2000/svg" xmlns:xlink="http://www.w3.org/1999/xlink" viewBox="0 0 110 110"><defs><style>.cls-1,.cls-5,.cls-6{fill:none;}.cls-2{clip-path:url(#clip-path);}.cls-3{fill:#3b9945;}.cls-4{fill:#fff;}.cls-5,.cls-6{stroke:#fcbf33;stroke-miterlimit:10;}.cls-5{stroke-width:4.2px;}.cls-6{stroke-width:4.6px;}</style><clipPath id="clip-path"><rect class="cls-1" x="24.74" y="15.44" width="60.51" height="79.13"/></clipPath></defs><g id="Reward_Points" data-name="Reward Points"><g class="cls-2"><path class="cls-3" d="M81.49,94.57h-53a3.77,3.77,0,0,1-3.77-3.77V22.3a3.76,3.76,0,0,1,3.77-3.76h53a3.76,3.76,0,0,1,3.77,3.76V90.8a3.77,3.77,0,0,1-3.77,3.77"/></g><rect class="cls-4" x="28.41" y="21.79" width="53.19" height="68.91"/><rect class="cls-3" x="41.04" y="16.99" width="27.93" height="7.76"/><rect class="cls-3" x="45.69" y="15.43" width="18.62" height="7.76"/><path class="cls-5" d="M35.82,67.77l3.65,5.93L50,64.06M35.82,52.37l3.65,5.93L50,48.66M35.82,38.37l3.65,5.93L50,34.66"/><g class="cls-2"><path class="cls-6" d="M55,71.1H76.69M55,56H76.69M55,40.87H76.69"/></g></g></svg>