<svg xmlns="http://www.w3.org/2000/svg" xmlns:xlink="http://www.w3.org/1999/xlink" viewBox="0 0 110 110"><defs><style>.cls-1,.cls-7,.cls-8{fill:none;}.cls-2{clip-path:url(#clip-path);}.cls-3{fill:#3b9945;}.cls-4{fill:#2e70a3;}.cls-5{fill:#fff;}.cls-6{fill:#fcbf33;}.cls-7{stroke:#2e70a3;}.cls-7,.cls-8{stroke-miterlimit:10;stroke-width:3px;}.cls-8{stroke:#3b9945;}</style><clipPath id="clip-path"><rect class="cls-1" x="10.75" y="23.33" width="88.5" height="63.33"/></clipPath></defs><g id="Reward_Points" data-name="Reward Points"><g class="cls-2"><path class="cls-3" d="M71.26,76.1H17.41a6.66,6.66,0,0,1-6.66-6.65v-38c0-3.68,3-4.66,6.66-4.66H71.26c3.68,0,6.66,1,6.66,4.66v38a6.66,6.66,0,0,1-6.66,6.65"/><path class="cls-4" d="M10.75,30.36a3.43,3.43,0,0,1,3.3-3.55H74.62a3.43,3.43,0,0,1,3.3,3.55"/></g><rect class="cls-4" x="22.94" y="23.34" width="2.47" height="6.94"/><rect class="cls-4" x="63.88" y="23.34" width="2.47" height="6.94"/><rect class="cls-5" x="14.99" y="36.88" width="58.51" height="32.23"/><rect class="cls-6" x="29.68" y="42.2" width="5.73" height="5.73"/><rect class="cls-6" x="29.68" y="50.03" width="5.73" height="5.73"/><rect class="cls-6" x="37.68" y="42.2" width="5.73" height="5.73"/><rect class="cls-6" x="45.65" y="42.2" width="5.73" height="5.73"/><rect class="cls-6" x="53.66" y="42.2" width="5.73" height="5.73"/><rect class="cls-6" x="61.64" y="42.2" width="5.73" height="5.73"/><rect class="cls-6" x="37.68" y="50.13" width="5.73" height="5.73"/><rect class="cls-6" x="45.65" y="50.13" width="5.73" height="5.73"/><rect class="cls-6" x="53.65" y="50.13" width="5.73" height="5.73"/><rect class="cls-6" x="61.63" y="50.13" width="5.73" height="5.73"/><rect class="cls-6" x="29.68" y="58.05" width="5.73" height="5.73"/><rect class="cls-6" x="22.02" y="50.13" width="5.73" height="5.73"/><rect class="cls-6" x="22.02" y="58.05" width="5.73" height="5.73"/><rect class="cls-6" x="37.68" y="58.05" width="5.73" height="5.73"/><rect class="cls-6" x="45.65" y="58.05" width="5.73" height="5.73"/><rect class="cls-6" x="53.65" y="58.05" width="5.73" height="5.73"/><rect class="cls-6" x="61.63" y="58.05" width="5.73" height="5.73"/><g class="cls-2"><path class="cls-5" d="M97.75,68.8A16.37,16.37,0,1,1,81.38,52.43,16.37,16.37,0,0,1,97.75,68.8"/><circle class="cls-7" cx="81.38" cy="68.8" r="16.37"/></g><polyline class="cls-8" points="85.27 59.02 80.49 68.11 88.46 77.83"/></g></svg>