<svg xmlns="http://www.w3.org/2000/svg" xmlns:xlink="http://www.w3.org/1999/xlink" viewBox="0 0 110 110"><defs><style>.cls-1{fill:none;}.cls-2{clip-path:url(#clip-path);}.cls-3{fill:#2e70a3;}.cls-4{fill:#fff;}.cls-5{fill:#3b9945;}.cls-6{fill:#fcbf33;}</style><clipPath id="clip-path"><rect class="cls-1" x="21.45" y="20.6" width="67.09" height="68.8"/></clipPath></defs><g id="Reward_Points" data-name="Reward Points"><g class="cls-2"><path class="cls-3" d="M56.63,89.4H29a7.74,7.74,0,0,1-7.55-7.91v-53A7.74,7.74,0,0,1,29,20.6H56.63a7.74,7.74,0,0,1,7.55,7.91v53a7.74,7.74,0,0,1-7.55,7.91"/><path class="cls-4" d="M55,87.19H30.65A7.21,7.21,0,0,1,23.44,80V29.57a7.21,7.21,0,0,1,7.21-7.22H55a7.22,7.22,0,0,1,7.22,7.22V80A7.22,7.22,0,0,1,55,87.19"/></g><rect class="cls-3" x="34.84" y="25.75" width="15.95" height="2.05"/><g class="cls-2"><path class="cls-3" d="M45.77,83.19a3,3,0,1,1-3-3,3,3,0,0,1,3,3"/><path class="cls-5" d="M88.55,53.33A21.67,21.67,0,1,1,66.88,31.66,21.67,21.67,0,0,1,88.55,53.33"/><path class="cls-6" d="M68.08,56.92l-1.42,4.44c-1.43,4.45-5.27,7.29-8.54,6.25s-4.67-5.59-3.25-10l1.76-5.49a4.49,4.49,0,0,0,1.85-8.73,4.54,4.54,0,0,0-5.68,2.87,4.46,4.46,0,0,0,2.11,5.31L53.15,57c-1.75,5.43.24,10.89,4.43,12.24s9.06-1.93,10.8-7.35l1.43-4.45a9.13,9.13,0,0,0,5.88-1.17,1,1,0,0,0,.53-.78,15.49,15.49,0,0,0,6-7.47c1.29-4-.49-5-3.48-6.76a1.32,1.32,0,0,0-.89-1,1.29,1.29,0,0,0-1.61.78,1.24,1.24,0,0,0,.88,1.51,1.1,1.1,0,0,0,.82,0c2.93,1.68,3.73,2.15,2.8,5a14.06,14.06,0,0,1-5.39,6.64,1,1,0,0,0-.92.11,6.38,6.38,0,0,1-4.83.83,6.17,6.17,0,0,1-3.38-3.47,1.17,1.17,0,0,0-.68-.62A14,14,0,0,1,65,42.53c.93-2.9,1.79-2.83,5.15-2.5a1.3,1.3,0,0,0,2.26-.23,1.28,1.28,0,0,0-.86-1.56,1.4,1.4,0,0,0-1.33.32C66.8,38.21,64.75,38,63.47,42A15.24,15.24,0,0,0,64,51.6a1.19,1.19,0,0,0,0,1,8.79,8.79,0,0,0,4,4.36"/></g></g></svg>