<svg xmlns="http://www.w3.org/2000/svg" xmlns:xlink="http://www.w3.org/1999/xlink" viewBox="0 0 110 110"><defs><style>.cls-1{fill:none;}.cls-2{clip-path:url(#clip-path);}.cls-3{fill:#fcbf33;}.cls-4{fill:#f2b230;}.cls-5{font-size:42.35px;font-family:AcuminPro-Bold, Acumin Pro;font-weight:700;}.cls-5,.cls-6{fill:#3b9945;}</style><clipPath id="clip-path"><rect class="cls-1" x="10.24" y="14.11" width="89.52" height="81.79"/></clipPath></defs><g id="Reward_Points" data-name="Reward Points"><g class="cls-2"><path class="cls-3" d="M82.72,64a28.33,28.33,0,0,1-11.28,4.3c-4.29.69-11.4.94-19.56,2.4-5.89,1.05-9.34,1.7-11.25,2.06a10.16,10.16,0,0,0-3.77,1.54L25.24,95.89,10.24,85s13-23.35,20.56-31h0c.88-.88,1.81-1.83,2.8-2.86,4.56-4.76,6.87-9.78,20.47,3.56a1.22,1.22,0,0,0,.23.1,12.63,12.63,0,0,0,4,1l1.16.1a38.22,38.22,0,0,1,6.53.93C75.94,59.17,84.37,63,82.72,64"/><path class="cls-3" d="M92.52,56.16c2-2.39,7.24-10.91,7.24-10.91s-2-1.23-3.57-.79c-4.7,1.28-10,7.73-10,7.86s-8.13,2.57-12,5.54h0S62.77,54.48,58.34,55.8a4.56,4.56,0,0,0-.74.29,11.65,11.65,0,0,0-2.8,2.22c-3.43,3.54-6.77,9.63-4.35,11.32.6.42,25.77-1,28.6-2.83.66-.44,12.4-9.37,13.47-10.64"/><path class="cls-4" d="M74.16,57.86c-2.11-1.07-18.43-4.18-19.16-4.5-2.74.32-5.22,2.38-4.88,3.23.46,1.14,2.93,2.24,5.21,2.34,3.06.13,5.45-1.34,7-1.94.7-.26,2.81.45,4.06.28a26.41,26.41,0,0,1,7.77.59"/><path class="cls-3" d="M49.27,45.58s22.83,2.47,26.81,1.28c0,0,1.42,3-2.85,5.52s-16.54,2.33-19.31,4.35C43.54,64.33,35.67,62,35.67,62s-8.9-18.81,13.6-16.41"/><text class="cls-5" transform="translate(57.36 43.29)">P</text></g><rect class="cls-6" x="57.41" y="19.79" width="29.27" height="2.9"/><rect class="cls-6" x="57.41" y="23.61" width="29.27" height="2.9"/></g></svg>