<svg xmlns="http://www.w3.org/2000/svg" xmlns:xlink="http://www.w3.org/1999/xlink" viewBox="0 0 110 110"><defs><style>.cls-1{fill:none;}.cls-2{clip-path:url(#clip-path);}.cls-3{fill:#4091cf;}.cls-4{fill:#2e70a3;}.cls-5{fill:#fff0f0;}.cls-6{fill:#fcbf33;}.cls-7{fill:#ededed;}.cls-8{fill:#3b9945;}</style><clipPath id="clip-path"><rect class="cls-1" x="6.72" y="15.68" width="96.56" height="78.64"/></clipPath></defs><g id="Reward_Points" data-name="Reward Points"><g class="cls-2"><path class="cls-3" d="M78.87,81c-4.74-1.14-2.86-9.17-.75-10.5.78-.5,1.88-.19,2.71-.8.52-.39,1-1.52,1.47-2a4.5,4.5,0,0,1,5.56-.86c9.19,4.64-3.22,18.92-8,14.93a4,4,0,0,0-1-.75"/><path class="cls-3" d="M81.75,80.47c-.25,0-1.08-.35-1.14-.66-.13-.61,1.09-1.38,1.65-1.25.91.22,2.14,1.88.56,2a8.93,8.93,0,0,1-1.07-.06"/><path class="cls-3" d="M78.43,74c-.05-.86.91-1,1.57-1a2.82,2.82,0,0,1,2.25.76,1.92,1.92,0,0,1,.51,1.58,2.29,2.29,0,0,1-1.37,1.64c-.4.21-1.31.64-1.79.45-1-.39-1.14-2.82-1.17-3.4"/><path class="cls-3" d="M86.59,72.19a.82.82,0,0,1,0-1.22c.85-.73,2.42.61,1.46,1.15,0,0-1,.47-1.46.07"/><path class="cls-3" d="M27.33,65.67c0-3.23,3.08-6.17,8.13-8.38V61.5a1.76,1.76,0,0,0,3.52,0V56c1.12-.36,2.29-.69,3.53-1v6.5a1.76,1.76,0,1,0,3.52,0V54.28c1.14-.2,2.32-.37,3.52-.52V61.5a1.77,1.77,0,0,0,3.53,0V53.44c1.16-.08,2.33-.14,3.53-.17V61.5a1.76,1.76,0,0,0,3.52,0V53.27c1.2,0,2.37.09,3.52.17V61.5a1.77,1.77,0,0,0,3.53,0V53.76c1.21.15,2.38.32,3.52.52V61.5a1.77,1.77,0,0,0,3.53,0V55c1.23.29,2.41.62,3.52,1V61.5a1.77,1.77,0,0,0,3.53,0V57.29c5,2.21,8.12,5.15,8.12,8.38,0,.08,0,.17,0,.25a1.93,1.93,0,0,1,0,.24,3.33,3.33,0,0,1-3.33,3.26H30.67a3.34,3.34,0,0,1-3.34-3.26c0-.08,0-.16,0-.24a2.11,2.11,0,0,1,0-.25"/><path class="cls-3" d="M58.37,63.26a1.76,1.76,0,0,1-1.76-1.76V53.27l1.76,0,1.76,0V61.5a1.76,1.76,0,0,1-1.76,1.76"/><path class="cls-3" d="M65.42,63.26a1.76,1.76,0,0,1-1.77-1.76V53.44c1.2.08,2.38.19,3.53.32V61.5a1.76,1.76,0,0,1-1.76,1.76"/><path class="cls-3" d="M44.27,63.26a1.76,1.76,0,0,1-1.76-1.76V55c1.13-.27,2.3-.51,3.52-.72V61.5a1.76,1.76,0,0,1-1.76,1.76"/><path class="cls-3" d="M51.32,63.26a1.76,1.76,0,0,1-1.77-1.76V53.76c1.15-.13,2.33-.24,3.53-.32V61.5a1.76,1.76,0,0,1-1.76,1.76"/><path class="cls-3" d="M37.22,63.26a1.76,1.76,0,0,1-1.76-1.76V57.29A36.62,36.62,0,0,1,39,56V61.5a1.76,1.76,0,0,1-1.76,1.76"/><path class="cls-3" d="M72.47,63.26A1.76,1.76,0,0,1,70.7,61.5V54.28c1.22.21,2.4.45,3.53.72v6.5a1.76,1.76,0,0,1-1.76,1.76"/><path class="cls-3" d="M79.52,63.26a1.76,1.76,0,0,1-1.77-1.76V56c1.26.4,2.44.84,3.53,1.31V61.5a1.76,1.76,0,0,1-1.76,1.76"/><path class="cls-4" d="M63.06,25.51a8.37,8.37,0,0,1,3.62,2.21c.94,1.18,1.46,3.11,1,3.25s-2.5-.88-3.41-2.13a8.69,8.69,0,0,1-1.22-3.33"/><path class="cls-4" d="M67.48,31.27h0a.33.33,0,0,1-.19-.44s.9-2.16,3.78-1.23a.36.36,0,0,1,.23.44.35.35,0,0,1-.44.22c-2.25-.73-2.9.76-2.93.83a.35.35,0,0,1-.45.19"/><path class="cls-4" d="M69.4,39A6.39,6.39,0,0,0,70,37.82c1.17-2.91.12-6.07-2.33-7s-5.39.58-6.55,3.5a6.34,6.34,0,0,0-.36,1.25A7.71,7.71,0,1,0,69.4,39"/><path class="cls-4" d="M58.35,41.39a7.67,7.67,0,0,1,5.18-4.54,6.34,6.34,0,0,1,.36-1.25,5.92,5.92,0,0,1,4-3.63,4.85,4.85,0,0,0-5.46,3.23,6.11,6.11,0,0,0-.32,1.12A6.78,6.78,0,0,0,58.33,47a7.63,7.63,0,0,1,0-5.58"/><path class="cls-5" d="M22,66.26s-.46-3.5,1.32-5.39c2.38-2.51,8.44-5,11.4-6.75a7.72,7.72,0,0,0,2.39-2.48s.57,3.88-2,6.15c-2.15,1.85-7.26,4.4-9.88,5.85A11.26,11.26,0,0,0,22,66.26"/><path class="cls-5" d="M33.64,55.86A.86.86,0,1,1,34.09,57a.85.85,0,0,1-.45-1.13"/><path class="cls-5" d="M31.2,57.29a.86.86,0,1,1,1.58.68.86.86,0,1,1-1.58-.68"/><path class="cls-5" d="M28.77,58.56a.86.86,0,1,1,.45,1.13.86.86,0,0,1-.45-1.13"/><path class="cls-5" d="M26.31,60.13a.86.86,0,1,1,.44,1.13.86.86,0,0,1-.44-1.13"/><path class="cls-5" d="M23.76,61.68a.86.86,0,1,1,1.57.69.86.86,0,1,1-1.57-.69"/><path class="cls-3" d="M35.26,84l-1.73-4.33L27.42,73a30.44,30.44,0,0,1,3.25-.79c.24.06,2.78,5.15,4.19,4.33,1.07-.61-1.48-4.64-1.27-4.78l2.89-1.89s1,5,2.25,4.71.06-5.16.06-5.16l3.39-1.72-.54,7.41,1.61,5.76Z"/><path class="cls-3" d="M44.28,60.21A2.18,2.18,0,0,0,41.44,59a3,3,0,0,0-.4.21,2.17,2.17,0,0,0-2.68-.91,2.1,2.1,0,0,0-1,.8,4.83,4.83,0,0,0-7.29,2.57,3.49,3.49,0,0,0-5.52,3.78,3.63,3.63,0,0,0-3.22,5,3.64,3.64,0,0,0,2.59,2.21,2.08,2.08,0,0,0,.13.64,2.17,2.17,0,0,0,3.76.53,3.53,3.53,0,0,0,2.78.09,3.49,3.49,0,0,0,1.79-1.63,3.45,3.45,0,0,0,2.41,0,3.54,3.54,0,0,0,1.93-1.87,3.45,3.45,0,0,0,2.68,0,3.5,3.5,0,0,0,1.89-1.81,3.49,3.49,0,0,0,3.49-4.8,3.38,3.38,0,0,0-.92-1.3,2.17,2.17,0,0,0,.42-2.28"/><path class="cls-3" d="M24.29,66.35a2.69,2.69,0,0,0-1.06.49,2.77,2.77,0,0,0-.53,3.89,2.69,2.69,0,0,0,1,.82,4.48,4.48,0,0,1,.57-5.2"/><path class="cls-3" d="M27.7,62a2.57,2.57,0,0,0-1.06.49,2.77,2.77,0,0,0-.54,3.89,2.85,2.85,0,0,0,1,.82A4.47,4.47,0,0,1,27.7,62"/><path class="cls-3" d="M40.58,62.81a2.36,2.36,0,0,0-.87.4,2.28,2.28,0,0,0-.44,3.19,2.25,2.25,0,0,0,.84.67,3.67,3.67,0,0,1,.47-4.26"/><path class="cls-3" d="M34,59.49a4.11,4.11,0,0,0-1.6.75,4.19,4.19,0,0,0-.81,5.88,4.14,4.14,0,0,0,1.54,1.23A6.78,6.78,0,0,1,34,59.49"/><path class="cls-5" d="M41.1,75.44c-2.45,1.67-4.55,1-5.78-.82s-1.13-4,1.32-5.69,6-2,7.22-.17-.32,5-2.76,6.68"/><path class="cls-6" d="M60.36,67.48c2.45,1.68,4.55,1,5.78-.82s1.12-4-1.32-5.68-6-2-7.22-.17.31,5,2.76,6.67"/><path class="cls-6" d="M77.43,27.22v-1.9H70.52v1.9S65.7,36.55,65.7,38.76V67.58a1.2,1.2,0,0,0,1.2,1.2H81a1.2,1.2,0,0,0,1.2-1.2V38.76c0-2.21-4.81-11.54-4.81-11.54"/><path class="cls-6" d="M76.77,21.12v3.13H76V21h-.8v3.22h-.81V21h-.8v3.22h-.8V21h-.81v3.22h-.8V21.14A1.74,1.74,0,0,0,70,22.76v1.52h7.92V22.76a1.73,1.73,0,0,0-1.16-1.64"/><path class="cls-6" d="M71.94,24.25V21h-.2a1.73,1.73,0,0,0-.6.11v3.11Z"/></g><rect class="cls-6" x="72.75" y="21.03" width="0.81" height="3.23"/><rect class="cls-6" x="74.35" y="21.03" width="0.8" height="3.23"/><g class="cls-2"><path class="cls-6" d="M76.77,24.25V21.12A1.79,1.79,0,0,0,76.2,21H76v3.22Z"/></g><rect class="cls-6" x="70.01" y="24" width="7.92" height="1.31"/><g class="cls-2"><path class="cls-6" d="M68.72,39.11v-.45c0-2,4.13-10.08,4.5-10.81V26.27H71.83v.93s-4.78,9.26-4.78,11.46V66h1.69a1.64,1.64,0,0,1,0-.23V39.11Z"/></g><rect class="cls-6" x="65.7" y="42.25" width="16.54" height="17.3"/><g class="cls-2"><path class="cls-6" d="M78.07,26.27a.38.38,0,0,1-.39.39H70.27a.39.39,0,0,1-.4-.39.4.4,0,0,1,.4-.4h7.41a.39.39,0,0,1,.39.4"/><path class="cls-3" d="M78.33,82.92a7.62,7.62,0,0,1-7.62,7.62H53.36a7.62,7.62,0,1,1,0-15.24H70.71a7.62,7.62,0,0,1,7.62,7.62"/></g><rect class="cls-3" x="55" y="75.3" width="14.08" height="15.24"/><polygon class="cls-3" points="46.59 82.13 44.02 80.68 44.7 82.13 44.02 82.92 44.55 83.63 44.65 84.6 46.59 83.92 46.59 82.13"/><polygon class="cls-3" points="77.35 82.04 79.96 80.78 79.38 82.04 80.15 83.03 79.38 83.31 79.72 84.5 77.35 84.07 77.35 82.04"/><rect class="cls-3" x="55.97" y="75.3" width="1.02" height="15.24"/><rect class="cls-3" x="67" y="75.3" width="1.02" height="15.24"/><polygon class="cls-3" points="46.52 23.77 43.37 19.99 45.19 18.72 47.38 23.42 46.52 23.77"/><polygon class="cls-3" points="47.33 24.45 44.19 17.86 47.38 16.96 48.53 23.71 47.33 24.45"/><polygon class="cls-3" points="48.43 24.85 47.15 19.6 49.53 19.61 49.37 24.13 48.43 24.85"/><g class="cls-2"><path class="cls-3" d="M54.62,41.48c0-.39-.08-.8-.12-1.22l-2,1.22Z"/><path class="cls-3" d="M54.08,36.83c-.07-.49-.14-1-.22-1.48l-2.45,1.49Z"/><path class="cls-3" d="M53.32,32.2c-.09-.47-.18-.94-.28-1.39L50.73,32.2Z"/><path class="cls-3" d="M52.34,27.79c-.14-.51-.28-1-.42-1.46l-2.4,1.46Z"/><path class="cls-3" d="M45.89,30.57c.12.43.24.86.38,1.3l2.07-1.53Z"/><path class="cls-3" d="M47.46,22.33A3.09,3.09,0,0,0,45.1,24.7a8.44,8.44,0,0,0,0,1.35l2.29.11L45.2,27.33a27.92,27.92,0,0,0,.69,3.24l2.45-.23-2.07,1.53c.32,1.05.69,2.14,1.1,3.23l2.48-.24-2,1.49c.43,1.1.89,2.18,1.35,3.22L51,39.41l-1.37,1c.56,1.22,1.12,2.37,1.66,3.38l1.33-.12-1,.74c1.24,2.26,2.28,3.72,2.7,3.62.6-.14.65-2.89.34-6.57H52.49l2-1.22c-.11-1.09-.25-2.25-.42-3.43H51.41l2.45-1.49q-.24-1.59-.54-3.15H50.73L53,30.81c-.22-1.06-.45-2.08-.7-3H49.52l2.4-1.45a18.68,18.68,0,0,0-1.09-2.89c-.93-1.84-3.37-1.12-3.37-1.12"/><path class="cls-3" d="M45.07,26.05a12.34,12.34,0,0,0,.13,1.28l2.16-1.18Z"/><path class="cls-3" d="M47.37,35.1c.15.41.31.83.48,1.25l2-1.49Z"/><path class="cls-3" d="M49.2,39.57l.39.86,1.37-1Z"/><path class="cls-3" d="M51.25,43.81l.33.62,1-.74Z"/><path class="cls-6" d="M42.05,73.63c8.16,1.74,9,6.1,9,6.1h-27Z"/><path class="cls-6" d="M47.48,86.48a.94.94,0,1,1,.93-.93.94.94,0,0,1-.93.93m-7.16,0a2,2,0,1,1,2-2,2,2,0,0,1-2,2M35.5,89.3A1.54,1.54,0,1,1,37,87.76,1.54,1.54,0,0,1,35.5,89.3m-6.89-3.21a2.54,2.54,0,1,1,2.54-2.53,2.54,2.54,0,0,1-2.54,2.53M51,79.73h-27v6.54a1.73,1.73,0,0,1,0,3.37v1.65H43.61a2.39,2.39,0,0,1,4.78,0H51Z"/><path class="cls-6" d="M46,89.05a2.39,2.39,0,0,0-2.39,2.24h4.78A2.4,2.4,0,0,0,46,89.05"/><path class="cls-6" d="M25.42,88a1.73,1.73,0,0,0-1.35-1.68v3.37A1.73,1.73,0,0,0,25.42,88"/><path class="cls-6" d="M28.61,81a2.54,2.54,0,1,0,2.54,2.54A2.54,2.54,0,0,0,28.61,81"/><path class="cls-6" d="M35.5,86.22A1.54,1.54,0,1,0,37,87.76a1.54,1.54,0,0,0-1.54-1.54"/><path class="cls-6" d="M47.48,84.61a.94.94,0,1,0,.93.94.94.94,0,0,0-.93-.94"/><path class="cls-6" d="M40.32,82.49a2,2,0,1,0,2,2,2,2,0,0,0-2-2"/><path class="cls-4" d="M33.74,20.47c1.84-2,5.19-1.33,7.76,1.47,3.25,3.54,7.28,9.9,7.11,16.29-.14,5.19-2,9.09-5.72,9.45-6.36.6-6.56-5.22-6.4-9.2.12-3,.06-8.76-1.25-11.46s-3.25-4.68-1.5-6.55"/><path class="cls-4" d="M33.28,18.4l-3.14-2.72-.62.86,3.53,3.17s-2-.57-3,.64c-.41.48,2.45.65,2.45.65s-1.28,1.44.05,3.95c.47.91,1.24-3.43,1.24-3.43s3.58,2.85,3.52,2-2-3.9-2-3.9S40,20,40,19.88C39.26,17,35.1,18.5,35.1,18.5s2.54-1.62,2.3-1.71a3.05,3.05,0,0,0-4.12,1.61"/><path class="cls-4" d="M38.6,41.07a6.55,6.55,0,0,0,2.84,5.16c-1.82-.07-3.37-1.87-3.52-4.19a5,5,0,0,1,.89-3.3,7.73,7.73,0,0,0-.21,2.33"/><path class="cls-4" d="M34.91,19c.28-.08.51-.16.58-.17,3.14-.78,4.43.67,4.26.46s-.71-2-4.72-1.11a2.83,2.83,0,0,0-1.16.47l-3.73-3-.21.29,3.53,3a2.45,2.45,0,0,0-.81,1.12c-1.67,3.75,0,4.94.05,5a5.58,5.58,0,0,1,.48-4.44c0-.08.23-.38.4-.72a3.38,3.38,0,0,0,.31.62c.65.94,3.4,3.23,3.43,3a12.57,12.57,0,0,0-1.87-4.08,1.4,1.4,0,0,0-.54-.39"/><path class="cls-6" d="M7.9,38.59l0-.27s10.9-3.65,22.47,5c10.25,7.61,10,20.49,10,20.49L39.8,64A30.49,30.49,0,0,0,28.53,45.79,35.5,35.5,0,0,0,7.9,38.59"/><path class="cls-6" d="M26.59,48.4A57.52,57.52,0,0,0,7.83,39.2l.07-.61a35.5,35.5,0,0,1,20.63,7.2A30.46,30.46,0,0,1,39.8,64l-.61.23A40.52,40.52,0,0,0,26.59,48.4"/><path class="cls-6" d="M25.69,50.16c-6.24-4.65-18-9.77-18-9.77l.14-1.19a57.61,57.61,0,0,1,18.76,9.2,40.52,40.52,0,0,1,12.6,15.84l-.44.17s-6.46-9.35-13.06-14.25"/><path class="cls-6" d="M7.92,38.3l-.15,2.13a1.77,1.77,0,0,1-.59-.23,1.08,1.08,0,0,1-.26-1.5,1.06,1.06,0,0,1,1-.4"/></g><polygon class="cls-6" points="39.06 63.94 39.5 65.15 40.42 64.67 39.88 63.55 39.06 63.94"/><g class="cls-2"><path class="cls-6" d="M17,30.44l.11-.25s11.49-.35,20.09,11.22c7.61,10.25,3.69,22.52,3.69,22.52l-.67,0a30.48,30.48,0,0,0-5.54-20.7A35.47,35.47,0,0,0,17,30.44"/><path class="cls-6" d="M32,45.22A57.66,57.66,0,0,0,16.73,31l.24-.56A35.47,35.47,0,0,1,34.65,43.28,30.47,30.47,0,0,1,40.19,64l-.65,0A40.48,40.48,0,0,0,32,45.22"/><path class="cls-6" d="M30.68,46.64C26,40.4,16.25,32.1,16.25,32.1l.48-1.1A57.66,57.66,0,0,1,32,45.22,40.48,40.48,0,0,1,39.54,64l-.47,0s-3.49-10.82-8.39-17.42"/><path class="cls-6" d="M17.08,30.17l-.76,2a1.69,1.69,0,0,1-.5-.39A1.07,1.07,0,0,1,16,30.26a1,1,0,0,1,1.07-.09"/></g><polygon class="cls-6" points="39.42 63.86 39.49 65.15 40.51 64.95 40.32 63.73 39.42 63.86"/><g class="cls-2"><path class="cls-6" d="M28.42,25.33l.18-.21s11.11,2.93,16.07,16.47c4.39,12-2.85,22.63-2.85,22.63l-.66-.14a30.45,30.45,0,0,0,.57-21.42A35.44,35.44,0,0,0,28.42,25.33"/><path class="cls-6" d="M38.68,43.78A57.79,57.79,0,0,0,28,25.8l.39-.47A35.44,35.44,0,0,1,41.73,42.66a30.45,30.45,0,0,1-.57,21.42l-.63-.14a40.67,40.67,0,0,0-1.85-20.16"/><path class="cls-6" d="M37,44.76c-2.67-7.31-9.7-18-9.7-18L28,25.8a57.79,57.79,0,0,1,10.65,18,40.67,40.67,0,0,1,1.85,20.16l-.46-.1S39.79,52.48,37,44.76"/><path class="cls-6" d="M28.6,25.1l-1.29,1.69a1.59,1.59,0,0,1-.37-.51,1.08,1.08,0,0,1,.61-1.4,1.06,1.06,0,0,1,1.05.22"/></g><polygon class="cls-6" points="40.46 63.75 40.16 65.01 41.19 65.11 41.35 63.88 40.46 63.75"/><g class="cls-2"><path class="cls-5" d="M28.31,67.4a5.89,5.89,0,0,1,.06,3C27.71,71.82,25,73,24.65,75a4.51,4.51,0,0,0,2.4,5.16c.4.15.67.65,1.54.73a2.58,2.58,0,0,0,1.65-.45,2.32,2.32,0,0,0,2,.3,2,2,0,0,0,1.21-1,3.64,3.64,0,0,0,1.9-.5,4.05,4.05,0,0,0,.73-.9c.47-.68,1.29-.79,1.47-2.85A5.06,5.06,0,0,0,36.08,72c-1.64-1.54-3.9-1.47-4.88-2.42a8.78,8.78,0,0,1-1-2.52Z"/><path class="cls-5" d="M29.42,76.06a17.77,17.77,0,0,1,.08-4,4.69,4.69,0,0,0-1.26,4.21c.25,1.88,1.14,3.37,2.1,3.73a19.64,19.64,0,0,1-.92-3.9"/><path class="cls-5" d="M35.22,74.47A11,11,0,0,0,33.89,72a3.44,3.44,0,0,1,2.25,2.16A3.3,3.3,0,0,1,36,77.36a12.61,12.61,0,0,0-.77-2.89"/><path class="cls-5" d="M26.68,76.37a12.24,12.24,0,0,1,.29-3,3.94,3.94,0,0,0-1.27,3,3.26,3.26,0,0,0,1.32,3,13,13,0,0,1-.34-3"/><path class="cls-5" d="M32.64,75.06a19.55,19.55,0,0,0-1.41-3.74c1,.23,2.06,1.6,2.56,3.43s.26,3.56-.49,4.26a19.81,19.81,0,0,0-.66-4"/></g><rect class="cls-7" x="43.78" y="32.93" width="0.88" height="5.24" transform="translate(-6.37 9.87) rotate(-11.88)"/><g class="cls-2"><path class="cls-7" d="M43.62,34.84l-2.28-.72c0-1.12-1.1-1.94-1.83-2.24-1.62-.65-4.54.64-4.54.64s1.32,2.64,2.78,3.19,2.94.32,3.45-.93l2.58.86Z"/><polyline class="cls-7" points="44.59 36.73 44.59 36.73 44.59 36.73"/><polyline class="cls-7" points="44.37 36.78 44.37 36.78 44.37 36.78"/><path class="cls-7" d="M46.94,35.85a17.71,17.71,0,0,1-2.56,1,13,13,0,0,1-2.52.08c-2.43-.07-5.4,2.68-4.49,7,.7,3.37,5,8.3,7.69,7.74.62-.13,1.73-1.49,2.22-1.6s2.07.7,2.68.57c2.66-.56,4.64-6.81,3.93-10.18-.93-4.36-4.75-5.68-7-4.64"/><path class="cls-7" d="M41.53,39.67a3.36,3.36,0,0,0-2.17,4.18,7.76,7.76,0,0,0,2.56,3.86,11,11,0,0,1-1-2.64,8.09,8.09,0,0,1,.61-5.4"/><path class="cls-7" d="M35.89,32.82h0"/><path class="cls-7" d="M40.66,34.38c1.63.54,3,.88,3,.88l-.12-.59L40.69,34l-.55-1.08.17,1-1.12-.26-.36-1.36.09,1.29-1.47-.35-.2-.94,0,.91-1.41-.35,1.42.46-.84.56,1-.51,1.31.43-1.24.78,1.55-.68,1.24.41-1.13,1.11Z"/><path class="cls-7" d="M73.08,78.49C70.2,77,69,73,69.27,67.46L73,69.36a1.76,1.76,0,0,0,1.59-3.15l-4.92-2.49c.18-1.15.42-2.35.71-3.59l5.8,2.94a1.76,1.76,0,0,0,1.59-3.15l-6.44-3.26c.34-1.1.71-2.23,1.13-3.37l6.9,3.48A1.76,1.76,0,1,0,81,53.63L73.78,50c.45-1.06.93-2.14,1.44-3.22l7.34,3.71a1.76,1.76,0,1,0,1.59-3.14l-7.34-3.71c.57-1.06,1.15-2.08,1.74-3.07l7.19,3.63a1.76,1.76,0,1,0,1.59-3.14l-6.9-3.49c.67-1,1.36-2,2-2.92l6.44,3.26a1.76,1.76,0,1,0,1.59-3.15l-5.8-2.93c.82-1,1.64-1.87,2.47-2.7l4.92,2.49a1.76,1.76,0,1,0,1.59-3.15l-3.75-1.89c4.25-3.51,8.26-4.93,11.14-3.48l.22.13.22.1a3.33,3.33,0,0,1,1.4,4.44L100,33.51,80.84,71.45l-2.91,5.76a3.33,3.33,0,0,1-4.41,1.5l-.2-.12-.24-.1"/><path class="cls-7" d="M84.93,49.71a1.77,1.77,0,0,1-2.37.77l-7.34-3.71c.26-.52.51-1.05.78-1.58s.54-1,.81-1.56l7.34,3.71a1.76,1.76,0,0,1,.78,2.37"/><path class="cls-7" d="M88.11,43.41a1.76,1.76,0,0,1-2.37.78l-7.19-3.64c.61-1,1.24-2,1.88-3l6.9,3.49a1.75,1.75,0,0,1,.78,2.36"/><path class="cls-7" d="M78.57,62.29a1.76,1.76,0,0,1-2.37.78l-5.8-2.93c.27-1.14.59-2.3.95-3.48l6.44,3.26a1.76,1.76,0,0,1,.78,2.37"/><path class="cls-7" d="M81.75,56a1.76,1.76,0,0,1-2.37.77l-6.9-3.48c.4-1.09.83-2.19,1.3-3.3L81,53.63A1.76,1.76,0,0,1,81.75,56"/><path class="cls-7" d="M75.39,68.58a1.76,1.76,0,0,1-2.37.78l-3.75-1.9c.07-1.18.21-2.43.42-3.74l4.92,2.49a1.76,1.76,0,0,1,.78,2.37"/><path class="cls-7" d="M91.29,37.12a1.76,1.76,0,0,1-2.37.78l-6.44-3.26c.73-1,1.48-1.93,2.23-2.82l5.8,2.93a1.76,1.76,0,0,1,.78,2.37"/><path class="cls-7" d="M94.47,30.83a1.76,1.76,0,0,1-2.37.78l-4.92-2.49a35.45,35.45,0,0,1,2.76-2.55l3.75,1.89a1.76,1.76,0,0,1,.78,2.37"/></g><rect class="cls-8" x="24.18" y="79.57" width="64.71" height="1.63"/><rect class="cls-8" x="24.26" y="79.57" width="64.63" height="0.57"/><rect class="cls-8" x="24.18" y="73.77" width="64.71" height="1.63"/><rect class="cls-8" x="24.26" y="73.77" width="64.63" height="0.57"/><rect class="cls-8" x="39.1" y="65.42" width="34.88" height="15.78"/><rect class="cls-8" x="39.1" y="65.39" width="34.88" height="0.79"/><rect class="cls-8" x="29.3" y="53.92" width="1.5" height="37.9"/><rect class="cls-8" x="33.82" y="53.92" width="1.5" height="37.9"/><rect class="cls-8" x="39.1" y="53.92" width="1.51" height="37.9"/><rect class="cls-8" x="72.47" y="53.92" width="1.5" height="37.9"/><rect class="cls-8" x="77.52" y="53.92" width="1.5" height="37.9"/><rect class="cls-8" x="82.03" y="53.92" width="1.5" height="37.9"/><rect class="cls-8" x="43.61" y="53.92" width="1.51" height="37.9"/><rect class="cls-8" x="48.13" y="53.92" width="1.51" height="37.9"/><rect class="cls-8" x="52.64" y="53.92" width="1.51" height="37.9"/><rect class="cls-8" x="57.92" y="53.92" width="1.51" height="37.9"/><rect class="cls-8" x="62.44" y="53.92" width="1.51" height="37.9"/><rect class="cls-8" x="67.72" y="53.92" width="1.51" height="37.9"/><g class="cls-2"><path class="cls-8" d="M87,88.26a1.16,1.16,0,0,1-1.16,1.16H27.27a1.16,1.16,0,0,1-1.17-1.16V56.91a1.17,1.17,0,0,1,1.17-1.17H85.81A1.16,1.16,0,0,1,87,56.91ZM19.52,52.87l2.05,37.38a4.07,4.07,0,0,0,4.07,4.07H87.43a4.07,4.07,0,0,0,4.07-4.07l2-37.38Z"/><path class="cls-8" d="M16.89,48V55.9a1.16,1.16,0,0,0,1.16,1.17H95a1.16,1.16,0,0,0,1.16-1.17V48Z"/></g><rect class="cls-8" x="16.89" y="46.63" width="79.3" height="1.39"/><g class="cls-2"><path class="cls-8" d="M55.86,16.25H54.07a1.15,1.15,0,0,0-1.16,1.16V52.86A1.17,1.17,0,0,0,54.09,54h2.48V16.25Z"/><path class="cls-8" d="M59.5,16.34a1.18,1.18,0,0,0-.46-.09H56.56V54h2.48a1.16,1.16,0,0,0,1.17-1.16l0-35.45a1.15,1.15,0,0,0-.7-1.07"/><path class="cls-8" d="M55.11,50.72a1.46,1.46,0,0,0,1.46,1.47V49.26a1.46,1.46,0,0,0-1.46,1.46"/><path class="cls-8" d="M58,50.72a1.46,1.46,0,0,0-1.46-1.46v2.93A1.46,1.46,0,0,0,58,50.72"/><path class="cls-8" d="M55.55,50.72a1.29,1.29,0,0,1,.77-1.18,1.21,1.21,0,0,0,0,2.37,1.29,1.29,0,0,1-.77-1.19"/></g></g></svg>