<svg xmlns="http://www.w3.org/2000/svg" xmlns:xlink="http://www.w3.org/1999/xlink" viewBox="0 0 110 110"><defs><style>.cls-1{fill:none;}.cls-2{fill:#fcbf33;}.cls-3{clip-path:url(#clip-path);}.cls-4{fill:#3b9945;}</style><clipPath id="clip-path"><rect class="cls-1" x="20.45" y="25.89" width="69.09" height="58.22"/></clipPath></defs><g id="Reward_Points" data-name="Reward Points"><rect class="cls-2" x="80.09" y="53.62" width="0.72" height="15.9" transform="matrix(0.58, -0.82, 0.82, 0.58, -16.26, 91.77)"/><g class="cls-3"><path class="cls-2" d="M74.4,57.25c-.33.46-2.41-.44-2.87-.77a1,1,0,0,1-.25-1.43,1,1,0,0,1,1.43-.24c.46.32,2,2,1.69,2.44"/><path class="cls-2" d="M86.25,65.62c.32-.47,2.4.44,2.86.77a1,1,0,1,1-1.18,1.67c-.46-.33-2-2-1.68-2.44"/><path class="cls-4" d="M75.93,84.11,62.71,78.7a16.58,16.58,0,0,1-2.17-10.94s6,.95,6-3.11a24.37,24.37,0,0,0-.21-4.72S68,59.34,67.8,58a1.1,1.1,0,0,0,.3-1.22,8.67,8.67,0,0,1-1-3.37s3,0,3-1.14-4.81-6.48-4.81-6.48,1-2.78.74-4.33,1.54-12.8-14.79-15.26C38.46,24.29,29.9,31.08,28.17,40.89A22.21,22.21,0,0,0,34.23,61C40.68,67.2,35,78.7,35,78.7L20.45,84.11Z"/></g></g></svg>