<svg xmlns="http://www.w3.org/2000/svg" viewBox="0 0 87.28 87.28"><defs><style>.cls-1{fill:#fff;}.cls-2{fill:#1c364a;}.cls-3{fill:#3e6e35;}</style></defs><g id="Layer_2" data-name="Layer 2"><g id="Livelihood_icon" data-name="Livelihood icon"><path class="cls-1" d="M87.28,43.64A43.64,43.64,0,1,1,43.64,0,43.64,43.64,0,0,1,87.28,43.64"/><path class="cls-2" d="M31.32,48.22l-.15,2a8.48,8.48,0,0,1,6.16,3.37l.65.84,1.07-.08h0c.08,0,.56,0,1.26,0a24.18,24.18,0,0,1,3.88.3,8.7,8.7,0,0,1,3.49,1.2,4.68,4.68,0,0,0,1.68.73,7.5,7.5,0,0,0,1.7.18,18.41,18.41,0,0,0,4.52-.7A53.58,53.58,0,0,0,62,53.8c1.77-.74,3-1.32,3-1.33l-.86-1.8.21,2s.2,0,.43,0a3.23,3.23,0,0,1,.87.11c.11,0,.17.06.17.07l.09-.15-.12.12,0,0,.09-.15-.12.12.3-.29-.36.21.06.08.3-.29-.36.21h0l.34-.2-.38.09,0,.11.34-.2-.38.09.12,0-.13,0h0l.12,0-.13,0h0a1.49,1.49,0,0,1-.1.47v0a8.17,8.17,0,0,1-2.2,3,24.31,24.31,0,0,1-6.82,4.3c-3.15,1.4-6.38,2.84-11.16,3h-.78a25.69,25.69,0,0,1-12.36-3.23l-1,1.75h2V48.22h-2l-.15,2,.15-2h-2V63.07l1,.58a29.78,29.78,0,0,0,14.3,3.72l.9,0A31.62,31.62,0,0,0,58.22,64,28.28,28.28,0,0,0,66.16,59a11.77,11.77,0,0,0,3.26-4.7v0a5.5,5.5,0,0,0,.28-1.65,3.76,3.76,0,0,0-.49-1.9h0a3.66,3.66,0,0,0-1.14-1.2,4.88,4.88,0,0,0-1.81-.71,7.48,7.48,0,0,0-1.45-.14,6.18,6.18,0,0,0-.86,0l-.34,0-.31.15-.08,0c-.44.21-2.56,1.19-5.05,2.11-1.25.45-2.59.89-3.84,1.21a14.25,14.25,0,0,1-3.25.5,3.92,3.92,0,0,1-.8-.07l-.2-.06,0,0a12.51,12.51,0,0,0-5.16-1.9,28.11,28.11,0,0,0-4.54-.35c-.92,0-1.51,0-1.55,0l.14,2,1.58-1.23a12.58,12.58,0,0,0-9-4.9l-2.15-.17v2.17Z"/><polygon class="cls-2" points="20.13 44.84 20.13 67 33.38 67 33.38 42.84 20.13 42.84 20.13 46.84 29.38 46.84 29.38 63 24.13 63 24.13 42.84 20.13 42.84 20.13 44.84"/><polygon class="cls-3" points="46.09 21.34 44.67 19.92 36.28 28.31 36.28 41.27 56.56 41.27 56.56 28.26 46.03 18.56 44.67 19.92 46.09 21.34 44.73 22.81 52.56 30.02 52.56 37.27 40.28 37.27 40.28 29.97 47.5 22.75 46.09 21.34 44.73 22.81 46.09 21.34"/><polyline class="cls-3" points="50.73 15.07 50.73 28.71 54.73 28.71 54.73 15.07"/></g></g></svg>