<svg xmlns="http://www.w3.org/2000/svg" viewBox="0 0 102.66 102.66"><defs><style>.cls-1{fill:#fff;}.cls-2{fill:#e0a121;}.cls-3{fill:#fcbf33;}.cls-4{fill:#4091cf;}.cls-5{fill:#1c384a;}.cls-6{fill:#3b9945;}.cls-7{fill:#3d6e36;}.cls-8{fill:#ededed;}</style></defs><g id="Layer_2" data-name="Layer 2"><g id="Measure_to_Manage" data-name="Measure to Manage"><path class="cls-1" d="M51.33,102.66A51.33,51.33,0,1,0,0,51.33a51.33,51.33,0,0,0,51.33,51.33"/><path class="cls-2" d="M51.4,37.33c0,1.13-3.67,2.05-8.2,2.05S35,38.46,35,37.33c0-.76,1.65-1.42,4.1-1.77a28.06,28.06,0,0,1,4.09-.28c4.53,0,8.2.92,8.2,2"/><path class="cls-2" d="M35,43.48c0,1.12,3.67,2.05,8.19,2.05s8.2-.93,8.2-2.05v6.15c0,1.12-3.67,2-8.2,2s-8.19-.93-8.19-2V43.48Z"/><path class="cls-3" d="M51.4,37.33v6.15c0,1.12-3.67,2.05-8.2,2.05S35,44.6,35,43.48V37.33c0,1.13,3.66,2.05,8.19,2.05s8.2-.92,8.2-2.05"/><path class="cls-3" d="M35,49.63c0,1.12,3.67,2,8.19,2s8.2-.93,8.2-2v6.15H35V49.63Z"/><polygon class="cls-4" points="77.1 18.81 84.65 28.88 80.87 28.88 80.87 41.47 73.32 41.47 73.32 28.88 69.55 28.88 77.1 18.81"/><polygon class="cls-5" points="68.8 31.4 61.25 41.47 53.7 31.4 57.47 31.4 57.47 18.81 65.02 18.81 65.02 31.4 68.8 31.4"/><rect class="cls-6" x="19.61" y="48.31" width="65.04" height="35.55"/><path class="cls-7" d="M24.35,79.64H79.9V52.52H24.35Zm56.43.88H23.48V51.64h57.3Z"/><path class="cls-8" d="M73,66.27c0,4.37-9.37,7.92-20.93,7.92s-20.92-3.55-20.92-7.92S40.48,58.35,52,58.35,73,61.89,73,66.27"/><path class="cls-2" d="M43.2,21.76c0,1.62-5.28,2.95-11.79,2.95s-11.8-1.33-11.8-2.95c0-1.09,2.37-2,5.9-2.55a41.9,41.9,0,0,1,5.9-.4c6.51,0,11.79,1.33,11.79,3"/><path class="cls-2" d="M19.61,30.61c0,1.62,5.28,3,11.8,3s11.79-1.33,11.79-3v8.85c0,1.62-5.28,2.95-11.79,2.95s-11.8-1.33-11.8-2.95V30.61Z"/><path class="cls-3" d="M43.2,21.76v8.85c0,1.62-5.28,3-11.79,3s-11.8-1.33-11.8-3V21.76c0,1.62,5.28,2.95,11.8,2.95S43.2,23.38,43.2,21.76"/><path class="cls-3" d="M19.61,39.46c0,1.62,5.28,2.95,11.8,2.95S43.2,41.08,43.2,39.46v8.85H19.61V39.46Z"/></g></g></svg>