<svg xmlns="http://www.w3.org/2000/svg" viewBox="0 0 99.37 99.37"><defs><style>.cls-1{fill:#fff;}.cls-2{fill:#4091cf;}.cls-3{fill:#ededed;}.cls-4{fill:#1c384a;}.cls-5{fill:#fcbf33;}.cls-6{fill:#599442;}</style></defs><g id="Layer_2" data-name="Layer 2"><g id="Navigating_the_New_Normal" data-name="Navigating the New Normal"><path class="cls-1" d="M49.69,99.37A49.69,49.69,0,1,0,0,49.69,49.68,49.68,0,0,0,49.69,99.37"/><path class="cls-2" d="M49.69,9.26A40.43,40.43,0,1,0,90.12,49.69,40.43,40.43,0,0,0,49.69,9.26"/><path class="cls-3" d="M19,37A33.19,33.19,0,1,1,37,80.36,33.19,33.19,0,0,1,19,37"/><path class="cls-4" d="M49.69,22.57a.67.67,0,0,1-.68-.68V19.42a.68.68,0,1,1,1.36,0v2.47a.68.68,0,0,1-.68.68"/><path class="cls-4" d="M49.69,80.65A.68.68,0,0,1,49,80V77.5a.68.68,0,0,1,1.36,0V80a.69.69,0,0,1-.68.68"/><path class="cls-4" d="M80,50.37H77.49a.68.68,0,0,1,0-1.36H80a.68.68,0,1,1,0,1.36"/><path class="cls-4" d="M21.88,50.37H19.41a.68.68,0,0,1,0-1.36h2.47a.68.68,0,0,1,0,1.36"/><path class="cls-5" d="M42.73,42.73,56.65,56.65,68.76,32a1,1,0,0,0-1.35-1.36Z"/><path class="cls-6" d="M56.65,56.65,32,68.76a1,1,0,0,1-1.36-1.35L42.72,42.73Z"/><path class="cls-4" d="M49.69,43.25a6.44,6.44,0,1,1-6.44,6.44,6.43,6.43,0,0,1,6.44-6.44"/></g></g></svg>