<svg xmlns="http://www.w3.org/2000/svg" viewBox="0 0 83.28 81.82"><defs><style>.cls-1{fill:#eea620;}.cls-2{fill:#fec133;}.cls-3{fill:#1d364a;}.cls-4{fill:none;stroke:#3c9c46;stroke-linecap:round;stroke-linejoin:round;stroke-width:3px;}</style></defs><g id="Layer_2" data-name="Layer 2"><g id="Net_Income_Attribute_to_Parent_icon" data-name="Net Income Attribute to Parent icon"><path class="cls-1" d="M71.22,40.78A28.73,28.73,0,1,0,42.5,69.5,28.72,28.72,0,0,0,71.22,40.78"/><path class="cls-2" d="M67.24,40.78A24.75,24.75,0,1,0,42.49,65.53,24.75,24.75,0,0,0,67.24,40.78"/><path class="cls-3" d="M48.71,38.49H36.34V40.1h7.08c2.54,0,4.31-.53,5.29-1.61m1.18-3.38a7.64,7.64,0,0,0,0-.77H36.34V36H49.83a6.46,6.46,0,0,0,.06-.92M48.8,31.88a4,4,0,0,0-2.07-1.33,15.55,15.55,0,0,0-3.38-.24h-7v1.57Zm6.12,6.61H53a8.3,8.3,0,0,1-1.57,2.42q-2.22,2.43-8,2.43h-7V54.48H32.71v-16H30.07V36h2.64V34.34H30.07V31.88h2.64V27.07H43.05a24.82,24.82,0,0,1,4.16.27,7.12,7.12,0,0,1,5.86,4.54h1.85v2.46H53.61c0,.19,0,.41,0,.66a9.87,9.87,0,0,1-.06,1h1.35Z"/><path class="cls-4" d="M81.78,65.35,79.64,53.26,68.82,59.05m-65.74-18A39.29,39.29,0,0,0,79.23,54.64M1.5,16.48,3.64,28.56l10.82-5.78m65.74,18A39.29,39.29,0,0,0,4.05,27.18"/></g></g></svg>