<svg xmlns="http://www.w3.org/2000/svg" viewBox="0 0 102.38 102.38"><defs><style>.cls-1{fill:#fff;}.cls-2{fill:#4091cf;}.cls-3{fill:#2e70a3;}.cls-4{fill:#ededed;}.cls-5{fill:#fcbf33;}.cls-6{fill:#eda621;}</style></defs><g id="Layer_2" data-name="Layer 2"><g id="Operations_Supply_Chain" data-name="Operations &amp; Supply Chain"><path class="cls-1" d="M51.19,102.38A51.19,51.19,0,1,0,0,51.19a51.19,51.19,0,0,0,51.19,51.19"/><path class="cls-2" d="M66.32,47.7A17.83,17.83,0,1,1,48.49,29.87,17.85,17.85,0,0,1,66.32,47.7M80,44.88c-.14-.06-.3-.09-.46-.14l-.39-.12a5.74,5.74,0,0,1-3.88-4,.25.25,0,0,1,0-.07,5.73,5.73,0,0,1,1.34-5.44l.61-.65a3,3,0,0,0-2.83-4.89c-.1,0-.2.05-.28.06l-.59.14a5.76,5.76,0,0,1-5.39-1.56l0,0a5.77,5.77,0,0,1-1.56-5.39l.2-.87A2.95,2.95,0,0,0,61.78,19c-.11.09-.22.2-.35.32l-.3.28A5.74,5.74,0,0,1,55.69,21l-.07,0a5.76,5.76,0,0,1-4-3.88l-.26-.85a2.94,2.94,0,0,0-5.64,0c0,.12-.08.24-.11.36l-.15.49a5.76,5.76,0,0,1-4,3.88l-.07,0a5.74,5.74,0,0,1-5.44-1.34L35.2,19a3,3,0,0,0-4.89,2.83s0,.08,0,.12l.18.75A5.78,5.78,0,0,1,29,28.12l0,0a5.76,5.76,0,0,1-5.39,1.56l-.87-.2a2.95,2.95,0,0,0-2.82,4.88c.1.12.21.23.32.35l.28.31a5.73,5.73,0,0,1,1.34,5.44.25.25,0,0,1,0,.07,5.74,5.74,0,0,1-3.87,4l-.86.26a2.95,2.95,0,0,0,0,5.64l.35.11.49.15a5.74,5.74,0,0,1,3.88,4,.14.14,0,0,1,0,.07,5.76,5.76,0,0,1-1.33,5.44l-.61.65a3,3,0,0,0,2.82,4.89h0l.46-.1.41-.1a5.76,5.76,0,0,1,5.39,1.57l0,0a5.76,5.76,0,0,1,1.57,5.39l-.21.87a3,3,0,0,0,4.89,2.82c.11-.09.23-.21.35-.32l.3-.29a5.76,5.76,0,0,1,5.44-1.33h.07a5.77,5.77,0,0,1,4,3.88l.26.86a2.95,2.95,0,0,0,5.64,0,2.12,2.12,0,0,0,.09-.31l.17-.55a5.77,5.77,0,0,1,4-3.88h.07a5.76,5.76,0,0,1,5.44,1.33l.65.62a3,3,0,0,0,4.89-2.83c0-.11,0-.2-.06-.29l-.14-.58A5.76,5.76,0,0,1,68,67.28l0,0a5.77,5.77,0,0,1,5.39-1.57l.87.21A3,3,0,0,0,77.16,61l-.09-.1-.52-.55a5.73,5.73,0,0,1-1.34-5.44.14.14,0,0,1,0-.07,5.74,5.74,0,0,1,3.88-4l.85-.26a2.94,2.94,0,0,0,0-5.64"/><path class="cls-3" d="M48.49,65.53A17.83,17.83,0,1,1,66.32,47.7,17.85,17.85,0,0,1,48.49,65.53m22-26.69-.09-.22a2.29,2.29,0,0,1-.1-.23A23.74,23.74,0,0,0,59.84,26.86l-.1-.05c-.11-.07-.22-.12-.33-.18l-.23-.12L59,26.43A23.5,23.5,0,0,0,48.49,24q-.84,0-1.68.06h0l-.26,0h-.09l-.47,0h0A23.73,23.73,0,0,0,36,27.52l-.06,0-.33.21-.12.08-.28.19-.17.11-.24.17-.18.13-.23.16-.19.15-.23.17-.18.14-.24.19-.08.07h0c-.61.5-1.2,1-1.76,1.6-.4.4-.8.82-1.17,1.25h0l0,0-.22.26-.14.17-.23.28-.11.14-.24.32-.08.1-.26.35,0,.07a23.38,23.38,0,0,0-1.85,3l-.05.1-.17.34a1.42,1.42,0,0,0-.08.18c-.05.09-.09.18-.14.28s-.08.18-.11.27a1.21,1.21,0,0,0-.09.2l-.17.39a.36.36,0,0,1,0,.09,23.78,23.78,0,0,0,0,17.76,2.29,2.29,0,0,1,.1.23l.09.22A23.7,23.7,0,0,0,39.19,69.53l.22.09.23.09a23.65,23.65,0,0,0,17.71,0l.22-.09.23-.09a23.78,23.78,0,0,0,7.47-5,23.38,23.38,0,0,0,5-7.48l.09-.22a2.29,2.29,0,0,0,.1-.23,23.78,23.78,0,0,0,0-17.71"/><path class="cls-4" d="M66.32,47.7A17.83,17.83,0,1,1,48.49,29.87,17.85,17.85,0,0,1,66.32,47.7"/><path class="cls-5" d="M79.54,68A10.76,10.76,0,1,1,68.79,57.23,10.77,10.77,0,0,1,79.54,68m8.23-1.7-.27-.08-.24-.08a3.48,3.48,0,0,1-2.34-2.44v0a3.45,3.45,0,0,1,.81-3.29l.36-.39A1.78,1.78,0,0,0,84.38,57l-.17,0-.36.09a3.47,3.47,0,0,1-3.25-.95l0,0a3.47,3.47,0,0,1-1-3.25l.12-.53a1.77,1.77,0,0,0-2.94-1.7l-.21.19-.19.17a3.46,3.46,0,0,1-3.28.81h0a3.45,3.45,0,0,1-2.44-2.34L70.49,49a1.78,1.78,0,0,0-3.41,0l-.06.21-.09.3a3.48,3.48,0,0,1-2.45,2.34h0a3.46,3.46,0,0,1-3.28-.81l-.39-.36a1.78,1.78,0,0,0-3,1.7s0,.05,0,.07l.11.46A3.44,3.44,0,0,1,57,56.17l0,0a3.47,3.47,0,0,1-3.25.95L53.19,57A1.78,1.78,0,0,0,51.49,60l.2.21.17.18a3.5,3.5,0,0,1,.81,3.29.06.06,0,0,0,0,0,3.5,3.5,0,0,1-2.35,2.44l-.51.16a1.78,1.78,0,0,0,0,3.4l.21.07.3.09a3.5,3.5,0,0,1,2.35,2.44.09.09,0,0,0,0,0,3.49,3.49,0,0,1-.81,3.28l-.37.39A1.78,1.78,0,0,0,53.19,79h0l.28-.06.25,0a3.46,3.46,0,0,1,3.25.94l0,0a3.49,3.49,0,0,1,.94,3.25l-.12.52a1.78,1.78,0,0,0,3,1.7l.21-.19.18-.17a3.46,3.46,0,0,1,3.28-.81h0a3.48,3.48,0,0,1,2.45,2.34l.15.52a1.78,1.78,0,0,0,3.41,0,1.67,1.67,0,0,0,.05-.18l.11-.34a3.45,3.45,0,0,1,2.44-2.34h0a3.46,3.46,0,0,1,3.28.81l.39.37a1.78,1.78,0,0,0,3-1.71.85.85,0,0,0,0-.17l-.08-.35a3.47,3.47,0,0,1,1-3.25s0,0,0,0a3.47,3.47,0,0,1,3.25-.94l.53.12A1.78,1.78,0,0,0,86.08,76L86,76l-.32-.33a3.46,3.46,0,0,1-.8-3.28.09.09,0,0,1,0,0,3.48,3.48,0,0,1,2.34-2.44l.51-.16a1.77,1.77,0,0,0,0-3.4"/><path class="cls-6" d="M68.79,78.75A10.76,10.76,0,1,1,79.54,68,10.76,10.76,0,0,1,68.79,78.75m13.28-16.1L82,62.52c0-.05,0-.1-.05-.14a14.17,14.17,0,0,0-3-4.51,14,14,0,0,0-3.28-2.45l-.06,0-.19-.11-.14-.07-.11-.05a14.22,14.22,0,0,0-6.34-1.48q-.51,0-1,0h0l-.16,0h0l-.29,0h0a14.31,14.31,0,0,0-6,2.06l0,0L61,56,61,56l-.17.11-.1.07-.15.1-.11.08a.71.71,0,0,1-.14.1l-.11.09-.14.1-.11.09-.14.11-.05,0h0c-.36.3-.72.62-1.06,1s-.48.5-.7.76h0l-.13.16-.08.1a2.09,2.09,0,0,0-.14.17l-.07.08a2.43,2.43,0,0,0-.14.2.15.15,0,0,0-.05.06l-.16.21,0,0A14.58,14.58,0,0,0,56,61.5l0,.06-.1.21s0,.07,0,.1-.05.12-.08.17,0,.11-.07.17l0,.12a2.29,2.29,0,0,0-.1.23.14.14,0,0,0,0,.06A14.23,14.23,0,0,0,54.47,68a14.43,14.43,0,0,0,1,5.35l.06.13.06.14a14.23,14.23,0,0,0,7.55,7.55l.14.06.13.06a14.38,14.38,0,0,0,10.69,0l.14-.06.13-.06A14.27,14.27,0,0,0,82,73.6s0-.08.05-.13l.06-.13a14.26,14.26,0,0,0,0-10.69"/><path class="cls-4" d="M79.54,68A10.76,10.76,0,1,1,68.79,57.23,10.77,10.77,0,0,1,79.54,68"/></g></g></svg>