<svg xmlns="http://www.w3.org/2000/svg" xmlns:xlink="http://www.w3.org/1999/xlink" viewBox="0 0 96.56 78.64"><defs><style>.cls-1{fill:none;}.cls-2{clip-path:url(#clip-path);}.cls-3{fill:#4091cf;}.cls-4{fill:#2e70a3;}.cls-5{fill:#fff0f0;}.cls-6{fill:#fcbf33;}.cls-7{fill:#ededed;}.cls-8{fill:#3b9945;}</style><clipPath id="clip-path" transform="translate(0 0)"><rect class="cls-1" width="96.56" height="78.64"/></clipPath></defs><g id="Layer_2" data-name="Layer 2"><g id="Reward_Points" data-name="Reward Points"><g class="cls-2"><path class="cls-3" d="M72.15,65.32c-4.75-1.15-2.86-9.17-.75-10.5.78-.5,1.88-.2,2.71-.8.51-.39,1-1.52,1.47-2a4.52,4.52,0,0,1,5.56-.87c9.19,4.65-3.22,18.93-8,14.94a4,4,0,0,0-1-.75" transform="translate(0 0)"/><path class="cls-3" d="M75,64.79c-.25-.05-1.07-.35-1.13-.66-.13-.61,1.09-1.38,1.64-1.25.92.22,2.15,1.87.57,2A9.06,9.06,0,0,1,75,64.79" transform="translate(0 0)"/><path class="cls-3" d="M71.71,58.31c0-.86.9-1,1.57-1a2.82,2.82,0,0,1,2.25.76A1.91,1.91,0,0,1,76,59.61a2.29,2.29,0,0,1-1.37,1.65c-.4.21-1.32.63-1.79.45-1-.39-1.14-2.82-1.17-3.4" transform="translate(0 0)"/><path class="cls-3" d="M79.87,56.51a.82.82,0,0,1,0-1.22c.85-.73,2.42.61,1.46,1.15,0,0-1,.47-1.46.07" transform="translate(0 0)"/><path class="cls-3" d="M20.61,50c0-3.23,3.08-6.17,8.13-8.38v4.2a1.76,1.76,0,1,0,3.52,0V40.29c1.11-.35,2.29-.68,3.53-1v6.49a1.76,1.76,0,1,0,3.52,0V38.59c1.14-.19,2.32-.37,3.52-.51v7.73a1.77,1.77,0,1,0,3.53,0V37.75c1.16-.08,2.33-.13,3.52-.16v8.22a1.77,1.77,0,1,0,3.53,0V37.59c1.19,0,2.37.08,3.52.16v8.06a1.77,1.77,0,1,0,3.53,0V38.08c1.21.14,2.38.32,3.52.51v7.22a1.77,1.77,0,1,0,3.53,0V39.32c1.23.29,2.41.62,3.52,1v5.52a1.77,1.77,0,1,0,3.53,0v-4.2c5,2.21,8.12,5.15,8.12,8.38,0,.08,0,.17,0,.25s0,.16,0,.24a3.33,3.33,0,0,1-3.33,3.25H23.94a3.34,3.34,0,0,1-3.33-3.25,1.94,1.94,0,0,1,0-.24,2.11,2.11,0,0,1,0-.25" transform="translate(0 0)"/><path class="cls-3" d="M51.65,47.58a1.77,1.77,0,0,1-1.77-1.77V37.59l1.77,0,1.76,0v8.22a1.76,1.76,0,0,1-1.76,1.77" transform="translate(0 0)"/><path class="cls-3" d="M58.7,47.58a1.77,1.77,0,0,1-1.77-1.77V37.75c1.2.09,2.38.2,3.53.33v7.73a1.76,1.76,0,0,1-1.76,1.77" transform="translate(0 0)"/><path class="cls-3" d="M37.55,47.58a1.77,1.77,0,0,1-1.77-1.77V39.32c1.13-.27,2.31-.52,3.53-.73v7.22a1.76,1.76,0,0,1-1.76,1.77" transform="translate(0 0)"/><path class="cls-3" d="M44.6,47.58a1.77,1.77,0,0,1-1.77-1.77V38.08c1.15-.13,2.33-.24,3.53-.33v8.06a1.76,1.76,0,0,1-1.76,1.77" transform="translate(0 0)"/><path class="cls-3" d="M30.5,47.58a1.76,1.76,0,0,1-1.76-1.77v-4.2c1.08-.47,2.26-.91,3.52-1.32v5.52a1.76,1.76,0,0,1-1.76,1.77" transform="translate(0 0)"/><path class="cls-3" d="M65.75,47.58A1.77,1.77,0,0,1,64,45.81V38.59c1.22.21,2.4.46,3.53.73v6.49a1.76,1.76,0,0,1-1.76,1.77" transform="translate(0 0)"/><path class="cls-3" d="M72.8,47.58A1.77,1.77,0,0,1,71,45.81V40.29c1.26.41,2.44.85,3.53,1.32v4.2a1.76,1.76,0,0,1-1.76,1.77" transform="translate(0 0)"/><path class="cls-4" d="M56.34,9.83A8.26,8.26,0,0,1,60,12c.94,1.18,1.46,3.11,1,3.25s-2.5-.88-3.42-2.13a8.84,8.84,0,0,1-1.21-3.33" transform="translate(0 0)"/><path class="cls-4" d="M60.76,15.58h0a.33.33,0,0,1-.19-.44s.9-2.16,3.78-1.23a.34.34,0,0,1,.22.44.34.34,0,0,1-.43.22c-2.25-.73-2.9.76-2.93.83a.35.35,0,0,1-.45.18" transform="translate(0 0)"/><path class="cls-4" d="M62.68,23.3a6.39,6.39,0,0,0,.61-1.16c1.17-2.91.12-6.07-2.33-7s-5.39.58-6.55,3.49A6.67,6.67,0,0,0,54,19.84a7.72,7.72,0,1,0,8.64,3.46" transform="translate(0 0)"/><path class="cls-4" d="M51.63,25.71a7.63,7.63,0,0,1,5.18-4.54,5.72,5.72,0,0,1,.36-1.25,5.9,5.9,0,0,1,4-3.63,4.85,4.85,0,0,0-5.46,3.23,5.89,5.89,0,0,0-.32,1.12,6.78,6.78,0,0,0-3.74,10.65,7.58,7.58,0,0,1,0-5.58" transform="translate(0 0)"/><path class="cls-5" d="M15.31,50.58s-.46-3.5,1.33-5.39c2.38-2.51,8.43-5,11.4-6.75A7.83,7.83,0,0,0,30.43,36s.57,3.89-2.05,6.16C26.24,44,21.13,46.5,18.51,48a11.22,11.22,0,0,0-3.2,2.62" transform="translate(0 0)"/><path class="cls-5" d="M26.92,40.18a.86.86,0,1,1,.45,1.13.86.86,0,0,1-.45-1.13" transform="translate(0 0)"/><path class="cls-5" d="M24.48,41.6a.86.86,0,0,1,1.58.69.86.86,0,1,1-1.58-.69" transform="translate(0 0)"/><path class="cls-5" d="M22.05,42.88A.86.86,0,1,1,22.5,44a.86.86,0,0,1-.45-1.13" transform="translate(0 0)"/><path class="cls-5" d="M19.58,44.45A.86.86,0,1,1,20,45.58a.87.87,0,0,1-.45-1.13" transform="translate(0 0)"/><path class="cls-5" d="M17,46a.87.87,0,0,1,1.14-.44.86.86,0,1,1-.69,1.57A.87.87,0,0,1,17,46" transform="translate(0 0)"/><path class="cls-3" d="M28.54,68.34,26.81,64,20.7,57.29a32.93,32.93,0,0,1,3.25-.8c.24.07,2.78,5.15,4.19,4.34,1.07-.61-1.48-4.64-1.27-4.78l2.89-1.89s1,5,2.25,4.71.06-5.16.06-5.16L35.46,52l-.54,7.41,1.6,5.76Z" transform="translate(0 0)"/><path class="cls-3" d="M37.56,44.53a2.19,2.19,0,0,0-2.84-1.22,2.52,2.52,0,0,0-.4.21,2.17,2.17,0,0,0-3.68-.11A4.82,4.82,0,0,0,23.35,46a3.49,3.49,0,0,0-5.52,3.78,3.63,3.63,0,0,0-3.22,5A3.65,3.65,0,0,0,17.19,57a2.45,2.45,0,0,0,.14.64,2.19,2.19,0,0,0,2.84,1.22,2.22,2.22,0,0,0,.92-.69,3.48,3.48,0,0,0,4.57-1.54,3.45,3.45,0,0,0,2.41-.05A3.54,3.54,0,0,0,30,54.68a3.5,3.5,0,0,0,2.68,0,3.44,3.44,0,0,0,1.89-1.8,3.49,3.49,0,0,0,3.49-4.8,3.38,3.38,0,0,0-.92-1.3,2.18,2.18,0,0,0,.42-2.28" transform="translate(0 0)"/><path class="cls-3" d="M17.57,50.67a2.63,2.63,0,0,0-1.06.49A2.78,2.78,0,0,0,16,55.05a2.85,2.85,0,0,0,1,.82,4.49,4.49,0,0,1,.58-5.2" transform="translate(0 0)"/><path class="cls-3" d="M21,46.3a2.68,2.68,0,0,0-1.06.48,2.76,2.76,0,0,0,.48,4.72A4.47,4.47,0,0,1,21,46.3" transform="translate(0 0)"/><path class="cls-3" d="M33.86,47.12a2.24,2.24,0,0,0-.87.41,2.28,2.28,0,0,0-.44,3.19,2.25,2.25,0,0,0,.84.67,3.68,3.68,0,0,1,.47-4.27" transform="translate(0 0)"/><path class="cls-3" d="M27.26,43.81a4.28,4.28,0,0,0-1.61.74,4.21,4.21,0,0,0-.8,5.89,4.14,4.14,0,0,0,1.54,1.23,6.76,6.76,0,0,1,.87-7.86" transform="translate(0 0)"/><path class="cls-5" d="M34.37,59.75c-2.44,1.68-4.54,1-5.77-.81s-1.13-4,1.32-5.69,6-2,7.22-.17-.32,5-2.77,6.67" transform="translate(0 0)"/><path class="cls-6" d="M53.64,51.8c2.45,1.68,4.55,1,5.78-.82s1.12-4-1.32-5.68-6-2-7.22-.17.31,5,2.76,6.67" transform="translate(0 0)"/><path class="cls-6" d="M70.7,11.54V9.64H63.8v1.9S59,20.87,59,23.08V51.89a1.21,1.21,0,0,0,1.2,1.21H74.32a1.2,1.2,0,0,0,1.2-1.21V23.08c0-2.21-4.82-11.54-4.82-11.54" transform="translate(0 0)"/><path class="cls-6" d="M70,5.44V8.57h-.8V5.35h-.8V8.57h-.81V5.35h-.8V8.57H66V5.35h-.8V8.57h-.8V5.46a1.73,1.73,0,0,0-1.13,1.62V8.6h7.92V7.08A1.74,1.74,0,0,0,70,5.44" transform="translate(0 0)"/><path class="cls-6" d="M65.22,8.57V5.35H65a1.73,1.73,0,0,0-.6.11V8.57Z" transform="translate(0 0)"/></g><rect class="cls-6" x="66.02" y="5.35" width="0.81" height="3.23"/><rect class="cls-6" x="67.63" y="5.35" width="0.8" height="3.23"/><g class="cls-2"><path class="cls-6" d="M70,8.57V5.44a1.69,1.69,0,0,0-.56-.09h-.24V8.57Z" transform="translate(0 0)"/></g><rect class="cls-6" x="63.29" y="8.32" width="7.92" height="1.31"/><g class="cls-2"><path class="cls-6" d="M62,23.43V23c0-2,4.13-10.08,4.51-10.81V10.59H65.11v.93S60.33,20.78,60.33,23V50.32H62a.91.91,0,0,1,0-.23V23.43Z" transform="translate(0 0)"/></g><rect class="cls-6" x="58.98" y="26.57" width="16.54" height="17.3"/><g class="cls-2"><path class="cls-6" d="M71.35,10.59A.4.4,0,0,1,71,11H63.55a.4.4,0,1,1,0-.79H71a.4.4,0,0,1,.39.4" transform="translate(0 0)"/><path class="cls-3" d="M71.61,67.24A7.62,7.62,0,0,1,64,74.86H46.64a7.62,7.62,0,1,1,0-15.24H64a7.62,7.62,0,0,1,7.62,7.62" transform="translate(0 0)"/></g><rect class="cls-3" x="48.28" y="59.62" width="14.08" height="15.24"/><polygon class="cls-3" points="39.86 66.45 37.3 65 37.98 66.45 37.3 67.24 37.83 67.95 37.93 68.92 39.86 68.24 39.86 66.45"/><polygon class="cls-3" points="70.63 66.36 73.24 65.1 72.66 66.36 73.43 67.35 72.66 67.63 73 68.82 70.63 68.39 70.63 66.36"/><rect class="cls-3" x="49.25" y="59.62" width="1.02" height="15.24"/><rect class="cls-3" x="60.27" y="59.62" width="1.02" height="15.24"/><polygon class="cls-3" points="39.8 8.09 36.64 4.31 38.47 3.04 40.66 7.74 39.8 8.09"/><polygon class="cls-3" points="40.61 8.77 37.47 2.17 40.66 1.28 41.81 8.03 40.61 8.77"/><polygon class="cls-3" points="41.71 9.17 40.43 3.92 42.81 3.93 42.65 8.44 41.71 9.17"/><g class="cls-2"><path class="cls-3" d="M47.9,25.8c0-.4-.08-.8-.12-1.22l-2,1.22Z" transform="translate(0 0)"/><path class="cls-3" d="M47.36,21.15c-.07-.49-.14-1-.22-1.49l-2.45,1.49Z" transform="translate(0 0)"/><path class="cls-3" d="M46.6,16.52c-.09-.47-.18-.94-.28-1.4L44,16.52Z" transform="translate(0 0)"/><path class="cls-3" d="M45.62,12.11c-.14-.51-.28-1-.42-1.46l-2.4,1.46Z" transform="translate(0 0)"/><path class="cls-3" d="M39.17,14.88c.12.43.24.87.38,1.31l2.07-1.54Z" transform="translate(0 0)"/><path class="cls-3" d="M40.74,6.65A3.09,3.09,0,0,0,38.38,9a7.41,7.41,0,0,0,0,1.35l2.29.1-2.17,1.18a30.21,30.21,0,0,0,.7,3.23l2.45-.23-2.07,1.54c.32,1,.69,2.14,1.1,3.22l2.48-.23-2,1.49c.43,1.09.88,2.18,1.35,3.22l1.75-.16-1.37,1c.57,1.23,1.13,2.37,1.67,3.39L45.86,28l-1,.75c1.24,2.26,2.28,3.72,2.7,3.62.6-.14.65-2.9.33-6.57H45.77l2-1.22c-.11-1.1-.25-2.25-.42-3.43H44.68l2.46-1.49c-.16-1.05-.34-2.11-.54-3.14H44l2.31-1.4c-.22-1-.46-2.07-.71-3H42.8l2.4-1.46a18.92,18.92,0,0,0-1.09-2.88c-.94-1.84-3.37-1.12-3.37-1.12" transform="translate(0 0)"/><path class="cls-3" d="M38.35,10.37c0,.4.06.83.12,1.28l2.17-1.18Z" transform="translate(0 0)"/><path class="cls-3" d="M40.65,19.41q.23.63.48,1.26l2-1.49Z" transform="translate(0 0)"/><path class="cls-3" d="M42.48,23.89c.13.29.26.57.38.85l1.37-1Z" transform="translate(0 0)"/><path class="cls-3" d="M44.53,28.13l.33.62,1-.74Z" transform="translate(0 0)"/><path class="cls-6" d="M35.33,58c8.15,1.74,9,6.1,9,6.1h-27Z" transform="translate(0 0)"/><path class="cls-6" d="M40.75,70.8a.94.94,0,1,1,.94-.94.94.94,0,0,1-.94.94m-7.16,0a2,2,0,1,1,2-2,2,2,0,0,1-2,2m-4.81,2.82a1.54,1.54,0,1,1,1.54-1.54,1.54,1.54,0,0,1-1.54,1.54m-6.89-3.21a2.54,2.54,0,1,1,2.53-2.54,2.54,2.54,0,0,1-2.53,2.54m22.43-6.36h-27v6.54a1.73,1.73,0,0,1,0,3.37v1.65H36.89a2.39,2.39,0,0,1,4.78,0h2.65Z" transform="translate(0 0)"/><path class="cls-6" d="M39.28,73.36a2.4,2.4,0,0,0-2.39,2.25h4.78a2.4,2.4,0,0,0-2.39-2.25" transform="translate(0 0)"/><path class="cls-6" d="M18.7,72.27a1.73,1.73,0,0,0-1.35-1.68V74a1.74,1.74,0,0,0,1.35-1.69" transform="translate(0 0)"/><path class="cls-6" d="M21.89,65.34a2.54,2.54,0,1,0,2.53,2.53,2.54,2.54,0,0,0-2.53-2.53" transform="translate(0 0)"/><path class="cls-6" d="M28.78,70.54a1.54,1.54,0,1,0,1.54,1.54,1.54,1.54,0,0,0-1.54-1.54" transform="translate(0 0)"/><path class="cls-6" d="M40.75,68.93a.94.94,0,1,0,.94.93.93.93,0,0,0-.94-.93" transform="translate(0 0)"/><path class="cls-6" d="M33.59,66.81a2,2,0,1,0,2,2,2,2,0,0,0-2-2" transform="translate(0 0)"/><path class="cls-4" d="M27,4.79c1.84-2,5.19-1.33,7.76,1.47,3.25,3.54,7.28,9.9,7.11,16.29-.14,5.19-2,9.09-5.72,9.44-6.36.61-6.57-5.21-6.41-9.2.12-3,.07-8.75-1.24-11.45S25.27,6.66,27,4.79" transform="translate(0 0)"/><path class="cls-4" d="M26.56,2.71,23.42,0,22.8.86,26.33,4s-2-.58-3,.63c-.41.49,2.45.65,2.45.65s-1.28,1.45.05,4c.47.91,1.24-3.43,1.24-3.43s3.58,2.85,3.52,2-2.05-3.91-2.05-3.91,4.71.41,4.68.28c-.7-2.87-4.85-1.38-4.85-1.38s2.54-1.62,2.3-1.72a3.06,3.06,0,0,0-4.12,1.61" transform="translate(0 0)"/><path class="cls-4" d="M31.88,25.39a6.52,6.52,0,0,0,2.84,5.16c-1.82-.07-3.37-1.88-3.53-4.19a5.06,5.06,0,0,1,.9-3.3,7.43,7.43,0,0,0-.21,2.33" transform="translate(0 0)"/><path class="cls-4" d="M28.19,3.36l.58-.18c3.14-.77,4.43.68,4.26.47s-.71-2-4.72-1.11A2.88,2.88,0,0,0,27.14,3L23.42,0l-.21.28,3.52,3a2.51,2.51,0,0,0-.8,1.12c-1.67,3.75,0,4.94.05,5A5.55,5.55,0,0,1,26.46,5c0-.08.23-.39.4-.73a3.24,3.24,0,0,0,.31.63c.65.93,3.39,3.23,3.43,3a12.39,12.39,0,0,0-1.87-4.08,1.4,1.4,0,0,0-.54-.39" transform="translate(0 0)"/><path class="cls-6" d="M1.18,22.91l0-.27S12.11,19,23.68,27.59c10.24,7.62,10,20.5,10,20.5l-.63.24A30.46,30.46,0,0,0,21.81,30.11a35.43,35.43,0,0,0-20.63-7.2" transform="translate(0 0)"/><path class="cls-6" d="M19.87,32.72a57.71,57.71,0,0,0-18.76-9.2l.07-.61a35.43,35.43,0,0,1,20.63,7.2A30.51,30.51,0,0,1,33.08,48.33l-.61.23a40.52,40.52,0,0,0-12.6-15.84" transform="translate(0 0)"/><path class="cls-6" d="M19,34.47c-6.24-4.64-18-9.76-18-9.76l.14-1.19a57.71,57.71,0,0,1,18.76,9.2,40.52,40.52,0,0,1,12.6,15.84l-.44.17S25.57,39.38,19,34.47" transform="translate(0 0)"/><path class="cls-6" d="M1.2,22.62l-.15,2.12a1.56,1.56,0,0,1-.59-.22A1.08,1.08,0,0,1,.2,23a1,1,0,0,1,1-.39" transform="translate(0 0)"/></g><polygon class="cls-6" points="32.34 48.25 32.78 49.47 33.7 48.99 33.16 47.87 32.34 48.25"/><g class="cls-2"><path class="cls-6" d="M10.25,14.76l.11-.26s11.49-.34,20.09,11.23C38.06,36,34.14,48.25,34.14,48.25l-.67,0A30.46,30.46,0,0,0,27.93,27.6,35.47,35.47,0,0,0,10.25,14.76" transform="translate(0 0)"/><path class="cls-6" d="M25.32,29.54A57.66,57.66,0,0,0,10,15.32l.24-.56A35.41,35.41,0,0,1,27.93,27.6a30.46,30.46,0,0,1,5.54,20.69l-.65.05a40.41,40.41,0,0,0-7.5-18.8" transform="translate(0 0)"/><path class="cls-6" d="M24,31C19.31,24.72,9.53,16.42,9.53,16.42l.48-1.1A57.66,57.66,0,0,1,25.32,29.54a40.59,40.59,0,0,1,7.5,18.8l-.47,0S28.86,37.56,24,31" transform="translate(0 0)"/><path class="cls-6" d="M10.36,14.49l-.76,2a1.58,1.58,0,0,1-.5-.39,1.07,1.07,0,0,1,.18-1.51,1,1,0,0,1,1.08-.09" transform="translate(0 0)"/></g><polygon class="cls-6" points="32.7 48.17 32.77 49.47 33.79 49.27 33.6 48.05 32.7 48.17"/><g class="cls-2"><path class="cls-6" d="M21.7,9.65l.18-.21S33,12.37,38,25.9c4.39,12-2.85,22.64-2.85,22.64l-.66-.14A30.51,30.51,0,0,0,35,27,35.44,35.44,0,0,0,21.7,9.65" transform="translate(0 0)"/><path class="cls-6" d="M32,28.1a58,58,0,0,0-10.65-18l.39-.47A35.44,35.44,0,0,1,35,27a30.51,30.51,0,0,1-.57,21.42l-.64-.14A40.52,40.52,0,0,0,32,28.1" transform="translate(0 0)"/><path class="cls-6" d="M30.24,29.08c-2.68-7.31-9.7-18-9.7-18l.77-.92A58,58,0,0,1,32,28.1,40.52,40.52,0,0,1,33.8,48.26l-.46-.1s-.27-11.37-3.1-19.08" transform="translate(0 0)"/><path class="cls-6" d="M21.88,9.42l-1.29,1.69a1.71,1.71,0,0,1-.37-.51,1.08,1.08,0,0,1,.61-1.4,1.06,1.06,0,0,1,1.05.22" transform="translate(0 0)"/></g><polygon class="cls-6" points="33.74 48.07 33.44 49.33 34.47 49.42 34.63 48.2 33.74 48.07"/><g class="cls-2"><path class="cls-5" d="M21.59,51.72a5.81,5.81,0,0,1,.05,3c-.65,1.38-3.33,2.55-3.71,4.56a4.52,4.52,0,0,0,2.4,5.17c.4.15.66.65,1.54.72a2.53,2.53,0,0,0,1.65-.44,2.35,2.35,0,0,0,2,.3,2,2,0,0,0,1.21-.95,3.64,3.64,0,0,0,1.9-.5,4.05,4.05,0,0,0,.73-.9c.46-.68,1.29-.79,1.46-2.86a5.05,5.05,0,0,0-1.42-3.56c-1.64-1.54-3.9-1.47-4.88-2.42a8.49,8.49,0,0,1-1-2.52Z" transform="translate(0 0)"/><path class="cls-5" d="M22.69,60.38a18.32,18.32,0,0,1,.09-4,4.69,4.69,0,0,0-1.27,4.21c.26,1.88,1.14,3.37,2.11,3.72a20,20,0,0,1-.93-3.89" transform="translate(0 0)"/><path class="cls-5" d="M28.5,58.79a11.29,11.29,0,0,0-1.33-2.51,3.47,3.47,0,0,1,2.24,2.16,3.3,3.3,0,0,1-.14,3.24,12.61,12.61,0,0,0-.77-2.89" transform="translate(0 0)"/><path class="cls-5" d="M20,60.69a12.79,12.79,0,0,1,.28-3,4,4,0,0,0-1.26,3,3.27,3.27,0,0,0,1.32,2.95,12.44,12.44,0,0,1-.34-3" transform="translate(0 0)"/><path class="cls-5" d="M25.92,59.38a19.3,19.3,0,0,0-1.41-3.74c1,.22,2.06,1.59,2.56,3.43s.26,3.56-.5,4.26a18.94,18.94,0,0,0-.65-3.95" transform="translate(0 0)"/></g><rect class="cls-7" x="37.05" y="17.25" width="0.88" height="5.24" transform="translate(-3.29 8.15) rotate(-11.88)"/><g class="cls-2"><path class="cls-7" d="M36.89,19.16l-2.27-.72c0-1.12-1.1-1.94-1.83-2.24-1.62-.65-4.55.64-4.55.64S29.57,19.48,31,20s2.94.32,3.45-.93l2.58.86Z" transform="translate(0 0)"/><polyline class="cls-7" points="37.87 21.05 37.87 21.05 37.87 21.05"/><polyline class="cls-7" points="37.64 21.1 37.64 21.1 37.64 21.1"/><path class="cls-7" d="M40.22,20.17a17.71,17.71,0,0,1-2.56,1,13,13,0,0,1-2.52.08c-2.43-.07-5.4,2.68-4.49,7,.7,3.37,5,8.3,7.69,7.74.62-.13,1.73-1.49,2.22-1.6s2.06.7,2.68.57c2.66-.56,4.64-6.82,3.93-10.18-.93-4.36-4.75-5.68-7-4.64" transform="translate(0 0)"/><path class="cls-7" d="M34.81,24a3.35,3.35,0,0,0-2.17,4.18A7.81,7.81,0,0,0,35.2,32a10.56,10.56,0,0,1-1-2.64,8.09,8.09,0,0,1,.61-5.4" transform="translate(0 0)"/><path class="cls-7" d="M29.17,17.14h0" transform="translate(0 0)"/><path class="cls-7" d="M33.94,18.7c1.63.53,3,.88,3,.88l-.12-.6L34,18.29l-.55-1.07.16,1-1.11-.26-.36-1.36.09,1.29-1.47-.35-.2-.94,0,.9-1.41-.34,1.41.46-.83.56,1-.51,1.3.43-1.23.78,1.54-.68,1.25.41L32.47,19.7Z" transform="translate(0 0)"/><path class="cls-7" d="M66.36,62.81c-2.88-1.46-4.12-5.53-3.81-11l3.75,1.9a1.76,1.76,0,1,0,1.59-3.15L63,48c.19-1.16.43-2.35.72-3.59l5.8,2.93a1.76,1.76,0,1,0,1.59-3.14L64.63,41c.33-1.11.71-2.23,1.13-3.38l6.9,3.49A1.76,1.76,0,1,0,74.25,38l-7.19-3.64c.45-1.07.93-2.14,1.44-3.22l7.34,3.71a1.76,1.76,0,1,0,1.59-3.14L70.09,28c.56-1.06,1.14-2.08,1.74-3.08L79,28.51a1.76,1.76,0,0,0,1.59-3.15l-6.9-3.48c.67-1,1.35-2,2.05-2.92l6.44,3.26a1.76,1.76,0,0,0,1.59-3.15L78,16.14q1.23-1.46,2.46-2.7l4.93,2.48A1.76,1.76,0,1,0,87,12.78l-3.75-1.9C87.47,7.38,91.48,6,94.36,7.41l.22.13.22.1a3.33,3.33,0,0,1,1.4,4.44l-2.91,5.75L74.12,55.77l-2.91,5.75A3.34,3.34,0,0,1,66.8,63l-.21-.12-.23-.1" transform="translate(0 0)"/><path class="cls-7" d="M78.21,34a1.76,1.76,0,0,1-2.37.78L68.5,31.09c.25-.52.51-1.05.78-1.58s.54-1.05.81-1.56l7.34,3.71A1.75,1.75,0,0,1,78.21,34" transform="translate(0 0)"/><path class="cls-7" d="M81.39,27.73a1.76,1.76,0,0,1-2.37.78l-7.19-3.64c.61-1,1.24-2,1.88-3l6.9,3.49a1.75,1.75,0,0,1,.78,2.36" transform="translate(0 0)"/><path class="cls-7" d="M71.85,46.61a1.76,1.76,0,0,1-2.37.77l-5.8-2.93c.27-1.13.58-2.29.94-3.47l6.45,3.26a1.76,1.76,0,0,1,.78,2.37" transform="translate(0 0)"/><path class="cls-7" d="M75,40.32a1.77,1.77,0,0,1-2.37.77l-6.9-3.48c.4-1.09.83-2.19,1.3-3.3L74.25,38A1.76,1.76,0,0,1,75,40.32" transform="translate(0 0)"/><path class="cls-7" d="M68.67,52.9a1.76,1.76,0,0,1-2.37.78l-3.75-1.9c.07-1.18.21-2.43.41-3.74l4.93,2.49a1.76,1.76,0,0,1,.78,2.37" transform="translate(0 0)"/><path class="cls-7" d="M84.57,21.44a1.76,1.76,0,0,1-2.37.78L75.76,19c.73-1,1.48-1.93,2.23-2.82l5.8,2.93a1.76,1.76,0,0,1,.78,2.37" transform="translate(0 0)"/><path class="cls-7" d="M87.75,15.15a1.76,1.76,0,0,1-2.37.78l-4.93-2.49c.93-.94,1.86-1.8,2.77-2.56L87,12.78a1.76,1.76,0,0,1,.78,2.37" transform="translate(0 0)"/></g><rect class="cls-8" x="17.46" y="63.89" width="64.71" height="1.63"/><rect class="cls-8" x="17.54" y="63.89" width="64.63" height="0.57"/><rect class="cls-8" x="17.46" y="58.09" width="64.71" height="1.63"/><rect class="cls-8" x="17.54" y="58.09" width="64.63" height="0.57"/><rect class="cls-8" x="32.38" y="49.74" width="34.88" height="15.78"/><rect class="cls-8" x="32.38" y="49.71" width="34.88" height="0.79"/><rect class="cls-8" x="22.58" y="38.24" width="1.5" height="37.9"/><rect class="cls-8" x="27.09" y="38.24" width="1.5" height="37.9"/><rect class="cls-8" x="32.38" y="38.24" width="1.51" height="37.9"/><rect class="cls-8" x="65.75" y="38.24" width="1.5" height="37.9"/><rect class="cls-8" x="70.79" y="38.24" width="1.5" height="37.9"/><rect class="cls-8" x="75.31" y="38.24" width="1.5" height="37.9"/><rect class="cls-8" x="36.89" y="38.24" width="1.51" height="37.9"/><rect class="cls-8" x="41.41" y="38.24" width="1.51" height="37.9"/><rect class="cls-8" x="45.92" y="38.24" width="1.51" height="37.9"/><rect class="cls-8" x="51.2" y="38.24" width="1.51" height="37.9"/><rect class="cls-8" x="55.72" y="38.24" width="1.51" height="37.9"/><rect class="cls-8" x="61" y="38.24" width="1.51" height="37.9"/><g class="cls-2"><path class="cls-8" d="M80.25,72.58a1.16,1.16,0,0,1-1.17,1.16H20.54a1.16,1.16,0,0,1-1.16-1.16V41.22a1.16,1.16,0,0,1,1.16-1.16H79.08a1.16,1.16,0,0,1,1.17,1.16ZM12.8,37.18l2,37.38a4.08,4.08,0,0,0,4.07,4.08H80.71a4.08,4.08,0,0,0,4.07-4.08l2-37.38Z" transform="translate(0 0)"/><path class="cls-8" d="M10.17,32.33v7.89a1.16,1.16,0,0,0,1.16,1.17h77a1.16,1.16,0,0,0,1.16-1.17V32.33Z" transform="translate(0 0)"/></g><rect class="cls-8" x="10.17" y="30.95" width="79.3" height="1.39"/><g class="cls-2"><path class="cls-8" d="M49.13.57H47.35a1.18,1.18,0,0,0-.46.09,1.17,1.17,0,0,0-.7,1.07V37.18a1.16,1.16,0,0,0,1.17,1.16h2.48l0-37.77Z" transform="translate(0 0)"/><path class="cls-8" d="M52.78.66a1.19,1.19,0,0,0-.46-.1H49.83l0,37.77h2.48a1.17,1.17,0,0,0,1.17-1.17l0-35.44a1.17,1.17,0,0,0-.7-1.07" transform="translate(0 0)"/><path class="cls-8" d="M48.39,35a1.46,1.46,0,0,0,1.46,1.47V33.58A1.46,1.46,0,0,0,48.39,35" transform="translate(0 0)"/><path class="cls-8" d="M51.31,35a1.46,1.46,0,0,0-1.46-1.46v2.93A1.46,1.46,0,0,0,51.31,35" transform="translate(0 0)"/><path class="cls-8" d="M48.83,35a1.28,1.28,0,0,1,.77-1.18,1.21,1.21,0,0,0-1,1.18,1.23,1.23,0,0,0,1,1.19A1.29,1.29,0,0,1,48.83,35" transform="translate(0 0)"/></g></g></g></svg>