<svg xmlns="http://www.w3.org/2000/svg" xmlns:xlink="http://www.w3.org/1999/xlink" viewBox="0 0 109.22 109.22"><defs><style>.cls-1{fill:none;}.cls-2{fill:#fff;}.cls-3{clip-path:url(#clip-path);}.cls-4{fill:#4091cf;}.cls-5{fill:#2e70a3;}.cls-6{fill:#fff0f0;}.cls-7{fill:#fcbf33;}.cls-8{fill:#ededed;}.cls-9{fill:#3b9945;}</style><clipPath id="clip-path"><rect class="cls-1" x="5.84" y="14.9" width="96.56" height="78.64"/></clipPath></defs><g id="Layer_2" data-name="Layer 2"><g id="Reward_Points" data-name="Reward Points"><rect class="cls-2" width="109.22" height="109.22"/><g class="cls-3"><path class="cls-4" d="M78,80.22c-4.74-1.15-2.86-9.17-.75-10.51.78-.49,1.88-.19,2.71-.8.52-.38,1-1.51,1.48-2A4.52,4.52,0,0,1,87,66C96.18,70.67,83.77,85,79,81c-.24-.2-.69-.68-1-.75"/><path class="cls-4" d="M80.87,79.68c-.25,0-1.07-.34-1.14-.65-.13-.62,1.09-1.38,1.65-1.25.91.21,2.15,1.87.56,2a7.16,7.16,0,0,1-1.07-.06"/><path class="cls-4" d="M77.55,73.2c0-.85.91-1,1.57-1a2.78,2.78,0,0,1,2.25.76,1.94,1.94,0,0,1,.52,1.57,2.33,2.33,0,0,1-1.37,1.65c-.41.21-1.32.63-1.8.45-1-.39-1.13-2.83-1.17-3.41"/><path class="cls-4" d="M85.72,71.4a.8.8,0,0,1,0-1.21c.85-.73,2.43.6,1.46,1.15,0,0-1,.47-1.45.06"/><path class="cls-4" d="M26.45,64.88c0-3.22,3.08-6.16,8.13-8.37v4.2a1.76,1.76,0,1,0,3.52,0V55.19c1.12-.36,2.29-.68,3.53-1v6.5a1.76,1.76,0,1,0,3.52,0V53.49c1.14-.2,2.32-.37,3.53-.51v7.73a1.76,1.76,0,0,0,3.52,0V52.65c1.16-.08,2.33-.13,3.53-.16v8.22a1.76,1.76,0,1,0,3.52,0V52.49c1.2,0,2.37.08,3.53.16v8.06a1.76,1.76,0,1,0,3.52,0V53c1.21.14,2.39.31,3.53.51v7.22a1.76,1.76,0,1,0,3.52,0v-6.5c1.24.3,2.41.62,3.53,1v5.52a1.76,1.76,0,1,0,3.52,0v-4.2c5,2.21,8.13,5.15,8.13,8.37,0,.09,0,.17,0,.26a1.93,1.93,0,0,1,0,.24,3.33,3.33,0,0,1-3.33,3.25H29.79a3.33,3.33,0,0,1-3.33-3.25,1.93,1.93,0,0,1,0-.24c0-.09,0-.17,0-.26"/><path class="cls-4" d="M57.49,62.47a1.76,1.76,0,0,1-1.76-1.76V52.49l1.76,0,1.76,0v8.22a1.76,1.76,0,0,1-1.76,1.76"/><path class="cls-4" d="M64.54,62.47a1.76,1.76,0,0,1-1.76-1.76V52.65c1.2.08,2.38.19,3.52.33v7.73a1.76,1.76,0,0,1-1.76,1.76"/><path class="cls-4" d="M43.39,62.47a1.76,1.76,0,0,1-1.76-1.76v-6.5c1.13-.27,2.31-.51,3.52-.72v7.22a1.75,1.75,0,0,1-1.76,1.76"/><path class="cls-4" d="M50.44,62.47a1.76,1.76,0,0,1-1.76-1.76V53c1.15-.14,2.32-.25,3.52-.33v8.06a1.76,1.76,0,0,1-1.76,1.76"/><path class="cls-4" d="M36.34,62.47a1.76,1.76,0,0,1-1.76-1.76v-4.2a35.94,35.94,0,0,1,3.52-1.32v5.52a1.76,1.76,0,0,1-1.76,1.76"/><path class="cls-4" d="M71.59,62.47a1.76,1.76,0,0,1-1.76-1.76V53.49c1.22.21,2.39.45,3.52.72v6.5a1.76,1.76,0,0,1-1.76,1.76"/><path class="cls-4" d="M78.64,62.47a1.76,1.76,0,0,1-1.76-1.76V55.19a35,35,0,0,1,3.52,1.32v4.2a1.76,1.76,0,0,1-1.76,1.76"/><path class="cls-5" d="M62.19,24.72a8.26,8.26,0,0,1,3.61,2.22c1,1.17,1.46,3.11,1,3.24s-2.49-.87-3.41-2.12a8.87,8.87,0,0,1-1.21-3.34"/><path class="cls-5" d="M66.61,30.48h0a.35.35,0,0,1-.19-.45s.9-2.16,3.79-1.22a.34.34,0,0,1,.22.43.35.35,0,0,1-.44.23c-2.25-.73-2.9.76-2.92.82a.35.35,0,0,1-.45.19"/><path class="cls-5" d="M68.53,38.2a6.69,6.69,0,0,0,.6-1.16c1.17-2.92.13-6.08-2.32-7.06s-5.39.59-6.56,3.5a7.45,7.45,0,0,0-.36,1.26,7.71,7.71,0,1,0,8.64,3.46"/><path class="cls-5" d="M57.48,40.61a7.61,7.61,0,0,1,5.17-4.54A7.45,7.45,0,0,1,63,34.81a5.92,5.92,0,0,1,4-3.62,4.85,4.85,0,0,0-5.47,3.23,6.47,6.47,0,0,0-.32,1.12,6.79,6.79,0,0,0-3.74,10.65,7.58,7.58,0,0,1,0-5.58"/><path class="cls-6" d="M21.16,65.48S20.7,62,22.49,60.09c2.38-2.52,8.43-5,11.4-6.76a7.65,7.65,0,0,0,2.38-2.48s.58,3.89-2,6.15c-2.14,1.86-7.25,4.4-9.87,5.86a11,11,0,0,0-3.2,2.62"/><path class="cls-6" d="M32.76,55.08a.86.86,0,1,1,1.58.68.86.86,0,0,1-1.58-.68"/><path class="cls-6" d="M30.32,56.5a.86.86,0,0,1,1.13-.44.85.85,0,0,1,.45,1.13.86.86,0,0,1-1.58-.69"/><path class="cls-6" d="M27.89,57.77A.87.87,0,0,1,29,57.33a.86.86,0,0,1,.44,1.13.87.87,0,0,1-1.13.45.88.88,0,0,1-.45-1.14"/><path class="cls-6" d="M25.43,59.35a.86.86,0,1,1,.45,1.13.85.85,0,0,1-.45-1.13"/><path class="cls-6" d="M22.88,60.9A.86.86,0,1,1,23.33,62a.86.86,0,0,1-.45-1.13"/><path class="cls-4" d="M34.38,83.24,32.65,78.9l-6.11-6.71a32.47,32.47,0,0,1,3.26-.8c.23.07,2.77,5.15,4.18,4.34,1.07-.62-1.48-4.65-1.27-4.78l2.9-1.9s1,5,2.24,4.71.06-5.15.06-5.15l3.39-1.72-.54,7.41,1.61,5.76Z"/><path class="cls-4" d="M43.41,59.43a2.19,2.19,0,0,0-2.84-1.23,1.71,1.71,0,0,0-.4.22,2.2,2.2,0,0,0-2.69-.92,2.23,2.23,0,0,0-1,.81,4.81,4.81,0,0,0-7.28,2.56,3.49,3.49,0,0,0-5.52,3.79,3.5,3.5,0,0,0-1.18.24,3.66,3.66,0,0,0,.54,7,2.1,2.1,0,0,0,.14.65A2.18,2.18,0,0,0,26,73.73a2.13,2.13,0,0,0,.91-.7,3.51,3.51,0,0,0,2.79.09A3.45,3.45,0,0,0,31.5,71.5a3.48,3.48,0,0,0,4.34-1.92,3.51,3.51,0,0,0,4.58-1.78,3.36,3.36,0,0,0,1.52-.23,3.47,3.47,0,0,0,1-5.86,2.18,2.18,0,0,0,.43-2.28"/><path class="cls-4" d="M23.42,65.56a3,3,0,0,0-1.07.49,2.79,2.79,0,0,0-.53,3.9,2.74,2.74,0,0,0,1,.81,4.47,4.47,0,0,1,.58-5.2"/><path class="cls-4" d="M26.82,61.19a3,3,0,0,0-1.06.49,2.79,2.79,0,0,0-.53,3.9,2.66,2.66,0,0,0,1,.81,4.48,4.48,0,0,1,.57-5.2"/><path class="cls-4" d="M39.71,62a2.22,2.22,0,0,0-.87.4,2.28,2.28,0,0,0-.44,3.2,2.22,2.22,0,0,0,.83.67A3.69,3.69,0,0,1,39.71,62"/><path class="cls-4" d="M33.1,58.71a4.18,4.18,0,0,0-2.41,6.62,4.15,4.15,0,0,0,1.54,1.24,6.78,6.78,0,0,1,.87-7.86"/><path class="cls-6" d="M40.22,74.65c-2.45,1.68-4.55,1-5.78-.82s-1.12-4,1.32-5.68,6-2,7.22-.17-.31,5-2.76,6.67"/><path class="cls-7" d="M59.49,66.7c2.44,1.67,4.54,1,5.77-.82s1.13-4-1.32-5.69-6-2-7.22-.17.32,5,2.77,6.68"/><path class="cls-7" d="M76.55,26.43v-1.9h-6.9v1.9S64.83,35.76,64.83,38V66.79A1.19,1.19,0,0,0,66,68H80.17a1.2,1.2,0,0,0,1.2-1.2V38c0-2.22-4.82-11.55-4.82-11.55"/><path class="cls-7" d="M75.89,20.34v3.13h-.81V20.24h-.8v3.23h-.8V20.24h-.81v3.23h-.8V20.24h-.8v3.23h-.81V20.36A1.71,1.71,0,0,0,69.14,22v1.51h7.92V22a1.73,1.73,0,0,0-1.17-1.64"/><path class="cls-7" d="M71.07,23.47V20.24h-.2a1.74,1.74,0,0,0-.61.12v3.11Z"/></g><rect class="cls-7" x="71.87" y="20.24" width="0.81" height="3.23"/><rect class="cls-7" x="73.48" y="20.24" width="0.8" height="3.23"/><g class="cls-3"><path class="cls-7" d="M75.89,23.47V20.34a1.8,1.8,0,0,0-.57-.1h-.24v3.23Z"/></g><rect class="cls-7" x="69.14" y="23.22" width="7.92" height="1.31"/><g class="cls-3"><path class="cls-7" d="M67.84,38.33v-.46c0-2,4.13-10.07,4.51-10.81V25.48H71v.94s-4.78,9.25-4.78,11.45V65.22h1.69a1.94,1.94,0,0,1,0-.24V38.33Z"/></g><rect class="cls-7" x="64.83" y="41.46" width="16.54" height="17.3"/><g class="cls-3"><path class="cls-7" d="M77.2,25.48a.4.4,0,0,1-.4.4H69.39a.39.39,0,0,1-.39-.4.38.38,0,0,1,.39-.39H76.8a.39.39,0,0,1,.4.39"/><path class="cls-4" d="M77.46,82.14a7.62,7.62,0,0,1-7.62,7.61H52.48a7.62,7.62,0,0,1,0-15.23H69.84a7.62,7.62,0,0,1,7.62,7.62"/></g><rect class="cls-4" x="54.12" y="74.52" width="14.08" height="15.24"/><polygon class="cls-4" points="45.71 81.35 43.15 79.9 43.82 81.35 43.15 82.14 43.68 82.85 43.77 83.82 45.71 83.14 45.71 81.35"/><polygon class="cls-4" points="76.47 81.25 79.08 80 78.5 81.25 79.28 82.25 78.5 82.52 78.84 83.72 76.47 83.28 76.47 81.25"/><rect class="cls-4" x="55.09" y="74.52" width="1.02" height="15.24"/><rect class="cls-4" x="66.12" y="74.52" width="1.02" height="15.24"/><polygon class="cls-4" points="45.65 22.99 42.49 19.21 44.32 17.93 46.5 22.63 45.65 22.99"/><polygon class="cls-4" points="46.45 23.66 43.32 17.07 46.5 16.18 47.66 22.93 46.45 23.66"/><polygon class="cls-4" points="47.55 24.06 46.27 18.81 48.65 18.82 48.5 23.34 47.55 24.06"/><g class="cls-3"><path class="cls-4" d="M53.74,40.7c0-.4-.07-.81-.12-1.22l-2,1.22Z"/><path class="cls-4" d="M53.21,36.05c-.07-.49-.15-1-.22-1.49l-2.46,1.49Z"/><path class="cls-4" d="M52.44,31.42,52.17,30l-2.31,1.4Z"/><path class="cls-4" d="M51.46,27c-.13-.51-.27-1-.41-1.46L48.64,27Z"/><path class="cls-4" d="M45,29.78c.11.43.24.86.37,1.31l2.07-1.54Z"/><path class="cls-4" d="M46.58,21.54a3.09,3.09,0,0,0-2.35,2.38,8.24,8.24,0,0,0,0,1.34l2.29.11-2.16,1.17a25.74,25.74,0,0,0,.7,3.24l2.44-.23-2.07,1.54c.32,1.05.7,2.13,1.1,3.22L49,34.08l-2,1.48c.43,1.1.89,2.19,1.35,3.23l1.76-.17-1.37,1c.56,1.23,1.13,2.37,1.66,3.39l1.33-.13-1,.74c1.24,2.26,2.28,3.72,2.7,3.63.6-.14.65-2.9.34-6.57H51.61l2-1.22c-.11-1.1-.25-2.25-.41-3.43H50.53L53,34.56c-.17-1.05-.35-2.11-.55-3.14H49.86L52.17,30c-.23-1.05-.46-2.07-.71-3H48.64l2.41-1.46A18.06,18.06,0,0,0,50,22.67c-.93-1.84-3.37-1.13-3.37-1.13"/><path class="cls-4" d="M44.19,25.26c0,.41.07.83.13,1.28l2.16-1.17Z"/><path class="cls-4" d="M46.49,34.31,47,35.56l2-1.48Z"/><path class="cls-4" d="M48.32,38.79l.39.85,1.37-1Z"/><path class="cls-4" d="M50.37,43l.33.61,1-.74Z"/><path class="cls-7" d="M41.17,72.85c8.16,1.73,9,6.1,9,6.1h-27Z"/><path class="cls-7" d="M46.6,85.69a.93.93,0,1,1,.93-.93.93.93,0,0,1-.93.93m-7.16,0a2,2,0,1,1,2-2,2,2,0,0,1-2,2m-4.82,2.83A1.54,1.54,0,1,1,36.16,87a1.54,1.54,0,0,1-1.54,1.54m-6.89-3.21a2.54,2.54,0,1,1,2.54-2.54,2.54,2.54,0,0,1-2.54,2.54M50.16,79h-27v6.53a1.73,1.73,0,0,1,0,3.38v1.65H42.73a2.4,2.4,0,0,1,4.79,0h2.64Z"/><path class="cls-7" d="M45.12,88.26a2.4,2.4,0,0,0-2.39,2.25h4.79a2.41,2.41,0,0,0-2.4-2.25"/><path class="cls-7" d="M24.54,87.17a1.75,1.75,0,0,0-1.35-1.69v3.38a1.75,1.75,0,0,0,1.35-1.69"/><path class="cls-7" d="M27.73,80.23a2.54,2.54,0,1,0,2.54,2.54,2.54,2.54,0,0,0-2.54-2.54"/><path class="cls-7" d="M34.62,85.44A1.54,1.54,0,1,0,36.16,87a1.54,1.54,0,0,0-1.54-1.54"/><path class="cls-7" d="M46.6,83.83a.93.93,0,1,0,.93.93.93.93,0,0,0-.93-.93"/><path class="cls-7" d="M39.44,81.71a2,2,0,1,0,2,2,2,2,0,0,0-2-2"/><path class="cls-5" d="M32.87,19.69c1.83-2,5.19-1.34,7.76,1.46,3.24,3.54,7.27,9.9,7.1,16.29-.13,5.19-1.95,9.09-5.72,9.45-6.35.6-6.56-5.21-6.4-9.2.12-3,.06-8.75-1.25-11.45s-3.24-4.68-1.49-6.55"/><path class="cls-5" d="M32.4,17.61,29.26,14.9l-.62.85,3.54,3.18s-2-.58-3,.63c-.4.49,2.45.65,2.45.65s-1.28,1.44.05,4c.48.9,1.24-3.43,1.24-3.43s3.58,2.85,3.53,2-2.06-3.9-2.06-3.9,4.71.41,4.68.28c-.69-2.87-4.85-1.38-4.85-1.38S36.76,16.1,36.53,16a3.07,3.07,0,0,0-4.13,1.61"/><path class="cls-5" d="M37.73,40.28a6.53,6.53,0,0,0,2.83,5.17c-1.82-.07-3.37-1.88-3.52-4.2A5,5,0,0,1,37.93,38a7.39,7.39,0,0,0-.2,2.32"/><path class="cls-5" d="M34,18.26l.57-.18c3.14-.77,4.43.67,4.26.47s-.71-2-4.72-1.11a2.83,2.83,0,0,0-1.16.47l-3.73-3-.2.28,3.52,3a2.45,2.45,0,0,0-.81,1.12c-1.67,3.74,0,4.94.05,5a5.62,5.62,0,0,1,.49-4.44c0-.07.22-.38.39-.72a5.2,5.2,0,0,0,.31.63c.65.93,3.4,3.23,3.44,3a12.94,12.94,0,0,0-1.88-4.08,1.25,1.25,0,0,0-.53-.38"/><path class="cls-7" d="M7,37.81l0-.28s10.91-3.64,22.47,5c10.25,7.62,10,20.5,10,20.5l-.62.24A30.49,30.49,0,0,0,27.65,45,35.43,35.43,0,0,0,7,37.81"/><path class="cls-7" d="M25.71,47.61A57.66,57.66,0,0,0,7,38.42L7,37.81A35.41,35.41,0,0,1,27.65,45,30.49,30.49,0,0,1,38.93,63.23l-.62.23a40.6,40.6,0,0,0-12.6-15.85"/><path class="cls-7" d="M24.82,49.37c-6.25-4.64-18-9.77-18-9.77L7,38.42a57.66,57.66,0,0,1,18.76,9.19A40.74,40.74,0,0,1,38.32,63.46l-.44.17s-6.47-9.36-13.06-14.26"/><path class="cls-7" d="M7.05,37.52l-.16,2.12a1.93,1.93,0,0,1-.59-.22A1.09,1.09,0,0,1,6,37.91a1.06,1.06,0,0,1,1-.39"/></g><polygon class="cls-7" points="38.18 63.15 38.63 64.37 39.54 63.88 39.01 62.77 38.18 63.15"/><g class="cls-3"><path class="cls-7" d="M16.09,29.66l.12-.26s11.48-.34,20.08,11.23C43.91,50.87,40,63.14,40,63.14l-.66,0A30.48,30.48,0,0,0,33.77,42.5,35.37,35.37,0,0,0,16.09,29.66"/><path class="cls-7" d="M31.17,44.43A57.92,57.92,0,0,0,15.85,30.22l.24-.56A35.33,35.33,0,0,1,33.77,42.49a30.51,30.51,0,0,1,5.55,20.7l-.66.05a40.54,40.54,0,0,0-7.49-18.81"/><path class="cls-7" d="M29.8,45.86c-4.64-6.25-14.43-14.55-14.43-14.55l.48-1.09A57.92,57.92,0,0,1,31.17,44.43a40.54,40.54,0,0,1,7.49,18.81l-.47,0S34.7,52.45,29.8,45.86"/><path class="cls-7" d="M16.2,29.38l-.76,2a1.66,1.66,0,0,1-.5-.38,1.09,1.09,0,0,1,.19-1.52,1.06,1.06,0,0,1,1.07-.09"/></g><polygon class="cls-7" points="38.54 63.07 38.62 64.36 39.63 64.17 39.44 62.94 38.54 63.07"/><g class="cls-3"><path class="cls-7" d="M27.54,24.55l.18-.22S38.84,27.27,43.79,40.8c4.4,12-2.85,22.64-2.85,22.64l-.65-.14a30.52,30.52,0,0,0,.56-21.42A35.39,35.39,0,0,0,27.54,24.55"/><path class="cls-7" d="M37.8,43A57.48,57.48,0,0,0,27.15,25l.39-.47A35.39,35.39,0,0,1,40.85,41.88a30.52,30.52,0,0,1-.56,21.42l-.64-.14A40.55,40.55,0,0,0,37.8,43"/><path class="cls-7" d="M36.09,44c-2.68-7.3-9.71-18-9.71-18l.77-.91A57.48,57.48,0,0,1,37.8,43a40.55,40.55,0,0,1,1.85,20.16l-.46-.11S38.91,51.69,36.09,44"/><path class="cls-7" d="M27.73,24.32,26.43,26a1.71,1.71,0,0,1-.37-.51,1.08,1.08,0,0,1,.61-1.4,1,1,0,0,1,1.06.22"/></g><polygon class="cls-7" points="39.58 62.96 39.29 64.22 40.31 64.32 40.48 63.09 39.58 62.96"/><g class="cls-3"><path class="cls-6" d="M27.43,66.62a5.89,5.89,0,0,1,.06,3c-.66,1.37-3.33,2.55-3.72,4.56a4.52,4.52,0,0,0,2.41,5.17c.39.14.66.64,1.53.72a2.52,2.52,0,0,0,1.66-.45,2.32,2.32,0,0,0,1.95.31,2.07,2.07,0,0,0,1.22-1,3.53,3.53,0,0,0,1.89-.49,3.79,3.79,0,0,0,.73-.91c.47-.67,1.3-.78,1.47-2.85a5.1,5.1,0,0,0-1.42-3.57c-1.65-1.53-3.91-1.46-4.89-2.41a8.69,8.69,0,0,1-1-2.52Z"/><path class="cls-6" d="M28.54,75.28a19.11,19.11,0,0,1,.08-4,4.73,4.73,0,0,0-1.26,4.21c.26,1.89,1.14,3.38,2.11,3.73a18.68,18.68,0,0,1-.93-3.89"/><path class="cls-6" d="M34.35,73.68A11.87,11.87,0,0,0,33,71.18a3.47,3.47,0,0,1,2.24,2.16,3.3,3.3,0,0,1-.14,3.23,13.89,13.89,0,0,0-.77-2.89"/><path class="cls-6" d="M25.8,75.59a13.41,13.41,0,0,1,.29-3,4,4,0,0,0-1.27,3,3.31,3.31,0,0,0,1.32,3,13.64,13.64,0,0,1-.34-3"/><path class="cls-6" d="M31.76,74.28a19,19,0,0,0-1.41-3.75c1,.23,2.07,1.6,2.56,3.44s.26,3.55-.49,4.25a19,19,0,0,0-.66-3.94"/></g><rect class="cls-8" x="42.9" y="32.15" width="0.88" height="5.24" transform="translate(-6.23 9.67) rotate(-11.88)"/><g class="cls-3"><path class="cls-8" d="M42.74,34.06l-2.27-.72c0-1.12-1.11-1.94-1.84-2.24-1.61-.65-4.54.63-4.54.63s1.32,2.64,2.78,3.2,3,.31,3.45-.93l2.59.86Z"/><polyline class="cls-8" points="43.72 35.95 43.72 35.95 43.72 35.95"/><polyline class="cls-8" points="43.49 36 43.49 36 43.49 36"/><path class="cls-8" d="M46.06,35.07a18.31,18.31,0,0,1-2.56,1,11.33,11.33,0,0,1-2.51.08c-2.43-.06-5.4,2.68-4.5,7,.7,3.36,5,8.29,7.69,7.73.62-.12,1.73-1.49,2.23-1.59s2.06.69,2.68.57c2.65-.56,4.64-6.82,3.92-10.19-.92-4.35-4.75-5.67-6.95-4.63"/><path class="cls-8" d="M40.66,38.88a3.36,3.36,0,0,0-2.18,4.19,7.83,7.83,0,0,0,2.57,3.86,10.32,10.32,0,0,1-1-2.64,8,8,0,0,1,.61-5.41"/><path class="cls-8" d="M35,32h0"/><path class="cls-8" d="M39.78,33.59c1.64.54,3,.89,3,.89l-.13-.6-2.89-.69-.54-1.08.16,1-1.12-.27L38,31.48,38,32.77l-1.46-.35-.2-.94,0,.9L35,32l1.42.46-.84.55,1-.5,1.31.42-1.23.79,1.54-.68,1.24.4L38.31,34.6Z"/><path class="cls-8" d="M72.2,77.71c-2.88-1.46-4.11-5.53-3.81-11l3.76,1.89a1.76,1.76,0,0,0,1.59-3.14l-4.93-2.49c.18-1.16.42-2.36.71-3.59l5.81,2.93a1.76,1.76,0,0,0,1.59-3.14l-6.45-3.26c.34-1.11.72-2.24,1.13-3.38L78.51,56a1.76,1.76,0,0,0,1.59-3.15l-7.2-3.63c.45-1.07.93-2.14,1.45-3.22l7.34,3.71a1.76,1.76,0,0,0,1.59-3.15l-7.34-3.71c.56-1.05,1.14-2.08,1.73-3.07l7.2,3.64a1.76,1.76,0,0,0,1.59-3.15l-6.91-3.49c.68-1,1.36-2,2-2.91l6.45,3.25a1.75,1.75,0,0,0,2.36-.77A1.77,1.77,0,0,0,89.64,34L83.83,31c.82-1,1.65-1.87,2.47-2.71l4.93,2.49a1.76,1.76,0,0,0,1.59-3.14l-3.76-1.9c4.25-3.51,8.26-4.93,11.14-3.47l.22.13a1.45,1.45,0,0,1,.22.09A3.33,3.33,0,0,1,102,27l-2.91,5.76L80,70.66l-2.91,5.76a3.33,3.33,0,0,1-4.4,1.51l-.21-.12-.24-.1"/><path class="cls-8" d="M84.05,48.92a1.75,1.75,0,0,1-2.36.78L74.35,46c.25-.53.5-1.05.77-1.58s.54-1,.82-1.57l7.34,3.71a1.76,1.76,0,0,1,.77,2.37"/><path class="cls-8" d="M87.23,42.63a1.75,1.75,0,0,1-2.36.78l-7.2-3.64c.62-1,1.25-2,1.88-3l6.91,3.49a1.76,1.76,0,0,1,.77,2.37"/><path class="cls-8" d="M77.69,61.5a1.75,1.75,0,0,1-2.36.78l-5.81-2.93c.27-1.13.59-2.29,1-3.47l6.45,3.26a1.75,1.75,0,0,1,.77,2.36"/><path class="cls-8" d="M80.87,55.21a1.75,1.75,0,0,1-2.36.78L71.6,52.5c.4-1.08.83-2.18,1.3-3.29l7.2,3.63a1.76,1.76,0,0,1,.77,2.37"/><path class="cls-8" d="M74.51,67.8a1.76,1.76,0,0,1-2.36.77l-3.76-1.89a37.22,37.22,0,0,1,.42-3.74l4.93,2.49a1.76,1.76,0,0,1,.77,2.37"/><path class="cls-8" d="M90.41,36.34a1.75,1.75,0,0,1-2.36.77L81.6,33.86c.74-1,1.48-1.93,2.23-2.82L89.64,34a1.77,1.77,0,0,1,.77,2.37"/><path class="cls-8" d="M93.59,30a1.75,1.75,0,0,1-2.36.78L86.3,28.33a37.52,37.52,0,0,1,2.76-2.55l3.76,1.9A1.75,1.75,0,0,1,93.59,30"/></g><rect class="cls-9" x="23.3" y="78.79" width="64.71" height="1.63"/><rect class="cls-9" x="23.39" y="78.78" width="64.63" height="0.57"/><rect class="cls-9" x="23.3" y="72.98" width="64.71" height="1.63"/><rect class="cls-9" x="23.39" y="72.98" width="64.63" height="0.57"/><rect class="cls-9" x="38.22" y="64.64" width="34.88" height="15.78"/><rect class="cls-9" x="38.22" y="64.61" width="34.88" height="0.79"/><rect class="cls-9" x="28.42" y="53.14" width="1.5" height="37.9"/><rect class="cls-9" x="32.94" y="53.14" width="1.5" height="37.9"/><rect class="cls-9" x="38.22" y="53.14" width="1.51" height="37.9"/><rect class="cls-9" x="71.59" y="53.14" width="1.5" height="37.9"/><rect class="cls-9" x="76.64" y="53.14" width="1.5" height="37.9"/><rect class="cls-9" x="81.15" y="53.14" width="1.5" height="37.9"/><rect class="cls-9" x="42.74" y="53.14" width="1.51" height="37.9"/><rect class="cls-9" x="47.25" y="53.14" width="1.51" height="37.9"/><rect class="cls-9" x="51.77" y="53.14" width="1.51" height="37.9"/><rect class="cls-9" x="57.05" y="53.14" width="1.51" height="37.9"/><rect class="cls-9" x="61.56" y="53.14" width="1.51" height="37.9"/><rect class="cls-9" x="66.84" y="53.14" width="1.51" height="37.9"/><g class="cls-3"><path class="cls-9" d="M86.09,87.48a1.16,1.16,0,0,1-1.16,1.16H26.39a1.16,1.16,0,0,1-1.16-1.16V56.12A1.16,1.16,0,0,1,26.39,55H84.93a1.16,1.16,0,0,1,1.16,1.16ZM18.64,52.08l2.05,37.38a4.07,4.07,0,0,0,4.07,4.07H86.55a4.08,4.08,0,0,0,4.08-4.07l2.05-37.38Z"/><path class="cls-9" d="M16,47.23v7.89a1.16,1.16,0,0,0,1.16,1.16h77a1.16,1.16,0,0,0,1.16-1.16V47.23Z"/></g><rect class="cls-9" x="16.01" y="45.84" width="79.3" height="1.39"/><g class="cls-3"><path class="cls-9" d="M55,15.46H53.2a1.24,1.24,0,0,0-.47.1,1.17,1.17,0,0,0-.7,1.07l0,35.44a1.16,1.16,0,0,0,1.16,1.17h2.48V15.46Z"/><path class="cls-9" d="M58.63,15.56a1.24,1.24,0,0,0-.47-.1H55.68V53.24h2.49a1.17,1.17,0,0,0,1.16-1.17V16.62a1.17,1.17,0,0,0-.7-1.06"/><path class="cls-9" d="M54.23,49.94a1.46,1.46,0,0,0,1.46,1.46V48.48a1.46,1.46,0,0,0-1.46,1.46"/><path class="cls-9" d="M57.16,49.94a1.46,1.46,0,0,0-1.47-1.46V51.4a1.46,1.46,0,0,0,1.47-1.46"/><path class="cls-9" d="M54.67,49.94a1.29,1.29,0,0,1,.77-1.18,1.21,1.21,0,0,0,0,2.36,1.29,1.29,0,0,1-.77-1.18"/></g></g></g></svg>