<svg id="Layer_1" data-name="Layer 1" xmlns="http://www.w3.org/2000/svg" viewBox="0 0 150.34 148.67">
  <defs>
    <style>
      .cls-1 {
        fill: #e2e3e2;
      }

      .cls-2 {
        fill: #fec133;
      }

      .cls-3 {
        fill: #efeeed;
      }
    </style>
  </defs>
  <g>
    <polygon class="cls-1" points="109.96 27.39 21.94 0 10.92 10.72 79.18 57.97 76.66 61.59 104.94 35.07 107.33 35.81 109.96 27.39"/>
    <polygon class="cls-1" points="92.24 72.42 139.37 142.21 150.34 131.54 122.45 41.76 118.23 43.06 114.02 44.37 114.71 46.58 87.74 73.45 84.08 75.91 86.21 79.06 92.24 72.42"/>
    <polygon class="cls-2" points="29.71 120.06 45.19 148.67 53.42 141.55 56.99 100.33 29.71 120.06"/>
    <polygon class="cls-2" points="25.2 116.44 0 101.76 6.91 93.43 47.23 91.7 25.2 116.44"/>
    <path class="cls-3" d="M138.88,7.85C138.71,7.68,114.37,19,114.37,19l-4.67,4A556.58,556.58,0,0,0,43.9,89.5L23.58,115A18,18,0,0,0,20,123.12L19,128.57a.33.33,0,0,0,0,.1h0l.24.23a.27.27,0,0,0,.13,0l5.37-1.35a17.89,17.89,0,0,0,6.34-3L58.2,104.16a555.72,555.72,0,0,0,68.28-63.95l4.13-4.55s7.15-20.41,7-20.58l-11.92,9.3Z"/>
    <path class="cls-3" d="M146.45,5c-.16-.18-.32-.36-.49-.53l-.23-.23L145.44,4a4.24,4.24,0,0,0-3.21-.79l-3.86.59a26.76,26.76,0,0,0-13.45,6.14L114.37,19l2.22.48a17.57,17.57,0,0,1,9,4.95l0,0a17.64,17.64,0,0,1,4.63,9l.41,2.23L140,25.36a26.74,26.74,0,0,0,6.5-13.26l.69-3.84A4.29,4.29,0,0,0,146.45,5"/>
    <polygon class="cls-2" points="150.34 131.54 139.37 142.21 135.46 136.42 148.45 125.46 150.34 131.54"/>
    <path class="cls-2" d="M21.94,0l-11,10.72q2.46,1.72,4.94,3.43L28.32,2,21.94,0"/>
  </g>
</svg>
