<svg id="Layer_1" data-name="Layer 1" xmlns="http://www.w3.org/2000/svg" viewBox="0 0 150.34 148.67">
  <defs>
    <style>
      .cls-1 {
        fill: #306ea3;
      }

      .cls-2 {
        fill: #4392cf;
      }
    </style>
  </defs>
  <g>
    <path class="cls-1" d="M58.58,53.83H43A24.92,24.92,0,0,0,17.82,78.49v70.18H83.74V78.49A24.92,24.92,0,0,0,58.58,53.83"/>
    <path class="cls-1" d="M125.18,53.83H109.59A24.92,24.92,0,0,0,84.42,78.49v70.18h65.92V78.49a24.92,24.92,0,0,0-25.16-24.66"/>
    <path class="cls-2" d="M40.75,69.8H25.16A24.92,24.92,0,0,0,0,94.46v54.21H65.92V94.46A24.92,24.92,0,0,0,40.75,69.8"/>
    <path class="cls-2" d="M110.39,69.8H94.8A24.91,24.91,0,0,0,69.64,94.46v54.21h65.92V94.46A24.92,24.92,0,0,0,110.39,69.8"/>
  </g>
</svg>
