<svg xmlns="http://www.w3.org/2000/svg" viewBox="0 0 64.38 64.16"><defs><style>.cls-1{fill:#4091cf;}.cls-2{fill:#1c384a;}.cls-3{fill:#fcbf33;}</style></defs><g id="Layer_2" data-name="Layer 2"><g id="Shareholders"><path class="cls-1" d="M11.07,31.38a2.55,2.55,0,0,0-1.75-.7H2.54A2.54,2.54,0,0,0,0,33.22v28.4a2.54,2.54,0,0,0,2.54,2.54H9.32a2.56,2.56,0,0,0,2.54-2.54V33.22a2.56,2.56,0,0,0-.79-1.84"/><path class="cls-2" d="M59.43,17.7l4.11-4a2.71,2.71,0,0,0,.81-1.61,2.74,2.74,0,0,0-.43-1.87A2.69,2.69,0,0,0,62,9l-5.68-.83a2.76,2.76,0,0,1-2.07-1.5L51.73,1.53a2.74,2.74,0,0,0-4.92,0L44.27,6.68a2.74,2.74,0,0,1-2.07,1.5L36.52,9A2.74,2.74,0,0,0,35,13.69l4.11,4a2.74,2.74,0,0,1,.79,2.43l-1,5.66a2.74,2.74,0,0,0,4,2.89L48,26a2.76,2.76,0,0,1,2.56,0l4.79,2.51h0l.29.15a2.71,2.71,0,0,0,1,.31,2.75,2.75,0,0,0,3-2.63,2.19,2.19,0,0,0,0-.57l-1-5.66a2.79,2.79,0,0,1,.12-1.38,2.73,2.73,0,0,1,.67-1.05"/><path class="cls-3" d="M33.52,34.43s-.32-1-.46-1.27a3.71,3.71,0,0,1-.32-2c.2-1.57.26-3.17.3-4.68.08-2.48-.22-5.32-1.92-7.26a7.41,7.41,0,0,0-5.55-2.49,1.5,1.5,0,0,0-1.46,1.5V22.5c0,3.34-.62,7.13-2.79,9.8-2.86,3.52-5.42,3.05-9.46,3.05V59.18h2.28a3.8,3.8,0,0,1,2.38.84c1.11.87,3.26,3.14,6.58,3.14H43.76V34.43Z"/><path class="cls-3" d="M49,41.62H40.72a3.59,3.59,0,0,1,0-7.18H49a3.59,3.59,0,1,1,0,7.18"/><path class="cls-3" d="M49,56H40.72a3.59,3.59,0,1,1,0-7.18H49A3.59,3.59,0,1,1,49,56"/><path class="cls-3" d="M47,63.16H38.67a3.59,3.59,0,0,1,0-7.18H47a3.59,3.59,0,0,1,0,7.18"/><path class="cls-3" d="M50.7,48.8H42.4a3.59,3.59,0,0,1,0-7.18h8.3a3.59,3.59,0,0,1,0,7.18"/></g></g></svg>