<svg xmlns="http://www.w3.org/2000/svg" viewBox="0 0 92 92"><defs><style>.cls-1{fill:#fff;}.cls-2{fill:#4392cf;}</style></defs><g id="Layer_2" data-name="Layer 2"><g id="Travel_Transportation" data-name="Travel &amp; Transportation"><path class="cls-1" d="M46,92A46,46,0,1,0,0,46,46,46,0,0,0,46,92"/><path class="cls-2" d="M18.29,56.07s9.19,3.16,10.62,4,4.88,11.76,4.88,11.76,2.15-1,2.44-2.72-.57-6.89-.57-7.75S47.71,48.75,47.71,48.75s12.63,23,14.35,23.82,2.87.58.57-7.75-2.29-8.89-2.29-8.89l2.87-2.88s-1.15-1.43-2.3-2.58l-1.72,1.72-.86-3.44L61.06,46s.71-1.58-2.16-2.72l-1.43,1.43-1.15-4.3S70.67,28.66,70.38,22.34c0,0,0-3.15-4.59-2.29S50,33.54,50,33.54l-4.31-.86,1.15-1.44s-.29-1.15-2.3-2.29c0,0-.86-.58-3.15,2.87L38.24,31l1.15-1.44s.57-1.15-2.59-2.58a35.47,35.47,0,0,0-2.58,2.87s-14.64-4-15.78-3.73A2.08,2.08,0,0,0,17,27.51a16.48,16.48,0,0,0,2.3,2,22.47,22.47,0,0,0,2.15,1.33C22.29,31.3,23.52,32,25,33q8,4.6,16.07,9.19l.29.29L30.2,53.63s-.86,1.15-6.6.29c0,0-2.58-.58-3.73.28a5.13,5.13,0,0,0-1.58,1.87"/></g></g></svg>