<svg xmlns="http://www.w3.org/2000/svg" viewBox="0 0 92 92"><defs><style>.cls-1{fill:#fff;}.cls-2{fill:none;stroke:#252021;stroke-miterlimit:10;}.cls-3{fill:#8d8788;}.cls-4{fill:#252021;}</style></defs><g id="Layer_2" data-name="Layer 2"><g id="Utilities"><path class="cls-1" d="M46,92A46,46,0,1,0,0,46,46,46,0,0,0,46,92"/><path class="cls-2" d="M47.56,26.79s13.22-.69,21.36-10.06"/><rect class="cls-3" x="54.64" y="49.78" width="11.84" height="3.64" transform="translate(-0.06 0.07) rotate(-0.06)"/><rect class="cls-4" x="46.92" y="26.36" width="3.58" height="4.52" transform="translate(-0.03 0.05) rotate(-0.06)"/><rect class="cls-4" x="48.58" y="12.46" width="2.9" height="3.91" transform="translate(-0.02 0.07) rotate(-0.08)"/><rect class="cls-4" x="69.35" y="12.32" width="2.9" height="3.91" transform="translate(-0.01 0.07) rotate(-0.06)"/><rect class="cls-4" x="19.7" y="26.3" width="3.58" height="4.52" transform="translate(-0.03 0.02) rotate(-0.06)"/><rect class="cls-4" x="58.67" y="18.46" width="3.58" height="31.8" transform="translate(-0.04 0.07) rotate(-0.06)"/><path class="cls-3" d="M50.67,34.48l-31.38,0a2.11,2.11,0,0,1,0-4.22l31.39,0a2.11,2.11,0,0,1,0,4.21"/><rect class="cls-4" x="32.16" y="34.29" width="5.48" height="41.7" transform="translate(-0.07 0.04) rotate(-0.07)"/><path class="cls-3" d="M72.14,19.71l-23.38,0a2.11,2.11,0,0,1,0-4.21l23.38,0a2.11,2.11,0,1,1,0,4.21"/><rect class="cls-3" x="27.24" y="75.88" width="15.06" height="4.11" transform="translate(-0.09 0.04) rotate(-0.07)"/><path class="cls-2" d="M23.22,27.47s14.91-.71,24.08-10.24"/></g></g></svg>